<?xml version="1.0" encoding="UTF-8"?>
<svg width="389px" height="336px" viewBox="0 0 389 336" version="1.1" xmlns="http://www.w3.org/2000/svg" xmlns:xlink="http://www.w3.org/1999/xlink">
    <!-- Generator: Sketch 42 (36781) - http://www.bohemiancoding.com/sketch -->
    <title>scheme</title>
    <desc>Created with Sketch.</desc>
    <defs></defs>
    <g id="Homepage" stroke="none" stroke-width="1" fill="none" fill-rule="evenodd">
        <g id="Tablet-Portrait" transform="translate(-189.000000, -3451.000000)">
            <g id="our-tech-stack" transform="translate(0.000000, 3288.000000)">
                <g id="scheme" transform="translate(190.000000, 164.000000)">
                    <path d="M307.091625,171.142588 L53.1060706,258.789736" id="Line" stroke="#D48400" stroke-linecap="square" stroke-dasharray="5"></path>
                    <path d="M181.15488,68.8510868 L316.327464,167.452182" id="Line" stroke="#D48400" stroke-linecap="square" stroke-dasharray="5"></path>
                    <g id="2" transform="translate(220.736537, 83.956742)">
                        <ellipse id="Oval-4-Copy-3" stroke="#D48400" stroke-width="2" fill="#FFFFFF" cx="83.1225452" cy="83.03414" rx="83.1225452" ry="83.03414"></ellipse>
                        <g id="node-js-logo" transform="translate(37.658824, 54.693878)" fill="#1A8383">
                            <path d="M44.8834036,55.2406248 C44.5839985,55.2406248 44.2852691,55.1629858 44.023712,55.012393 L41.2851347,53.4080777 C40.8769164,53.1818539 41.0762945,53.1015377 41.2107903,53.0546866 C41.7562078,52.8672822 41.8670486,52.8244469 42.4489625,52.4964893 C42.5097897,52.4636935 42.5902168,52.4757409 42.6523958,52.5125525 L44.7563423,53.7487521 C44.8320384,53.7915874 44.9401757,53.7915874 45.0097891,53.7487521 L53.2106522,49.0623041 C53.2870242,49.0181302 53.3363618,48.931121 53.3363618,48.8414347 L53.3363618,39.4705466 C53.3363618,39.3788523 53.2870242,39.2931817 53.2086247,39.2463306 L45.0118167,34.5625598 C44.9354447,34.5190552 44.8354177,34.5190552 44.7590457,34.5625598 L36.5635895,39.2469999 C36.4838382,39.2931817 36.4331488,39.3815295 36.4331488,39.4705466 L36.4331488,48.8414347 C36.4331488,48.931121 36.4838382,49.0161223 36.5629136,49.0596269 L38.8094662,50.3446855 C40.0280385,50.9483953 40.7748618,50.236928 40.7748618,49.5234527 L40.7748618,40.2703617 C40.7748618,40.1391786 40.8809715,40.0354369 41.0127638,40.0354369 L42.0529096,40.0354369 C42.1826743,40.0354369 42.2901358,40.1391786 42.2901358,40.2703617 L42.2901358,49.5234527 C42.2901358,51.1337918 41.4047616,52.0574276 39.8617774,52.0574276 C39.3880008,52.0574276 39.0149271,52.0574276 37.9727538,51.5494279 L35.8228489,50.3232678 C35.2916244,50.019405 34.9624814,49.4511682 34.9624814,48.8414347 L34.9624814,39.4705466 C34.9624814,38.860813 35.2916244,38.2925762 35.8228489,37.990052 L44.023712,33.2975803 C44.5420952,33.0057649 45.2321464,33.0057649 45.7471504,33.2975803 L53.9466618,37.990052 C54.4778863,38.2939148 54.808381,38.860813 54.808381,39.4705466 L54.808381,48.8414347 C54.808381,49.4511682 54.4778863,50.0167278 53.9466618,50.3232678 L45.7471504,55.012393 C45.4849174,55.1629858 45.1868639,55.2406248 44.8834036,55.2406248 Z M47.4165201,48.783607 C43.8277132,48.783607 43.0761589,47.1518503 43.0761589,45.7844677 C43.0761589,45.6539539 43.1815927,45.5502122 43.3133851,45.5502122 L44.3731307,45.5502122 C44.4920817,45.5502122 44.590757,45.6345442 44.6090052,45.7489947 C44.7691836,46.8171997 45.2463395,47.3573259 47.4165201,47.3573259 C49.1440136,47.3573259 49.8793473,46.9704697 49.8793473,46.0628971 C49.8793473,45.5388341 49.671183,45.1506393 46.9859984,44.8909504 C44.7421493,44.670081 43.3546124,44.1801524 43.3546124,42.402488 C43.3546124,40.763369 44.7489078,39.7861891 47.0873771,39.7861891 C49.7151137,39.7861891 51.014789,40.6890766 51.1796984,42.626704 C51.1857811,42.6929648 51.1621261,42.757887 51.1168436,42.8074153 C51.072237,42.8542664 51.0093821,42.8823771 50.943148,42.8823771 L49.8786714,42.8823771 C49.7685065,42.8823771 49.671183,42.8040688 49.6488796,42.6989885 C49.3934052,41.573893 48.7722916,41.2138088 47.0873771,41.2138088 C45.201057,41.2138088 44.9820789,41.8657083 44.9820789,42.3529597 C44.9820789,42.9432835 45.2409326,43.1159632 47.7875662,43.4492753 C50.3078414,43.7785716 51.5047862,44.2464132 51.5047862,46.000652 C51.5047862,47.7696155 50.0151948,48.783607 47.4165201,48.783607 Z M59.2412672,38.9544483 C59.2412672,39.8158391 58.5302644,40.5199441 57.6611107,40.5199441 C56.7993916,40.5199441 56.0802785,39.8238707 56.0802785,38.9544483 C56.0802785,38.0682933 56.8169639,37.3889524 57.6611107,37.3889524 C58.5140438,37.3889524 59.2412672,38.0682933 59.2412672,38.9544483 Z M56.3357529,38.9504325 C56.3357529,39.6793016 56.9298322,40.2669482 57.6570556,40.2669482 C58.3930651,40.2669482 58.9871445,39.6665849 58.9871445,38.9504325 C58.9871445,38.220894 58.3849548,37.6419484 57.6570556,37.6419484 C56.9379425,37.6419484 56.3357529,38.2128624 56.3357529,38.9504325 Z M57.0670314,38.0763249 L57.6780072,38.0763249 C57.8868474,38.0763249 58.2970933,38.0763249 58.2970933,38.5408201 C58.2970933,38.862754 58.0882531,38.9296841 57.9618676,38.9711808 C58.2051766,38.9872441 58.2213972,39.1451992 58.2545142,39.3687458 C58.2714107,39.5092991 58.2970933,39.7495783 58.3471068,39.8319023 L57.9706538,39.8319023 C57.9618676,39.7495783 57.9037438,39.302485 57.9037438,39.2777208 C57.8787371,39.1779949 57.8449442,39.1284666 57.7199104,39.1284666 L57.4103674,39.1284666 L57.4103674,39.8319023 L57.0670314,39.8319023 L57.0670314,38.0763249 Z M57.4022571,38.8466908 L57.6780072,38.8466908 C57.9037438,38.8466908 57.945647,38.689405 57.945647,38.59838 C57.945647,38.3581008 57.7780342,38.3581008 57.6861175,38.3581008 L57.4022571,38.3581008 L57.4022571,38.8466908 Z M19.4885733,18.5722145 L19.4716768,31.9154061 C19.4716768,32.1001332 19.370974,32.2734823 19.2107956,32.363838 C19.0499413,32.4595481 18.8478597,32.4595481 18.6856538,32.363838 L13.5200697,29.434306 C13.194982,29.2442244 12.9935762,28.90355 12.9935762,28.5314185 L12.9935762,22.2982151 C12.9935762,21.9274221 12.7941981,21.5820626 12.4684344,21.3986741 L10.2691919,20.143734 C10.1096894,20.0486933 9.92585595,20.0038501 9.74675353,20.0038501 C9.56359597,20.0038501 9.38449355,20.0486933 9.22026001,20.143734 L7.02034165,21.3986741 C6.694578,21.5820626 6.4958757,21.9274221 6.4958757,22.2982151 L6.4958757,28.5314185 C6.4958757,28.90355 6.2971734,29.2415472 5.97005804,29.434306 L0.803122272,32.363838 C0.642268026,32.4595481 0.442889864,32.4595481 0.281359759,32.363838 C0.116450364,32.2734823 0.0191267864,32.1001332 0.0191267864,31.9154061 L0.000202757453,18.5722145 C0.000202757453,18.198075 0.201608494,17.8547235 0.526020419,17.6686577 L9.22026001,12.7131505 C9.36962467,12.6281493 9.53453406,12.5839754 9.70079518,12.5766131 L9.79068431,12.5766131 C9.95694543,12.5839754 10.1218548,12.6281493 10.2691919,12.7131505 L18.9634315,17.6686577 C19.289871,17.8547235 19.4885733,18.198075 19.4885733,18.5722145 Z M61.3235186,0.231282866 L66.4992405,3.0905382 C66.8324386,3.27526537 67.0378995,3.62196347 67.0378995,3.99944943 L67.0378995,28.7870247 C67.0378995,29.1591562 66.8378455,29.5011692 66.5134336,29.6885736 L57.814463,34.6621518 C57.4886993,34.8488869 57.0885913,34.8488869 56.7635035,34.6621518 L48.0658846,29.6885736 C47.7407968,29.5011692 47.5407428,29.1591562 47.5407428,28.7870247 L47.5407428,18.8425453 C47.5407428,18.4717524 47.7407968,18.1277315 48.0665605,17.9430043 L56.7641794,12.9721032 C57.0892671,12.7860375 57.4886993,12.7860375 57.8137871,12.9714339 L59.9914021,14.2129879 C60.1049463,14.2785795 60.2455248,14.2785795 60.359069,14.2129879 C60.4719373,14.148735 60.5422266,14.0275914 60.5422266,13.8990856 L60.5422266,0.685069177 C60.5422266,0.500342006 60.6409019,0.329670164 60.8017561,0.236637277 C60.9619345,0.143604391 61.1606368,0.140927185 61.3235186,0.231282866 Z M60.516544,25.5201648 L60.516544,22.1047201 C60.516544,22.0123565 60.4665304,21.9266859 60.3854275,21.8798348 L57.3988102,20.1717778 C57.3177072,20.1249267 57.2176802,20.1249267 57.1365772,20.1717778 L54.1499599,21.8798348 C54.0688569,21.9266859 54.0188434,22.0123565 54.0188434,22.1047201 L54.0188434,25.5201648 C54.0188434,25.6125284 54.0688569,25.6988683 54.1499599,25.7450501 L57.1365772,27.4497606 C57.2176802,27.4952731 57.3177072,27.4952731 57.3988102,27.4497606 L60.3854275,25.7450501 C60.4665304,25.6988683 60.516544,25.6125284 60.516544,25.5201648 Z M80.9890316,21.55007 C81.0512105,21.5145971 81.1282584,21.5145971 81.1904373,21.55007 L82.859807,22.5038244 C82.921986,22.5392974 82.9605099,22.6048889 82.9605099,22.6765042 L82.9605099,24.5853516 C82.9605099,24.6562976 82.921986,24.7225584 82.859807,24.7580314 L81.1904373,25.7117858 C81.1282584,25.7472588 81.0512105,25.7472588 80.9890316,25.7117858 L79.3210136,24.7580314 C79.2588347,24.7225584 79.2203107,24.6562976 79.2203107,24.5853516 L79.2203107,22.6765042 C79.2203107,22.6048889 79.2588347,22.5392974 79.3210136,22.5038244 L80.9890316,21.55007 Z M32.99249,12.8883736 C33.1540201,12.7953407 33.3331225,12.7504976 33.5135767,12.7504976 C33.693355,12.7504976 33.8731332,12.7953407 34.0346633,12.8883736 L42.6613171,17.8184473 C42.9843773,18.0031745 43.1824038,18.3425103 43.1824038,18.7126339 L43.1824038,28.5794743 C43.1824038,28.9489287 42.9843773,29.2889337 42.661993,29.4729916 L34.0346633,34.4070811 C33.712279,34.5924776 33.3141985,34.5924776 32.9918142,34.4070811 L24.367188,29.4729916 C24.0448036,29.2889337 23.8467772,28.9489287 23.8467772,28.5794743 L23.8467772,18.7119646 C23.8467772,18.3425103 24.0448036,18.0031745 24.3678638,17.8184473 L32.99249,12.8883736 Z M90.2860015,22.0154353 L85.0778384,25.013236 C84.9156324,25.1069382 84.7149025,25.1076075 84.5520207,25.0139053 C84.3898148,24.9215417 84.2891119,24.7495312 84.2891119,24.5641348 L84.2891119,22.1131532 C84.2891119,21.9264182 84.1890849,21.7544077 84.0262031,21.6627134 L81.3018188,20.1072571 C81.1396128,20.0142242 80.9395588,20.0142242 80.7773528,20.1072571 L78.0543202,21.6627134 C77.8914384,21.7544077 77.7914114,21.9264182 77.7914114,22.1131532 L77.7914114,25.2274124 C77.7914114,25.4141475 77.8921142,25.5861579 78.0556719,25.6798601 L86.8053319,30.6520998 C86.9695654,30.745802 87.0702683,30.919151 87.0689166,31.1065554 C87.0675649,31.2939598 86.9648344,31.4666395 86.7985733,31.5576645 L81.572162,34.4343217 C81.2518052,34.6110172 80.8611592,34.6090093 80.54283,34.4289673 L71.9019832,29.553107 C71.574192,29.3683798 71.3714346,29.0230203 71.3714346,28.6495502 L71.3714346,18.7090866 C71.3714346,18.3362858 71.5714886,17.9929342 71.8965764,17.8075377 L80.5914918,12.8366366 C80.9172554,12.6505709 81.3187152,12.6505709 81.643803,12.8379752 L90.2853256,17.8068684 C90.6097376,17.9929342 90.8084399,18.3356165 90.8084399,18.7070787 L90.8084399,21.1158942 C90.8084399,21.4866872 90.6097376,21.8300388 90.2860015,22.0154353 Z"></path>
                        </g>
                    </g>
                    <g id="3" transform="translate(0.000000, 167.913483)">
                        <ellipse id="Oval-4-Copy-4" stroke="#D48400" stroke-width="2" fill="#FFFFFF" cx="83.1225452" cy="83.03414" rx="83.1225452" ry="83.03414"></ellipse>
                        <g id="amazon-logo" transform="translate(25.105882, 58.112245)" fill="#1A8383">
                            <path d="M82.419096,37.3945247 L82.1015081,38.2453596 C82.0695504,38.3405956 82.0216139,38.4040864 81.9417198,38.4040864 C81.733995,38.4040864 81.4943126,38.1501235 81.0948418,38.1501235 C80.7592864,38.1501235 80.5036252,38.2929776 80.0562179,38.7691579 L80.0562179,43.9119054 C80.0562179,44.1658682 80.0402391,44.1658682 79.8005567,44.1658682 L77.8351606,44.1658682 C77.611457,44.1658682 77.5954782,44.1658682 77.5954782,43.9119054 L77.5954782,39.0389935 C77.5954782,37.927906 77.1161133,37.0231634 77.1161133,36.6898372 C77.1161133,36.6263465 77.148071,36.5628558 77.2599228,36.5311104 L78.7938904,36.1184208 C78.8897634,36.0866755 78.9376999,36.0708028 79.017594,36.0708028 C79.2572765,36.0708028 79.4650012,36.4834924 79.6567472,37.1660175 C80.3917733,36.4358744 80.7433076,36.0549301 81.5582279,36.0549301 C81.9343178,36.0549301 82.2878262,36.1670874 82.5238433,36.3631182 L84.6307285,36.2295296 C84.774538,36.2295296 84.8224745,36.2612749 84.8544321,36.4358744 L85.7492466,39.9596087 C85.8610984,40.4199164 86.0049078,41.1818049 86.1327385,41.9595661 C86.2605691,41.2135502 86.4203574,40.4199164 86.548188,39.9596087 L87.5228966,36.4358744 C87.5708331,36.2612749 87.6027908,36.2136569 87.6986638,36.2136569 C87.7306214,36.2136569 87.7785579,36.2295296 87.8424732,36.2295296 L89.7599328,36.3882563 C89.9356999,36.404129 89.9996152,36.4358744 89.9996152,36.5311104 C89.9996152,36.5787285 89.9996152,36.6422192 89.9676575,36.7057099 L87.20332,44.2611043 C87.1394047,44.4515764 87.1074471,44.4833218 86.8997223,44.4833218 L85.1899875,44.4833218 C84.9982416,44.4833218 84.9662839,44.4515764 84.9023686,44.2611043 L82.419096,37.3945247 Z M14.6711358,42.933332 L7.97362499,40.5338508 L7.97362499,30.7314352 L14.6711358,33.0103075 L14.6711358,42.933332 Z M15.8992095,42.933332 L15.8992095,33.0103075 L22.5967203,30.7314352 L22.5967203,40.5338508 L15.8992095,42.933332 Z M8.66181125,29.9981244 L15.4401462,28.0933208 L21.7253628,30.1169196 L15.4401462,32.2475246 L8.66181125,29.9981244 Z M0,26.8395783 L0,17.0371628 L6.6975108,19.3155817 L6.6975108,29.2386061 L0,26.8395783 Z M7.92576617,29.2387421 L7.92576617,19.3157177 L14.623277,17.0372988 L14.623277,26.8397144 L7.92576617,29.2387421 Z M0.688367889,16.3037613 L7.46670288,14.3985043 L13.7519195,16.422103 L7.46670288,18.5527081 L0.688367889,16.3037613 Z M22.325369,29.2387421 L15.6278582,26.8397144 L15.6278582,17.0372988 L22.325369,19.3157177 L22.325369,29.2387421 Z M23.5533973,29.2387421 L23.5533973,19.3157177 L30.2509081,17.0372988 L30.2509081,26.8397144 L23.5533973,29.2387421 Z M16.3160444,16.3037613 L23.0943794,14.3985043 L29.379596,16.422103 L23.0943794,18.5527081 L16.3160444,16.3037613 Z M30.2985853,15.544379 L23.6010745,13.1453512 L23.6010745,3.34293565 L30.2985853,5.62135455 L30.2985853,15.544379 Z M31.5268861,15.544379 L31.5268861,5.62135455 L38.2243969,3.34293565 L38.2243969,13.1453512 L31.5268861,15.544379 Z M31.0680952,0.704413203 L37.3528577,2.72755851 L31.0680952,4.85861698 L24.2897602,2.60921675 L31.0680952,0.704413203 Z M45.9262618,15.544379 L39.228751,13.1453512 L39.228751,3.34293565 L45.9262618,5.62135455 L45.9262618,15.544379 Z M47.1545626,15.544379 L47.1545626,5.62135455 L53.8520734,3.34293565 L53.8520734,13.1453512 L47.1545626,15.544379 Z M46.6957264,0.704413203 L52.9804889,2.72755851 L46.6957264,4.85861698 L39.9173914,2.60921675 L46.6957264,0.704413203 Z M45.6720598,30.6604874 C45.7268443,30.7421183 45.7542366,30.8509595 45.7542366,30.9325904 C45.7542366,31.0414316 45.6994521,31.1230625 45.5350984,31.1774831 L42.9876164,32.0210026 C42.850655,32.0754232 42.6863014,32.1298438 42.5767323,32.1298438 C42.2480249,32.1298438 42.056279,31.6944789 41.7001793,30.6604874 C40.6318804,31.6400583 39.6183661,32.0754232 38.3035367,32.0754232 C35.5643088,32.0754232 33.8933798,30.4428049 33.8933798,27.8578261 C33.8933798,24.3476969 36.851746,23.1504435 40.878411,23.1504435 L41.0975492,23.1504435 L41.0975492,22.3613447 C41.0975492,21.3273531 40.8236264,20.9191986 39.3992279,20.9191986 C38.5774595,20.9191986 37.4817684,21.2185119 36.166939,21.7355077 C36.0847621,21.7899283 36.0025853,21.7899283 35.9204085,21.7899283 C35.8108394,21.7899283 35.7012702,21.7355077 35.6464857,21.5450355 L34.8795019,19.3410009 C34.8247173,19.2321597 34.8247173,19.1505288 34.8247173,19.0688979 C34.8247173,18.36143 38.2761445,17.7900136 39.9196812,17.7900136 C43.3163238,17.7900136 45.0146451,19.25937 45.0146451,22.2797138 L45.0146451,27.5585127 C45.0146451,29.1095 45.3159601,29.8441782 45.6720598,30.6604874 Z M41.0975492,28.4020321 L41.0975492,25.708212 L40.8510187,25.708212 C38.5500672,25.708212 37.6735143,26.4156799 37.6735143,27.6673539 C37.6735143,28.6741352 38.3583213,29.3543928 39.2074819,29.3543928 C39.8375044,29.3543928 40.4949191,29.0278691 41.0975492,28.4020321 Z M65.8053848,31.1774831 C65.8053848,31.6400583 65.7779925,31.6944789 65.3397161,31.6944789 L62.0526426,31.6944789 C61.6417584,31.6944789 61.5869738,31.6672686 61.5869738,31.1774831 L61.5869738,22.4429756 C61.5869738,21.2729325 61.3130511,20.783147 60.6282441,20.783147 C59.9434371,20.783147 59.4229838,21.0552501 58.6286077,21.762718 L58.6286077,31.1774831 C58.6286077,31.6400583 58.6286077,31.6944789 58.2177235,31.6944789 L54.8758655,31.6944789 C54.437589,31.6944789 54.4101968,31.6400583 54.4101968,31.1774831 L54.4101968,22.5790271 C54.4101968,21.2729325 54.2184508,20.8375676 53.451467,20.8375676 C52.7940523,20.8375676 52.2462067,21.1096707 51.4518306,21.762718 L51.4518306,31.1774831 C51.4518306,31.6400583 51.4244384,31.6944789 50.9587696,31.6944789 L47.6990884,31.6944789 C47.260812,31.6944789 47.2334197,31.6400583 47.2334197,31.1774831 L47.2334197,22.2252931 C47.2334197,20.8375676 47.0416737,19.9668379 46.7129664,19.0688979 C46.6581818,18.9328464 46.6307895,18.7967948 46.6307895,18.7151639 C46.6307895,18.5791124 46.6855741,18.4974815 46.9047123,18.4430609 L49.8356862,17.7900136 C49.9452553,17.7628033 50.0548244,17.735593 50.1370012,17.735593 C50.4657086,17.735593 50.8218082,18.2525888 51.1231233,19.3410009 C52.3831681,18.3070094 53.5062516,17.7900136 55.0950037,17.7900136 C56.5194022,17.7900136 57.6424857,18.4158506 58.162939,19.5586834 C59.5051606,18.36143 60.7104209,17.7900136 62.2717808,17.7900136 C65.1205778,17.7900136 65.8053848,19.613104 65.8053848,22.4429756 L65.8053848,31.1774831 Z M78.6797559,30.6604874 C78.7345405,30.7421183 78.7619328,30.8509595 78.7619328,30.9325904 C78.7619328,31.0414316 78.7071482,31.1230625 78.5427945,31.1774831 L75.9953126,32.0210026 C75.8583512,32.0754232 75.6939975,32.1298438 75.5844284,32.1298438 C75.255721,32.1298438 75.0639751,31.6944789 74.7078755,30.6604874 C73.6395766,31.6400583 72.6260623,32.0754232 71.3112329,32.0754232 C68.572005,32.0754232 66.901076,30.4428049 66.901076,27.8578261 C66.901076,24.3476969 69.8594421,23.1504435 73.8861071,23.1504435 L74.1052453,23.1504435 L74.1052453,22.3613447 C74.1052453,21.3273531 73.8313225,20.9191986 72.406924,20.9191986 C71.5851557,20.9191986 70.4894645,21.2185119 69.1746351,21.7355077 C69.0924583,21.7899283 69.0102814,21.7899283 68.9281046,21.7899283 C68.8185355,21.7899283 68.7089664,21.7355077 68.6541818,21.5450355 L67.887198,19.3410009 C67.8324134,19.2321597 67.8324134,19.1505288 67.8324134,19.0688979 C67.8324134,18.36143 71.2838406,17.7900136 72.9273773,17.7900136 C76.3240199,17.7900136 78.0223412,19.25937 78.0223412,22.2797138 L78.0223412,27.5585127 C78.0223412,29.1095 78.3236563,29.8441782 78.6797559,30.6604874 Z M74.1052453,28.4020321 L74.1052453,25.708212 L73.8587148,25.708212 C71.5577634,25.708212 70.6812105,26.4156799 70.6812105,27.6673539 C70.6812105,28.6741352 71.3660174,29.3543928 72.2151781,29.3543928 C72.8452005,29.3543928 73.5026152,29.0278691 74.1052453,28.4020321 Z M90.568005,28.8101867 L89.9105903,31.3679553 C89.8284134,31.6672686 89.6640598,31.6944789 89.390137,31.6944789 L79.665878,31.6944789 C79.2549938,31.6944789 79.2002092,31.6400583 79.2002092,31.2319037 L79.2002092,29.0278691 L84.1034271,22.9871817 C84.6238804,22.3613447 85.1991183,21.6810871 85.5278257,21.4634046 C85.0895492,21.5450355 84.6512727,21.5450355 83.7199352,21.5450355 L80.2411158,21.5450355 C79.8028394,21.5450355 79.7480548,21.4906149 79.7480548,21.0552501 L79.7480548,18.7423742 C79.7480548,18.3342197 79.8302316,18.2525888 80.2411158,18.2525888 L89.6914521,18.2525888 C90.074944,18.2525888 90.1571208,18.3342197 90.1571208,18.7423742 L90.1571208,21.0008295 L85.2265106,27.0687272 C84.8156264,27.585723 84.3225654,28.1299291 83.9390735,28.3748218 C84.3773499,28.2931909 85.0073724,28.2387703 85.5552179,28.2387703 L90.2392976,28.2387703 C90.5132204,28.2387703 90.6227895,28.2931909 90.6227895,28.483663 C90.6227895,28.565294 90.5953973,28.6741352 90.568005,28.8101867 Z M103.058884,25.0007441 C103.058884,29.2999722 100.73054,32.1570541 96.8408369,32.1570541 C92.8141719,32.1570541 90.5406127,29.4088134 90.5406127,24.9463235 C90.5406127,20.6198852 92.8963487,17.7900136 96.8682291,17.7900136 C100.812717,17.7900136 103.058884,20.5926749 103.058884,25.0007441 Z M98.8404732,24.9735338 C98.8404732,21.8987695 98.2104508,20.8103573 96.8134446,20.8103573 C95.4164384,20.8103573 94.7590237,21.8715592 94.7590237,25.0007441 C94.7590237,28.0755085 95.4164384,29.1367103 96.8134446,29.1367103 C98.2104508,29.1367103 98.8404732,28.0482982 98.8404732,24.9735338 Z M116.125001,31.2591141 C116.125001,31.6400583 116.070217,31.6944789 115.714117,31.6944789 L112.344867,31.6944789 C111.933983,31.6944789 111.90659,31.6400583 111.90659,31.2591141 L111.90659,22.660658 C111.90659,21.4361943 111.523098,20.8647779 110.646545,20.8647779 C109.961738,20.8647779 109.386501,21.1096707 108.564732,21.7899283 L108.564732,31.2863244 C108.564732,31.6400583 108.564732,31.6944789 108.126456,31.6944789 L104.757205,31.6944789 C104.373714,31.6944789 104.346321,31.6400583 104.346321,31.2863244 L104.346321,22.2252931 C104.346321,20.8647779 104.099791,19.8579967 103.798476,19.1233185 C103.743691,19.0144773 103.716299,18.9056361 103.716299,18.8240052 C103.716299,18.6879536 103.798476,18.633533 103.990222,18.5791124 L106.784234,17.7900136 C106.921196,17.735593 107.058157,17.7083827 107.167726,17.7083827 C107.551218,17.7083827 107.879925,18.2253785 108.208633,19.3682112 C109.468677,18.2525888 110.70133,17.7900136 112.153121,17.7900136 C114.919741,17.7900136 116.125001,19.2865803 116.125001,22.2252931 L116.125001,31.2591141 Z M43.9646077,36.7374552 L41.6476775,44.0706322 C41.5837621,44.276977 41.5518045,44.276977 41.3440797,44.276977 L39.6822814,44.276977 C39.4585778,44.276977 39.4106413,44.2611043 39.3786837,44.0547595 L38.7395305,40.3564257 C38.6596364,39.896118 38.6116999,39.1818475 38.5637634,38.7215399 C38.5158269,39.2135929 38.4199539,39.896118 38.3240809,40.3564257 L37.4931818,44.0547595 C37.4452453,44.276977 37.4132877,44.276977 37.2055629,44.276977 L35.5277858,44.276977 C35.320061,44.276977 35.2881034,44.276977 35.2401669,44.0706322 L33.2268344,36.7374552 C33.2108555,36.6739645 33.1948767,36.6263465 33.1948767,36.5787285 C33.1948767,36.4834924 33.258792,36.4200017 33.450538,36.404129 L35.4478917,36.2136569 C35.5597435,36.2136569 35.5917011,36.2454022 35.6236588,36.4200017 L36.2787908,39.800882 C36.3906426,40.388171 36.4705367,41.2135502 36.5344521,41.8325847 C36.6143462,41.0230781 36.6622827,40.3246803 36.7421768,39.9278634 L37.477203,36.5628558 C37.5251395,36.356511 37.5411183,36.3247656 37.7488431,36.3247656 L39.5065143,36.3247656 C39.7142391,36.3247656 39.7461968,36.3723837 39.7941333,36.5787285 L40.4332864,39.8326273 C40.5131806,40.2453169 40.5770959,40.9754601 40.65699,41.8325847 C40.7688418,40.8960967 40.848736,40.1818262 40.944609,39.7373913 L41.6636563,36.4200017 C41.6956139,36.2612749 41.7435504,36.1977842 41.8713811,36.1977842 C41.9033387,36.1977842 41.9352964,36.2136569 41.9832329,36.2136569 L43.7568829,36.404129 C43.9326501,36.4200017 43.9965654,36.4676197 43.9965654,36.5628558 C43.9965654,36.6104738 43.9805866,36.6580919 43.9646077,36.7374552 Z M50.9199639,40.4992798 C50.9199639,40.784988 50.8240909,40.8167333 50.5684296,40.8167333 L46.2062092,40.8167333 C46.2701245,42.0389295 46.7654682,42.5786005 47.7401768,42.5786005 C48.5231395,42.5786005 49.0823985,42.3722557 49.7055729,42.0389295 C49.7694882,42.0071841 49.8334035,41.9754387 49.88134,41.9754387 C49.9612341,41.9754387 50.0251494,42.0230568 50.0890648,42.1341655 L50.632345,43.2135076 C50.6643026,43.2611256 50.6802814,43.3087436 50.6802814,43.3563617 C50.6802814,43.9436507 48.3633512,44.4357037 47.6123462,44.4357037 C45.1196488,44.4357037 43.8413425,42.9277994 43.8413425,40.3088076 C43.8413425,37.8009246 45.2474795,36.0549301 47.5324521,36.0549301 C49.8493823,36.0549301 50.9199639,37.5945798 50.9199639,40.4992798 Z M48.5071606,39.2135929 C48.4592242,38.0390148 48.1556264,37.6580705 47.4365791,37.6580705 C46.6855741,37.6580705 46.3819763,38.0548875 46.222188,39.2135929 L48.5071606,39.2135929 Z M58.9938381,39.9754814 C58.9938381,42.7531999 57.60368,44.4357037 55.5903474,44.4357037 C54.9671731,44.4357037 54.5677024,44.2452316 54.040401,43.8007966 C53.8166974,44.3087223 53.7208244,44.372213 53.5450573,44.372213 C53.481142,44.372213 53.4651631,44.3563403 53.3373325,44.3404677 L51.7554284,44.0865048 C51.6435766,44.0706322 51.5796613,44.0071414 51.5796613,43.9277781 C51.5796613,43.88016 51.5956401,43.832542 51.6275978,43.7690513 C51.8353225,43.2769983 51.9471743,42.9119267 51.9471743,42.0548021 L51.9471743,33.2930843 C51.9471743,33.0867395 51.9471743,33.0232488 52.170878,32.9915034 L54.1043163,32.6899225 C54.1522528,32.6899225 54.2161681,32.6740499 54.2481258,32.6740499 C54.3759564,32.6740499 54.4079141,32.7375406 54.4079141,32.9438854 L54.4079141,36.6263465 C55.0151096,36.2295296 55.542411,36.0549301 56.1336276,36.0549301 C58.0191295,36.0549301 58.9938381,37.5469618 58.9938381,39.9754814 Z M56.6129925,40.0865902 C56.6129925,38.5151951 56.1496065,37.7533066 55.4944745,37.7533066 C55.1748979,37.7533066 54.8713001,37.8644153 54.4079141,38.1977416 L54.4079141,42.4357464 C54.6475965,42.5944732 54.9511943,42.6897092 55.1908767,42.6897092 C56.0217758,42.6897092 56.6129925,41.7690939 56.6129925,40.0865902 Z M68.8299489,41.8802027 C68.8299489,43.5150884 67.6155579,44.4357037 65.9058232,44.4357037 C64.7553474,44.4357037 62.6621208,43.9277781 62.6621208,43.4833431 C62.6621208,43.4198524 62.6780996,43.3563617 62.7100573,43.2611256 L63.109528,41.9595661 C63.1414857,41.86433 63.1894222,41.816712 63.2693163,41.816712 C63.3172528,41.816712 63.3811681,41.8325847 63.4291046,41.86433 C64.0842366,42.1817836 65.1068817,42.5786005 65.7140772,42.5786005 C66.1934421,42.5786005 66.4970399,42.3722557 66.4970399,41.9595661 C66.4970399,41.5468765 66.1455056,41.419895 65.26667,41.0865688 C63.6048717,40.4357891 62.9337609,40.0072268 62.9337609,38.5945585 C62.9337609,37.0231634 64.2440249,36.0549301 65.9857173,36.0549301 C67.04032,36.0549301 68.6222242,36.4676197 68.6222242,36.8168186 C68.6222242,36.8644367 68.6062453,36.9279274 68.5742877,36.9914181 L68.078944,38.2136142 C68.0310075,38.3088503 67.9990498,38.3564683 67.9351345,38.3564683 C67.9031768,38.3564683 67.8552403,38.3405956 67.791325,38.324723 C67.2480448,38.1025055 66.5929128,37.8485427 66.1135479,37.8485427 C65.6022254,37.8485427 65.2347123,38.0231421 65.2347123,38.4517044 C65.2347123,38.864394 65.5383101,38.9755027 66.2893151,39.2612109 C68.1907958,39.9913541 68.8299489,40.5151524 68.8299489,41.8802027 Z M76.4084795,40.4992798 C76.4084795,40.784988 76.3126065,40.8167333 76.0569452,40.8167333 L71.6947248,40.8167333 C71.7586401,42.0389295 72.2539838,42.5786005 73.2286924,42.5786005 C74.011655,42.5786005 74.5709141,42.3722557 75.1940884,42.0389295 C75.2580037,42.0071841 75.3219191,41.9754387 75.3698555,41.9754387 C75.4497497,41.9754387 75.513665,42.0230568 75.5775803,42.1341655 L76.1208605,43.2135076 C76.1528182,43.2611256 76.168797,43.3087436 76.168797,43.3563617 C76.168797,43.9436507 73.8518667,44.4357037 73.1008618,44.4357037 C70.6081644,44.4357037 69.329858,42.9277994 69.329858,40.3088076 C69.329858,37.8009246 70.735995,36.0549301 73.0209676,36.0549301 C75.3378979,36.0549301 76.4084795,37.5945798 76.4084795,40.4992798 Z M73.9956762,39.2135929 C73.9477397,38.0390148 73.644142,37.6580705 72.9250946,37.6580705 C72.1740897,37.6580705 71.8704919,38.0548875 71.7107036,39.2135929 L73.9956762,39.2135929 Z M94.0148667,33.848628 C93.9988879,34.6581345 93.3757136,35.3565323 92.496878,35.3565323 C91.65,35.3565323 91.0108468,34.6581345 91.0108468,33.848628 C91.0108468,33.0549941 91.65,32.3565963 92.5128568,32.3565963 C93.3597347,32.3565963 94.0148667,33.0549941 94.0148667,33.848628 Z M93.807142,43.9277781 C93.807142,44.1658682 93.7911631,44.1658682 93.5514807,44.1658682 L91.6180423,44.1658682 C91.3943387,44.1658682 91.3464022,44.1499955 91.3464022,43.9277781 L91.3464022,38.1977416 L90.3237572,38.1977416 C90.1160324,38.1977416 90.0680959,38.1501235 90.0680959,37.9437787 L90.0680959,36.5787285 C90.0680959,36.356511 90.1160324,36.3247656 90.3237572,36.3247656 L93.5514807,36.3247656 C93.7751843,36.3247656 93.807142,36.356511 93.807142,36.5787285 L93.807142,43.9277781 Z M101.114032,37.2295082 L100.538795,38.4358317 C100.490858,38.5310678 100.4589,38.5628131 100.394985,38.5628131 C100.347049,38.5628131 100.267154,38.5310678 100.203239,38.4834497 C99.6280012,38.1025055 99.2445093,37.9120334 98.7331868,37.9120334 C97.87033,37.9120334 97.2950922,38.5786858 97.2950922,40.292935 C97.2950922,41.9436934 97.8543512,42.5627278 98.7491656,42.5627278 C99.2285305,42.5627278 99.6439801,42.3722557 100.075408,42.1024202 C100.155303,42.0389295 100.235197,42.0230568 100.283133,42.0230568 C100.347049,42.0230568 100.410964,42.0706748 100.4589,42.1817836 L100.954244,43.2611256 C100.986202,43.3246163 101.002181,43.3722344 101.002181,43.4198524 C101.002181,43.8484147 99.3883188,44.4357037 98.4615467,44.4357037 C96.09668,44.4357037 94.8343524,42.896054 94.8343524,40.388171 C94.8343524,37.7533066 96.2564682,36.0549301 98.717208,36.0549301 C99.468213,36.0549301 101.161969,36.4834924 101.161969,37.0390361 C101.161969,37.0866541 101.14599,37.1501449 101.114032,37.2295082 Z M108.341029,40.4992798 C108.341029,40.784988 108.245156,40.8167333 107.989494,40.8167333 L103.627274,40.8167333 C103.691189,42.0389295 104.186533,42.5786005 105.161242,42.5786005 C105.944204,42.5786005 106.503463,42.3722557 107.126638,42.0389295 C107.190553,42.0071841 107.254468,41.9754387 107.302405,41.9754387 C107.382299,41.9754387 107.446214,42.0230568 107.51013,42.1341655 L108.05341,43.2135076 C108.085367,43.2611256 108.101346,43.3087436 108.101346,43.3563617 C108.101346,43.9436507 105.784416,44.4357037 105.033411,44.4357037 C102.540714,44.4357037 101.262407,42.9277994 101.262407,40.3088076 C101.262407,37.8009246 102.668544,36.0549301 104.953517,36.0549301 C107.270447,36.0549301 108.341029,37.5945798 108.341029,40.4992798 Z M105.928225,39.2135929 C105.880289,38.0390148 105.576691,37.6580705 104.857644,37.6580705 C104.106639,37.6580705 103.803041,38.0548875 103.643253,39.2135929 L105.928225,39.2135929 Z M114.864956,41.8802027 C114.864956,43.5150884 113.650565,44.4357037 111.940831,44.4357037 C110.790355,44.4357037 108.697128,43.9277781 108.697128,43.4833431 C108.697128,43.4198524 108.713107,43.3563617 108.745065,43.2611256 L109.144535,41.9595661 C109.176493,41.86433 109.22443,41.816712 109.304324,41.816712 C109.35226,41.816712 109.416176,41.8325847 109.464112,41.86433 C110.119244,42.1817836 111.141889,42.5786005 111.749085,42.5786005 C112.22845,42.5786005 112.532047,42.3722557 112.532047,41.9595661 C112.532047,41.5468765 112.180513,41.419895 111.301677,41.0865688 C109.639879,40.4357891 108.968768,40.0072268 108.968768,38.5945585 C108.968768,37.0231634 110.279032,36.0549301 112.020725,36.0549301 C113.075328,36.0549301 114.657232,36.4676197 114.657232,36.8168186 C114.657232,36.8644367 114.641253,36.9279274 114.609295,36.9914181 L114.113951,38.2136142 C114.066015,38.3088503 114.034057,38.3564683 113.970142,38.3564683 C113.938184,38.3564683 113.890248,38.3405956 113.826333,38.324723 C113.283052,38.1025055 112.62792,37.8485427 112.148555,37.8485427 C111.637233,37.8485427 111.26972,38.0231421 111.26972,38.4517044 C111.26972,38.864394 111.573318,38.9755027 112.324323,39.2612109 C114.225803,39.9913541 114.864956,40.5151524 114.864956,41.8802027 Z"></path>
                        </g>
                    </g>
                    <g id="1" transform="translate(84.046129, 0.000000)">
                        <ellipse id="Oval-4-Copy-2" stroke="#D48400" stroke-width="2" fill="#FFFFFF" cx="35.9604349" cy="35.922189" rx="35.9604349" ry="35.922189"></ellipse>
                        <g id="android-logo" transform="translate(21.682353, 18.231293)" fill="#1A8383">
                            <path d="M2.06200629,11.5701578 C3.20055447,11.5701578 4.12358991,12.5134003 4.12400793,13.6771774 L4.12400793,17.2611381 L4.12400793,18.9466018 L4.12400793,22.5306099 C4.12358991,23.6942921 3.20055447,24.6376295 2.06200629,24.6376295 C0.923458113,24.6376295 0.000422665052,23.6942921 4.64467092e-06,22.5306099 L4.64467092e-06,18.9466018 L4.64467092e-06,17.2611381 L4.64467092e-06,13.6771774 C0.000422665052,12.5134003 0.923458113,11.5701578 2.06200629,11.5701578 Z M28.3867887,13.6771727 L28.3867887,17.2611333 L28.3867887,18.9465971 L28.3867887,22.5306052 C28.3864171,23.6942873 27.4632888,24.6376248 26.324787,24.6376248 C25.1862389,24.6376248 24.2632963,23.6942873 24.2629247,22.5306052 L24.2628318,22.5306052 L24.2628318,18.9465971 L24.2628318,17.2611333 L24.2628318,13.6771727 L24.2629247,13.6771727 C24.2632963,12.5133956 25.1862389,11.5701531 26.324787,11.5701531 C27.4632888,11.5701531 28.3864171,12.5133956 28.3867887,13.6771727 Z M4.96531111,11.9382014 L23.4903023,11.9382014 L23.5239297,11.9382014 L23.5239297,25.8328322 C23.5239297,26.9921464 22.5961103,27.940659 21.4619745,27.940659 L19.7242174,27.940659 L19.7242174,29.1992968 L19.7242174,32.7833999 C19.7237529,33.947082 18.8007174,34.8904195 17.6622157,34.8904195 C16.5236675,34.8904195 15.6006785,33.947082 15.6001676,32.7833999 L15.6001676,29.1992968 L15.6001676,27.940659 L12.7866118,27.940659 L12.7866118,29.1992968 L12.7866118,32.7833999 C12.7861938,33.947082 11.8631583,34.8904195 10.7246101,34.8904195 C9.58606195,34.8904195 8.6630265,33.947082 8.66265493,32.7833999 L8.66265493,29.1992968 L8.66265493,27.940659 L6.92485131,27.940659 C5.79076202,27.940659 4.86284967,26.9921464 4.86284967,25.8328322 L4.86284967,11.9382014 L4.96531111,11.9382014 Z M23.5068002,11.2005095 L4.88603587,11.2005095 C4.88250592,11.1045093 4.88004424,11.0082717 4.88004424,10.9115118 C4.88004424,10.2653383 4.95974679,9.63620924 5.109909,9.03143636 C5.68868144,6.70060616 7.32067946,4.73359875 9.52638722,3.56569106 L8.09541056,0.867097419 C8.00720826,0.700782503 8.06758898,0.492876988 8.23029181,0.402764025 C8.39299463,0.312508628 8.59633832,0.374372269 8.68454062,0.540639708 L10.1324239,3.27109099 C11.3644228,2.72523812 12.7482096,2.41891102 14.2105843,2.41891102 C15.6620439,2.41891102 17.0357518,2.72096511 18.2607837,3.25917405 L19.7023502,0.540639708 C19.7905061,0.374372269 19.9938033,0.312508628 20.1565526,0.402764025 C20.319209,0.492876988 20.3796362,0.700782503 20.2914339,0.867097419 L18.8679351,3.55140023 C21.1819102,4.76726054 22.868994,6.86098635 23.3795362,9.33273081 C23.437223,9.61209049 23.4798611,9.89619796 23.5068002,10.1844835 L23.5068002,11.2005095 Z M9.94909872,6.03643849 C9.46512401,6.03643849 9.07274221,6.43748391 9.07274221,6.9322506 C9.07274221,7.42696982 9.46512401,7.82801524 9.94909872,7.82801524 C10.4330734,7.82801524 10.8254552,7.42696982 10.8254552,6.9322506 C10.8254552,6.43748391 10.4330734,6.03643849 9.94909872,6.03643849 Z M18.4377457,6.03643849 C17.953771,6.03643849 17.5614356,6.43748391 17.5614356,6.9322506 C17.5614356,7.42696982 17.953771,7.82801524 18.4377457,7.82801524 C18.9217204,7.82801524 19.3140558,7.42696982 19.3140558,6.9322506 C19.3140558,6.43748391 18.9217204,6.03643849 18.4377457,6.03643849 Z"></path>
                        </g>
                        <ellipse id="Oval-4" stroke="#D48400" stroke-width="2" fill="#FFFFFF" cx="101.887899" cy="35.922189" rx="35.9604349" ry="35.922189"></ellipse>
                        <g id="ios-logo" transform="translate(89.412694, 19.370748)" fill="#1A8383">
                            <path d="M20.263273,16.1514022 C20.2820755,18.0432363 20.9309729,19.6349979 22.207876,20.9229309 C22.7878307,21.5067994 23.4371459,21.960873 24.1541504,22.2826476 C24.0760153,22.5247089 23.998298,22.76051 23.9205808,22.9917202 C23.8428635,23.2229305 23.7563717,23.4503846 23.6602697,23.6703265 C23.4459205,24.2149644 23.2098438,24.7270492 22.9474436,25.2099198 C22.6854612,25.6944597 22.4193004,26.1460292 22.1489613,26.5688017 C21.760375,27.1522529 21.4077224,27.6568255 21.0880788,28.078346 C20.7696887,28.5011186 20.4734439,28.8333268 20.2026869,29.0762228 C19.4284391,29.8195179 18.5948587,30.2130761 17.704035,30.2518894 C17.1052777,30.2518894 16.3293585,30.0511455 15.3808736,29.6467362 C14.5289085,29.2673677 13.7053562,29.0762228 12.9110522,29.0762228 C12.0586693,29.0762228 11.2067042,29.2661157 10.3547391,29.6467362 C9.44344143,30.0511455 8.70930573,30.2610711 8.14815363,30.2823558 C7.27446111,30.3224211 6.42374951,29.9184291 5.59016913,29.0745534 C5.01021446,28.5294982 4.33081512,27.6643377 3.55656728,26.4765681 C2.6857996,25.1681851 1.96879513,23.6490418 1.40764302,21.9174689 C0.807214449,20.1066001 0.507626914,18.2948966 0.507626914,16.4831931 C0.507626914,14.4707456 0.913762317,12.7395901 1.72854013,11.2888917 C2.3674095,10.1228241 3.21937461,9.20132181 4.28485329,8.52688898 C5.34866063,7.85287351 6.50146678,7.50480607 7.74076472,7.48602545 C8.47740743,7.48602545 9.36864901,7.70638469 10.4136538,8.14918991 C11.4599121,8.59324716 12.1668885,8.81318906 12.5350009,8.81318906 C12.709238,8.81318906 13.4939318,8.5527645 14.8899177,8.02982865 C16.1868769,7.54528873 17.2519377,7.3453795 18.0855181,7.42592748 C20.4287355,7.64753876 22.2007728,8.64374616 23.4012121,10.4145497 C21.2706726,11.783448 20.2244143,13.6957321 20.263273,16.1514022 Z M16.6014943,4.97881308 C15.3433938,6.54887266 13.9098027,7.25335447 12.3019745,7.09225852 C12.2835898,6.99167788 12.2731439,6.89527071 12.2731439,6.80345436 L12.2731439,6.51840633 C12.2731439,5.06812535 12.7958552,3.71091276 13.8421135,2.44134304 C14.3644069,1.79862859 15.0283464,1.26525907 15.8314248,0.842486513 C16.6361746,0.420131304 17.3945447,0.188503693 18.1128027,0.14802103 C18.1316053,0.248601668 18.1416333,0.349599653 18.1416333,0.450180291 L18.1416333,0.752339552 C18.1416333,2.26146647 17.62895,3.67209948 16.6014943,4.97881308 Z"></path>
                        </g>
                        <ellipse id="Oval-4-Copy" stroke="#D48400" stroke-width="2" fill="#FFFFFF" cx="68.9241669" cy="86.8119568" rx="35.9604349" ry="35.922189"></ellipse>
                        <g id="angular-logo" transform="translate(53.504908, 71.399972)" fill="#1A8383">
                            <path d="M14.9088733,15.9427816 L11.895369,15.9427816 L14.9088733,8.92964559 L14.9088733,15.9427816 Z M14.9088733,0.594561597 L14.9088733,1.71573225 L14.9088733,1.71624385 L4.69278476,24.0148267 L8.50291167,23.9455049 L10.5513698,18.9185266 L14.9088733,18.9185266 L14.9088733,31.4519509 L2.51553214,24.7074047 L0.278053755,5.7113256 L14.9088733,0.594561597 Z M18.3869372,15.9482813 L15.0747809,15.9482813 L14.9090949,15.9427816 L14.9090949,8.92926189 L14.9363399,8.86569563 L18.3869372,15.9482813 Z M14.9091079,1.71573225 L14.9091079,0.595201097 L29.9291788,5.62077246 L27.4966837,24.6168516 L14.9091079,31.4519509 L14.9091079,18.9185266 L14.9188848,18.9140502 L19.7074849,18.9185266 L21.9501776,24.0155941 L25.5957917,24.0819741 L14.9093687,1.71662755 L14.9091079,1.71573225 Z"></path>
                        </g>
                    </g>
                </g>
            </g>
        </g>
    </g>
</svg>