<?xml version="1.0" encoding="UTF-8"?>
<svg width="30px" height="29px" viewBox="0 0 30 29" version="1.1" xmlns="http://www.w3.org/2000/svg" xmlns:xlink="http://www.w3.org/1999/xlink">
    <!-- Generator: Sketch 42 (36781) - http://www.bohemiancoding.com/sketch -->
    <title>ico network</title>
    <desc>Created with Sketch.</desc>
    <defs></defs>
    <g id="Homepage" stroke="none" stroke-width="1" fill="none" fill-rule="evenodd">
        <g id="Mobile-Portrait" transform="translate(-38.000000, -1359.000000)" fill="#017676">
            <g id="how-it-works-with-us" transform="translate(0.000000, 1011.000000)">
                <g id="4" transform="translate(24.000000, 334.000000)">
                    <g id="ico-network" transform="translate(14.000000, 14.000000)">
                        <path d="M14.562164,14.8641384 C14.303876,14.8641384 14.0944627,15.0709946 14.0944627,15.3261288 L14.0944627,19.3908363 L10.5611547,21.7175934 C10.3462459,21.8591358 10.288134,22.1459741 10.431426,22.3582587 C10.5215755,22.4918317 10.6698368,22.5640177 10.8210212,22.5640177 C10.9101768,22.5640177 11.0002678,22.538897 11.0800108,22.4864033 L14.5622225,20.1933137 L18.0444342,22.4864033 C18.1241772,22.538897 18.2142682,22.5640177 18.3034238,22.5640177 C18.4545497,22.5640177 18.6028695,22.4917739 18.693019,22.3582587 C18.8363109,22.1459741 18.7782575,21.859078 18.5632903,21.7175934 L15.0299238,19.3907785 L15.0299238,15.3260711 C15.0298653,15.0709946 14.8205105,14.8641384 14.562164,14.8641384 Z" id="Shape"></path>
                        <path d="M9.55770152,13.3978385 L14.5514654,13.3973187 C14.5550901,13.3973765 14.5585393,13.3978385 14.562164,13.3978385 C14.5657887,13.3978385 14.5692965,13.3973765 14.5729212,13.3973187 L19.566685,13.3967412 C20.1614841,13.3967412 20.6453796,12.9524219 20.6453796,12.4062915 L20.6453796,11.9073418 C20.6453796,11.0049012 20.0649623,9.93071566 18.9556917,9.623723 C18.952827,9.62291452 18.9499624,9.62222154 18.9470977,9.62141305 L17.2043257,9.1743218 C17.056649,9.13135669 16.939899,9.05582125 16.9147601,9.01632106 L16.9135324,8.07998193 C16.9149939,8.07824946 16.916514,8.07669024 16.9179755,8.07501553 C17.5155224,7.36949837 17.8446088,6.45545027 17.8446088,5.50115125 L17.8446088,4.80371892 C18.4407526,2.88536134 18.0206399,1.22213798 17.8050295,0.738029739 C17.8042695,0.736355024 17.8033341,0.734853555 17.8025741,0.73317884 C17.7985987,0.724516519 17.7941555,0.716085193 17.7896539,0.707711616 C17.7867307,0.70222548 17.7838661,0.696681594 17.7807675,0.691368704 C17.7766167,0.68432335 17.7720566,0.677624488 17.767555,0.670867878 C17.7634041,0.664573258 17.7593117,0.65822089 17.7548686,0.652157265 C17.7511854,0.647190868 17.7472684,0.642513214 17.7434099,0.637720063 C17.7375636,0.630443714 17.7317174,0.623109616 17.7254619,0.616179759 C17.7226557,0.613061323 17.7195571,0.610173883 17.716634,0.607113196 C17.7090339,0.599143861 17.7013752,0.591290024 17.6932489,0.583955925 C17.6909689,0.581876968 17.6885135,0.580029006 17.686175,0.577950049 C17.6772302,0.570153961 17.66811,0.562531118 17.658639,0.555428015 C17.6561836,0.553580053 17.6535528,0.551963087 17.6510389,0.550230623 C17.6415095,0.543416263 17.6318631,0.536775151 17.621866,0.530711526 C17.6183583,0.52857482 17.6146751,0.526784607 17.6111089,0.52470565 C17.6019303,0.519450509 17.5926932,0.514253116 17.5831637,0.509633212 C17.5781359,0.507207762 17.5729328,0.505128805 17.5678465,0.502876602 C17.5594279,0.499180678 17.5510677,0.495369257 17.5424737,0.492135324 C17.5362767,0.489825372 17.5299043,0.48797741 17.5235903,0.485898453 C17.5156978,0.483299757 17.5078638,0.480585563 17.4998544,0.478448857 C17.4933066,0.476658644 17.4865834,0.47538817 17.4799187,0.473886701 C17.4717339,0.472038739 17.4636661,0.470133029 17.4553644,0.468747057 C17.4492258,0.467707579 17.4429703,0.467130091 17.4367148,0.466321608 C17.4275946,0.465166631 17.4185329,0.463953907 17.4093542,0.46331867 C17.4039757,0.462972177 17.3984802,0.462972177 17.3930432,0.462741182 C17.3828707,0.462394689 17.3726981,0.462163694 17.3624087,0.462452438 C17.3574979,0.462625684 17.3525285,0.463087674 17.3476177,0.463434167 C17.3369775,0.464069404 17.3263373,0.464877887 17.315697,0.466263859 C17.3140601,0.466494854 17.3124231,0.466494854 17.3107862,0.466725849 C16.8600975,0.530365033 16.3102562,0.400314722 15.7282019,0.262641569 C14.6986159,0.0191148548 13.537372,-0.25484548 12.5200632,0.46961329 C11.5363119,0.553118063 10.8388523,1.36968618 10.8388523,2.47338136 C10.8388523,3.27597426 11.2158781,4.70947287 11.3023443,5.02755329 L11.3023443,5.41337306 C11.3023443,6.40948222 11.651308,7.33022918 12.2106788,8.01703573 L12.209451,9.01730279 C12.1843121,9.05680298 12.0676206,9.13233842 11.9198855,9.17530353 L10.1771134,9.62239478 C10.1742488,9.62314552 10.1713841,9.62389625 10.1685194,9.62470473 C9.05924885,9.93169739 8.47883152,11.0058829 8.47883152,11.9083235 L8.47883152,12.4072732 C8.47894845,12.9535769 8.96284392,13.3978385 9.55770152,13.3978385 Z M12.2378639,5.25566108 C12.2378639,4.79650032 12.4345908,4.12493946 12.5816244,3.70013924 C14.7007205,3.74818625 16.2996744,4.2508896 16.9093815,4.47374224 L16.9093815,4.7299737 L16.9093815,4.73465135 L16.9093815,5.50103575 C16.9093815,6.31546716 16.599354,7.06158173 16.1156924,7.57791381 C16.1144062,7.57918428 16.1131785,7.58057025 16.1118923,7.58184073 C15.6961059,8.02390783 15.1528708,8.2965977 14.5674257,8.2965977 C13.3264387,8.2965977 12.2379224,6.94926031 12.2379224,5.41331532 L12.2379224,5.25566108 L12.2378639,5.25566108 Z M13.1452044,8.82569226 C13.5778866,9.2170098 14.0612559,9.43931261 14.5673672,9.43931261 C15.0641829,9.43931261 15.5436352,9.24194934 15.9792405,8.86839449 L15.9794744,9.13142591 C15.9794744,9.48730777 16.063076,9.78568516 16.1928631,10.0296979 L14.5642102,11.5047193 L12.9422805,10.011397 C13.0659291,9.77133146 13.1449706,9.47968237 13.1449706,9.13402751 L13.1452044,8.82569226 Z M19.7100355,12.1512784 L19.7100355,12.7181432 C19.7100355,12.7325773 19.6622715,12.7936596 19.566685,12.7936596 L15.0298653,12.7942501 L15.0298653,11.5199851 L17.1507739,10.1152231 L18.7072838,10.5689118 C19.3656319,10.7783369 19.7100355,11.5228063 19.7100355,12.1512784 Z M12.6877926,1.39084195 C12.6912419,1.39084195 12.6945158,1.39043351 12.6979651,1.39031681 C12.7097745,1.39008341 12.7216424,1.38967497 12.7334519,1.38856634 C12.7394151,1.38798285 12.7452029,1.38687422 12.7511076,1.38611569 C12.7604032,1.38489036 12.7696403,1.38366503 12.7788774,1.38191457 C12.785776,1.38057254 12.7924407,1.37870538 12.7991639,1.37707161 C12.8072318,1.37508775 12.8152996,1.37327893 12.8232506,1.37088662 C12.8304999,1.36866937 12.837457,1.36604367 12.844531,1.36353466 C12.8518388,1.36096731 12.8591466,1.35857501 12.8663375,1.35559921 C12.8737623,1.35250672 12.8809532,1.34894744 12.8881441,1.34550485 C12.8946919,1.34241236 12.9012397,1.33949492 12.9076706,1.33611068 C12.91568,1.33185121 12.9233386,1.3270666 12.9309972,1.32234034 C12.9363173,1.3190728 12.9418128,1.31615535 12.947016,1.31259607 C12.9564285,1.30629439 12.9654318,1.29940922 12.9743765,1.2924657 C12.9774751,1.2900734 12.9806905,1.28808953 12.9837306,1.28558053 C13.6718946,0.724380799 14.5649702,0.937762731 15.5104869,1.16374802 C16.0194629,1.28534714 16.5420606,1.40998039 17.0495165,1.4117892 C17.1714697,1.86148419 17.2913766,2.65835513 17.1625833,3.6075167 C16.401341,3.33076787 14.6151897,2.79121558 12.2560458,2.79121558 C12.2548181,2.79121558 12.2536488,2.79139062 12.2524211,2.79139062 C12.2418978,2.79144897 12.2314915,2.79220751 12.2210266,2.79296604 C12.2156481,2.79337449 12.2102111,2.79354953 12.204891,2.79413302 C12.1963554,2.7950666 12.1879952,2.79658368 12.1795766,2.79798405 C12.1724442,2.79915103 12.1652533,2.80008461 12.1582377,2.80160168 C12.1525669,2.80282701 12.1470714,2.80446078 12.1415174,2.80586115 C12.1321049,2.80825346 12.122634,2.81052906 12.1134553,2.81344651 C12.1105322,2.81438009 12.1077845,2.81560542 12.1049198,2.81659735 C12.0934611,2.82050672 12.0820609,2.82459115 12.070953,2.82931741 C12.069316,2.8300176 12.067796,2.83089283 12.0661591,2.83165137 C12.0541742,2.83696112 12.0423647,2.84262096 12.0309061,2.84886429 C12.0272229,2.8509065 12.0237152,2.85329881 12.020032,2.85545772 C12.0109703,2.86076747 12.0018501,2.86601887 11.9931976,2.87191211 C11.9854806,2.87716351 11.9781143,2.8829984 11.9706895,2.88871659 C11.9664217,2.89198413 11.9619786,2.89495992 11.9578277,2.89840251 C11.9485906,2.90604621 11.9398212,2.91427341 11.9311103,2.92267565 C11.9290641,2.92465951 11.9268425,2.92640998 11.9248548,2.92845219 C11.9169039,2.93638764 11.9094206,2.94490658 11.9020544,2.95348387 C11.8995405,2.95640132 11.8968512,2.95908537 11.8943957,2.96200281 C11.8886079,2.96900468 11.8833463,2.97653169 11.8779677,2.98388365 C11.8742846,2.98896 11.8703676,2.99391966 11.8668598,2.99917106 C11.8631182,3.0048309 11.8597274,3.01078249 11.8562196,3.01661738 C11.8516011,3.02420274 11.8469241,3.03172975 11.8427148,3.0396652 C11.8403178,3.04415806 11.8382716,3.04888432 11.83605,3.05349389 C11.8329515,3.05973722 11.829736,3.0659222 11.8269298,3.07234058 C11.7945415,2.85213183 11.774255,2.64983619 11.774255,2.48949341 C11.7743719,1.9827332 12.0136011,1.39084195 12.6877926,1.39084195 Z M9.41435107,12.1475672 C9.41435107,11.5208755 9.75875463,10.7785804 10.4169858,10.5696832 L12.0016163,10.1091017 L14.0944627,11.5143331 L14.0944627,12.7876053 L9.5575846,12.7881287 C9.46205661,12.7881287 9.41429261,12.7272194 9.41429261,12.7128263 L9.41429261,12.1475672 L9.41435107,12.1475672 Z" id="Shape"></path>
                        <path d="M10.534028,24.8726994 C10.5311633,24.871891 10.5282987,24.8711402 10.525434,24.8703895 L8.78266199,24.4232982 C8.6349853,24.3803331 8.51823536,24.3047977 8.49309641,24.2652975 L8.49186869,23.3289584 C8.49333026,23.3272259 8.49485029,23.3256667 8.49631186,23.3239342 C9.09385875,22.6184748 9.42294508,21.704369 9.42294508,20.7500699 L9.42294508,20.0526954 C10.0190889,18.1343378 9.59897616,16.4711144 9.38336586,15.9870639 C9.38266431,15.9853892 9.3817289,15.9839455 9.38096889,15.9822708 C9.3768765,15.9733197 9.37231642,15.9647151 9.36769787,15.9561106 C9.36495012,15.9509709 9.36226084,15.9457158 9.3593377,15.9406916 C9.35489454,15.9331843 9.3501006,15.9260234 9.3452482,15.9188048 C9.34138967,15.9129722 9.33758959,15.9070818 9.33349721,15.9014802 C9.32940482,15.8959363 9.32496166,15.8906234 9.32063542,15.8853105 C9.31525686,15.8786694 9.30993675,15.8719128 9.30420741,15.8656182 C9.30064119,15.8616913 9.29678265,15.8580531 9.29309951,15.8542417 C9.28620091,15.8471386 9.27936078,15.8400355 9.27205295,15.8334521 C9.26872058,15.8304492 9.26521282,15.8276772 9.26182198,15.8247898 C9.25387106,15.8179754 9.24592014,15.8112188 9.23755998,15.8049819 C9.2337599,15.8021522 9.22972598,15.7996113 9.22580898,15.7968971 C9.21756574,15.7911222 9.20938097,15.7854051 9.20084542,15.7802077 C9.19581763,15.7770893 9.19049753,15.7744328 9.18529435,15.7715454 C9.17763574,15.767272 9.1700356,15.7629408 9.16214314,15.7590716 C9.15547839,15.75578 9.14863826,15.7530658 9.14179813,15.7501206 C9.13501646,15.7472331 9.12835172,15.7441147 9.12145312,15.741516 C9.11379452,15.7386286 9.10590206,15.7362609 9.09806806,15.7337777 C9.09163717,15.7317565 9.0853232,15.7295043 9.07883384,15.7277718 C9.07105831,15.7256351 9.06310739,15.7240759 9.05521493,15.7224011 C9.04825787,15.7208997 9.04130081,15.7191672 9.03428529,15.7180122 C9.02726977,15.7167995 9.02013733,15.7161065 9.01300488,15.7152403 C9.00470318,15.7142008 8.99645995,15.7131036 8.98809979,15.7125261 C8.9821366,15.7121219 8.97611494,15.7121219 8.97015175,15.7118909 C8.96044695,15.7116021 8.95080061,15.7113134 8.94103734,15.7116021 C8.93583417,15.7117754 8.93063099,15.7122374 8.92536935,15.7125839 C8.91490453,15.7132768 8.90443972,15.7140276 8.8939749,15.7154135 C8.89233794,15.7155868 8.89070099,15.7155868 8.88906403,15.7158178 C8.43837536,15.7795725 7.88847554,15.6494644 7.30647972,15.5117913 C6.2769522,15.2682645 5.11564984,14.9942465 4.09834103,15.718763 C3.11464824,15.8022677 2.41713019,16.6188359 2.41713019,17.722531 C2.41713019,18.5251239 2.79415591,19.9586226 2.88062219,20.276703 L2.88062219,20.6625227 C2.88062219,21.6586319 3.22958584,22.5793211 3.78895661,23.2661854 L3.78772889,24.2664525 C3.76258995,24.3059527 3.64584001,24.3814881 3.49810485,24.4244532 L1.7553913,24.8715445 C1.75252663,24.8722952 1.74966196,24.8730459 1.74679729,24.8738544 C0.637526699,25.1807316 0.0571678322,26.2549749 0.0571678322,27.1574155 L0.0571678322,27.6563651 C0.0571678322,28.2024956 0.541063303,28.6468149 1.13592091,28.6468149 L6.12956783,28.6462952 C6.13319251,28.6463529 6.13675873,28.6468149 6.14044188,28.6468149 C6.14412503,28.6468149 6.14769125,28.6463529 6.1513744,28.6462952 L11.1450213,28.6457177 C11.7398205,28.6457177 12.2237159,28.2013984 12.2237159,27.6552679 L12.2237159,27.1563182 C12.2236575,26.2538776 11.6432986,25.1796921 10.534028,24.8726994 Z M6.14237115,26.7536655 L4.52044146,25.2604101 C4.64408999,25.0202656 4.72313152,24.7287193 4.72313152,24.3829902 L4.72336537,24.0746687 C5.15598908,24.4659687 5.63941685,24.6882616 6.14552813,24.6882616 C6.64234385,24.6882616 7.12179616,24.4909072 7.55745993,24.117369 L7.55769379,24.3804784 C7.55769379,24.7363443 7.64129539,25.0347083 7.77108251,25.2787102 L6.14237115,26.7536655 Z M3.81608328,20.5046953 C3.81608328,20.0454768 4.01281015,19.3739736 4.15984375,18.9491734 C6.27893993,18.9972204 7.8778938,19.4999238 8.48760092,19.7228342 L8.48760092,19.9792389 L8.48760092,19.9834545 L8.48760092,20.7500699 C8.48760092,21.5645013 8.17751495,22.3106737 7.69385333,22.8270057 C7.69256715,22.8282185 7.6913979,22.8295467 7.69017018,22.8308172 C7.27438371,23.272942 6.73109018,23.5456896 6.1455866,23.5456896 C4.90465809,23.5456896 3.81608328,22.1983522 3.81608328,20.6624073 L3.81608328,20.5046953 L3.81608328,20.5046953 Z M4.26601195,16.6398699 C4.26963663,16.6398699 4.27308593,16.6394031 4.27665215,16.6393448 C4.28828622,16.6391114 4.29997875,16.638703 4.31161282,16.6375944 C4.31769294,16.6370109 4.32359767,16.6359023 4.32961932,16.6350854 C4.33879796,16.6338601 4.34791814,16.6326931 4.35703831,16.6308843 C4.36399537,16.6295423 4.37071858,16.6276168 4.37761717,16.6259831 C4.38556809,16.6240576 4.39357748,16.6222488 4.40141148,16.6199149 C4.40871931,16.6176977 4.41573483,16.6150136 4.42286727,16.6124463 C4.43005818,16.609879 4.43730755,16.6075451 4.44444,16.6045693 C4.45192322,16.6014769 4.45911413,16.5978593 4.4663635,16.5944168 C4.47285285,16.5913243 4.47945913,16.5884652 4.48583156,16.5850811 C4.49384095,16.5808216 4.50149956,16.5760371 4.50915817,16.5713109 C4.51447827,16.5680434 4.51997376,16.5650677 4.52517694,16.5615668 C4.53458942,16.5553235 4.54359267,16.5483801 4.55253746,16.541495 C4.55563598,16.5391027 4.55885143,16.5370606 4.56189149,16.5346099 C5.25005551,15.9734178 6.14313116,16.1867969 7.08870629,16.4127207 C7.59762378,16.5343182 8.12028,16.6589498 8.62773593,16.6608169 C8.74968904,17.1105058 8.86959597,17.9073659 8.74080272,18.8565147 C7.97956037,18.5797696 6.19340906,18.0402246 3.83426517,18.0402246 C3.83315438,18.0402246 3.83204359,18.0403996 3.8309328,18.0403996 C3.82011721,18.040458 3.80936008,18.0412165 3.79860295,18.0420334 C3.79351669,18.0423835 3.78843044,18.0425585 3.78340265,18.043142 C3.77457479,18.0441339 3.76592232,18.045651 3.75721138,18.0471097 C3.75037125,18.0482766 3.74341419,18.0491518 3.73669099,18.0506106 C3.73084472,18.0518359 3.72511538,18.0535863 3.71926911,18.0551034 C3.71009047,18.0574373 3.70085337,18.0596545 3.69185012,18.0625136 C3.6887516,18.0635055 3.68582847,18.0647891 3.68272995,18.0658394 C3.67144665,18.0696904 3.66022182,18.0737164 3.6492893,18.0783843 C3.64753542,18.0791428 3.64589847,18.0800763 3.64420305,18.0808349 C3.63227667,18.0861445 3.62052567,18.0916876 3.60918391,18.0979309 C3.60567615,18.0998564 3.60234378,18.1021903 3.59889449,18.1041741 C3.58959892,18.1095421 3.58030336,18.1149685 3.5714755,18.1209784 C3.5641092,18.125938 3.55709368,18.1315977 3.5500197,18.1370241 C3.54545961,18.140525 3.54060721,18.1437925 3.53616405,18.1474684 C3.52710233,18.1548786 3.51856679,18.162989 3.5100897,18.1710994 C3.50780966,18.1732583 3.50541269,18.1752421 3.5031911,18.1774593 C3.49535711,18.185278 3.48799081,18.1936801 3.48068298,18.2021406 C3.47811062,18.2051747 3.47524595,18.2079754 3.47273206,18.2110095 C3.46700272,18.2180113 3.46179954,18.2254215 3.45642097,18.2327734 C3.45267936,18.237908 3.4487039,18.2428676 3.44513768,18.2481773 C3.44139607,18.253837 3.4380637,18.2597885 3.43449747,18.2656233 C3.42987892,18.2732086 3.42520191,18.2807938 3.4209926,18.2886708 C3.41859563,18.2931636 3.41654944,18.2979482 3.41432786,18.3024993 C3.41122933,18.3088009 3.40801389,18.3149275 3.40520768,18.3214041 C3.37281936,18.1011984 3.35253282,17.8989055 3.35253282,17.7385649 C3.35259128,17.2316948 3.5918205,16.6398699 4.26601195,16.6398699 Z M1.13586245,28.0371327 C1.04033445,28.0371327 0.992570458,27.9762241 0.992570458,27.9618311 L0.992570458,27.3965784 C0.992570458,26.7699592 1.33697401,26.0276071 1.99520515,25.8187122 L3.57983566,25.3581359 L5.67274057,26.7633515 L5.67274057,28.0366094 L1.13586245,28.0371327 Z M11.2882548,27.9670922 C11.2882548,27.9815258 11.2404908,28.0426059 11.1449044,28.0426059 L6.60808473,28.0431964 L6.60808473,26.7689769 L8.72899326,25.3641995 L10.2855617,25.817872 C10.9437928,26.0273552 11.2881964,26.771798 11.2881964,27.400182 L11.2881964,27.9670922 L11.2882548,27.9670922 Z" id="Shape"></path>
                        <path d="M27.3712753,24.8726994 C27.3684106,24.871891 27.3655459,24.8711402 27.3626813,24.8703895 L25.6199092,24.4232982 C25.4722326,24.3803331 25.3554826,24.3047977 25.3303437,24.2652975 L25.329116,23.3289584 C25.3305775,23.3272259 25.3320976,23.3256667 25.3335591,23.3239342 C25.931106,22.6184748 26.2601923,21.704369 26.2601923,20.7500699 L26.2601923,20.0526954 C26.8563361,18.1343378 26.4362234,16.4711144 26.2206131,15.9870639 C26.2199116,15.9853892 26.2189762,15.9839455 26.2182162,15.9822708 C26.2141238,15.9733775 26.2096221,15.9647729 26.2050036,15.9562261 C26.2021974,15.9509709 26.1995081,15.945658 26.196468,15.9405761 C26.1921418,15.933242 26.1873479,15.9261389 26.1826124,15.9190358 C26.1786369,15.9130877 26.1747784,15.9070818 26.1706275,15.9013647 C26.1666521,15.8959363 26.1623258,15.8908544 26.1581165,15.885657 C26.152621,15.8787849 26.147184,15.8719706 26.1413377,15.8655027 C26.1379469,15.861749 26.1343222,15.8582841 26.1308145,15.8546459 C26.1237405,15.8473118 26.1166665,15.8400355 26.1091833,15.8332211 C26.1061432,15.8304492 26.1028693,15.8279082 26.0997123,15.825194 C26.0915276,15.8181487 26.0832843,15.8111611 26.0746903,15.8047509 C26.0711825,15.8021522 26.0674409,15.7997845 26.0638747,15.7972436 C26.0553976,15.7912377 26.0468621,15.7852896 26.0379758,15.779919 C26.0332403,15.7770315 26.028271,15.7745483 26.023477,15.7718341 C26.0155261,15.7673297 26.0075752,15.7628253 25.9993319,15.7587829 C25.9929595,15.7556645 25.9864117,15.7530658 25.9799223,15.7502361 C25.9728483,15.7471754 25.9658913,15.7439992 25.9586419,15.741285 C25.9512172,15.7385131 25.9435586,15.7362031 25.9359584,15.7337777 C25.9292937,15.731641 25.9227458,15.729331 25.9160226,15.7275408 C25.9084225,15.7254618 25.9005885,15.7239026 25.8928714,15.7222279 C25.885739,15.7206687 25.878665,15.718994 25.8714741,15.7177812 C25.864517,15.7165685 25.857443,15.7158755 25.8504275,15.7150093 C25.8420674,15.7139698 25.8337657,15.7128726 25.825347,15.7122951 C25.8193839,15.7118909 25.8134207,15.7118909 25.807399,15.7116599 C25.7976942,15.7113711 25.7880479,15.7110824 25.7782846,15.7113711 C25.7730814,15.7115444 25.7678198,15.7120064 25.7625581,15.7123529 C25.7521518,15.7130458 25.7417454,15.7137966 25.7312806,15.7151825 C25.7295852,15.7153558 25.7279482,15.7153558 25.7263113,15.7155868 C25.2755642,15.7793415 24.7257228,15.6492334 24.143727,15.5115603 C23.114141,15.2680335 21.9528971,14.9940155 20.9355883,15.718532 C19.9518955,15.8020368 19.2543775,16.6186049 19.2543775,17.7223 C19.2543775,18.5248929 19.6314032,19.9583916 19.7178695,20.276472 L19.7178695,20.6622918 C19.7178695,21.6584009 20.0668331,22.5790901 20.6262039,23.2659544 L20.6249762,24.2662215 C20.5998372,24.3057217 20.4830873,24.3812571 20.3353521,24.4242222 L18.5926386,24.8713135 C18.5897739,24.8720642 18.5869092,24.8728149 18.5840445,24.8736234 C17.474774,25.1807316 16.8944151,26.2549749 16.8944151,27.1574155 L16.8944151,27.6563651 C16.8944151,28.2024956 17.3783106,28.6468149 17.9731682,28.6468149 L22.9668151,28.6462952 C22.9704398,28.6463529 22.974006,28.6468149 22.9776891,28.6468149 C22.9813723,28.6468149 22.9849385,28.6463529 22.9886217,28.6462952 L27.9822686,28.6457177 C28.5770677,28.6457177 29.0609632,28.2013984 29.0609632,27.6552679 L29.0609632,27.1563182 C29.0609047,26.2538776 28.4805459,25.1796921 27.3712753,24.8726994 Z M22.9796184,26.7537117 L21.3576887,25.2604305 C21.4813373,25.0202819 21.5603788,24.7287305 21.5603788,24.3829955 L21.5606126,24.0746687 C21.9932363,24.4659755 22.4766641,24.6882722 22.9827754,24.6882722 C23.4795911,24.6882722 23.9590434,24.4909143 24.3947072,24.1173698 L24.394941,24.3804836 C24.394941,24.7363557 24.4785427,25.0347249 24.6083298,25.278731 L22.9796184,26.7537117 Z M20.6533305,20.5046953 C20.6533305,20.0454768 20.8500574,19.3739736 20.997091,18.9491734 C23.1161872,18.9972204 24.7151411,19.4999238 25.3248482,19.7228342 L25.3248482,19.9792389 L25.3248482,19.9834545 L25.3248482,20.7500699 C25.3248482,21.5645013 25.0147622,22.3106737 24.5311006,22.8270057 C24.5298144,22.8282185 24.5286452,22.8295467 24.5274174,22.8308172 C24.111631,23.272942 23.5683374,23.5456896 22.9828339,23.5456896 C21.7419053,23.5456896 20.6533305,22.1983522 20.6533305,20.6624073 L20.6533305,20.5046953 Z M21.1032592,16.6398779 C21.1068839,16.6398779 21.1103332,16.6394111 21.1138994,16.6393528 C21.1255335,16.6391194 21.137226,16.6387109 21.1488601,16.6376023 C21.1549402,16.6370188 21.1608449,16.6359102 21.1668666,16.6350933 C21.1760452,16.6338679 21.1851654,16.632701 21.1942856,16.6308921 C21.2012426,16.6295501 21.2079658,16.6276246 21.2148644,16.6259908 C21.2228154,16.6240653 21.2308247,16.6222565 21.2386587,16.6199225 C21.2459666,16.6177052 21.2529821,16.6150212 21.2601145,16.6124538 C21.2673054,16.6098865 21.2745548,16.6075525 21.2816873,16.6045767 C21.2891705,16.6014842 21.2963614,16.5978665 21.3036108,16.5944239 C21.3101001,16.5913314 21.3167064,16.5884723 21.3230788,16.5850881 C21.3310882,16.5808286 21.3387468,16.576044 21.3464054,16.5713177 C21.3517255,16.5680501 21.357221,16.5650743 21.3624242,16.5615734 C21.3718367,16.55533 21.3808399,16.5483865 21.3897847,16.5415013 C21.3928832,16.539109 21.3960987,16.5370668 21.3991387,16.5346161 C22.0873028,15.9734143 22.9803784,16.186797 23.9259536,16.4127248 C24.434871,16.5343244 24.9575273,16.6589581 25.4649832,16.6608252 C25.5869363,17.1105219 25.7068432,17.9073958 25.57805,18.8565609 C24.8168076,18.579811 23.0306563,18.0402567 20.6715124,18.0402567 C20.6703432,18.0402567 20.6692908,18.0404318 20.6681216,18.0404318 C20.6572475,18.0404901 20.6464319,18.0412486 20.6356748,18.0420655 C20.630647,18.042474 20.6256192,18.0425907 20.6206499,18.0431742 C20.6117051,18.0441661 20.6028773,18.0457415 20.5940494,18.0472003 C20.5873262,18.0483089 20.580603,18.0491841 20.5739967,18.0505845 C20.5678581,18.0519265 20.5618365,18.0537354 20.5556979,18.0553108 C20.5468116,18.0575864 20.5378668,18.059687 20.5291558,18.0624877 C20.5255896,18.0636547 20.5221988,18.0651134 20.5186326,18.0663388 C20.507817,18.0700731 20.4970598,18.0738658 20.486595,18.0783587 C20.4841396,18.079409 20.4818011,18.080751 20.4794041,18.0818596 C20.4682377,18.0868777 20.4571883,18.0920707 20.4464896,18.0979056 C20.4420465,18.100298 20.4378956,18.1031571 20.4335694,18.1057244 C20.4252092,18.1106257 20.4167906,18.1154687 20.4087812,18.1209535 C20.4006549,18.1264384 20.3928794,18.132565 20.3851038,18.1386333 C20.3812453,18.1416091 20.3772114,18.1443515 20.3734113,18.147444 C20.3639404,18.1552628 20.3549371,18.1636651 20.3460508,18.1723008 C20.3442384,18.1740512 20.3422507,18.175685 20.3404384,18.1774355 C20.3323705,18.1854877 20.3248288,18.1941233 20.3173456,18.2028173 C20.3149486,18.2056181 20.3123178,18.2081855 20.3099793,18.2111029 C20.3041915,18.2181632 20.2988714,18.2256902 20.2934344,18.2331589 C20.2897512,18.2381769 20.2858927,18.2430782 20.2824434,18.2482713 C20.2786433,18.2539312 20.275311,18.2599995 20.2717447,18.2658344 C20.2671262,18.2734198 20.2624492,18.2808885 20.2582983,18.2887656 C20.2559014,18.2932585 20.2538552,18.2980431 20.2516336,18.3025943 C20.2485351,18.308896 20.2453196,18.3150227 20.2425134,18.3214995 C20.2101251,18.1012899 20.1898385,17.8989935 20.1898385,17.7386501 C20.1898385,17.231713 20.4290678,16.6398779 21.1032592,16.6398779 Z M17.9731097,28.0371789 C17.8775817,28.0371789 17.8298177,27.9762693 17.8298177,27.961876 L17.8298177,27.3966136 C17.8298177,26.7699835 18.1742213,26.0276186 18.8324524,25.8187201 L20.4170829,25.3581359 L22.5099878,26.7633757 L22.5099878,28.0366555 L17.9731097,28.0371789 Z M28.1255021,27.9671371 C28.1255021,27.9815709 28.0777381,28.0426521 27.9821517,28.0426521 L23.445332,28.0432426 L23.445332,26.7690011 L25.5662405,25.3641995 L27.122809,25.8178799 C27.7810401,26.0273667 28.1254436,26.7718223 28.1254436,27.4002171 L28.1254436,27.9671371 L28.1255021,27.9671371 Z" id="Shape"></path>
                    </g>
                </g>
            </g>
        </g>
    </g>
</svg>