<?xml version="1.0" encoding="UTF-8"?>
<svg width="49px" height="34px" viewBox="0 0 49 34" version="1.1" xmlns="http://www.w3.org/2000/svg" xmlns:xlink="http://www.w3.org/1999/xlink">
    <!-- Generator: Sketch 42 (36781) - http://www.bohemiancoding.com/sketch -->
    <title>salesforce_logo</title>
    <desc>Created with Sketch.</desc>
    <defs></defs>
    <g id="Page-1" stroke="none" stroke-width="1" fill="none" fill-rule="evenodd">
        <g id="Desktop" transform="translate(-29.000000, -26.000000)" fill="#FFFFFF">
            <g id="salesforce_logo" transform="translate(29.000000, 26.000000)">
                <path d="M17.1165492,16.4523035 C17.0437038,15.9008269 17.0684261,15.356157 17.2844482,14.8393594 C17.582373,14.1266174 18.1274887,13.7425355 18.8991343,13.669758 C19.304361,13.6315628 19.6957922,13.6702419 20.0523157,13.8667992 C20.5558515,14.1443924 20.8227042,14.5943161 20.9194661,15.1539866 C20.9673958,15.4312572 20.9593055,15.7096892 20.9527623,15.9889599 C20.9497969,16.1150946 20.9061219,16.1691293 20.7700686,16.1667744 C20.6627666,16.1649679 20.5554002,16.163871 20.4480661,16.1632581 C20.2870326,16.1623871 20.1259991,16.1625807 19.9649657,16.163 C19.8039,16.1634194 19.6428665,16.1640646 19.481833,16.1640646 L18.290166,16.1640646 C18.050034,16.1640969 18.0500663,16.1640969 18.0792367,16.4020754 C18.1444107,16.9336156 18.423544,17.2615659 18.9178291,17.3775067 C19.1926432,17.4419935 19.4721955,17.4303155 19.7502007,17.4030562 C19.9799538,17.3805068 20.2045497,17.3308916 20.4181221,17.2392101 C20.5229744,17.1941758 20.5894377,17.2214351 20.6240554,17.3363113 C20.6657965,17.4747369 20.710374,17.6131948 20.7671999,17.7459105 C20.8145494,17.8565284 20.7817045,17.9127567 20.6791407,17.9590814 C20.3768968,18.0954747 20.0561836,18.1558968 19.730281,18.1827044 C19.3392365,18.2148994 18.9473541,18.2117703 18.5640132,18.1097979 C17.7394741,17.8904331 17.2288794,17.3027936 17.1165492,16.4523035 M16.3049031,17.8864329 C16.3048709,18.0993781 16.3044196,18.0994749 16.0895257,18.0996039 C15.9016103,18.0997652 15.7135983,18.0955715 15.5258441,18.1012814 C15.4284053,18.1042493 15.3867287,18.0651185 15.3875345,17.9714691 C15.3878891,17.9284671 15.3869543,17.8854974 15.3869543,17.8424955 C15.3869221,15.9565068 15.3869221,14.0705181 15.3869543,12.1845295 C15.3869866,11.9398732 15.3871477,11.9398409 15.624411,11.9397119 C15.7747433,11.9396474 15.9250756,11.9395506 16.0753756,11.9397442 C16.2973285,11.9400345 16.3048387,11.946938 16.3048709,12.1639801 C16.3050965,13.1204106 16.3049676,14.076841 16.3049676,15.0332714 C16.3049676,15.9843145 16.3050965,16.9353899 16.3049031,17.8864329 M21.5364602,17.5343847 C21.5956713,17.3967333 21.6463085,17.2547592 21.6907571,17.1115914 C21.7316924,16.9798112 21.8025394,16.9680042 21.9060701,17.0385236 C22.2919896,17.3014064 22.7171037,17.4492841 23.1838623,17.4750595 C23.3801259,17.4859309 23.5703942,17.4638332 23.740904,17.3572477 C24.0745102,17.1486576 24.0640024,16.742123 23.7199851,16.5554372 C23.4587409,16.4136565 23.1711305,16.343234 22.8893541,16.257843 C22.6683038,16.1908723 22.4540867,16.1090298 22.2482179,16.0025734 C21.4773459,15.6039747 21.5177332,14.6975465 21.8812188,14.2163957 C22.1746633,13.8279265 22.5893664,13.6787907 23.0571564,13.6455957 C23.1266174,13.6406922 23.1967553,13.6449505 23.2666031,13.6449505 C23.7478018,13.6415955 24.2002168,13.7536973 24.6266848,13.9774817 C24.743044,14.0385489 24.780337,14.1087779 24.7218028,14.2351062 C24.6610768,14.3660799 24.6129538,14.5035377 24.567796,14.6409633 C24.535757,14.7383871 24.4856999,14.7545169 24.3990268,14.7088696 C24.0572658,14.5289905 23.6902345,14.4385993 23.3079573,14.398662 C23.1272621,14.3797902 22.9536579,14.3945328 22.7910773,14.4766656 C22.4579224,14.6448667 22.4336513,15.0172384 22.7444369,15.2221509 C22.9710635,15.3716416 23.2340805,15.4363542 23.4881369,15.5201967 C23.7479629,15.6060393 24.0062418,15.6943336 24.2476631,15.8265332 C24.6721648,16.0589308 24.9033684,16.4070433 24.8770022,16.8992269 C24.8492178,17.4169923 24.6233004,17.8219139 24.1368156,18.0345364 C23.463608,18.3288078 22.7857267,18.247159 22.1141307,18.0122774 C21.941139,17.9517907 21.7850694,17.8563671 21.6253252,17.7682986 C21.5252756,17.7131025 21.4872412,17.6487448 21.5364602,17.5343847 M25.3711906,18.8939625 C25.5501453,18.4976219 25.6061976,18.0706348 25.6831043,17.6496803 C25.866217,16.6479252 26.0395633,15.6444281 26.2220636,14.6425763 C26.2405006,14.5412491 26.2261571,14.5051185 26.1193065,14.5096348 C25.9745182,14.5158286 25.8292786,14.5110865 25.6842325,14.511022 C25.5718056,14.5109897 25.5130135,14.4758268 25.5445369,14.3446273 C25.580734,14.1939108 25.6022653,14.0393877 25.6248925,13.8857356 C25.6400417,13.7827954 25.6894219,13.735761 25.7968205,13.7401483 C25.9362582,13.7458583 26.0766629,13.7336964 26.2156171,13.7438582 C26.3366501,13.7527295 26.3840318,13.7126955 26.4005349,13.5892705 C26.4427272,13.2741917 26.5323657,12.9722426 26.6780565,12.6866812 C26.9445224,12.1643027 27.3754707,11.9020973 27.9514006,11.8680312 C28.2194782,11.8521596 28.4869755,11.8533209 28.7500892,11.9290017 C28.8592284,11.9604225 28.8893336,12.0092312 28.8483983,12.1145263 C28.7881558,12.2694365 28.7313622,12.4258952 28.6795646,12.5838056 C28.6482668,12.6792293 28.5994669,12.7071983 28.4993206,12.6797454 C28.3394475,12.6358725 28.1783173,12.6138392 28.0076463,12.6368403 C27.7322842,12.6739065 27.5590669,12.8323653 27.4491864,13.0684405 C27.365253,13.2488357 27.3341164,13.4469092 27.2978549,13.6423052 C27.2832213,13.721212 27.3016905,13.7448582 27.3837222,13.7432452 C27.6307197,13.738374 27.8780073,13.7454066 28.1250048,13.739987 C28.2546438,13.7371159 28.2839431,13.7926668 28.2581894,13.9090915 C28.2257635,14.0555497 28.1928541,14.2028467 28.1760932,14.3515631 C28.161911,14.4772462 28.0979617,14.5158609 27.9830852,14.512022 C27.9535924,14.511022 27.9240675,14.5105058 27.8945103,14.5102155 C27.8059032,14.509409 27.7171994,14.511151 27.6285601,14.511151 C27.564772,14.511151 27.5003071,14.5157641 27.4365512,14.5156996 C27.398259,14.5156351 27.3602569,14.5138931 27.3227706,14.5084735 C27.1632198,14.4854079 27.1306328,14.5702827 27.1066518,14.7023532 C26.8703877,16.0047671 26.6812798,17.3159877 26.3946685,18.6088528 C26.3072863,19.0028384 26.1611442,19.3773069 25.8724379,19.6815143 C25.6510652,19.9147507 25.3826331,20.0467244 25.0712352,20.0888553 C24.7567751,20.1313734 24.4433464,20.1305669 24.1319162,20.0400144 C23.9828732,19.9966576 23.9550566,19.9300739 24.0111089,19.7957453 C24.0709324,19.6524484 24.1201514,19.5046998 24.1735606,19.3587255 C24.2025054,19.2795283 24.2477598,19.250527 24.3346585,19.2839801 C24.4037327,19.310562 24.4793824,19.324853 24.5533559,19.3328533 C25.0000658,19.3811136 25.2175061,19.2342037 25.3711906,18.8939625 M30.1346032,13.669629 C30.808681,13.6103037 31.4005338,13.7733756 31.8638757,14.2915927 C32.1528077,14.6147363 32.2893122,15.0085284 32.3520044,15.4286119 C32.4192414,15.8788904 32.4017391,16.3284269 32.2797392,16.7685759 C32.0251348,17.68694 31.3417096,18.1936727 30.3648076,18.1963502 C29.2318037,18.1994471 28.4492635,17.4565425 28.3574976,16.317007 C28.314983,15.7892412 28.3385449,15.2744436 28.553729,14.7877119 C28.8555539,14.1049713 29.3884213,13.7353094 30.1346032,13.669629 M33.3219442,13.7390838 C33.4930342,13.7500843 33.6656714,13.7477293 33.8370837,13.7395999 C33.9685277,13.7334061 34.0259983,13.77815 34.0157483,13.9145433 C34.0108168,13.9804173 33.9953452,14.0519044 34.0381177,14.1283917 C34.1751057,14.0099347 34.312964,13.9042525 34.4737396,13.8296362 C34.8559202,13.6522734 35.2456431,13.6879201 35.6387504,13.7742789 C35.7261649,13.7935056 35.748083,13.8455079 35.7163017,13.9298343 C35.6558336,14.0902287 35.5927546,14.2503327 35.5453407,14.4147918 C35.5082411,14.5435718 35.4308831,14.5715086 35.3160066,14.5432815 C35.1942645,14.5133769 35.0716844,14.5084735 34.9488142,14.5291841 C34.4130781,14.619543 34.1145731,14.9647199 34.0693509,15.537391 C34.0079158,16.3152972 34.0551687,17.0943325 34.0410508,17.8727549 C34.0369573,18.0994103 34.0403417,18.0995071 33.8145854,18.0995716 C33.6481369,18.0996039 33.4812049,18.0914422 33.3154332,18.1020556 C33.1727401,18.1111528 33.1313858,18.0588924 33.1322561,17.9181441 C33.1376389,17.0262649 33.1349958,16.134289 33.1349958,15.2423454 C33.1349958,14.8070999 33.1399274,14.3717898 33.1321916,13.9367056 C33.1296452,13.7922475 33.1683242,13.7291801 33.3219442,13.7390838 M14.3359821,17.9645978 C13.7020337,18.1067655 13.0659901,18.2352875 12.4112195,18.1915113 C12.0067019,18.1644778 11.6157864,18.0922165 11.282567,17.8278819 C10.6731798,17.3444084 10.6076189,15.9870243 11.6900178,15.5150352 C12.1688313,15.3062515 12.6688538,15.3034127 13.1747103,15.3353496 C13.2387885,15.3394143 13.3024154,15.3504793 13.3664613,15.3556409 C13.5802271,15.3728675 13.5802594,15.3724158 13.5742641,15.150438 C13.5628216,14.7282576 13.3531815,14.5020861 12.9317096,14.4479223 C12.4220174,14.3824355 11.9387236,14.4765365 11.4797331,14.6946109 C11.3584745,14.7522264 11.307515,14.7340966 11.2687715,14.6118975 C11.2283198,14.4843756 11.1829687,14.3574344 11.1269486,14.2361063 C11.0661904,14.1044874 11.1056107,14.0265161 11.2290289,13.9671586 C11.5165748,13.8288943 11.8196246,13.7412129 12.1336979,13.6975335 C12.52774,13.6427568 12.9225878,13.6193687 13.3174357,13.7052758 C14.0552694,13.8658314 14.4506652,14.327562 14.4703915,15.0824349 C14.4820274,15.5281326 14.4725189,15.9743463 14.4725189,16.4203343 L14.4754198,16.4203343 C14.4754198,16.8716773 14.4714552,17.3231171 14.4781918,17.7743634 C14.4799001,17.8871749 14.4433162,17.9404999 14.3359821,17.9645978 M10.3513707,16.9381642 C10.3138521,17.4431225 10.0856461,17.8193654 9.62610765,18.0325363 C9.06835682,18.29129 8.4885912,18.2498042 7.90895451,18.1144433 C7.6136083,18.0454724 7.34549853,17.9114663 7.08692958,17.7553302 C6.99642077,17.7006503 6.97517957,17.6402605 7.01637268,17.5419012 C7.07010422,17.4136373 7.11071715,17.2798571 7.15758317,17.1487221 C7.22546478,16.9587458 7.24896225,16.9490356 7.41586203,17.0572341 C7.69770284,17.239952 7.99714258,17.38041 8.33100661,17.4335737 C8.54770557,17.4680592 8.76517811,17.5052866 8.98574497,17.4521875 C9.11950976,17.4199925 9.23857654,17.365248 9.33424254,17.264308 C9.53447071,17.0530081 9.50723426,16.7621562 9.26742461,16.5983423 C9.02825961,16.4349478 8.74693453,16.3758806 8.47689081,16.2902316 C8.27256912,16.22539 8.06670027,16.165613 7.87146814,16.0753509 C7.37125228,15.8440824 7.08128889,15.4791949 7.12116047,14.9014267 C7.1591948,14.3505953 7.44948051,13.9844175 7.94773019,13.7750531 C8.19824102,13.6697903 8.46241843,13.6273045 8.67808595,13.6435956 C9.22210575,13.6377888 9.67922678,13.7525682 10.1106585,13.9785785 C10.2180249,14.0348391 10.2629892,14.0960032 10.207356,14.2196217 C10.1458886,14.3561762 10.1025682,14.5008602 10.0506739,14.6417698 C10.0184736,14.7291609 9.96599915,14.7576138 9.87658625,14.710031 C9.53063504,14.5259259 9.15867222,14.4340185 8.77030307,14.3966942 C8.60018005,14.3803709 8.43624565,14.3983717 8.28349593,14.4698588 C8.12948914,14.5419266 8.02657083,14.6598674 8.0140324,14.8411982 C8.00181629,15.0178191 8.08513725,15.1363084 8.22944206,15.2252156 C8.45133045,15.361867 8.69884367,15.4339025 8.94287577,15.5145513 C9.19222624,15.5969099 9.44254368,15.6756554 9.67668041,15.7980803 C10.137347,16.0389621 10.391629,16.3960751 10.3513707,16.9381642 M36.1956954,14.6071876 C36.5669491,13.98274 37.1426534,13.6944688 37.8492861,13.6523056 C38.2688885,13.6272722 38.6831081,13.6759196 39.0878514,13.8005704 C39.2139771,13.8394431 39.2562983,13.8910906 39.1997303,14.0195803 C39.1415185,14.1516831 39.0911713,14.2884312 39.0518477,14.4272762 C39.0172622,14.5493785 38.9542155,14.5771862 38.8388877,14.53912 C38.5813502,14.4541807 38.3140785,14.4373735 38.0450984,14.4394058 C37.4596921,14.4437931 37.0982049,14.7019661 36.9172839,15.2612172 C36.7710774,15.7130119 36.7706262,16.173065 36.9186699,16.6224079 C37.120542,17.2352744 37.6483488,17.4483808 38.2764632,17.4085403 C38.495773,17.3946365 38.7144703,17.3671191 38.9199846,17.2808894 C39.0057552,17.2448555 39.0497526,17.2773731 39.0778593,17.3584413 C39.1305272,17.5102546 39.1801974,17.6636809 39.2438243,17.8109134 C39.2971369,17.9343706 39.2489493,17.9893408 39.1373927,18.0238585 C38.7820296,18.133799 38.4197365,18.1977374 38.0461943,18.1956405 C37.4505381,18.1884466 36.8939154,18.0676347 36.4589703,17.6210983 C36.1117943,17.2646951 35.9456036,16.8213847 35.8925489,16.3352014 C35.826698,15.7314643 35.8774319,15.1424377 36.1956954,14.6071876 M39.7988999,14.6929334 C40.1081383,14.0545497 40.6436809,13.7353094 41.3448019,13.6694354 C41.604918,13.645015 41.8603926,13.6533057 42.1095174,13.7194377 C42.825562,13.9094463 43.2103211,14.4055333 43.3512737,15.1108556 C43.4113551,15.4115466 43.4291474,15.7154314 43.3909519,16.0229292 C43.3769308,16.1357085 43.3331268,16.1666131 43.2277589,16.1656776 C43.1190387,16.1647098 43.0102863,16.1641291 42.9015339,16.1638388 C42.5752768,16.1628065 42.2490196,16.1640646 41.9227625,16.1640646 C41.4931357,16.1640969 41.0634768,16.1666776 40.6338823,16.1622258 C40.5296747,16.1611612 40.499634,16.1835493 40.5085946,16.2976835 C40.5648081,17.0121353 40.9868924,17.4093146 41.7035171,17.4205086 C42.0988485,17.4266702 42.4857994,17.3911202 42.8556993,17.2427586 C42.9698023,17.1969824 43.0345574,17.2187575 43.0688205,17.3453117 C43.1037927,17.4743175 43.1502398,17.6012265 43.2036167,17.7238449 C43.2601847,17.8537863 43.2157684,17.9182086 43.0938007,17.9713078 C42.7994859,18.0993781 42.4894417,18.1569291 42.1739824,18.1817044 C41.7118331,18.2180286 41.2509086,18.2106734 40.8074864,18.0486338 C40.2440627,17.8427858 39.8465395,17.4658332 39.669003,16.8862909 C39.4408615,16.1416442 39.4560108,15.4007397 39.7988999,14.6929334 M18.6044972,33.8744476 C19.2926928,33.825639 19.9656103,33.6926652 20.6164163,33.4674614 C23.0129657,32.6383271 24.7473632,31.0689334 25.8165146,28.7678937 C25.8794968,28.6323069 25.928748,28.6212419 26.0578069,28.6805672 C27.4463821,29.3188541 28.903677,29.5294443 30.4069032,29.2781749 C32.7615181,28.8845441 34.5557068,27.6394555 35.796335,25.5992663 C35.8580602,25.4977778 35.9155307,25.4700669 36.0261203,25.4931969 C36.5259494,25.5976533 37.0333209,25.64672 37.5424329,25.665979 C38.7212069,25.7106261 39.8789976,25.5678455 41.0011714,25.2029902 C43.9349395,24.2490115 46.0699867,22.3687328 47.379399,19.5779935 C48.3866317,17.431251 48.6079077,15.1766328 48.1062092,12.8644635 C47.6146961,10.5992641 46.4879775,8.68927432 44.7333058,7.17339919 C42.5863325,5.31867 40.0845441,4.47769642 37.2495686,4.63986505 C36.0702788,4.70731972 34.9405626,4.98339675 33.8569067,5.44948238 C33.7440285,5.49803297 33.6918119,5.48016119 33.6305702,5.37418865 C33.0645356,4.39501525 32.3362105,3.55378359 31.4374078,2.86852674 C29.4729348,1.37078146 27.2595949,0.812949735 24.8271386,1.2087096 C23.042813,1.49901308 21.5148967,2.32263104 20.2362342,3.60265677 C20.1435336,3.69543517 20.0968288,3.693177 20.017698,3.58968844 C19.7069769,3.18328293 19.3601232,2.80765301 18.9766211,2.47008933 C16.7786561,0.53555007 14.225328,-0.259195614 11.3218584,0.12717673 C9.37469431,0.386317503 7.68403627,1.21380661 6.24724124,2.54864128 C4.99236633,3.71450055 4.12189598,5.12524188 3.63721618,6.77183261 C3.29648663,7.92914311 3.18422091,9.10939013 3.29726021,10.3087348 C3.38589953,11.2491968 3.61055992,12.1586896 3.98004084,13.0295677 C4.01971902,13.1230558 4.00218455,13.1660901 3.91763876,13.216673 C3.29213525,13.5910448 2.73216038,14.0474526 2.23265363,14.5787992 C1.07370259,15.8116615 0.365490536,17.2650822 0.0928037562,18.934674 C0.0577025856,19.1496192 0.0618605755,19.3698227 6.446496e-06,19.5805742 L6.446496e-06,20.8386957 C0.0420053679,21.1179987 0.0780090479,21.398334 0.126970185,21.6764111 C0.36839146,23.0468926 0.923209137,24.2781741 1.79735399,25.3592876 C2.99024584,26.8347093 4.51326275,27.7877848 6.36714607,28.2006744 C7.42772359,28.436911 8.49397402,28.4476211 9.55993437,28.2410956 C9.70182174,28.2136105 9.74440085,28.2604836 9.79171813,28.3756824 C10.8460103,30.9442181 12.6939951,32.660683 15.3307731,33.5221736 C15.9286856,33.717505 16.5452607,33.8302521 17.1735685,33.8744476 C17.2094432,33.8769961 17.2502818,33.8659956 17.2766157,33.9038038 L18.5014499,33.9038038 C18.5277516,33.8659956 18.5686224,33.8769961 18.6044972,33.8744476" id="Fill-1"></path>
                <path d="M13.5745026,16.7417262 C13.5745349,16.6395603 13.5745349,16.5374267 13.5745349,16.435293 C13.5745349,16.0986649 13.5745026,16.0987294 13.2334508,16.0589211 C13.2122096,16.0564694 13.1914196,16.0495981 13.1701462,16.0478561 C12.831544,16.0199516 12.4933608,16.0073381 12.1728088,16.1479574 C11.8603471,16.2849959 11.7379282,16.510748 11.7673886,16.8754097 C11.7898225,17.1532288 11.9615249,17.3428503 12.2799173,17.4180795 C12.6914616,17.5152774 13.1010397,17.4503067 13.5093608,17.3834973 C13.5873956,17.3707225 13.5737935,17.3095262 13.5740836,17.2578141 C13.5751473,17.0858064 13.5745026,16.9137663 13.5745026,16.7417262" id="Fill-12"></path>
                <path d="M40.6369411,15.4746882 C40.9268078,15.4758495 41.2166745,15.4752689 41.5065412,15.4752366 C41.7964401,15.4752366 42.0863068,15.4761721 42.3761735,15.4743979 C42.4303241,15.4740753 42.5055225,15.494173 42.4981412,15.3952975 C42.4439584,14.6711034 41.9429045,14.2728918 41.2488425,14.4434479 C40.8619883,14.5385168 40.5330236,14.9861177 40.5197761,15.3927813 C40.5165206,15.4935923 40.5817269,15.4744624 40.6369411,15.4746882" id="Fill-14"></path>
                <path d="M18.2022713,15.4754753 C18.4869485,15.4748947 18.7716258,15.4752173 19.0563031,15.4752173 C19.201317,15.4752173 19.3463631,15.4744108 19.4913771,15.4742172 C19.6364232,15.4739914 19.7814372,15.4744753 19.9264189,15.4771206 C20.0258238,15.4789271 20.0599258,15.4478934 20.0492891,15.3476953 C19.970803,14.6089845 19.4460582,14.2825181 18.789128,14.4453641 C18.3235943,14.5607887 18.1470248,15.0237452 18.083688,15.3779548 C18.0653799,15.4803143 18.1346475,15.4756366 18.2022713,15.4754753" id="Fill-16"></path>
                <path d="M30.3469443,17.4487583 C30.7766355,17.4534359 31.0900319,17.2741052 31.2631526,16.8728612 C31.2712429,16.8540862 31.2790109,16.8352466 31.2864566,16.8163425 C31.3013803,16.7785344 31.3149824,16.7404681 31.3273597,16.7021761 C31.407683,16.4533906 31.4354996,16.1950241 31.4259588,15.9305282 C31.4321797,15.75052 31.4208661,15.5734153 31.3875055,15.4001171 C31.3871831,15.3984073 31.3867964,15.3967621 31.386474,15.3950523 C31.3816392,15.3702448 31.3762241,15.345534 31.3704545,15.3208877 C31.3587541,15.2707241 31.3453132,15.2208509 31.3296159,15.171397 C31.3116947,15.1148138 31.2910659,15.0587468 31.2676329,15.0031313 C31.1006042,14.6070489 30.79417,14.4239761 30.3718278,14.4206533 C29.9426846,14.4172661 29.6193928,14.5934031 29.4633231,15.0030668 C29.2271235,15.6232562 29.2303145,16.2524783 29.4670943,16.8714095 C29.6180068,17.2658145 29.9295015,17.4442419 30.3469443,17.4487583" id="Fill-18"></path>
            </g>
        </g>
    </g>
</svg>