<?xml version="1.0" encoding="UTF-8"?>
<svg width="116px" height="33px" viewBox="0 0 116 33" version="1.1" xmlns="http://www.w3.org/2000/svg" xmlns:xlink="http://www.w3.org/1999/xlink">
    <!-- Generator: Sketch 42 (36781) - http://www.bohemiancoding.com/sketch -->
    <title>clutch logo</title>
    <desc>Created with Sketch.</desc>
    <defs></defs>
    <g id="Homepage" stroke="none" stroke-width="1" fill="none" fill-rule="evenodd">
        <g id="Desktop-HD" transform="translate(-1021.000000, -2739.000000)" fill="#D8D8D8">
            <g id="honors-and-awards" transform="translate(0.000000, 2589.000000)">
                <g id="Group-8" transform="translate(249.000000, 127.000000)">
                    <g id="clutch-logo" transform="translate(772.000000, 23.000000)">
                        <path d="M30.1600135,0.297222001 L35.1771802,0.297222001 L35.1771802,32.137519 L30.1600135,32.137519 L30.1600135,0.297222001 Z M53.4499294,22.3189252 L53.4499294,22.3189252 L53.4499294,10.7049314 L58.4956027,10.7049314 L58.4956027,32.137519 L53.4499294,32.137519 L53.4499294,30.8470752 C51.8535581,32.0253065 49.8295875,32.5583159 48.0906831,32.5583159 C45.639113,32.5583159 43.5296225,31.7447752 42.0187711,30.2579596 C40.3083734,28.5747721 39.4246679,26.0499908 39.4531745,22.9922002 L39.4531745,10.7049314 L44.4988479,10.7049314 L44.4988479,23.0202533 C44.4988479,24.7595471 44.9549539,27.649019 48.0906831,27.649019 C49.3449748,27.649019 53.4499294,27.2562752 53.4499294,22.3189252 Z M69.385135,3.49527826 L69.385135,10.7049314 L73.5185962,10.7049314 L73.5185962,15.3898033 L69.385135,15.3898033 L69.385135,32.137519 L64.3394616,32.137519 L64.3394616,15.3898033 L60.8046396,15.3898033 L60.8046396,10.7049314 L64.3394616,10.7049314 L64.3394616,3.49527826 L69.385135,3.49527826 Z M89.824388,26.0499908 L90.6225736,25.3486627 L94.2144088,28.8272502 L93.35921,29.6127377 C91.3067327,31.4922971 88.513083,32.5302627 85.519887,32.5302627 C79.0773888,32.5302627 74.2027553,27.7051252 74.2027553,21.3370658 C74.2027553,14.9409533 78.9633623,10.2841345 85.519887,10.2841345 C88.4560698,10.2841345 91.2212128,11.3221002 93.3021967,13.1736064 L94.1859022,13.9590939 L90.6510802,17.4376814 L89.8528946,16.7644064 C88.6841228,15.7544939 87.1447648,15.2214846 85.519887,15.2214846 C81.7855186,15.2214846 79.1914154,17.7462658 79.1914154,21.3651189 C79.1914154,24.9839721 81.8710385,27.6209658 85.519887,27.6209658 C87.1732715,27.6209658 88.6841228,27.0599033 89.824388,26.0499908 Z M113.114304,12.5844908 C114.824702,14.2676783 115.708407,16.7924596 115.6799,19.8502502 L115.6799,32.137519 L110.634227,32.137519 L110.634227,19.8221971 C110.634227,18.0829033 110.178121,15.1934314 107.042392,15.1934314 C105.7881,15.1934314 101.683146,15.5861752 101.683146,20.5235252 L101.683146,32.137519 L96.6374723,32.137519 L96.6374723,0.297222001 L101.683146,0.297222001 L101.683146,11.9953752 C103.279517,10.8171439 105.303488,10.2841345 107.042392,10.2841345 C109.493962,10.2841345 111.603453,11.0976752 113.114304,12.5844908 Z M85.3488472,25.1522908 C83.2549249,25.1522908 81.5574656,23.4818359 81.5574656,21.4212252 C81.5574656,19.3606145 83.2549249,17.6901596 85.3488472,17.6901596 C87.4427695,17.6901596 89.1402289,19.3606145 89.1402289,21.4212252 C89.1402289,23.4818359 87.4427695,25.1522908 85.3488472,25.1522908 Z M22.6912767,24.507069 L23.5179689,23.6935283 L26.9957777,27.200169 L26.2260987,27.9856565 C23.3184225,30.9312346 19.3845077,32.5583159 15.13702,32.5583159 C6.55652467,32.5583159 0.057013258,25.853619 0.057013258,16.9327252 C0.057013258,7.98377828 6.52801804,1.25102825 15.13702,1.25102825 C19.3560011,1.25102825 23.2899159,2.85005639 26.197592,5.79563452 L26.967271,6.58112202 L23.4609557,10.0316564 L22.6627701,9.24616891 C20.6387994,7.25439703 17.9591763,6.16032515 15.13702,6.16032515 C9.29316105,6.16032515 5.04567333,10.6768783 5.04567333,16.9046721 C5.04567333,23.1044127 9.29316105,27.6209658 15.13702,27.6209658 C17.9876829,27.6209658 20.6958127,26.526894 22.6912767,24.507069 Z"></path>
                    </g>
                </g>
            </g>
        </g>
    </g>
</svg>