<?xml version="1.0" encoding="UTF-8"?>
<svg width="85px" height="33px" viewBox="0 0 85 33" version="1.1" xmlns="http://www.w3.org/2000/svg" xmlns:xlink="http://www.w3.org/1999/xlink">
    <!-- Generator: sketchtool 42 (36781) - http://www.bohemiancoding.com/sketch -->
    <title>2D6E6199-B0E1-4C37-A79C-9FDBBB229A07</title>
    <desc>Created with sketchtool.</desc>
    <defs></defs>
    <g id="Homepage" stroke="none" stroke-width="1" fill="none" fill-rule="evenodd">
        <g id="Mobile-Portrait" transform="translate(-192.000000, -2004.000000)" fill="#D8D8D8">
            <g id="honors-and-awards" transform="translate(0.000000, 1911.000000)">
                <g id="amazon-logo">
                    <path d="M251.877121,119.906082 L251.646395,120.530027 C251.623178,120.599867 251.588352,120.646427 251.530309,120.646427 C251.379398,120.646427 251.20527,120.460188 250.915056,120.460188 C250.671276,120.460188 250.48554,120.564947 250.1605,120.914146 L250.1605,124.685494 C250.1605,124.871734 250.148892,124.871734 249.974763,124.871734 L248.546912,124.871734 C248.384392,124.871734 248.372783,124.871734 248.372783,124.685494 L248.372783,121.112026 C248.372783,120.297228 248.024527,119.63375 248.024527,119.389311 C248.024527,119.342751 248.047744,119.296191 248.129004,119.272911 L249.243425,118.970272 C249.313076,118.946992 249.347902,118.935352 249.405944,118.935352 C249.580073,118.935352 249.730984,119.237991 249.870286,119.73851 C250.40428,119.203072 250.659668,118.923712 251.251704,118.923712 C251.524932,118.923712 251.781754,119.005961 251.95322,119.149717 L253.483863,119.051752 C253.58834,119.051752 253.623165,119.075032 253.646382,119.203072 L254.296461,121.787143 C254.377721,122.124702 254.482198,122.683421 254.575066,123.253779 C254.667935,122.7067 254.78402,122.124702 254.876889,121.787143 L255.58501,119.203072 C255.619836,119.075032 255.643053,119.040112 255.712704,119.040112 C255.735922,119.040112 255.770747,119.051752 255.817181,119.051752 L257.210208,119.168152 C257.337902,119.179792 257.384336,119.203072 257.384336,119.272911 C257.384336,119.307831 257.384336,119.354391 257.361119,119.400951 L255.352839,124.941573 C255.306405,125.081253 255.283188,125.104533 255.132277,125.104533 L253.890162,125.104533 C253.750859,125.104533 253.727642,125.081253 253.681208,124.941573 L251.877121,119.906082 Z M202.658517,123.967874 L197.792804,122.208254 L197.792804,115.019816 L202.658517,116.690989 L202.658517,123.967874 Z M203.550708,123.967874 L203.550708,116.690989 L208.416421,115.019816 L208.416421,122.208254 L203.550708,123.967874 Z M198.292769,114.482055 L203.2172,113.085199 L207.783383,114.569171 L203.2172,116.131615 L198.292769,114.482055 Z M192,112.165788 L192,104.97735 L196.865713,106.64819 L196.865713,113.925075 L192,112.165788 Z M197.758035,113.925175 L197.758035,106.64829 L202.623748,104.977449 L202.623748,112.165888 L197.758035,113.925175 Z M192.500096,104.439522 L197.424528,103.042333 L201.990711,104.526306 L197.424528,106.08875 L192.500096,104.439522 Z M208.219285,113.925175 L203.353572,112.165888 L203.353572,104.977449 L208.219285,106.64829 L208.219285,113.925175 Z M209.111442,113.925175 L209.111442,106.64829 L213.977155,104.977449 L213.977155,112.165888 L209.111442,113.925175 Z M203.853537,104.439522 L208.777968,103.042333 L213.344151,104.526306 L208.777968,106.08875 L203.853537,104.439522 Z M214.011793,103.882642 L209.14608,102.123355 L209.14608,94.9349165 L214.011793,96.605757 L214.011793,103.882642 Z M214.904148,103.882642 L214.904148,96.605757 L219.769861,94.9349165 L219.769861,102.123355 L214.904148,103.882642 Z M214.570838,93 L219.136692,94.4836399 L214.570838,96.0464161 L209.646407,94.3968559 L214.570838,93 Z M225.365233,103.882642 L220.49952,102.123355 L220.49952,94.9349165 L225.365233,96.605757 L225.365233,103.882642 Z M226.257588,103.882642 L226.257588,96.605757 L231.123301,94.9349165 L231.123301,102.123355 L226.257588,103.882642 Z M225.924246,93 L230.490099,94.4836399 L225.924246,96.0464161 L220.999814,94.3968559 L225.924246,93 Z M225.180556,114.967788 C225.220357,115.02765 225.240257,115.107467 225.240257,115.16733 C225.240257,115.247147 225.200457,115.30701 225.081054,115.346918 L223.23032,115.965499 C223.130818,116.005407 223.011416,116.045316 222.931814,116.045316 C222.69301,116.045316 222.553707,115.726048 222.295002,114.967788 C221.518888,115.68614 220.782574,116.005407 219.827356,116.005407 C217.837318,116.005407 216.623396,114.808154 216.623396,112.912503 C216.623396,110.338408 218.772636,109.460422 221.697991,109.460422 L221.857194,109.460422 L221.857194,108.88175 C221.857194,108.123489 221.65819,107.824176 220.623371,107.824176 C220.026359,107.824176 219.230345,108.043672 218.275127,108.422803 C218.215425,108.462711 218.155724,108.462711 218.096023,108.462711 C218.016422,108.462711 217.93682,108.422803 217.89702,108.283123 L217.339809,106.666831 C217.300008,106.587014 217.300008,106.527151 217.300008,106.467289 C217.300008,105.948479 219.807455,105.52944 221.001478,105.52944 C223.469124,105.52944 224.702947,106.606968 224.702947,108.821887 L224.702947,112.693006 C224.702947,113.830397 224.921851,114.369161 225.180556,114.967788 Z M221.857194,113.311587 L221.857194,111.336119 L221.67809,111.336119 C220.006459,111.336119 219.369647,111.854929 219.369647,112.772823 C219.369647,113.511129 219.867156,114.009985 220.484068,114.009985 C220.941777,114.009985 221.419386,113.770534 221.857194,113.311587 Z M239.807331,115.346918 C239.807331,115.68614 239.78743,115.726048 239.469024,115.726048 L237.08098,115.726048 C236.782474,115.726048 236.742673,115.706094 236.742673,115.346918 L236.742673,108.941612 C236.742673,108.083581 236.54367,107.724405 236.04616,107.724405 C235.548651,107.724405 235.170544,107.923947 234.593433,108.442757 L234.593433,115.346918 C234.593433,115.68614 234.593433,115.726048 234.294927,115.726048 L231.867082,115.726048 C231.548676,115.726048 231.528775,115.68614 231.528775,115.346918 L231.528775,109.041384 C231.528775,108.083581 231.389473,107.764313 230.832262,107.764313 C230.354653,107.764313 229.956646,107.963855 229.379535,108.442757 L229.379535,115.346918 C229.379535,115.68614 229.359635,115.726048 229.021328,115.726048 L226.653184,115.726048 C226.334778,115.726048 226.314878,115.68614 226.314878,115.346918 L226.314878,108.781979 C226.314878,107.764313 226.175575,107.125778 225.93677,106.467289 C225.89697,106.367518 225.877069,106.267747 225.877069,106.207884 C225.877069,106.108113 225.91687,106.04825 226.076073,106.008342 L228.205413,105.52944 C228.285015,105.509486 228.364616,105.489532 228.424317,105.489532 C228.663122,105.489532 228.921826,105.868662 229.140731,106.666831 C230.056148,105.908571 230.872063,105.52944 232.026285,105.52944 C233.061104,105.52944 233.87702,105.988387 234.255127,106.826465 C235.230245,105.948479 236.105861,105.52944 237.240183,105.52944 C239.309822,105.52944 239.807331,106.866373 239.807331,108.941612 L239.807331,115.346918 Z M249.160506,114.967788 C249.200307,115.02765 249.220208,115.107467 249.220208,115.16733 C249.220208,115.247147 249.180407,115.30701 249.061005,115.346918 L247.21027,115.965499 C247.110768,116.005407 246.991366,116.045316 246.911764,116.045316 C246.67296,116.045316 246.533657,115.726048 246.274952,114.967788 C245.498838,115.68614 244.762524,116.005407 243.807306,116.005407 C241.817269,116.005407 240.603346,114.808154 240.603346,112.912503 C240.603346,110.338408 242.752586,109.460422 245.677941,109.460422 L245.837144,109.460422 L245.837144,108.88175 C245.837144,108.123489 245.63814,107.824176 244.603321,107.824176 C244.00631,107.824176 243.210295,108.043672 242.255077,108.422803 C242.195376,108.462711 242.135675,108.462711 242.075973,108.462711 C241.996372,108.462711 241.91677,108.422803 241.87697,108.283123 L241.319759,106.666831 C241.279958,106.587014 241.279958,106.527151 241.279958,106.467289 C241.279958,105.948479 243.787406,105.52944 244.981428,105.52944 C247.449074,105.52944 248.682897,106.606968 248.682897,108.821887 L248.682897,112.693006 C248.682897,113.830397 248.901802,114.369161 249.160506,114.967788 Z M245.837144,113.311587 L245.837144,111.336119 L245.658041,111.336119 C243.986409,111.336119 243.349597,111.854929 243.349597,112.772823 C243.349597,113.511129 243.847107,114.009985 244.464018,114.009985 C244.921727,114.009985 245.399336,113.770534 245.837144,113.311587 Z M257.797269,113.610901 L257.31966,115.486598 C257.259958,115.706094 257.140556,115.726048 256.941553,115.726048 L249.87692,115.726048 C249.578414,115.726048 249.538614,115.68614 249.538614,115.386826 L249.538614,113.770534 L253.10078,109.340697 C253.478888,108.88175 253.896795,108.382894 254.1356,108.22326 C253.817194,108.283123 253.498788,108.283123 252.822175,108.283123 L250.294828,108.283123 C249.976422,108.283123 249.936621,108.243215 249.936621,107.923947 L249.936621,106.227838 C249.936621,105.928525 249.996322,105.868662 250.294828,105.868662 L257.160457,105.868662 C257.439062,105.868662 257.498763,105.928525 257.498763,106.227838 L257.498763,107.884039 L253.916696,112.33383 C253.61819,112.712961 253.259983,113.112045 252.981378,113.291633 C253.299784,113.23177 253.757493,113.191862 254.1555,113.191862 L257.558464,113.191862 C257.757468,113.191862 257.837069,113.23177 257.837069,113.37145 C257.837069,113.431313 257.817169,113.511129 257.797269,113.610901 Z M266.871839,110.817309 C266.871839,113.970077 265.180307,116.06527 262.354454,116.06527 C259.429099,116.06527 257.777368,114.049893 257.777368,110.777401 C257.777368,107.604679 259.4888,105.52944 262.374355,105.52944 C265.240008,105.52944 266.871839,107.584725 266.871839,110.817309 Z M263.807181,110.797355 C263.807181,108.542528 263.349473,107.744359 262.334554,107.744359 C261.319635,107.744359 260.842026,108.522574 260.842026,110.817309 C260.842026,113.072137 261.319635,113.850351 262.334554,113.850351 C263.349473,113.850351 263.807181,113.052182 263.807181,110.797355 Z M276.364317,115.406781 C276.364317,115.68614 276.324516,115.726048 276.065812,115.726048 L273.618066,115.726048 C273.31956,115.726048 273.29966,115.68614 273.29966,115.406781 L273.29966,109.101246 C273.29966,108.203306 273.021054,107.784267 272.384242,107.784267 C271.886733,107.784267 271.468825,107.963855 270.871814,108.462711 L270.871814,115.426735 C270.871814,115.68614 270.871814,115.726048 270.553408,115.726048 L268.105662,115.726048 C267.827057,115.726048 267.807156,115.68614 267.807156,115.426735 L267.807156,108.781979 C267.807156,107.784267 267.628053,107.045961 267.409149,106.507197 C267.369348,106.42738 267.349448,106.347563 267.349448,106.287701 C267.349448,106.18793 267.409149,106.148021 267.548452,106.108113 L269.57829,105.52944 C269.677792,105.489532 269.777293,105.469578 269.856895,105.469578 C270.1355,105.469578 270.374305,105.848708 270.613109,106.686785 C271.528526,105.868662 272.424043,105.52944 273.478763,105.52944 C275.488701,105.52944 276.364317,106.626923 276.364317,108.781979 L276.364317,115.406781 Z M223.9401,119.424231 L222.25686,124.801894 C222.210425,124.953213 222.187208,124.953213 222.036297,124.953213 L220.829008,124.953213 C220.666488,124.953213 220.631663,124.941573 220.608445,124.790254 L220.144103,122.078142 C220.086061,121.740584 220.051235,121.216785 220.016409,120.879226 C219.981584,121.240065 219.911932,121.740584 219.842281,122.078142 L219.238636,124.790254 C219.203811,124.953213 219.180594,124.953213 219.029682,124.953213 L217.810785,124.953213 C217.659873,124.953213 217.636656,124.953213 217.601831,124.801894 L216.139153,119.424231 C216.127545,119.377671 216.115936,119.342751 216.115936,119.307831 C216.115936,119.237991 216.16237,119.191432 216.301673,119.179792 L217.752742,119.040112 C217.834002,119.040112 217.857219,119.063392 217.880436,119.191432 L218.356386,121.670744 C218.437646,122.101422 218.495689,122.7067 218.542123,123.160659 C218.600166,122.567021 218.634992,122.054863 218.693034,121.763863 L219.227028,119.296191 C219.261853,119.144872 219.273462,119.121592 219.424373,119.121592 L220.701314,119.121592 C220.852225,119.121592 220.875442,119.156512 220.910268,119.307831 L221.37461,121.694024 C221.432653,121.996663 221.479087,122.532101 221.53713,123.160659 C221.618389,122.473901 221.676432,121.950103 221.746083,121.624184 L222.268468,119.191432 C222.291685,119.075032 222.326511,119.028472 222.419379,119.028472 C222.442597,119.028472 222.465814,119.040112 222.500639,119.040112 L223.789188,119.179792 C223.916883,119.191432 223.963317,119.226351 223.963317,119.296191 C223.963317,119.331111 223.951708,119.366031 223.9401,119.424231 Z M228.993136,122.182902 C228.993136,122.392421 228.923485,122.415701 228.737748,122.415701 L225.568614,122.415701 C225.615048,123.311979 225.974913,123.707737 226.683034,123.707737 C227.251853,123.707737 227.658153,123.556418 228.110886,123.311979 C228.15732,123.288699 228.203755,123.265419 228.23858,123.265419 C228.296623,123.265419 228.343057,123.300339 228.389491,123.381818 L228.784182,124.173336 C228.807399,124.208256 228.819008,124.243176 228.819008,124.278096 C228.819008,124.708774 227.135768,125.069613 226.590166,125.069613 C224.779232,125.069613 223.850548,123.963817 223.850548,122.043223 C223.850548,120.204108 224.8721,118.923712 226.532123,118.923712 C228.215363,118.923712 228.993136,120.052789 228.993136,122.182902 Z M227.240245,121.240065 C227.205419,120.378708 226.984857,120.099349 226.462472,120.099349 C225.91687,120.099349 225.696308,120.390348 225.580222,121.240065 L227.240245,121.240065 Z M234.858771,121.798783 C234.858771,123.835777 233.848827,125.069613 232.38615,125.069613 C231.933416,125.069613 231.643203,124.929933 231.26012,124.604015 C231.097601,124.976493 231.027949,125.023053 230.900255,125.023053 C230.853821,125.023053 230.842213,125.011413 230.749344,124.999773 L229.600098,124.813534 C229.518838,124.801894 229.472403,124.755334 229.472403,124.697134 C229.472403,124.662214 229.484012,124.627294 229.507229,124.580735 C229.65814,124.219896 229.7394,123.952177 229.7394,123.323619 L229.7394,116.898359 C229.7394,116.747039 229.7394,116.700479 229.90192,116.677199 L231.306555,116.45604 C231.34138,116.45604 231.387814,116.4444 231.411032,116.4444 C231.5039,116.4444 231.527117,116.49096 231.527117,116.64228 L231.527117,119.342751 C231.968242,119.051752 232.351324,118.923712 232.780841,118.923712 C234.15065,118.923712 234.858771,120.017869 234.858771,121.798783 Z M233.129097,121.880263 C233.129097,120.727907 232.792449,120.169188 232.316499,120.169188 C232.084328,120.169188 231.863765,120.250668 231.527117,120.495107 L231.527117,123.602978 C231.701245,123.719377 231.921808,123.789217 232.095936,123.789217 C232.699581,123.789217 233.129097,123.114099 233.129097,121.880263 Z M242.004664,123.195579 C242.004664,124.394495 241.122414,125.069613 239.880299,125.069613 C239.044483,125.069613 237.523763,124.697134 237.523763,124.371215 C237.523763,124.324655 237.535372,124.278096 237.558589,124.208256 L237.848802,123.253779 C237.87202,123.183939 237.906845,123.149019 237.964888,123.149019 C237.999714,123.149019 238.046148,123.160659 238.080973,123.183939 C238.556924,123.416738 239.299871,123.707737 239.740996,123.707737 C240.089253,123.707737 240.309815,123.556418 240.309815,123.253779 C240.309815,122.95114 240.054427,122.85802 239.415957,122.613581 C238.208667,122.136342 237.721108,121.822063 237.721108,120.786107 C237.721108,119.63375 238.67301,118.923712 239.938342,118.923712 C240.704506,118.923712 241.853753,119.226351 241.853753,119.482431 C241.853753,119.517351 241.842144,119.56391 241.818927,119.61047 L241.459062,120.506747 C241.424236,120.576587 241.401019,120.611507 241.354585,120.611507 C241.331368,120.611507 241.296542,120.599867 241.250108,120.588227 C240.855417,120.425268 240.379467,120.239028 240.03121,120.239028 C239.659736,120.239028 239.39274,120.367068 239.39274,120.681347 C239.39274,120.983986 239.613302,121.065466 240.158904,121.274985 C241.540322,121.810423 242.004664,122.194542 242.004664,123.195579 Z M247.510434,122.182902 C247.510434,122.392421 247.440782,122.415701 247.255046,122.415701 L244.085911,122.415701 C244.132345,123.311979 244.49221,123.707737 245.200332,123.707737 C245.769151,123.707737 246.17545,123.556418 246.628184,123.311979 C246.674618,123.288699 246.721052,123.265419 246.755878,123.265419 C246.813921,123.265419 246.860355,123.300339 246.906789,123.381818 L247.30148,124.173336 C247.324697,124.208256 247.336306,124.243176 247.336306,124.278096 C247.336306,124.708774 245.653066,125.069613 245.107464,125.069613 C243.29653,125.069613 242.367846,123.963817 242.367846,122.043223 C242.367846,120.204108 243.389398,118.923712 245.049421,118.923712 C246.732661,118.923712 247.510434,120.052789 247.510434,122.182902 Z M245.757543,121.240065 C245.722717,120.378708 245.502154,120.099349 244.97977,120.099349 C244.434168,120.099349 244.213605,120.390348 244.09752,121.240065 L245.757543,121.240065 Z M260.301399,117.305757 C260.28979,117.899396 259.837057,118.411554 259.198587,118.411554 C258.583333,118.411554 258.118991,117.899396 258.118991,117.305757 C258.118991,116.723759 258.583333,116.211601 259.210195,116.211601 C259.825448,116.211601 260.301399,116.723759 260.301399,117.305757 Z M260.150488,124.697134 C260.150488,124.871734 260.138879,124.871734 259.964751,124.871734 L258.560116,124.871734 C258.397597,124.871734 258.362771,124.860094 258.362771,124.697134 L258.362771,120.495107 L257.619824,120.495107 C257.468912,120.495107 257.434087,120.460188 257.434087,120.308868 L257.434087,119.307831 C257.434087,119.144872 257.468912,119.121592 257.619824,119.121592 L259.964751,119.121592 C260.127271,119.121592 260.150488,119.144872 260.150488,119.307831 L260.150488,124.697134 Z M265.458912,119.78507 L265.041005,120.669707 C265.006179,120.739547 264.982962,120.762827 264.936528,120.762827 C264.901702,120.762827 264.843659,120.739547 264.797225,120.704627 C264.379317,120.425268 264.100712,120.285588 263.729238,120.285588 C263.102377,120.285588 262.684469,120.774467 262.684469,122.031583 C262.684469,123.242139 263.090768,123.696097 263.740847,123.696097 C264.089103,123.696097 264.390926,123.556418 264.704357,123.358538 C264.762399,123.311979 264.820442,123.300339 264.855268,123.300339 C264.901702,123.300339 264.948136,123.335259 264.982962,123.416738 L265.342827,124.208256 C265.366044,124.254816 265.377653,124.289736 265.377653,124.324655 C265.377653,124.638934 264.205189,125.069613 263.531893,125.069613 C261.813827,125.069613 260.896752,123.940537 260.896752,122.101422 C260.896752,120.169188 261.929913,118.923712 263.71763,118.923712 C264.263232,118.923712 265.493738,119.237991 265.493738,119.64539 C265.493738,119.68031 265.48213,119.72687 265.458912,119.78507 Z M270.709294,122.182902 C270.709294,122.392421 270.639643,122.415701 270.453906,122.415701 L267.284772,122.415701 C267.331206,123.311979 267.691071,123.707737 268.399193,123.707737 C268.968012,123.707737 269.374311,123.556418 269.827044,123.311979 C269.873479,123.288699 269.919913,123.265419 269.954738,123.265419 C270.012781,123.265419 270.059215,123.300339 270.10565,123.381818 L270.50034,124.173336 C270.523557,124.208256 270.535166,124.243176 270.535166,124.278096 C270.535166,124.708774 268.851926,125.069613 268.306324,125.069613 C266.49539,125.069613 265.566706,123.963817 265.566706,122.043223 C265.566706,120.204108 266.588259,118.923712 268.248281,118.923712 C269.931521,118.923712 270.709294,120.052789 270.709294,122.182902 Z M268.956403,121.240065 C268.921577,120.378708 268.701015,120.099349 268.17863,120.099349 C267.633028,120.099349 267.412466,120.390348 267.29638,121.240065 L268.956403,121.240065 Z M275.4489,123.195579 C275.4489,124.394495 274.56665,125.069613 273.324535,125.069613 C272.488719,125.069613 270.967999,124.697134 270.967999,124.371215 C270.967999,124.324655 270.979608,124.278096 271.002825,124.208256 L271.293039,123.253779 C271.316256,123.183939 271.351081,123.149019 271.409124,123.149019 C271.44395,123.149019 271.490384,123.160659 271.52521,123.183939 C272.00116,123.416738 272.744108,123.707737 273.185232,123.707737 C273.533489,123.707737 273.754051,123.556418 273.754051,123.253779 C273.754051,122.95114 273.498663,122.85802 272.860193,122.613581 C271.652904,122.136342 271.165345,121.822063 271.165345,120.786107 C271.165345,119.63375 272.117246,118.923712 273.382578,118.923712 C274.148742,118.923712 275.297989,119.226351 275.297989,119.482431 C275.297989,119.517351 275.28638,119.56391 275.263163,119.61047 L274.903298,120.506747 C274.868472,120.576587 274.845255,120.611507 274.798821,120.611507 C274.775604,120.611507 274.740778,120.599867 274.694344,120.588227 C274.299653,120.425268 273.823703,120.239028 273.475446,120.239028 C273.103973,120.239028 272.836976,120.367068 272.836976,120.681347 C272.836976,120.983986 273.057538,121.065466 273.60314,121.274985 C274.984558,121.810423 275.4489,122.194542 275.4489,123.195579 Z"></path>
                </g>
            </g>
        </g>
    </g>
</svg>