<?xml version="1.0" encoding="UTF-8"?>
<svg width="30px" height="24px" viewBox="0 0 30 24" version="1.1" xmlns="http://www.w3.org/2000/svg" xmlns:xlink="http://www.w3.org/1999/xlink">
    <!-- Generator: Sketch 42 (36781) - http://www.bohemiancoding.com/sketch -->
    <title>ico team</title>
    <desc>Created with Sketch.</desc>
    <defs></defs>
    <g id="Homepage" stroke="none" stroke-width="1" fill="none" fill-rule="evenodd">
        <g id="Mobile-Portrait" transform="translate(-38.000000, -1094.000000)" fill="#017676">
            <g id="how-it-works-with-us" transform="translate(0.000000, 1011.000000)">
                <g id="1" transform="translate(24.000000, 66.000000)">
                    <g id="ico-team" transform="translate(14.000000, 17.000000)">
                        <path d="M9.28986737,9.46723865 C9.28986737,11.1000267 9.87851947,12.7535261 10.9048426,14.0038302 C11.9841252,15.3186151 13.3930692,16.0427471 14.8720453,16.0427471 C16.3508471,16.0427471 17.7580491,15.3190258 18.8345444,14.004945 C19.8574994,12.7561663 20.4441772,11.1033124 20.4441772,9.47011359 L20.4441772,8.0315891 C20.8578654,6.23158532 20.9446215,4.67383896 20.9439827,3.68028428 C20.9431117,2.39747576 20.805022,1.51117382 20.6761074,1.10950408 C20.6076433,0.896113363 20.4022509,0.76650652 20.1899482,0.787276471 C20.1548741,0.784108173 20.118929,0.784460206 20.0825194,0.78968203 C19.218501,0.914419083 18.1585555,0.699326874 17.0363014,0.471620147 C15.2180243,0.102748157 13.1637522,-0.313472282 11.5926196,0.787100454 C11.5786248,0.785809666 11.5645139,0.784929584 11.5501706,0.784929584 C10.6683829,0.784929584 9.88548783,1.14095237 9.34567231,1.78740244 C8.84702818,2.38456788 8.57241677,3.2061544 8.57241677,4.10084646 C8.57241677,5.56618413 9.1893488,8.27419856 9.2898093,8.70549775 L9.2898093,9.46723865 L9.28986737,9.46723865 Z M18.1187778,13.4064301 C17.2220662,14.5011356 16.068977,15.1040509 14.8720453,15.1040509 C13.6744748,15.1040509 12.5195274,14.5004902 11.6199704,13.4046113 C10.7295883,12.3199387 10.2189819,10.8848172 10.2189819,9.46729732 L10.2189819,8.90433777 C10.2189819,7.74339136 10.9905534,6.16516841 11.2833986,5.60807607 C15.4612781,5.12573209 18.2576804,6.29137227 18.8924979,6.59153914 L19.5150627,8.07371573 L19.5150627,9.47017226 C19.5150627,10.8884548 19.0061402,12.3231656 18.1187778,13.4064301 Z M11.5502287,1.72368445 C11.5839091,1.72368445 11.6167185,1.71987076 11.6483664,1.71294744 C11.7760035,1.74040602 11.9142093,1.71406221 12.0263418,1.6280488 C13.2789624,0.666763815 15.0961361,1.03540112 16.8534981,1.39201062 C17.7939362,1.58281255 18.6935513,1.76528303 19.5297543,1.76528303 C19.6455452,1.76528303 19.7601166,1.76176269 19.8734686,1.75425266 C20.0134745,2.54908467 20.1265362,4.2602001 19.8116825,6.37668162 L19.6805031,6.06442828 C19.6396221,5.96714981 19.5675577,5.88671025 19.4758076,5.83595881 C19.3423635,5.76220788 16.1555589,4.04182225 10.9690676,4.69965472 C10.8169832,4.70745812 10.6716929,4.79018589 10.5898147,4.93334601 C10.560083,4.98532956 10.1558601,5.69854857 9.8059324,6.61066627 C9.64711189,5.74137926 9.50153126,4.76378341 9.50153126,4.10072912 C9.50158933,2.45872951 10.5304675,1.72368445 11.5502287,1.72368445 Z" id="Shape"></path>
                        <path d="M22.8727082,17.0818901 C22.8627203,17.0790738 22.8526161,17.0766096 22.8424539,17.0744387 L20.0784545,16.4902985 L19.347764,15.3707746 C19.3426539,15.3628539 19.3371953,15.3551092 19.3316206,15.3475405 C19.1987573,15.1685903 18.9965007,15.0504832 18.776707,15.023494 C18.5569714,14.9965635 18.3325322,15.0622763 18.1611106,15.2039696 C18.158091,15.2064339 18.1550713,15.2090154 18.1521679,15.2115384 L14.8658318,18.0698709 L11.5794378,15.211597 C11.5764762,15.2090741 11.5735146,15.2065512 11.5705531,15.2040283 C11.3991315,15.062335 11.1746923,14.9965635 10.9549567,15.023494 C10.735163,15.0504832 10.5328483,15.1685903 10.400043,15.3475405 C10.3944103,15.3551092 10.3890098,15.3628539 10.3838997,15.3707746 L9.6532092,16.4902985 L6.88920974,17.0744387 C6.87904755,17.0766096 6.86894343,17.0790738 6.85895544,17.0818901 C6.05527141,17.3093621 5.37155929,17.8128281 4.88168367,18.5378402 C4.4347796,19.199193 4.1886804,19.997604 4.1886804,20.7859821 L4.1886804,21.6684703 C4.1886804,22.4426497 4.87099885,23.0725543 5.70969889,23.0725543 L13.8080931,23.0725543 C13.8086738,23.0725543 13.8092545,23.0726129 13.8098352,23.0726129 C13.8104739,23.0726129 13.8111127,23.0725543 13.8117515,23.0725543 L15.9198542,23.0725543 C15.9204929,23.0725543 15.9211317,23.0726129 15.9217705,23.0726129 C15.9223512,23.0726129 15.9229319,23.0725543 15.9235126,23.0725543 L24.0219067,23.0725543 C24.8606068,23.0725543 25.5429252,22.4427084 25.5429252,21.6684703 L25.5429252,20.7859821 C25.5429252,19.9975453 25.296826,19.199193 24.8499219,18.5378402 C24.3601625,17.8128868 23.6763923,17.3094208 22.8727082,17.0818901 Z M18.6543542,16.0135284 L19.2311021,16.8971314 L16.9228913,20.1038007 L15.5483245,18.7150302 L18.6543542,16.0135284 Z M14.5610823,21.1989169 L15.1705814,21.1989169 L15.3556494,22.1338581 L14.3760143,22.1338581 L14.5610823,21.1989169 Z M15.3303891,20.0030019 C15.3303891,20.1575444 15.2371873,20.2601033 15.1755173,20.2601033 L14.5560883,20.2601033 C14.4944183,20.2601033 14.4012165,20.1575444 14.4012165,20.0030019 L14.4012165,19.8223502 L14.8657738,19.3529728 L15.330331,19.8223502 L15.330331,20.0030019 L15.3303891,20.0030019 Z M11.0773094,16.0135284 L14.1833392,18.7149715 L12.8087724,20.103742 L10.5005616,16.8970727 L11.0773094,16.0135284 Z M5.11773682,21.6684703 L5.11773682,20.7859821 C5.11773682,19.6787207 5.79691951,18.3656374 7.09524087,17.9899007 L9.73659723,17.4316936 L12.3771406,21.1001129 C12.4570445,21.2111794 12.5810232,21.281234 12.7164997,21.2920296 C12.7286362,21.2930271 12.7407728,21.2934378 12.7528513,21.2934378 C12.8755525,21.2934378 12.9938404,21.2443292 13.0812933,21.1559689 L13.6230251,20.6086161 C13.6475885,20.6544977 13.6745909,20.6985019 13.7043226,20.7401591 L13.4284917,22.1337407 L5.70969889,22.1337407 C5.38880597,22.1337994 5.11773682,21.920702 5.11773682,21.6684703 Z M24.6139269,21.6684703 C24.6139269,21.920702 24.3428577,22.1337994 24.0220229,22.1337994 L16.303172,22.1337994 L16.0273411,20.7402178 C16.0570728,20.6985605 16.0840751,20.6545564 16.1086386,20.6086748 L16.6503704,21.1560275 C16.7378233,21.2443878 16.8561112,21.2934964 16.9788124,21.2934964 C16.9908909,21.2934964 17.0030274,21.2930271 17.015164,21.2920883 C17.1506405,21.2813513 17.2746192,21.211238 17.3545231,21.1001716 L19.9950665,17.4317523 L22.6364228,17.9899594 C23.9347442,18.365696 24.6139269,19.6787794 24.6139269,20.7860408 L24.6139269,21.6684703 L24.6139269,21.6684703 Z" id="Shape"></path>
                        <path d="M3.72603945,10.3476734 C3.72603945,11.4880845 4.11011216,12.5582651 4.80747065,13.3611352 C5.51528168,14.1760331 6.46053954,14.6248166 7.46903525,14.6248166 C8.22516023,14.6248166 8.95312144,14.3698273 9.57429254,13.8874833 C9.77771055,13.7295378 9.81586231,13.4348274 9.65948073,13.2292988 C9.50309914,13.0237701 9.21158947,12.9851638 9.00805533,13.143168 C8.55075679,13.4983107 8.0185484,13.6860617 7.46903525,13.6860617 C5.91741405,13.6860617 4.65509587,12.1884543 4.65509587,10.3476734 L4.65509587,10.0717968 C4.65509587,9.32994575 4.9587421,8.34789082 5.11785296,7.88402857 C6.12048363,7.79426014 7.01580158,7.92709395 7.74701469,8.0362242 L7.82988009,8.04854536 C7.85287567,8.05194835 7.87563898,8.05359117 7.89817,8.05359117 C8.1247578,8.05359117 8.32318181,7.88584741 8.35715256,7.65250815 C8.39454942,7.39605206 8.21906292,7.15754965 7.96524045,7.11976477 L7.88272347,7.10750228 C7.0289834,6.98006631 5.96671519,6.82165142 4.72588278,6.98217851 C4.72443104,6.98235452 4.72292123,6.98247187 4.72146949,6.98270655 C4.72129528,6.98270655 4.72112107,6.98270655 4.72094686,6.98276523 C4.71932091,6.98294124 4.71775303,6.98341062 4.71612708,6.98364531 C4.70282913,6.98552282 4.68958925,6.98781103 4.67652358,6.99086199 C4.66914873,6.99256348 4.66206423,6.9948517 4.6548636,6.99690522 C4.64772103,6.99895875 4.64057846,7.00071891 4.63355203,7.0030658 C4.6244351,7.00611675 4.61566658,7.00975443 4.60683999,7.01333343 C4.60190407,7.01538696 4.59685201,7.01714712 4.59191609,7.01937667 C4.58291529,7.02342505 4.57420484,7.0279428 4.56555247,7.03257791 C4.56090689,7.03504214 4.55620325,7.03727168 4.55161575,7.03991193 C4.54366021,7.04442969 4.53611115,7.04941682 4.52844596,7.05440396 C4.52327776,7.05780694 4.51805149,7.06097524 4.51299943,7.06455424 C4.50661176,7.06913067 4.50051445,7.07405914 4.49441714,7.07887026 C4.48849403,7.08356403 4.48251286,7.08808179 4.47682203,7.09306892 C4.47194418,7.09729332 4.46741475,7.10181108 4.46276917,7.10627016 C4.45632344,7.11237207 4.44987771,7.11841531 4.4437804,7.12486924 C4.44000587,7.12891763 4.43652169,7.13320069 4.4328633,7.13730775 C4.42653371,7.1445831 4.42014605,7.1517411 4.41422294,7.15942716 C4.41073876,7.16388624 4.40766107,7.16863869 4.4043511,7.17321512 C4.39895062,7.18078383 4.39343401,7.18829387 4.38844002,7.19627329 C4.38431707,7.2027859 4.38065868,7.20970922 4.37688415,7.21645652 C4.37334191,7.22279311 4.36956738,7.22889502 4.36625741,7.2354663 C4.35998588,7.24796348 4.35429506,7.26081268 4.34912686,7.27383791 C4.3486623,7.27495268 4.34813967,7.27600878 4.34767512,7.27712355 C4.34767512,7.27718222 4.34755898,7.27747558 4.34750091,7.27753425 C4.34709442,7.27864903 4.34668793,7.27970513 4.34628145,7.28076122 C4.33820976,7.30170719 4.30470357,7.3894221 4.25691225,7.52642164 C4.21980574,7.22795626 4.19547455,6.94685785 4.19547455,6.72167403 C4.19547455,5.70717338 4.68000776,5.25305071 5.16024381,5.25305071 C5.18294904,5.25305071 5.20507358,5.25087984 5.22690777,5.24771155 C5.24891617,5.25093852 5.27109878,5.25310939 5.2934556,5.25310939 C5.39141911,5.25310939 5.49013752,5.22195446 5.57410624,5.15747373 C6.00771236,4.82468513 6.56709736,4.71285596 7.38762159,4.79470365 C7.64272159,4.82040206 7.87035464,4.63171234 7.89561494,4.37373077 C7.92081717,4.11580787 7.73429743,3.88598894 7.47896516,3.86052521 C6.84937395,3.79768731 5.93808685,3.78102441 5.14508763,4.31476523 C4.03822192,4.32380074 3.26641813,5.31084281 3.26641813,6.7217327 C3.26641813,7.71024158 3.65211678,9.51177084 3.72603945,9.84796242 L3.72603945,10.3476734 L3.72603945,10.3476734 Z" id="Shape"></path>
                        <path d="M3.25190072,18.8492721 L1.18386607,18.8492721 C1.03805316,18.8492721 0.92911449,18.7611465 0.92911449,18.6822911 L0.92911449,18.0814293 C0.92911449,17.3852839 1.35284877,16.5606464 2.16297853,16.3233175 L3.85466374,15.9657692 L4.72832171,17.2391902 C4.81856195,17.3706745 4.96327154,17.4411985 5.11053618,17.4411985 C5.20182168,17.4411985 5.29409436,17.4140333 5.37475312,17.357532 C5.58560404,17.2098541 5.63804094,16.917432 5.49187961,16.7043933 L4.62176389,15.4360768 L4.87872212,15.0423865 L6.6904373,16.4090962 C6.89606195,16.5642254 7.18710707,16.5215121 7.34058517,16.3138126 C7.49412134,16.1061131 7.4519047,15.8119894 7.24628005,15.6569189 L5.25780083,14.1569059 C5.11140723,14.0404417 4.92244857,13.9868153 4.7371483,14.0094627 C4.54760894,14.0326969 4.3731677,14.1345518 4.25859627,14.2889183 C4.25296351,14.296487 4.2476211,14.3042318 4.2424529,14.3121525 L3.77859249,15.0228486 L1.95659898,15.4079141 C1.94643679,15.410085 1.93633267,15.4125492 1.92634469,15.4153655 C0.661703726,15.7732658 0,17.027501 0,18.0814293 L0,18.6822911 C0,19.2920124 0.53110507,19.788027 1.18386607,19.788027 L3.25190072,19.788027 C3.50845245,19.788027 3.71645796,19.5778633 3.71645796,19.3186496 C3.71645796,19.0594359 3.50845245,18.8492721 3.25190072,18.8492721 Z" id="Shape"></path>
                        <path d="M21.8248994,4.29845436 C22.5079147,4.31224232 23.2630525,4.43574726 23.9933945,4.55514514 C24.5451724,4.64532428 25.0737224,4.73092699 25.532705,4.76073246 C25.5165035,5.87221822 25.444381,6.87175746 25.3625028,7.67656375 C25.3615737,7.67585968 25.3605865,7.67527296 25.3596574,7.67456889 C25.3523406,7.66917105 25.3447916,7.66412524 25.3371844,7.65919678 C25.3336422,7.65690857 25.3305064,7.65432699 25.3269061,7.65215612 C25.3228993,7.64969189 25.3187183,7.64740367 25.3146534,7.64493944 C25.3141308,7.64464608 25.3136081,7.64429405 25.3130274,7.64400069 C24.3833903,7.07828353 23.2567229,6.7518902 21.8689162,6.64674966 C21.612829,6.62715315 21.3901319,6.82124072 21.3709108,7.07969167 C21.3516898,7.33820129 21.5435519,7.56350246 21.7994068,7.58286428 C22.9831567,7.67257404 23.9415964,7.93519071 24.7242592,8.38385686 C24.8343012,8.64606283 25.0765097,9.30970385 25.0765097,10.0717968 L25.0765097,10.3476734 C25.0765097,12.188513 23.8141916,13.6860617 22.2625704,13.6860617 C21.7130572,13.6860617 21.1809069,13.4983107 20.7235503,13.143168 C20.5201323,12.9852225 20.2284484,13.0237701 20.0721249,13.2292988 C19.9158014,13.4348274 19.9538951,13.7294791 20.1573131,13.8874833 C20.7784842,14.3698859 21.5064454,14.6248166 22.2625704,14.6248166 C23.2711241,14.6248166 24.216382,14.1760331 24.924135,13.3611352 C25.6214935,12.5582064 26.0055662,11.4880258 26.0055662,10.3476734 L26.0055662,9.84039371 C26.0708365,9.48953408 26.4543865,7.30446479 26.4646649,4.41650278 C26.4765691,4.37021043 26.4817954,4.32133651 26.4788919,4.27099578 C26.4643164,4.02052425 26.2576465,3.82796215 26.0123022,3.82978099 C26.0084116,3.82966365 26.004579,3.82919427 26.0006302,3.82919427 C25.9916294,3.82919427 25.9828609,3.83007435 25.9739763,3.83054373 C25.524401,3.85412995 24.8527674,3.74464766 24.1417044,3.62841807 C23.415195,3.50966558 22.5917672,3.37501293 21.8434236,3.35993418 C21.5852459,3.35365626 21.3748015,3.56065171 21.3696333,3.81980672 C21.3645812,4.07896174 21.5684057,4.29329121 21.8248994,4.29845436 Z" id="Shape"></path>
                        <path d="M27.8053771,15.4153068 C27.7953891,15.4124906 27.785285,15.4100263 27.7751228,15.4078555 L25.9531293,15.02279 L25.4892689,14.3120938 C25.4841007,14.3042318 25.4787002,14.296487 25.4731255,14.2888597 C25.3585541,14.1344932 25.1841128,14.0326383 24.9945735,14.0094041 C24.809157,13.9867566 24.6203145,14.0403243 24.4739209,14.1568473 L22.4854417,15.6568602 C22.2798171,15.8119308 22.2376004,16.1060544 22.3911366,16.3137539 C22.5446728,16.5215121 22.8357759,16.5641668 23.0412845,16.4090375 L24.8529996,15.0423278 L25.1099579,15.4360181 L24.2397841,16.7042759 C24.0936227,16.9173146 24.1460596,17.2097368 24.3569106,17.3574146 C24.4376274,17.4139159 24.529842,17.4410812 24.6211275,17.4410812 C24.7683341,17.4410812 24.9131017,17.3705572 25.003342,17.2390728 L25.8769999,15.9656519 L27.5686852,16.3232001 C28.3787568,16.5605291 28.8025492,17.3852252 28.8025492,18.081312 L28.8025492,18.6821738 C28.8025492,18.7609705 28.6936105,18.8491548 28.5477976,18.8491548 L26.479763,18.8491548 C26.2232112,18.8491548 26.0152057,19.0593185 26.0152057,19.3185322 C26.0152057,19.5777459 26.2232112,19.7879097 26.479763,19.7879097 L28.5477976,19.7879097 C29.2005586,19.7879097 29.7316637,19.291895 29.7316637,18.6821738 L29.7316637,18.081312 C29.7316637,17.027501 29.06996,15.7732658 27.8053771,15.4153068 Z" id="Shape"></path>
                    </g>
                </g>
            </g>
        </g>
    </g>
</svg>