<?xml version="1.0" encoding="UTF-8"?>
<svg width="119px" height="38px" viewBox="0 0 119 38" version="1.1" xmlns="http://www.w3.org/2000/svg" xmlns:xlink="http://www.w3.org/1999/xlink">
    <!-- Generator: Sketch 42 (36781) - http://www.bohemiancoding.com/sketch -->
    <title>aragon</title>
    <desc>Created with Sketch.</desc>
    <defs></defs>
    <g id="Page-1" stroke="none" stroke-width="1" fill="none" fill-rule="evenodd">
        <g id="Desktop" transform="translate(-23.000000, -94.000000)" fill="#FFFFFF">
            <g id="aragon" transform="translate(23.000000, 94.000000)">
                <path d="M2.27004151,16.8625049 C2.36968104,12.6562907 4.01655842,9.01991244 7.29273502,6.13685384 C7.62187731,5.84724668 7.92550436,5.8824716 8.18832493,6.23180407 C9.44085935,7.89625998 10.6927211,9.56111975 11.9445381,11.2261141 C12.1850272,11.5459654 12.1610814,11.8119247 11.8713555,12.0970895 C10.4706173,13.4756178 9.76376857,15.1512021 9.7719747,17.1142397 C9.77699704,18.3173613 10.1164979,19.4371548 10.7306129,20.4724532 C10.9632546,20.864639 10.9258561,21.0917387 10.5686874,21.3842177 C8.9564731,22.7042771 7.34300321,24.022766 5.72872616,25.3403574 C5.41222938,25.5986885 5.10331095,25.5557904 4.86932396,25.2200094 C3.59122945,23.3859803 2.77680405,21.3666277 2.44259458,19.1532913 C2.33524217,18.4421966 2.2944357,17.7275122 2.27004151,16.8625049" id="Fill-1"></path>
                <path d="M16.367946,0.00074039637 C18.7590257,-0.0033878743 20.8305595,0.388797839 22.8285519,1.17249618 C23.2609211,1.34211426 23.3710537,1.60605435 23.1873797,2.03593296 C22.0288796,4.74735422 20.8701104,7.45864085 19.711386,10.1699724 C19.5152907,10.6288386 19.3073122,10.717058 18.834002,10.5621132 C17.0795032,9.98783486 15.360654,10.0698169 13.6824318,10.8535153 C13.2691654,11.0465119 13.0411873,10.9907354 12.7638827,10.6165884 C11.0006396,8.2372686 9.23788976,5.85754492 7.47572289,3.47737252 C7.18617632,3.08626374 7.23985252,2.80621443 7.65258082,2.55080011 C9.65088711,1.31433818 11.8081144,0.514351115 14.1363253,0.17852527 C14.9581049,0.059972106 15.7822162,-0.007695635 16.367946,0.00074039637" id="Fill-3"></path>
                <path d="M87.6339661,10.8186089 C87.6337867,12.3665758 87.6349078,13.9145876 87.6331589,15.4625545 C87.632576,16.0108068 87.5760747,16.5520141 87.365899,17.064503 C86.9504353,18.0776344 86.1367274,18.5822258 85.1126195,18.8089217 C84.6739724,18.9060258 84.2288231,18.9482508 83.7790551,18.9480265 C81.5071661,18.9467252 79.2353219,18.9477572 76.9634778,18.9474431 C76.5622291,18.9473983 76.3816044,18.7959087 76.2959557,18.4035883 C76.2405755,18.1499689 76.2474812,17.898638 76.3070317,17.6484289 C76.382277,17.332347 76.5487764,17.1953512 76.8749143,17.1840882 C77.0689916,17.1774022 77.2634277,17.1812612 77.4577293,17.1812164 C79.3858126,17.1811266 81.3139407,17.181351 83.242024,17.180992 C83.5414359,17.1809471 83.8396819,17.1581519 84.1312912,17.0900803 C84.9584069,16.8969042 85.4020764,16.3020742 85.402749,15.3805275 C85.4048118,12.6210478 85.4046324,9.86156811 85.4014038,7.1020884 C85.4011347,6.88831577 85.4970972,6.61136266 85.3576825,6.47759771 C85.2303753,6.355365 84.9579137,6.44223818 84.7498455,6.44362923 C83.307718,6.45345631 81.8650971,6.40782097 80.4236871,6.47257199 C79.7665235,6.50214298 79.1139787,6.58394556 78.4982943,6.83402004 C77.8744486,7.08745996 77.3475967,7.51688986 77.3797038,8.47949488 C77.4084028,9.33853416 77.3860265,10.1992786 77.3856678,11.0592602 C77.3853539,11.8279263 77.7332403,12.3678771 78.4418827,12.6705422 C79.112185,12.9569185 79.8236974,13.0431635 80.5405909,13.0603497 C81.5713354,13.0850295 82.6028422,13.0774012 83.63408,13.0818436 C84.2336212,13.0844013 84.4163984,13.2623208 84.4324519,13.8699394 C84.4350527,13.9669538 84.4325416,14.0645515 84.4249632,14.1612518 C84.3906589,14.6006882 84.1925906,14.7984862 83.7522843,14.7967362 C82.3553577,14.791172 80.9570411,14.8420126 79.5624463,14.7240876 C78.825912,14.6618046 78.1016644,14.5320333 77.3968335,14.2964975 C75.9781136,13.8224195 75.1914456,12.8650645 75.1627914,11.3506623 C75.1408635,10.1923682 75.1123887,9.03218956 75.1798314,7.87479297 C75.2415793,6.81512871 75.7657406,6.03183423 76.6948277,5.52122997 C77.4380884,5.11280041 78.2479399,4.92433587 79.0784637,4.80753274 C79.9611838,4.68337051 80.8492851,4.6678895 81.7390007,4.67085108 C83.2784808,4.67605629 84.8179609,4.67224213 86.3574411,4.67233187 C86.4471256,4.67237675 86.5369447,4.67053697 86.626405,4.67497935 C87.3034337,4.70840937 87.6324415,5.04791476 87.6333832,5.72593834 C87.6357598,7.4234653 87.6341455,9.12103712 87.6339661,10.8186089" id="Fill-5"></path>
                <path d="M6.34576483,37.2555248 C6.25486954,37.2666083 6.16487109,37.2344347 6.07886361,37.1861968 C3.98522264,36.0119282 2.00785769,34.6747274 0.260264563,33.0173614 C-0.095469203,32.679965 -0.0837653692,32.3848385 0.278335999,32.0517499 C3.79719898,28.8149165 7.3158826,25.5779484 10.8347007,22.3410701 C10.9556404,22.2298311 11.0753692,22.1172011 11.1991788,22.0092828 C11.4196682,21.8172284 11.7137887,21.8060552 11.932036,22.002507 C12.2823887,22.3179159 12.6558352,22.5993114 13.0521961,22.854277 C13.3108015,23.0205296 13.3583791,23.3201882 13.2028661,23.6472639 C12.5488864,25.0227409 11.8962968,26.3988909 11.2394023,27.772932 C9.80422527,30.7753066 8.36640257,33.7763798 6.93064262,36.7784852 C6.81145185,37.0277969 6.68620738,37.2641403 6.34576483,37.2555248" id="Fill-7"></path>
                <path d="M67.2924789,15.5339018 C65.9399462,15.5339018 64.5873238,15.5404531 63.2348808,15.5303568 C62.7721534,15.5269016 62.3150312,15.4529518 61.8676399,15.3231805 C61.0002109,15.0715354 60.4532248,14.5219818 60.2860977,13.6242176 C60.089823,12.5701175 60.079599,11.5109917 60.3117026,10.464161 C60.5254209,9.50025468 61.1914632,8.97780408 62.1240928,8.7587365 C62.6431422,8.63681789 63.1718774,8.59836215 63.7023167,8.59679162 C65.323903,8.59194539 66.9454894,8.59472748 68.5670757,8.59540057 C69.0433007,8.59558006 69.2338803,8.75460823 69.2998882,9.22514134 C69.3204259,9.3716052 69.3205156,9.52565252 69.3006953,9.67216125 C69.2367054,10.1450277 69.0490405,10.3054469 68.5725016,10.3059405 C67.0405998,10.3074662 65.5086532,10.3059405 63.9767514,10.3072867 C63.730388,10.3075111 63.4848317,10.3183702 63.2422798,10.372666 C62.7990139,10.4720137 62.5114404,10.7344281 62.4095139,11.1784416 C62.2774534,11.7539764 62.2732831,12.3378126 62.3861511,12.9140204 C62.5035033,13.512844 62.8570398,13.774361 63.542723,13.8234066 C63.6544251,13.831394 63.7667999,13.8310798 63.8788607,13.8311247 C65.948825,13.8315286 68.0187892,13.828567 70.0887086,13.8362402 C70.2788847,13.8369581 70.318884,13.7862522 70.3181217,13.6023647 C70.3105434,11.8675487 70.3146688,10.1326878 70.3122922,8.39782692 C70.3120232,8.21133678 70.3107227,8.02170556 70.278526,7.83907446 C70.1371831,7.03688865 69.6741866,6.62648469 68.8129459,6.5169509 C68.3973029,6.46404622 67.9800007,6.44264203 67.5615325,6.44250741 C65.603674,6.44152022 63.6458154,6.44246254 61.6879569,6.44169971 C60.8971634,6.4413856 60.6085585,6.08366197 60.7572555,5.29206607 C60.8448324,4.82584072 61.029179,4.672287 61.5042381,4.67237675 C63.6638869,4.6727806 65.8235805,4.6651074 67.9830948,4.67838966 C68.8439319,4.68363975 69.6936033,4.79622487 70.5029167,5.11890307 C71.7826704,5.62919322 72.4932411,6.64461319 72.4987118,8.01807089 C72.5075458,10.2463947 72.4985773,12.4748532 72.50351,14.7032219 C72.5046759,15.2308777 72.2403755,15.4579326 71.5735709,15.5277093 C71.2037118,15.5664792 70.8270815,15.5422032 70.4535005,15.5425621 C69.3998416,15.5437737 68.3461378,15.5430109 67.2924789,15.5430109 L67.2924789,15.5339018 Z" id="Fill-10"></path>
                <path d="M47.5843843,9.70551499 C47.5843843,11.3581694 47.5847879,13.0108239 47.5841601,14.6635232 C47.5839359,15.290437 47.4267637,15.4887286 46.8052947,15.5985765 C46.4500093,15.661398 46.0919886,15.6482952 45.7430709,15.535037 C45.4502508,15.4399971 45.2787291,15.2480773 45.2581913,14.9350467 C45.2504336,14.8158654 45.2473395,14.6961904 45.2472947,14.5766949 C45.2465772,11.6527574 45.2468911,8.72873025 45.2458597,5.8047928 C45.2457252,5.47596707 45.2236628,5.15001318 45.156803,4.82540546 C45.0320517,4.21967148 44.6687845,3.81559455 44.1263723,3.55591735 C43.6001034,3.30395823 43.0334316,3.20470024 42.4597195,3.16597527 C41.4298718,3.09637801 40.3993067,3.08435217 39.3793243,3.28524639 C38.954085,3.36902336 38.5434643,3.49668564 38.1715424,3.73136886 C37.7088599,4.02330939 37.4857695,4.45009181 37.4746935,4.98533107 C37.462317,5.58334698 37.4696712,6.18176674 37.4696263,6.780007 C37.4693124,9.41231803 37.4693573,12.044629 37.469447,14.6769401 C37.469447,15.2924114 37.287477,15.5212163 36.6849314,15.6088074 C36.3748022,15.6539043 36.0590229,15.6505389 35.7531986,15.5538386 C35.406209,15.4441702 35.2518619,15.2479427 35.2326694,14.8854177 C35.2267503,14.7735057 35.2310551,14.661145 35.2310551,14.5489637 C35.2310551,11.4081125 35.2312345,8.26726139 35.2311448,5.12645511 C35.2310551,3.40537009 35.9607286,2.35611625 37.5689968,1.75446568 C38.473331,1.41612697 39.4160501,1.27432985 40.3717287,1.23111762 C41.6341732,1.17390518 42.8961694,1.18916183 44.1424707,1.44260175 C44.9152825,1.59979014 45.6550455,1.84133885 46.2970523,2.32107083 C47.1900414,2.98832501 47.5955949,3.89080088 47.5842498,4.9942607 C47.5840704,5.00920325 47.5843843,5.02414579 47.5843843,5.03913321 L47.5843843,9.70551499" id="Fill-12"></path>
                <path d="M16.7882526,31.3396277 C15.0504351,31.3424995 13.5293403,31.09947 12.0496798,30.602148 C11.6323327,30.4618766 11.5147563,30.211129 11.679731,29.8110906 C12.4776096,27.8763227 13.276116,25.9418689 14.0745775,24.0074151 C14.2128711,23.672397 14.457396,23.5506579 14.8072106,23.6430055 C16.4305009,24.0714482 18.0045993,23.9314011 19.5306716,23.2346657 C19.841877,23.0925993 20.1053254,23.1573504 20.3158598,23.4325534 C21.5899634,25.0981312 22.8637531,26.7639333 24.1369598,28.4302289 C24.4152509,28.7944142 24.3579425,29.0737007 23.9568732,29.3135891 C22.3173948,30.2942329 20.5534791,30.9205634 18.6616283,31.1935677 C17.9803845,31.2918834 17.2968985,31.3284993 16.7882526,31.3396277" id="Fill-14"></path>
                <path d="M92.6304897,10.1213754 C92.6304897,10.8242135 92.6375747,11.5271862 92.6282027,12.2298897 C92.6209383,12.7741483 92.8569431,13.1750842 93.3031238,13.4646016 C93.7439682,13.7505741 94.2401031,13.8816467 94.7508118,13.9599941 C95.8798506,14.1331571 97.0131494,14.1337404 98.1451478,13.999078 C98.7462136,13.9275513 99.3367415,13.8001133 99.8594679,13.4679222 C100.291972,13.1930781 100.544254,12.8107194 100.544254,12.2842303 C100.544344,10.8486242 100.543402,9.41301804 100.54403,7.97741191 C100.544254,7.46317298 100.31363,7.07623735 99.8946691,6.79470724 C99.5363345,6.55392136 99.1341441,6.41858588 98.7149586,6.33736664 C97.4416173,6.09052298 96.1602045,6.09882439 94.8795988,6.25821154 C94.3089808,6.32924472 93.7504255,6.46817 93.2630796,6.80121375 C92.8454635,7.0866029 92.6239875,7.47443598 92.6288753,7.99042494 C92.6356914,8.70066698 92.6305793,9.41104365 92.6304897,10.1213754 M102.767893,10.1133881 C102.767938,10.8160467 102.751615,11.5191989 102.771391,12.2213639 C102.812287,13.6739318 102.095483,14.6159404 100.812904,15.1820519 C99.9768202,15.5510834 99.084145,15.682515 98.1832637,15.7559713 C97.1170938,15.8428894 96.0488163,15.8429791 94.9826463,15.7559713 C94.0364295,15.6788355 93.0996295,15.5373525 92.2317073,15.1247049 C91.3088085,14.6859415 90.6463087,14.0170719 90.4565362,12.9702412 C90.4181512,12.7584429 90.4018286,12.539869 90.401156,12.3243912 C90.3964475,10.8816055 90.3989587,9.4388646 90.3986896,7.99616862 C90.3983757,6.56666515 91.0391719,5.59674591 92.3606289,5.03314722 C93.2362191,4.65976308 94.1637816,4.52231859 95.1026891,4.45204825 C96.2442389,4.36665587 97.3869097,4.36840589 98.5254999,4.49624767 C99.6127457,4.61834576 100.682548,4.81147703 101.594102,5.48227614 C102.366869,6.0509903 102.763812,6.81777171 102.767265,7.78109469 C102.77009,8.55851088 102.767848,9.33592707 102.767893,10.1133881" id="Fill-16"></path>
                <path d="M105.533415,10.2182193 C105.53328,8.72293272 105.549648,7.22737693 105.526823,5.73240447 C105.514222,4.90966705 106.011209,4.7225487 106.547343,4.67511846 C106.591872,4.67116968 106.636938,4.67251585 106.681781,4.67251585 C109.222095,4.6729197 111.76241,4.66973376 114.30268,4.67668899 C114.909441,4.67834928 115.506337,4.77159435 116.078165,4.98738623 C117.230163,5.42211109 117.818404,6.28491966 117.966025,7.48193866 C118.008222,7.82418127 118.009343,8.16768032 118.009208,8.51167296 C118.008311,10.5751801 118.008894,12.6386872 118.008625,14.7022392 C118.00858,15.3624035 117.741724,15.6408823 117.079224,15.6674468 C116.870484,15.675838 116.662595,15.6742226 116.455289,15.6285424 C115.97014,15.5217458 115.76844,15.2827548 115.767947,14.7847149 C115.766556,13.2669472 115.767453,11.7492244 115.767408,10.2315015 C115.767364,9.54365088 115.765166,8.85580022 115.768485,8.16799442 C115.769471,7.96467709 115.748933,7.76396237 115.705257,7.56746566 C115.53961,6.82217819 115.08881,6.48711517 114.180575,6.43205661 C113.979502,6.41989616 113.777263,6.42483213 113.575563,6.42478726 C111.715147,6.42433854 109.854775,6.42756936 107.994404,6.41994103 C107.802434,6.4191782 107.746785,6.45790317 107.747412,6.66113076 C107.755439,9.34522465 107.746785,12.0293186 107.757726,14.7133676 C107.760013,15.2808702 107.613469,15.6027855 106.822182,15.6669084 C106.606266,15.6844086 106.389813,15.6727418 106.176543,15.6225294 C105.727447,15.5168098 105.534805,15.2804663 105.534177,14.8163051 C105.532518,13.6499789 105.533549,12.4835629 105.533504,11.3172367 C105.533504,10.9508976 105.533504,10.5845584 105.533415,10.2182193" id="Fill-18"></path>
                <path d="M20.4750185,11.0522152 C20.463808,10.9670023 20.4977087,10.8768086 20.5383358,10.7878264 C21.4122221,8.87365499 22.2689786,6.95158601 23.1726849,5.05114558 C23.3794975,4.61624124 23.6478337,4.53250914 24.0527594,4.78303235 C26.7389462,6.44470617 28.680258,8.73993492 29.8835556,11.6604621 C30.0748976,12.1248028 29.9606843,12.3557167 29.4753115,12.5275335 C27.5570038,13.206634 25.63901,13.8865423 23.7210611,14.5667197 C23.2570781,14.7312672 23.0344362,14.6388299 22.8314352,14.191092 C22.3533269,13.1367227 21.6500655,12.2625165 20.7322787,11.5594092 C20.5465868,11.4171633 20.4778884,11.2841612 20.4750185,11.0522152" id="Fill-20"></path>
                <path d="M28.5067139,17.0989606 C28.4459974,20.5019569 27.1563785,23.4716194 24.569024,25.8652087 C24.2610025,26.150194 23.9561647,26.1307642 23.6826268,25.8072335 C22.8579325,24.8316154 22.0352113,23.8543371 21.2143735,22.8753984 C20.9649607,22.5779835 20.9833461,22.2967675 21.2662111,22.0282055 C22.4391954,20.9145596 23.143533,19.5568073 23.3775648,17.9575063 C23.4568459,17.41594 23.4567114,16.8694377 23.4169363,16.3240572 C23.3926318,15.9912827 23.532181,15.7608175 23.8503817,15.6600339 C25.0983423,15.2646174 26.3465718,14.870188 27.5961018,14.4798421 C27.9872161,14.3576542 28.2582428,14.5344519 28.3266273,14.9332339 C28.4431275,15.612469 28.4859519,16.2975376 28.5067139,17.0989606" id="Fill-22"></path>
                <path d="M43.0468215,25.1882845 C43.3375788,25.2695935 43.5840319,25.3634219 43.7982883,25.5251424 C44.2648273,25.8771673 44.4538824,26.3656045 44.4580975,26.9291134 C44.4666176,28.0730483 44.4624024,29.2171177 44.459667,30.3611423 C44.458815,30.7189557 44.3190416,30.8910866 43.9682854,30.9789021 C43.6949717,31.0473775 43.4195056,31.0379543 43.1506313,30.9600108 C42.8518024,30.873362 42.721132,30.6778524 42.7207284,30.335206 C42.7193832,29.2734327 42.6990696,28.2110761 42.7264683,27.1500657 C42.750997,26.2001596 42.2410058,25.8804429 41.4398985,25.8676543 C40.3791097,25.8506476 39.3178276,25.863526 38.2567697,25.8632119 C37.8030107,25.8630773 37.663058,25.7244212 37.65252,25.2628178 C37.6505021,25.1732522 37.6472735,25.0823854 37.6592912,24.9940763 C37.7107701,24.6165639 37.8378531,24.5081071 38.2178017,24.5080622 C39.3162133,24.5079276 40.4146248,24.5082417 41.5130363,24.5079276 C42.1992128,24.5077032 42.5292968,24.2429105 42.6516265,23.5647523 C42.7089349,23.2471447 42.6947199,22.9252294 42.5881298,22.6139488 C42.4449933,22.1957819 42.151097,21.9696693 41.7079208,21.9479062 C41.506579,21.9380342 41.3046094,21.9403676 41.1029089,21.9402778 C39.7877746,21.9396945 38.4726852,21.9434189 37.1575958,21.9357906 C36.981276,21.9347136 36.9362544,21.9808426 36.9366579,22.1572813 C36.9425323,24.8565421 36.9351333,27.5558926 36.9463439,30.2551086 C36.9481824,30.6971028 36.8488568,30.9852291 36.1894063,31.0153834 C36.0181088,31.0232361 35.84717,31.020813 35.6791909,30.9710494 C35.3748464,30.8807659 35.2358802,30.7036093 35.2303197,30.3860465 C35.2298264,30.3561614 35.23023,30.3262315 35.23023,30.2963015 C35.23023,27.312908 35.2300955,24.3294696 35.2303197,21.3460312 C35.2303646,20.8178369 35.4519302,20.5745382 35.9803964,20.5547045 C36.4057254,20.5387748 36.8320409,20.5461788 37.2578632,20.5467172 C38.7896304,20.548557 40.3217564,20.5314157 41.8530304,20.5599546 C43.6754205,20.593968 44.3276514,21.8310133 44.266621,23.2858248 C44.2412403,23.8910203 44.113664,24.4545742 43.6060943,24.8606255 C43.4448863,24.9895891 43.2583873,25.0736801 43.0468215,25.1882845" id="Fill-24"></path>
                <path d="M84.4513933,30.924732 C83.4874637,30.924732 82.5234894,30.9287257 81.5596047,30.9228025 C81.1637819,30.9203794 80.7728021,30.868776 80.3915531,30.7521972 C79.7743889,30.5635083 79.3865929,30.1664315 79.2591063,29.5265944 C79.1129205,28.7927494 79.1096021,28.0520838 79.2400035,27.3215145 C79.3969514,26.4419237 79.9585561,25.9755188 80.8890333,25.8524335 C81.5141346,25.7697335 82.1411641,25.7883107 82.7680591,25.786112 C83.6199278,25.7831055 84.4717965,25.7859325 85.3236204,25.7849004 C85.5555894,25.7845863 85.7802044,25.7954903 85.8690818,26.0673728 C85.9686765,26.3721469 85.9771965,26.6731517 85.7715947,26.9382585 C85.6791748,27.057395 85.5252312,27.061972 85.3798077,27.0617925 C84.2589302,27.0605809 83.1380976,27.059863 82.0172649,27.0623758 C81.8390169,27.0627797 81.6617554,27.0617925 81.4826553,27.096793 C81.1086707,27.1698903 80.8842352,27.3851886 80.8158507,27.7536817 C80.7375561,28.1753486 80.7367041,28.5993938 80.8204246,29.0220031 C80.8926655,29.3865025 81.1351725,29.5628514 81.4819827,29.6223972 C81.6513071,29.6514297 81.8216181,29.6657889 81.9943954,29.6655197 C83.4739214,29.6631863 84.9534474,29.6609876 86.4329286,29.6682569 C86.6100555,29.6691544 86.6715343,29.640077 86.6700097,29.4434905 C86.6596959,28.1574894 86.6633282,26.8713536 86.6661084,25.5852626 C86.6664671,25.4041572 86.6478127,25.2263274 86.6004593,25.0537029 C86.4639146,24.5557078 86.0512759,24.287101 85.3974756,24.2365745 C84.4122011,24.1604259 83.4258953,24.2116703 82.4401724,24.2000483 C81.6781228,24.1910289 80.915849,24.199106 80.1536648,24.1978496 C79.789994,24.1972214 79.6643011,24.0878222 79.5975758,23.7264639 C79.5641683,23.5453136 79.5854235,23.3675287 79.6419248,23.1963401 C79.7064977,23.0005613 79.8412038,22.8896814 80.0582853,22.8899955 C81.7694217,22.8926429 83.4806925,22.8821428 85.1916495,22.9016174 C85.764689,22.9081688 86.3323473,23.0103435 86.8666879,23.2433216 C87.7768515,23.6402189 88.2707892,24.3297299 88.2795334,25.3269316 C88.2934345,26.9194569 88.2845109,28.5122514 88.2850939,30.1049113 C88.2853629,30.7361777 88.1000298,30.9228025 87.4552427,30.9247769 C86.4539596,30.9278282 85.4526764,30.9255846 84.4513933,30.9255846 L84.4513933,30.924732 Z" id="Fill-26"></path>
                <path d="M61.807336,31.1024271 C60.8239,31.1009912 59.8362041,31.1104593 58.8772072,30.8362434 C58.6409333,30.7687103 58.4117892,30.6834525 58.1965015,30.5637327 C57.6411748,30.254965 57.3135571,29.7967269 57.2842751,29.1500243 C57.2731542,28.9040333 57.265531,28.6564268 57.2807326,28.4110639 C57.2983107,28.1275594 57.4427477,27.9772814 57.7168685,27.9229856 C57.9980296,27.867254 58.2806704,27.8649206 58.5627732,27.9199343 C58.840885,27.9741852 58.9833489,28.1445212 58.9971603,28.4338143 C59.0063978,28.627484 58.9835283,28.8213781 59.0192227,29.0151825 C59.0805221,29.347957 59.2727609,29.5570629 59.58576,29.6741801 C59.9686682,29.8174131 60.3703204,29.8637664 60.7704032,29.8774526 C61.6804772,29.9086838 62.592569,29.9460626 63.4986072,29.8036822 C63.6086502,29.7864062 63.7190967,29.7672008 63.8264042,29.7379888 C64.69473,29.5016902 65.0462486,28.815769 64.7475094,27.9552938 C64.6278254,27.6106281 64.3385479,27.498402 64.0285084,27.427638 C63.3017945,27.261879 62.5602826,27.2854819 61.8216855,27.274892 C60.9110734,27.2618341 60.0001026,27.248507 59.1025845,27.0660105 C58.8029933,27.0050736 58.5138503,26.9133991 58.2442585,26.7637493 C57.6535961,26.4358659 57.3130638,25.9558198 57.2699256,25.2641101 C57.199299,24.1322011 57.6502329,23.4360939 58.7245641,23.066479 C58.8647859,23.0182411 59.0068014,22.9726955 59.151059,22.9390411 C60.1766915,22.6998258 61.2195883,22.6650945 62.2659379,22.69305 C63.0787041,22.7147683 63.8916497,22.7475253 64.6794388,22.983061 C65.0382667,23.0903512 65.3740457,23.2417959 65.6750719,23.4709598 C66.1885607,23.8618442 66.3266301,24.3947501 66.2603532,25.0013816 C66.2320578,25.2603408 66.0211645,25.3580731 65.802693,25.3922211 C65.5227875,25.4360167 65.237187,25.435882 64.9582233,25.359509 C64.7467022,25.3016235 64.6152247,25.1724804 64.6255833,24.9447973 C64.642444,24.5726247 64.4324027,24.372628 64.1233498,24.2319078 C63.7642528,24.0683026 63.3797752,24.0096991 62.9952078,23.9817436 C61.9957184,23.9092745 60.995646,23.9035308 60.0012685,24.0589692 C59.8844992,24.0772323 59.768582,24.1084635 59.6560278,24.1451692 C59.1853185,24.298723 58.9859049,24.570785 58.9981468,25.0333308 C59.01003,25.4799468 59.2185915,25.7380086 59.6960272,25.8645042 C60.1523421,25.9854805 60.6213027,26.0238016 61.091743,26.0327313 C62.0400674,26.0505905 62.9899164,26.0305774 63.9353261,26.1255725 C64.6043729,26.1927915 65.2722537,26.2799788 65.8230065,26.7217486 C66.1964978,27.0212726 66.3952388,27.419561 66.4422335,27.8941775 C66.482188,28.2974916 66.4811566,28.7020621 66.4229962,29.1023697 C66.3066305,29.9032991 65.8249347,30.40807 65.0926604,30.7009528 C64.411865,30.9732392 63.6938056,31.0534712 62.9720692,31.0981642 C62.5852149,31.1220813 62.1956701,31.1024271 61.807336,31.1024271" id="Fill-28"></path>
                <path d="M73.7173186,27.1598254 C72.8655844,27.1598254 72.0138503,27.1603639 71.1621161,27.1595562 C70.8064272,27.1591972 70.666609,27.0232784 70.6517213,26.663715 C70.6479994,26.5742841 70.648403,26.4840904 70.6550396,26.3948838 C70.678537,26.0799686 70.825799,25.9434664 71.1426097,25.9432869 C72.606979,25.9426138 74.0713932,25.9429728 75.5357625,25.9429728 C75.9093435,25.9429728 75.9093435,25.9429728 75.9093435,25.5586398 C75.9093435,25.4764333 75.9062942,25.3940474 75.9098368,25.3119756 C75.9274598,24.8980716 75.732934,24.5993104 75.4020877,24.3761594 C74.9611088,24.0786996 74.4528216,23.9891789 73.9414403,23.940582 C73.0319493,23.8541576 72.1226376,23.8560871 71.2245814,24.060257 C71.0508624,24.0997448 70.8838698,24.1609509 70.7201506,24.233779 C70.195227,24.4672058 69.9329445,24.8521221 69.9428995,25.442061 C69.9592221,26.4137303 69.9566212,27.3859829 69.9437963,28.3577419 C69.936218,28.9288343 70.1964825,29.3047762 70.7024379,29.5319208 C71.1230136,29.7207892 71.5714364,29.7954122 72.0254644,29.8224254 C72.9802461,29.8791891 73.9348036,29.898574 74.8749219,29.6694102 C75.085277,29.6181209 75.2877399,29.5443056 75.4708757,29.4280858 C75.7263422,29.2660512 75.8738733,29.0469387 75.8679541,28.7261452 C75.8607793,28.3352159 75.9775935,28.2122204 76.3585286,28.1354884 C76.6112148,28.0846029 76.8616589,28.0822247 77.1133586,28.1382256 C77.3871207,28.1991625 77.4976569,28.3181643 77.5117822,28.5977649 C77.5481044,29.3146481 77.2946559,29.8956573 76.6939039,30.308619 C76.0833315,30.7282667 75.3867516,30.9067695 74.6688717,31.0124892 C73.5994731,31.1700814 72.5248728,31.1675237 71.452425,31.0538616 C70.7850374,30.9831426 70.1306989,30.84148 69.5287811,30.5237827 C68.7602742,30.118225 68.3655725,29.4825162 68.364855,28.6092074 C68.3638685,27.4728112 68.3630165,26.3363252 68.3652586,25.1999289 C68.3670074,24.3267548 68.7638167,23.6924371 69.5345657,23.2895717 C70.1445552,22.9707525 70.8054406,22.8334875 71.4810792,22.7596274 C72.4493136,22.6538629 73.419252,22.6554783 74.3874415,22.7596722 C75.0332151,22.8291349 75.6699754,22.9477778 76.252073,23.2553788 C77.0582026,23.6813984 77.5033519,24.3352357 77.4898095,25.2693467 C77.4863566,25.508562 77.4915135,25.7478671 77.4887333,25.9870825 C77.4797648,26.7754027 77.1266767,27.1433124 76.3396948,27.1532741 C75.4657189,27.1643576 74.5914739,27.1557869 73.7173186,27.1557869 L73.7173186,27.1598254 Z" id="Fill-30"></path>
                <path d="M51.7002863,27.1597357 C50.8335749,27.1597357 49.9668634,27.1605434 49.1001519,27.159287 C48.7967042,27.1588382 48.672536,27.0435159 48.6310568,26.7411649 C48.6135684,26.6138616 48.6153172,26.4885327 48.6328057,26.3616782 C48.6737915,26.0639939 48.8055381,25.9435113 49.1051294,25.9433766 C50.5994982,25.9425689 52.093867,25.9431523 53.588191,25.9428382 C53.882715,25.9427933 53.886975,25.9392035 53.8853607,25.637391 C53.8843293,25.4507214 53.9006968,25.260103 53.8690381,25.0782347 C53.8040617,24.7048057 53.5548283,24.4627185 53.2335334,24.2882542 C52.8262759,24.0670776 52.3786603,23.983525 51.9264708,23.9414795 C51.0167107,23.8569397 50.1078475,23.8543371 49.209298,24.0583724 C49.0059383,24.1045462 48.8105605,24.173246 48.6232543,24.2662667 C48.1514687,24.5005012 47.9104415,24.8642826 47.9178405,25.4066566 C47.9313828,26.4008519 47.9282439,27.395451 47.9190064,28.3897809 C47.9141634,28.9115135 48.1465809,29.2676217 48.6041963,29.4956638 C49.0395251,29.7126224 49.5088892,29.7896236 49.9850245,29.8202715 C50.9473845,29.8821956 51.9096101,29.8998305 52.8564099,29.6667627 C53.1321002,29.5988706 53.3969835,29.4996575 53.6098498,29.2983145 C53.7638381,29.1527481 53.8418637,28.9783735 53.841774,28.762447 C53.8415498,28.3244465 53.9390818,28.2127588 54.3621238,28.1304178 C54.5998327,28.0841542 54.8358376,28.0839299 55.072829,28.1361166 C55.3625101,28.1999702 55.4663199,28.3100424 55.4820147,28.6073228 C55.5190096,29.3067954 55.2753815,29.8800866 54.6950777,30.2894136 C54.0765682,30.7257538 53.3646074,30.9063208 52.6309878,31.013611 C51.5687191,31.1689596 50.5018765,31.167075 49.436738,31.0546693 C48.7690814,30.9841746 48.1153707,30.8431852 47.5115695,30.5284046 C46.7488024,30.130879 46.3449528,29.5064781 46.340065,28.6423682 C46.3335181,27.4834908 46.3330696,26.3245237 46.3404238,25.1656912 C46.3458048,24.3109148 46.7452598,23.6896101 47.498341,23.2937448 C48.1076578,22.9733551 48.7687675,22.8346991 49.4444957,22.7603005 C50.4201291,22.6528308 51.3982736,22.6509013 52.3731895,22.7617364 C53.191292,22.8547571 53.9949552,23.0105096 54.6658853,23.5418449 C55.1681637,23.9395948 55.4387868,24.4598467 55.456634,25.1032736 C55.4651092,25.4096182 55.4631361,25.7163666 55.4596833,26.0228458 C55.4513426,26.7645435 55.0931874,27.1400367 54.3451734,27.1521971 C53.4637985,27.1665114 52.5819751,27.1555177 51.7002863,27.1555177 L51.7002863,27.1597357 Z" id="Fill-32"></path>
                <path d="M97.8291263,26.8919052 C97.8291263,26.3759611 97.8404266,25.8597477 97.8267497,25.3441626 C97.7981852,24.2687033 98.3301939,23.5742563 99.2813882,23.1559997 C99.9461301,22.8636553 100.654952,22.7679871 101.368706,22.7189863 C102.316358,22.6539661 103.264862,22.6623572 104.206953,22.8038403 C104.933757,22.9129702 105.637198,23.0898127 106.221403,23.5764551 C106.709646,23.9831346 106.945202,24.5108353 106.975022,25.1374799 C106.981793,25.2792321 106.977444,25.4215677 106.976502,25.5636341 C106.973946,25.9419542 106.846459,26.1082517 106.476331,26.1910863 C106.263465,26.2386512 106.043738,26.238382 105.831275,26.19333 C105.434555,26.1092389 105.312809,25.948012 105.309715,25.5398516 C105.304423,24.8340071 105.051109,24.4687898 104.379372,24.2388182 C103.61804,23.978064 102.825856,23.9714229 102.034255,23.9926925 C101.482382,24.0075004 100.930866,24.0496805 100.406391,24.2427669 C99.9954566,24.3939873 99.6438932,24.6157024 99.5146577,25.0759597 C99.4834027,25.1871986 99.485869,25.2978542 99.4856448,25.4089137 C99.4838511,26.4108719 99.4920124,27.4129198 99.4813399,28.4147883 C99.4762728,28.8851868 99.6876592,29.2098843 100.078684,29.4377917 C100.446704,29.6523721 100.855621,29.7387516 101.270412,29.7835793 C102.224656,29.886786 103.17742,29.8911387 104.119287,29.6686608 C104.373901,29.6085316 104.615466,29.5134468 104.832907,29.3644701 C105.157923,29.1417678 105.32949,28.8380707 105.319176,28.4385259 C105.317248,28.3638131 105.317741,28.2889658 105.319445,28.2142531 C105.325678,27.9377487 105.433121,27.7794385 105.691412,27.695123 C106.004725,27.5928586 106.321625,27.5964484 106.637046,27.6930589 C106.806998,27.7451559 106.94713,27.8537474 106.964395,28.0267757 C107.03973,28.7821147 106.981255,29.5072095 106.400458,30.0858854 C105.974995,30.5097511 105.448591,30.7405752 104.876493,30.8803082 C103.926151,31.1124337 102.958634,31.1451906 101.986498,31.1215877 C101.134316,31.1009015 100.286752,31.0355671 99.4791427,30.7400368 C98.726779,30.4646991 98.1316323,30.0126534 97.9046407,29.1935507 C97.8505161,28.9981758 97.82666,28.8000188 97.8279156,28.5967463 C97.8314581,28.0284809 97.8291263,27.4601706 97.8291263,26.8919052" id="Fill-34"></path>
                <path d="M50.3407179,11.3171111 C50.3407179,10.1505156 50.3269065,8.98369584 50.3458748,7.8174145 C50.3573544,7.11071738 50.5412077,6.44391192 50.9904825,5.87690292 C51.5276032,5.19892421 52.2726576,4.90599648 53.0940336,4.76285318 C53.5220082,4.68818533 53.953929,4.66951837 54.3881368,4.67095429 C55.6361421,4.6748582 56.8841923,4.67212097 58.1321977,4.67230046 C58.6433548,4.67234534 58.8506606,4.85636749 58.9011978,5.36571532 C58.9137088,5.49144808 58.9137985,5.62090527 58.8994938,5.7463688 C58.8433513,6.23906893 58.6305299,6.42439238 58.1345295,6.424527 C56.9537875,6.42479624 55.7730007,6.42542445 54.592214,6.42470649 C54.2615022,6.42448213 53.9357679,6.46468789 53.6216926,6.56618951 C52.9926452,6.76946196 52.6635029,7.221014 52.587271,7.86565244 C52.56624,8.0433027 52.5633252,8.22377993 52.5631907,8.40304559 C52.5615764,10.4969314 52.5620697,12.5908621 52.5620248,14.6847928 C52.56198,15.3335146 52.3562436,15.5760954 51.7125776,15.6587505 C51.452896,15.6921357 51.1899857,15.6831163 50.9338467,15.6149101 C50.5201767,15.5048378 50.3382964,15.2714559 50.3375789,14.8393785 C50.3356059,13.6652894 50.3369063,12.4912002 50.3369063,11.3171111 L50.3407179,11.3171111 Z" id="Fill-36"></path>
                <path d="M118.091767,27.6480742 C118.091767,28.651244 118.09244,29.4662633 118.091543,30.2812827 C118.090915,30.8059769 117.889798,31.0076788 117.35743,31.015711 C117.201379,31.0180893 117.046225,31.0219932 116.891474,30.976313 C116.556278,30.8773691 116.43628,30.7325655 116.436011,30.383951 C116.4348,28.8137722 116.435563,27.2435486 116.434935,25.6733698 C116.43489,25.5688168 116.43776,25.4631421 116.424173,25.3599353 C116.323143,24.5909552 115.883554,24.2036606 115.073434,24.1961668 C113.982646,24.1860705 112.891633,24.1922629 111.800755,24.1912309 C111.40121,24.1908719 111.264666,24.0734405 111.205877,23.6813894 C111.179824,23.5075982 111.201528,23.3360506 111.255966,23.1727596 C111.315337,22.9946157 111.443183,22.8906461 111.640892,22.8908256 C112.948448,22.892441 114.256273,22.8805049 115.563515,22.901595 C116.086555,22.9099862 116.597488,23.033924 117.055956,23.3089028 C117.680967,23.6838126 117.983428,24.2627128 118.052441,24.9671214 C118.145937,25.9215148 118.06401,26.8799915 118.091767,27.6480742" id="Fill-38"></path>
                <path d="M14.1419441,17.0699101 C14.1418992,16.2700128 14.1395226,15.4700706 14.1427064,14.6701733 C14.144814,14.1256006 14.4829696,13.9243474 14.952513,14.1942106 C16.3479598,14.9961721 17.7416577,15.8012746 19.1327996,16.6106849 C19.5899666,16.8765994 19.585572,17.2763685 19.1239656,17.5445715 C17.7322408,18.3531741 16.3387671,19.1586805 14.9427822,19.9598791 C14.4824315,20.2241333 14.1454418,20.024316 14.1429754,19.4920832 C14.1392087,18.6846922 14.1419889,17.8773011 14.1419441,17.0699101" id="Fill-41"></path>
                <path d="M90.3416906,27.7832616 C90.3416906,26.9161453 90.3320047,26.0488943 90.3442018,25.1818678 C90.3584616,24.1698132 90.905941,23.4102114 91.8325169,23.0899115 C92.1866363,22.9675441 92.5544775,22.89862 92.9280137,22.8956584 C94.011134,22.8871326 95.094344,22.8900942 96.177554,22.8909916 C96.445935,22.8911711 96.5788475,22.9910125 96.6431513,23.248805 C96.6905496,23.4388401 96.6905496,23.6357406 96.6436446,23.8255962 C96.5803721,24.081549 96.4217201,24.1900956 96.1293485,24.1907687 C95.218019,24.1928328 94.3065997,24.1943136 93.3952253,24.1915315 C93.2290399,24.190993 93.0666211,24.2154486 92.9078346,24.2520645 C92.3290554,24.3854256 92.0023346,24.7851948 91.9996889,25.3877877 C91.9927832,26.9650563 91.9963706,28.5423698 91.995967,30.1196385 C91.9957876,30.8515539 91.8144903,31.0358902 91.0800635,31.0147104 C90.442227,30.9963126 90.3224981,30.7091735 90.3331258,30.2724293 C90.3533496,29.4431405 90.3390001,28.613044 90.3390001,27.7832616 L90.3416906,27.7832616 Z" id="Fill-43"></path>
                <path d="M108.861245,25.5579128 C108.861245,23.966285 108.861066,22.3746572 108.86138,20.7830293 C108.861469,20.3848756 109.007296,20.2223473 109.400877,20.1502821 C109.648945,20.1048711 109.890644,20.1111084 110.129026,20.1888725 C110.394358,20.2753418 110.502517,20.42028 110.517001,20.6970536 C110.520095,20.7566892 110.517764,20.816594 110.517764,20.8763641 C110.517808,24.0072536 110.517853,27.1382328 110.517808,30.2691671 C110.517808,30.8116757 110.324359,31.0072301 109.777956,31.016429 C109.69585,31.0177752 109.613474,31.0186277 109.531592,31.0140956 C109.05752,30.9877106 108.86129,30.7811624 108.86129,30.3103601 C108.8612,28.7261811 108.861245,27.142047 108.861245,25.5579128" id="Fill-45"></path>
                <path d="M41.3819848,8.67327232 C40.6654949,8.67318257 39.949005,8.67331719 39.2325152,8.6731377 C38.7532858,8.67304796 38.5726162,8.53484063 38.4784475,8.06349982 C38.4254887,7.79848279 38.4302869,7.52794644 38.5090747,7.26557689 C38.6032884,6.95164883 38.7806844,6.80083233 39.1119343,6.79944129 C40.6195316,6.79311426 42.1271288,6.7933835 43.6347261,6.79899256 C43.9793838,6.80029386 44.1496499,6.94276407 44.2462851,7.27971173 C44.3367319,7.5952552 44.3312612,7.91573465 44.2348054,8.22836141 C44.1370941,8.54516131 43.9540928,8.67206076 43.6210044,8.67277872 C42.8746944,8.67448388 42.1283396,8.67331719 41.3819848,8.67327232" id="Fill-47"></path>
            </g>
        </g>
    </g>
</svg>