<?xml version="1.0" encoding="UTF-8"?>
<svg width="65px" height="38px" viewBox="0 0 65 38" version="1.1" xmlns="http://www.w3.org/2000/svg" xmlns:xlink="http://www.w3.org/1999/xlink">
    <!-- Generator: Sketch 42 (36781) - http://www.bohemiancoding.com/sketch -->
    <title>dreamforce</title>
    <desc>Created with Sketch.</desc>
    <defs></defs>
    <g id="Page-1" stroke="none" stroke-width="1" fill="none" fill-rule="evenodd">
        <g id="Desktop" transform="translate(-185.000000, -26.000000)" fill="#FFFFFF">
            <g id="dreamforce" transform="translate(185.000000, 26.000000)">
                <path d="M4.75920089,31.1432358 L4.75776925,31.1432358 C4.75776925,30.4372793 4.75804294,29.731345 4.75760082,29.0253885 C4.75745345,28.8034355 4.75532704,28.8010925 4.5596979,28.7191794 C4.10119475,28.5272382 3.62597511,28.5493286 3.1497449,28.6009176 C3.00312832,28.6167825 2.86373308,28.6683715 2.72875908,28.7341072 C2.11732329,29.0319487 1.80187867,29.5695717 1.64374582,30.2342705 C1.53098327,30.7082552 1.51784588,31.1921472 1.56405832,31.6733838 C1.6526304,32.5961836 2.0825008,33.2471149 3.05866745,33.4964913 C3.56673055,33.6262893 4.07458312,33.5751019 4.58167776,33.4904443 C4.75979038,33.4607003 4.75917983,33.4559475 4.75920089,33.2610608 C4.75924299,32.5551266 4.75920089,31.8491924 4.75920089,31.1432358 L4.75920089,31.1432358 Z M-6.31605053e-06,30.7217549 C0.0756810223,30.6321659 0.0689017948,30.5168048 0.085534061,30.4093204 C0.2138341,29.5807285 0.519530943,28.8439792 1.09515473,28.2524913 C1.6051337,27.7284349 2.22044334,27.4303926 2.92224076,27.3287766 C3.4049765,27.2588682 3.88604901,27.2571055 4.3633319,27.3744525 C4.44493527,27.3945124 4.52403327,27.4258853 4.60479451,27.4502517 C4.73884215,27.4907062 4.75233744,27.4823163 4.75682184,27.3400227 C4.76054831,27.2212252 4.75776925,27.1021824 4.75776925,26.9832734 C4.7577903,26.2028565 4.75724291,25.4224396 4.75812716,24.6420227 C4.75840085,24.3905265 4.77216984,24.3764466 5.00799011,24.3754871 C5.31657129,24.3742599 5.62513141,24.3740814 5.93369153,24.3755318 C6.16517478,24.3766251 6.18056489,24.3930702 6.18062805,24.6471548 C6.18113333,26.7134132 6.1809228,28.7796715 6.1809228,30.8459299 C6.1809228,31.9310831 6.18111228,33.0162364 6.18077542,34.1013897 C6.18071226,34.3643996 6.17557521,34.3829868 5.94247084,34.4368741 C5.08736182,34.6345723 4.23298967,34.8536692 3.34912156,34.8210914 C2.67671483,34.796301 2.02790907,34.6530702 1.44375861,34.2738066 C0.660210441,33.7650573 0.196801817,33.0335071 0.07915485,32.0618183 C0.0679122802,31.9688823 0.0663964281,31.8691184 -6.31605053e-06,31.792806 L-6.31605053e-06,30.7217549 Z" id="Fill-1"></path>
                <path d="M35.1172407,37.9959836 C34.9985621,37.9107011 34.8535035,37.9134011 34.7236876,37.8638426 C34.5146263,37.7840716 34.491657,37.742613 34.567218,37.5213294 C34.6506951,37.2769066 34.7343617,37.0325954 34.8197547,36.7889536 C34.8909577,36.5857886 34.9139481,36.5721996 35.115388,36.6426213 C35.3894625,36.7384134 35.6693688,36.7299565 35.9484961,36.6945672 C36.2694778,36.6538896 36.47656,36.4395678 36.625682,36.1525931 C36.8204269,35.7777475 36.9364106,35.3721762 37.0104347,34.9551803 C37.1851788,33.9708174 37.3501961,32.9845355 37.5180136,31.9987892 C37.6945683,30.9619448 37.8697545,29.9248326 38.0456565,28.8878767 C38.0493829,28.8659425 38.0559727,28.8444768 38.058478,28.8224533 C38.0724786,28.6992155 38.0615308,28.6815208 37.938031,28.6796465 C37.6996001,28.6760317 37.4610849,28.6789548 37.2226119,28.67833 C36.9599274,28.677616 36.9409161,28.6522008 36.9872969,28.3865578 C37.0280776,28.1531356 37.0650475,27.9189548 37.1043755,27.6852202 C37.142777,27.4569748 37.1753889,27.4268068 37.3931874,27.4254011 C37.6246285,27.4238837 37.8561118,27.4259812 38.087574,27.4247317 C38.2775608,27.4237275 38.2816452,27.423259 38.3108253,27.2199824 C38.3594378,26.8815079 38.4283039,26.548121 38.5347293,26.2249982 C38.660124,25.8442396 38.8241728,25.4848796 39.067825,25.1694997 C39.4327033,24.6972331 39.9108493,24.4424345 40.4690408,24.3447457 C40.9438604,24.26165 41.4181958,24.2700846 41.8886153,24.3876994 C41.9022369,24.3911133 41.9162375,24.3928984 41.9298591,24.396357 C42.2141235,24.4687868 42.2303978,24.5019225 42.1314253,24.7872237 C42.0492324,25.0241715 41.9709345,25.2626588 41.8884468,25.499495 C41.8207388,25.6938462 41.7968852,25.7104474 41.6100353,25.65569 C41.4049111,25.5955772 41.1975551,25.5748925 40.9859885,25.5818321 C40.4716936,25.5987904 40.0921831,25.8890229 39.9230183,26.4046894 C39.830846,26.6856171 39.7732858,26.976653 39.7214099,27.2685144 C39.6963563,27.4095361 39.705325,27.4227904 39.8436676,27.4238837 C40.2153882,27.4268514 40.587172,27.4249325 40.9589137,27.4251333 C41.0080105,27.4251556 41.0576546,27.4212507 41.1060566,27.4275878 C41.2169454,27.4421585 41.256147,27.4884815 41.2385674,27.6047352 C41.1920391,27.9124615 41.1391106,28.2190945 41.0878032,28.5259953 C41.0659708,28.656485 40.9807672,28.6807176 40.8702363,28.6797134 C40.4844941,28.6761656 40.0986676,28.6781292 39.7128833,28.6785978 C39.4893793,28.6788209 39.4907057,28.6795796 39.4510409,28.9164157 C39.2026095,30.3994198 38.9526624,31.8821116 38.7050942,33.3652719 C38.5758257,34.1396195 38.4762216,34.9204157 38.2710974,35.6783406 C38.1392603,36.165468 37.9740114,36.6377123 37.6811151,37.0490182 C37.3219002,37.5534163 36.857839,37.8683277 36.2621512,37.9536324 C36.2274129,37.9586083 36.1921272,37.9609513 36.1699158,37.9959836 L35.1172407,37.9959836 Z" id="Fill-4"></path>
                <path d="M46.7931759,9.49321668 C46.7624798,11.4635044 46.0653563,13.1200857 44.6800148,14.4361398 C43.7965889,15.2753752 42.7535773,15.7870029 41.58155,15.9808632 C40.9203647,16.090222 40.2538951,16.0880129 39.5923309,15.9603347 C39.4749155,15.9376864 39.4009335,15.9607587 39.3327412,16.0774809 C38.6345018,17.2727739 37.6318288,18.016909 36.3316909,18.2874386 C35.4358433,18.4738685 34.5590282,18.3714715 33.714888,17.9928326 C33.6761285,17.9754504 33.6370953,17.9582689 33.5998306,17.9376958 C33.5430072,17.906323 33.5070689,17.9279448 33.4819731,17.9840411 C33.466962,18.0176453 33.4518456,18.0511826 33.4366028,18.0846753 C32.8846221,19.2974175 32.0337238,20.1898485 30.8745391,20.7412613 C30.0457048,21.135542 29.1761531,21.287475 28.2691472,21.1809278 C26.6146788,20.9865766 25.3463527,20.1313423 24.434715,18.6667246 C24.2644343,18.393138 24.1215863,18.1020575 24.0146556,17.7943535 C23.9749276,17.6800188 23.9301047,17.6588209 23.8153842,17.6781891 C22.7675514,17.8551133 21.7549411,17.7306483 20.8125653,17.1972648 C19.3897487,16.3919237 18.5234602,15.1359378 18.2761237,13.4468902 C18.0201552,11.6988009 18.5122387,10.1883511 19.6955087,8.93671638 C19.9196232,8.69965708 20.1721389,8.49861186 20.4390762,8.31784968 C20.5876508,8.21723782 20.5878824,8.21467176 20.5237745,8.04372754 C20.2535738,7.32328949 20.1099889,6.57266119 20.1370848,5.80070112 C20.2138038,3.61383793 21.136684,1.93525543 22.9049044,0.800967704 C23.9217044,0.14874222 25.0432665,-0.0915302408 26.2189151,0.0308373459 C27.7403674,0.189196712 28.9970299,0.908072813 29.9834496,2.1500458 C30.0015135,2.17278332 30.0192406,2.196101 30.0345675,2.22089137 C30.0804852,2.29506166 30.1250976,2.29673517 30.1841526,2.23169113 C30.3548123,2.04381092 30.5430096,1.87686083 30.7408072,1.72175925 C31.6515185,1.00761362 32.6718133,0.646736348 33.8057339,0.677529066 C35.6309672,0.727087493 37.0150244,1.61090546 38.0118866,3.20985085 C38.1738512,3.46962537 38.1158067,3.4394128 38.3643644,3.33496301 C39.2054307,2.98156078 40.0788773,2.82489724 40.9797356,2.88342572 C43.8924033,3.07262243 46.1354013,5.33262948 46.6644126,8.11903582 C46.7506057,8.57300528 46.7960812,9.02889372 46.7931759,9.49321668" id="Fill-9"></path>
                <path d="M31.2627635,28.4091704 C31.4479922,28.1599502 31.6245469,27.9105738 31.8633989,27.7208193 C32.2512254,27.4127582 32.6790747,27.2373736 33.1689897,27.2390248 C33.4151893,27.2398504 33.6597047,27.2501146 33.9008094,27.3046936 C34.622355,27.4680958 35.0927323,27.927242 35.3294158,28.6648615 C35.4664741,29.0920101 35.51995,29.5345104 35.5223922,29.9804023 C35.5303715,31.4451093 35.5258029,32.9098833 35.5250449,34.3746349 C35.5248976,34.643915 35.4904961,34.6782555 35.2297906,34.6793712 C34.9421787,34.6805985 34.6545247,34.6807547 34.3668918,34.6793043 C34.1129866,34.6779878 34.0779535,34.6409919 34.0778062,34.3670483 C34.0770482,33.0509942 34.0770482,31.7349625 34.077722,30.4189085 C34.0778693,30.1058492 34.0615318,29.7952221 33.9815496,29.4915568 C33.9512957,29.3766642 33.9127888,29.2657435 33.8628499,29.158683 C33.7051381,28.8206102 33.4430431,28.6486173 33.094334,28.6229567 C32.3107226,28.5652761 31.737141,29.0554159 31.5788608,29.906656 C31.5323747,30.1566349 31.5256797,30.4082873 31.5255323,30.6609437 C31.5249217,31.8654523 31.5252796,33.0699831 31.5252586,34.2744916 C31.5252586,34.3339573 31.5276376,34.3936014 31.5244164,34.4528885 C31.5153213,34.6200618 31.4751934,34.6742614 31.3248503,34.6770283 C30.981194,34.683343 30.6373272,34.6830307 30.2936498,34.6772514 C30.150507,34.6748416 30.1120633,34.6240113 30.1041051,34.471141 C30.1014103,34.419262 30.1034525,34.3670706 30.1034525,34.3150353 C30.1034314,32.9989813 30.1031367,31.6829496 30.1036209,30.3668956 C30.1037262,30.0836249 30.0745039,29.8037012 30.0239755,29.5260089 C30.0160383,29.4824082 30.0033431,29.4397893 29.9932374,29.3965903 C29.7879236,28.5189085 29.0880421,28.4531951 28.5483777,28.6824446 C28.2284065,28.8183789 28.0056605,29.072151 27.8438854,29.3879103 C27.642635,29.7808075 27.5431993,30.2069073 27.5365885,30.6495638 C27.5232827,31.5415709 27.5275776,32.433868 27.5252617,33.3260536 C27.5242932,33.6903671 27.5272618,34.0547253 27.5240827,34.4190166 C27.5222932,34.6252385 27.4783124,34.6757118 27.2923258,34.6781886 C26.96267,34.6825844 26.6328669,34.6828075 26.3032112,34.6779208 C26.1324252,34.6754217 26.0927604,34.6290095 26.0831811,34.4533794 C26.0799599,34.3940923 26.0822968,34.3344482 26.0822968,34.2749602 C26.0822968,32.3120359 26.0824442,30.349134 26.0820652,28.3862321 C26.0820231,28.163208 26.0763176,27.9401616 26.0778545,27.7171598 C26.0795809,27.4669578 26.1147403,27.4300735 26.3430655,27.4290248 C26.6236665,27.4277306 26.9042887,27.4274851 27.1849108,27.429114 C27.4016355,27.4303636 27.4369633,27.4682967 27.4403108,27.7039725 C27.4428372,27.8819232 27.4408161,28.0599631 27.4408161,28.2343436 C27.5191983,28.2669214 27.5346937,28.2014311 27.5607579,28.1659079 C28.018461,27.5423554 28.6213702,27.2400512 29.3644324,27.2394264 C29.5756622,27.2392479 29.7842814,27.2552021 29.991132,27.3009672 C30.497974,27.4130706 30.8584942,27.7317083 31.1174523,28.1943577 C31.1531169,28.2581076 31.1872236,28.3228615 31.222804,28.386656 C31.2256673,28.3918551 31.2342571,28.3934617 31.2627635,28.4091704" id="Fill-11"></path>
                <path d="M23.2482871,32.4085488 C23.2482871,32.1262599 23.2487713,31.8439487 23.2481186,31.5616598 C23.2475712,31.3233063 23.2460554,31.3309152 23.0141721,31.2989845 C22.7704568,31.2654472 22.5243414,31.2680579 22.2816155,31.237042 C22.0197521,31.203594 21.7633204,31.2365958 21.5076467,31.27319 C21.2925431,31.3039827 21.0846187,31.3754754 20.8940424,31.4929786 C20.6369791,31.6514496 20.470467,31.8804983 20.424444,32.1941824 C20.4062959,32.3179557 20.4105487,32.4460356 20.410654,32.5721295 C20.4110119,33.0011078 20.6173783,33.2831513 20.9783827,33.4503022 C21.2124135,33.5586568 21.4613501,33.6051806 21.7136763,33.6167837 C22.1850852,33.6384725 22.6484517,33.5531677 23.1121341,33.4785288 C23.2092539,33.462887 23.2532978,33.4137749 23.2505398,33.2999534 C23.2433605,33.0030045 23.2481186,32.7056985 23.2482871,32.4085488 M24.6618192,32.0117467 C24.6617981,32.7105852 24.6624297,33.4094014 24.6614612,34.1082399 C24.6611033,34.3539792 24.649566,34.3732135 24.4300412,34.427971 C23.4803177,34.6649634 22.5250151,34.8675482 21.5420692,34.8190385 C20.9726351,34.7909457 20.4085487,34.7153251 19.9050752,34.3955494 C19.3477259,34.0415224 19.0540085,33.5122446 18.9864688,32.8315693 C18.9485936,32.4497843 18.9635626,32.0731536 19.0834623,31.7103797 C19.2653435,31.1599487 19.6145158,30.7565417 20.0940093,30.4767966 C20.5512914,30.2099933 21.0471014,30.0858183 21.5631648,30.0583726 C22.060659,30.0318641 22.5579427,30.046658 23.0516474,30.1331231 C23.234097,30.1650984 23.2420342,30.1517995 23.2457817,29.9598806 C23.2492766,29.7810597 23.2370234,29.6043809 23.2042221,29.4281706 C23.1440933,29.1051595 22.9763179,28.8734777 22.6950431,28.7370526 C22.5154357,28.6499628 22.3259753,28.5922376 22.1285145,28.5793627 C21.3593037,28.5291794 20.6194416,28.6485347 19.9235812,29.0172217 C19.7488793,29.1097784 19.7078039,29.0935564 19.6398221,28.9067919 C19.5515869,28.6642658 19.4659413,28.420624 19.3825484,28.1761789 C19.3212195,27.9964431 19.3374939,27.9484243 19.4959425,27.8488389 C19.8194506,27.6455177 20.1756548,27.5335036 20.5387225,27.4461683 C21.3123334,27.2601178 22.0917972,27.2061859 22.87364,27.3780004 C23.4720437,27.5094942 23.9825069,27.7999722 24.3087098,28.3733638 C24.5113287,28.7295329 24.6020062,29.1252417 24.6346391,29.5377526 C24.6851043,30.1759651 24.6527872,30.8153826 24.6614402,31.4541753 C24.6639456,31.6400027 24.6618192,31.825897 24.6618192,32.0117467" id="Fill-13"></path>
                <path d="M15.1232608,30.2848174 C15.5643527,30.2848174 16.0054656,30.284862 16.4465576,30.2847281 C16.4955912,30.2847281 16.5445827,30.2839472 16.5935742,30.282943 C16.6545662,30.2817158 16.6772829,30.2476876 16.6786303,30.1840047 C16.6813673,30.056148 16.6517871,29.9333341 16.6286914,29.8102971 C16.5010019,29.129845 16.0843742,28.6666154 15.4799281,28.5528162 C15.202843,28.5006471 14.9223683,28.5128526 14.6493043,28.6047399 C14.3730824,28.6976982 14.1497468,28.867973 13.9788556,29.1148726 C13.7760261,29.4078943 13.6625688,29.7409689 13.6015768,30.0949066 C13.5715335,30.2691086 13.5851761,30.283367 13.7579412,30.2841257 C14.2130547,30.2860669 14.6681472,30.2847728 15.1232608,30.2848174 L15.1232608,30.2848174 Z M15.7762983,31.4417311 C15.1170289,31.4417311 14.4577806,31.4417087 13.7984902,31.4417757 C13.7494145,31.4417757 13.7002967,31.4435608 13.651242,31.4424674 C13.5781864,31.4408831 13.5559118,31.4830558 13.5543959,31.5540799 C13.5511958,31.7040493 13.5781022,31.8501809 13.6033032,31.9959331 C13.7004651,32.5583018 13.9464121,33.015596 14.4434432,33.2836712 C14.7347605,33.440781 15.048984,33.5170934 15.3742396,33.5315302 C16.0246033,33.5603371 16.6611348,33.4884204 17.2717496,33.228512 C17.4612732,33.1478262 17.4883059,33.1657663 17.5630247,33.3775666 C17.648902,33.6209853 17.7310738,33.865899 17.8111824,34.1115044 C17.8668057,34.2821139 17.856279,34.3099166 17.7060833,34.3930123 C17.3793119,34.5737968 17.0260552,34.6682055 16.6658719,34.7319107 C16.2084214,34.8127974 15.7464444,34.8452637 15.2833305,34.8194022 C14.8201746,34.7935408 14.3649347,34.717697 13.9297167,34.5338555 C13.1052826,34.1856301 12.5253008,33.5751533 12.2577529,32.6811826 C11.9030856,31.4961538 11.9151071,30.3018873 12.3836107,29.1518015 C12.8181339,28.0851239 13.6145037,27.4897534 14.6999591,27.3258602 C15.1705469,27.2547915 15.6369241,27.268983 16.0971957,27.3941174 C16.9071871,27.61433 17.4699472,28.156862 17.8050979,28.9512026 C18.1066472,29.6659507 18.1547124,30.4294762 18.0797198,31.2013024 C18.0562662,31.4424674 18.0416972,31.4446318 17.8171405,31.4449442 C17.1368808,31.445993 16.456579,31.4453459 15.7762983,31.4453459 L15.7762983,31.4417311 Z" id="Fill-15"></path>
                <path d="M61.9984084,30.2845987 C62.4674594,30.2845987 62.9365735,30.2862722 63.4056245,30.2835723 C63.5480514,30.2827467 63.553799,30.2767443 63.5444092,30.1332904 C63.5237978,29.8191601 63.4555213,29.5173914 63.3002727,29.2450767 C62.905267,28.5522628 62.1927954,28.3942159 61.4969982,28.6174631 C61.2283345,28.7036604 61.0146415,28.8792458 60.8472661,29.1205447 C60.6434051,29.4144813 60.5370849,29.7495417 60.4705137,30.1009804 C60.4397966,30.2630884 60.4577342,30.2831037 60.6121827,30.2838624 C61.0742439,30.286183 61.5363262,30.2847103 61.9984084,30.2845987 L61.9984084,30.2845987 Z M62.6618253,31.4417132 C62.0025349,31.4417132 61.3432656,31.4416909 60.6839541,31.4417355 C60.6348573,31.4417355 60.5856764,31.4442123 60.5367059,31.4416686 C60.4582606,31.4376298 60.4184484,31.4700738 60.4244486,31.5580784 C60.4810194,32.3853315 60.7146291,33.1512 61.711765,33.4424366 C62.1305402,33.5647819 62.5583895,33.5527326 62.9855861,33.5147995 C63.3925924,33.4786292 63.7868823,33.3819892 64.1674875,33.2206844 C64.3292416,33.1521595 64.3649062,33.1763028 64.4288457,33.3602335 C64.5136071,33.6040984 64.5966632,33.8486774 64.676877,34.0942382 C64.7412376,34.2913562 64.7259527,34.3282182 64.5401135,34.4179857 C64.2064155,34.5791789 63.8559378,34.6807725 63.4937123,34.7380738 C62.9159621,34.8294701 62.3367592,34.859705 61.7552194,34.7816968 C60.776779,34.6504484 59.9560924,34.2327385 59.4105752,33.3219434 C59.1622281,32.9073351 59.0253382,32.4467385 58.959146,31.965658 C58.8518152,31.1858659 58.8703423,30.4083944 59.0810247,29.6477919 C59.3966167,28.508439 60.0713183,27.7310344 61.1668372,27.4113257 C61.7500403,27.2411624 62.3459386,27.2243826 62.9342787,27.3858882 C63.943773,27.6630004 64.5522403,28.3752716 64.8331782,29.4184754 C64.9849739,29.9820714 64.9970587,30.5615547 64.9640678,31.142823 C64.9611624,31.1943227 64.9451197,31.244796 64.9394984,31.2962957 C64.9274137,31.4075065 64.863411,31.4470015 64.7658491,31.4451049 C64.7167734,31.4441454 64.6676766,31.445328 64.6185799,31.445328 C63.9663424,31.4453726 63.3140838,31.4453503 62.6618253,31.4453503 L62.6618253,31.4417132 Z" id="Fill-17"></path>
                <path d="M46.1906836,31.0626972 C46.1906836,30.9066808 46.2005156,30.7498388 46.1887888,30.5947818 C46.1561769,30.1627019 46.0746998,29.7422474 45.880355,29.3549063 C45.6817362,28.9590637 45.3808606,28.6975487 44.9643803,28.6019797 C44.6524726,28.5304201 44.3390071,28.5351729 44.0287206,28.621147 C43.6696952,28.7206432 43.4072001,28.9512316 43.224182,29.2893044 C43.1223463,29.4773854 43.0451852,29.6768018 42.9960252,29.8864377 C42.8241866,30.6192598 42.8196811,31.356857 42.9643397,32.0940748 C43.0363638,32.4611106 43.167885,32.8038916 43.3975366,33.0972034 C43.8429234,33.6659315 44.7602876,33.6802568 45.2652769,33.4211071 C45.6279866,33.235012 45.8406691,32.9118446 45.983454,32.5272257 C46.1582822,32.0563203 46.2100528,31.564507 46.1906836,31.0626972 M47.7068094,31.0697706 C47.6923667,31.8118305 47.59491,32.5346561 47.2568961,33.1998904 C46.7824344,34.1336462 46.0356035,34.6417037 45.0532682,34.7856262 C44.5680271,34.8567172 44.0870388,34.8378176 43.6148719,34.7056767 C42.5639863,34.4115839 41.8872426,33.6898963 41.5704084,32.6024671 C41.2579324,31.5299656 41.2577639,30.443652 41.6138418,29.3839362 C42.013311,28.1950695 42.8224812,27.5038399 44.0082776,27.3242827 C44.5936071,27.2356309 45.1713362,27.2741218 45.7268328,27.4949368 C46.6291649,27.8536943 47.2005569,28.5498329 47.4919374,29.5110343 C47.6451016,30.0162803 47.7114622,30.5379268 47.7068094,31.0697706" id="Fill-19"></path>
                <path d="M56.6370437,27.2825095 C57.1255692,27.2726915 57.6439485,27.3496733 58.151401,27.5104871 C58.1983924,27.5253926 58.246226,27.5382006 58.2918279,27.5570332 C58.4332864,27.6153609 58.4550767,27.656998 58.4054536,27.8082393 C58.3156815,28.081826 58.2230882,28.3544977 58.1259052,28.6252282 C58.0656291,28.7931154 58.0387437,28.8082664 57.874379,28.757079 C57.3984225,28.6088947 56.9123182,28.5544719 56.4189084,28.5809581 C55.9131191,28.608136 55.4760484,28.7966633 55.1557193,29.2318224 C54.9130356,29.5615277 54.7702297,29.9405459 54.7049639,30.3481477 C54.6198656,30.8797238 54.6247711,31.4119915 54.7342072,31.942385 C54.9215412,32.8503908 55.5093761,33.4051953 56.379012,33.4980644 C56.910655,33.5548524 57.4269921,33.4991577 57.9311393,33.3099164 C58.1019885,33.2457872 58.1303896,33.2620092 58.1948344,33.4460961 C58.2826275,33.6967666 58.3678731,33.948486 58.4509924,34.2009416 C58.5210374,34.4136792 58.504784,34.4437802 58.2966491,34.5234173 C57.9720673,34.6476146 57.6351692,34.7187279 57.2953025,34.7698483 C56.7284791,34.8551307 56.1618241,34.8433045 55.6015272,34.714109 C54.4115202,34.4396968 53.6585627,33.6600831 53.3383179,32.4295124 C53.0648119,31.3784989 53.0804757,30.3229557 53.4742604,29.303092 C53.9084257,28.1786891 54.7210487,27.5427749 55.8411161,27.330015 C56.0915685,27.2824425 56.3434105,27.2823979 56.6370437,27.2825095" id="Fill-21"></path>
                <path d="M9.16608616,28.0681477 C9.30943945,27.9156122 9.46550906,27.7831812 9.63930572,27.6726844 C10.1418107,27.3531096 10.6875175,27.3262664 11.2474564,27.3926492 C11.3861569,27.4090943 11.5240783,27.4407349 11.6596208,27.4769722 C11.7904051,27.5119375 11.8276698,27.5704214 11.7857313,27.7065564 C11.6878746,28.0240338 11.5792596,28.3378964 11.469634,28.6511119 C11.4300955,28.7640409 11.3531871,28.7975558 11.2341506,28.7688606 C10.9509389,28.7005811 10.6647586,28.7003803 10.3797995,28.7691507 C9.75312095,28.9204143 9.42131776,29.3747185 9.26638504,30.0008148 C9.19882436,30.2738882 9.17288644,30.5553292 9.1729496,30.8390685 C9.1732654,31.9839551 9.17151796,33.1288641 9.17052845,34.2737508 C9.17048634,34.325786 9.17193903,34.3778882 9.17014949,34.4298565 C9.16341237,34.6262605 9.11711572,34.6799246 8.92938164,34.6829369 C8.64185397,34.6875558 8.35419998,34.6842534 8.06658809,34.6842088 C8.01749133,34.6842088 7.96799454,34.687712 7.91936095,34.6824907 C7.78381851,34.6678753 7.74975395,34.6294736 7.74267997,34.4887643 C7.74042724,34.4442934 7.74211152,34.399577 7.74211152,34.3549722 C7.74209047,32.1543638 7.74209047,29.9537555 7.74211152,27.7531472 C7.74211152,27.7085423 7.74063778,27.6638483 7.74265892,27.6193327 C7.7495013,27.4666856 7.77573397,27.4296228 7.91352913,27.4277261 C8.25718544,27.4230626 8.60098912,27.422951 8.94462438,27.4280385 C9.07494555,27.4299798 9.12014742,27.4808994 9.12648452,27.6191765 C9.13290584,27.759685 9.12791616,27.9007514 9.12791616,28.0415946 C9.14063248,28.0504531 9.15336985,28.0593116 9.16608616,28.0681477" id="Fill-23"></path>
                <path d="M50.2704564,28.0527201 C50.502866,27.8561823 50.7305386,27.6994964 50.9773488,27.5719298 C51.4178301,27.3443314 51.8845652,27.3398464 52.3565426,27.3930419 C52.5023592,27.409487 52.6473336,27.4410607 52.7903711,27.4762492 C52.9315769,27.5109914 52.9692206,27.5719744 52.9235976,27.7193555 C52.8275094,28.0297149 52.7212314,28.3366379 52.6147006,28.6432263 C52.575478,28.7561106 52.5002117,28.7915223 52.3807962,28.7676467 C52.1399021,28.7194494 51.8988816,28.7036961 51.650366,28.7435704 C51.0062342,28.8468822 50.6266185,29.2516056 50.4394739,29.8877654 C50.3363328,30.2384007 50.3119107,30.6011077 50.3122686,30.9667824 C50.3134055,32.0819697 50.3127318,33.1971793 50.3126266,34.312389 C50.3126055,34.6616855 50.2965417,34.6791124 49.9720862,34.679581 C49.698517,34.6799826 49.4249057,34.6819908 49.1513575,34.6789116 C48.9162531,34.6762563 48.8834938,34.6405546 48.8834517,34.39515 C48.8829885,32.1647307 48.8829885,29.9343338 48.8833885,27.7039145 C48.8834307,27.4522844 48.9023577,27.4308188 49.1299461,27.4292568 C49.4315586,27.4271594 49.7332131,27.4267577 50.0348467,27.429413 C50.2310653,27.4311535 50.2662036,27.4702022 50.2700143,27.6783655 C50.2723302,27.8030983 50.2704564,27.9279204 50.2704564,28.0527201" id="Fill-25"></path>
            </g>
        </g>
    </g>
</svg>