<?xml version="1.0" encoding="UTF-8" standalone="no"?>
<svg width="37px" height="39px" viewBox="0 0 37 39" version="1.1" xmlns="http://www.w3.org/2000/svg" xmlns:xlink="http://www.w3.org/1999/xlink">
    <!-- Generator: Sketch 41.2 (35397) - http://www.bohemiancoding.com/sketch -->
    <title>icon_client</title>
    <desc>Created with Sketch.</desc>
    <defs></defs>
    <g id="Page-1" stroke="none" stroke-width="1" fill="none" fill-rule="evenodd">
        <g id="Mobile-Portrait" transform="translate(-137.000000, -149.000000)" fill="#F6A623">
            <g id="scheme" transform="translate(19.000000, 75.000000)">
                <g id="icon_client" transform="translate(118.000000, 74.000000)">
                    <g id="icon">
                        <path d="M9.11885992,15.7978414 C9.11885992,18.5219349 10.0867062,21.2812295 11.7742701,23.3682059 C13.5457364,25.5589609 15.8564769,26.7655298 18.2807369,26.7655298 C20.7045401,26.7655298 23.0123875,25.5597212 24.7792094,23.3701826 C26.4611392,21.2857912 27.4257878,18.527561 27.4257878,15.8026312 L27.4257878,13.3644041 C29.2149938,7.69238987 28.551008,2.90321611 27.968945,1.58230068 C27.9680314,1.58032394 27.9668894,1.57842324 27.9659757,1.5764465 C27.9604178,1.56428197 27.9543269,1.55249759 27.9480075,1.54071321 C27.9445814,1.53432683 27.9413837,1.5277884 27.9377291,1.52163011 C27.9317905,1.51136629 27.9252427,1.50155864 27.918695,1.49167496 C27.9138984,1.48437625 27.909178,1.4770015 27.9040768,1.46993087 C27.8985189,1.46225202 27.8924279,1.45502933 27.8865654,1.44765458 C27.8797893,1.43921544 27.8730893,1.43062425 27.8659325,1.42256525 C27.8611359,1.41724327 27.8560347,1.41230143 27.8510859,1.40713151 C27.842254,1.39785606 27.8334222,1.38865663 27.8240574,1.38006544 C27.8197938,1.376188 27.8153017,1.37261467 27.8108858,1.36888928 C27.8004551,1.35984191 27.7900244,1.35087058 27.7790608,1.34250747 C27.7744165,1.33901016 27.7695437,1.335893 27.7647471,1.33254776 C27.7537074,1.32471685 27.7426676,1.31688593 27.731171,1.3098153 C27.7252323,1.30616595 27.7189892,1.30297276 27.7129744,1.29955148 C27.7023153,1.29346922 27.6916562,1.28731093 27.6806925,1.28191292 C27.6730028,1.27811151 27.6650084,1.27491832 27.6571664,1.27142102 C27.6473448,1.26708741 27.6376755,1.26260174 27.6277016,1.25880032 C27.6187175,1.25537905 27.609505,1.25264203 27.6003686,1.24967693 C27.5909277,1.24655977 27.581639,1.24336658 27.5720459,1.24070559 C27.5629095,1.23819666 27.5536208,1.23637198 27.5443322,1.23431922 C27.5342822,1.23203837 27.5242322,1.22960546 27.5140299,1.22785681 C27.5056549,1.22641227 27.4972037,1.22565199 27.4887526,1.22458759 C27.4771799,1.22306703 27.4656833,1.22154646 27.4539583,1.22071015 C27.4468014,1.22025398 27.4396446,1.22025398 27.4324116,1.21994987 C27.4191639,1.2194937 27.4059923,1.21918959 27.3926684,1.21956973 C27.3863491,1.21972178 27.3799536,1.22040604 27.3735582,1.22078618 C27.3596252,1.22169852 27.3456923,1.22276292 27.3316831,1.22458759 C27.3295513,1.22489171 27.3274956,1.22481568 27.3253638,1.22519582 C25.7979148,1.44309289 23.9486371,1.07222691 21.9907889,0.679692873 C18.7078623,0.0214399765 15.315756,-0.657036443 12.6634674,1.23165823 C12.623572,1.22344717 12.582306,1.21911356 12.5399742,1.21911356 C9.81969574,1.21911356 7.91986346,3.47015904 7.91986346,6.69330217 C7.91986346,9.18490114 8.96970866,13.8338787 9.11885992,14.4817158 L9.11885992,15.7978414 L9.11885992,15.7978414 Z M23.8307018,22.6069347 C22.2997505,24.5042205 20.3287307,25.5490773 18.2808131,25.5490773 C16.2319057,25.5490773 14.2577642,24.5031561 12.7220925,22.6040456 C11.2063685,20.7296442 10.3370428,18.2488413 10.3370428,15.7979174 L10.3370428,15.1051477 C10.3370428,12.9384936 11.5674074,10.0126971 11.985701,9.08081842 C16.1942181,8.58701471 19.5468096,9.08036225 21.6377443,9.59043602 C23.4717947,10.0379385 24.6752832,10.5737859 25.1091847,10.7841561 L26.2076811,13.3942072 L26.2076811,15.8027833 C26.2076811,18.2548475 25.3413247,20.7349662 23.8307018,22.6069347 Z M12.5399742,2.43556613 C12.5987515,2.43556613 12.6554731,2.42682287 12.7093016,2.41123708 C12.8876131,2.46225205 13.086786,2.43229691 13.245835,2.31164002 C15.4822664,0.615296915 18.6690327,1.25439068 21.7509592,1.87234859 C23.3678685,2.19660923 24.9141993,2.50665257 26.3424425,2.50665257 C26.5624768,2.50665257 26.7794656,2.49836549 26.9937897,2.48255161 C27.368457,3.83235779 27.7236335,7.23599207 26.7022633,11.4296363 L26.145706,10.1071242 C26.0926389,9.98106935 25.9986104,9.87653046 25.8786956,9.81038585 C25.6539408,9.68645974 20.2739125,6.78727313 11.496829,7.91477261 C11.4953062,7.91492466 11.4939358,7.91538083 11.492413,7.91553289 C11.4809926,7.91712948 11.4697244,7.91948636 11.4584562,7.92169118 C11.4496244,7.9233638 11.4406403,7.92480834 11.4319607,7.9268611 C11.4248039,7.92853373 11.4177993,7.93096663 11.4107187,7.93294337 C11.3334402,7.95445937 11.2630901,7.99026869 11.2022571,8.03740623 C11.1628946,8.06774152 11.1268059,8.10286659 11.0952854,8.14308555 C11.0943718,8.144302 11.0933059,8.1453664 11.0923161,8.14650682 C11.0859207,8.1547939 11.0802104,8.16376524 11.0741195,8.17250849 C11.0685616,8.18041544 11.0628513,8.18824635 11.057674,8.19638138 C11.0537911,8.2026157 11.0504411,8.20930619 11.0467104,8.21569256 C11.0401627,8.22702078 11.0336149,8.23842502 11.0278286,8.2502094 C11.0272956,8.25134983 11.0266104,8.25233819 11.0260774,8.25347862 C10.978949,8.35094688 10.2895336,9.78795751 9.75300022,11.5451993 C9.44959656,9.93788528 9.1380463,7.97506304 9.1380463,6.69330217 C9.1380463,3.75207192 10.8467,2.43556613 12.5399742,2.43556613 Z" id="Shape"></path>
                        <path d="M35.3834149,31.4822486 C34.5622074,30.2810778 33.4169633,29.4471995 32.0714803,29.0708595 C32.0583848,29.0672101 32.0451371,29.064017 32.0318132,29.0612039 L27.1727103,28.0463023 L25.8647626,26.0658415 C25.8580626,26.0556537 25.8509819,26.045542 25.8435967,26.0357343 C25.6454136,25.7718401 25.343761,25.5977354 25.0157653,25.5579726 C24.687998,25.5182858 24.3532261,25.6152219 24.09756,25.8240716 C24.0936009,25.8272648 24.0897179,25.830534 24.0859111,25.8338032 L18.2747983,30.8289376 L12.4636855,25.8338032 C12.4598025,25.830534 12.4559195,25.8272648 12.4520366,25.8240716 C12.1964466,25.6152219 11.8616747,25.5182098 11.5339074,25.5579726 C11.2059878,25.5976593 10.9042591,25.7718401 10.7059999,26.0357343 C10.6986147,26.045542 10.6916101,26.0555777 10.684834,26.0658415 L9.37688627,28.0463023 L4.51778333,29.0612039 C4.50445946,29.064017 4.49121172,29.0672101 4.47811626,29.0708595 C3.13263331,29.4472755 1.98738917,30.2810778 1.16618166,31.4822486 C0.415019666,32.5808574 0.00137045569,33.9068667 0.00137045569,35.2158457 L0.00137045569,36.724475 C0.00137045569,37.9408515 1.09430887,38.9305117 2.43781227,38.9305117 L16.4457729,38.9305117 C16.4465342,38.9305117 16.4472956,38.9305877 16.448057,38.9305877 C16.4488945,38.9305877 16.449732,38.9305117 16.4505695,38.9305117 L20.0988748,38.9305117 C20.0997123,38.9305117 20.1005498,38.9305877 20.1013873,38.9305877 C20.1021487,38.9305877 20.10291,38.9305117 20.1036714,38.9305117 L34.111632,38.9305117 C35.4551354,38.9305117 36.5480738,37.9408515 36.5480738,36.724475 L36.5480738,35.2158457 C36.5482261,33.9068667 36.1345769,32.5808574 35.3834149,31.4822486 Z M24.868289,26.7664422 L26.0616514,28.5734064 L21.8561797,34.3476787 L20.5330809,33.0265352 C20.5329286,33.0263831 20.5327763,33.0262311 20.532624,33.026079 L19.1696297,31.6650206 L24.868289,26.7664422 Z M17.6657069,35.8893042 L18.8839658,35.8893042 C18.9205875,35.8893042 18.9569045,35.8878597 18.9929932,35.8858069 L19.3592094,37.7141351 L17.1904633,37.7141351 L17.5566795,35.8858069 C17.5927682,35.8878597 17.6290852,35.8893042 17.6657069,35.8893042 Z M19.4930573,34.0645494 C19.4930573,34.3999101 19.2198036,34.6727756 18.8839658,34.6727756 L17.6657069,34.6727756 C17.3297929,34.6727756 17.0566154,34.3999101 17.0566154,34.0645494 L17.0566154,33.7082048 L18.2748744,32.4916762 L19.4931334,33.7082048 L19.4931334,34.0645494 L19.4930573,34.0645494 Z M11.6813837,26.7664422 L17.380043,31.6649446 L16.0170487,33.026003 C16.0168964,33.026155 16.0167441,33.0263071 16.0165918,33.0264591 L14.693493,34.3476027 L10.4880213,28.5733304 L11.6813837,26.7664422 Z M1.2195533,36.724475 L1.2195533,35.2158457 C1.2195533,33.2482337 2.44512137,30.9135571 4.78776311,30.2474733 L9.48629432,29.2661001 L14.1274948,35.638715 C14.2322585,35.7825605 14.3948098,35.8734143 14.5724361,35.8873275 C14.5883486,35.888544 14.6042611,35.8891522 14.6200975,35.8891522 C14.7809738,35.8891522 14.9360637,35.8255165 15.0507251,35.7110179 L15.98431,34.7787591 C16.0839726,35.0118618 16.2311443,35.2198752 16.4132626,35.391395 L15.9480691,37.7139831 L2.43781227,37.7139831 C1.76613671,37.7140591 1.2195533,37.27013 1.2195533,36.724475 Z M35.3300433,36.724475 C35.3300433,37.27013 34.783536,37.7140591 34.1117843,37.7140591 L20.6015275,37.7140591 L20.1363339,35.391471 C20.3184523,35.2200272 20.465624,35.0119378 20.5652866,34.7788351 L21.4988714,35.7110939 C21.6135329,35.8255925 21.7686228,35.8892282 21.9294991,35.8892282 C21.9453354,35.8892282 21.961248,35.88862 21.9771605,35.8874035 C22.1547868,35.8734904 22.317338,35.7826365 22.4221018,35.638791 L27.0633022,29.2661762 L31.7618335,30.2475493 C34.1045513,30.9136331 35.3300433,33.2483097 35.3300433,35.2159217 L35.3300433,36.724475 L35.3300433,36.724475 Z" id="Shape"></path>
                    </g>
                </g>
            </g>
        </g>
    </g>
</svg>