<?xml version="1.0" encoding="UTF-8"?>
<svg width="87px" height="30px" viewBox="0 0 87 30" version="1.1" xmlns="http://www.w3.org/2000/svg" xmlns:xlink="http://www.w3.org/1999/xlink">
    <!-- Generator: Sketch 42 (36781) - http://www.bohemiancoding.com/sketch -->
    <title>dou logo</title>
    <desc>Created with Sketch.</desc>
    <defs></defs>
    <g id="Homepage" stroke="none" stroke-width="1" fill="none" fill-rule="evenodd">
        <g id="Desktop-HD" transform="translate(-555.000000, -2739.000000)" fill="#D8D8D8">
            <g id="honors-and-awards" transform="translate(0.000000, 2589.000000)">
                <g id="Group-8" transform="translate(249.000000, 127.000000)">
                    <g id="dou-logo" transform="translate(306.000000, 23.000000)">
                        <path d="M0,0.778855657 L0.564331341,0.778855657 C2.05980939,0.778855657 7.06825004,0.656316608 8.93054347,0.656316608 C20.2411544,0.656316608 24.8065949,7.22497956 24.8065949,14.8152762 C24.8065949,22.8145113 19.3932465,29.4230707 8.60605295,29.4230707 C7.11057489,29.4230707 3.39445302,29.341853 0.688484236,29.341853 L0,29.341853 L0,0.778855657 Z M6.46441551,6.90010859 L6.46441551,23.2220249 C7.31373418,23.3046675 7.87806552,23.3046675 8.80639057,23.3046675 C14.3833951,23.3046675 17.9386825,20.244041 17.9386825,14.8152762 C17.9386825,9.55037174 14.1012294,6.77614467 8.84871542,6.77614467 C8.16164202,6.77614467 7.27282016,6.77614467 6.46441551,6.89868372 L6.46441551,6.90010859 Z M43.5163904,0.288699463 C52.1224434,0.288699463 58.544534,5.95969264 58.544534,15.0603543 C58.544534,23.7121811 52.1196217,29.833434 43.5149796,29.833434 C34.9089267,29.833434 28.4854252,24.1624408 28.4854252,15.0603543 C28.486836,6.77614467 34.5054297,0.288699463 43.5163904,0.288699463 Z M43.5163904,23.7107562 C48.8916465,23.7107562 51.6766216,19.874999 51.6766216,15.0589294 C51.6766216,9.83534627 48.081831,6.40710266 43.5178013,6.40710266 C38.8310295,6.40710266 35.3561592,9.83534627 35.3561592,15.0589294 C35.3561592,19.9576416 38.9932747,23.7107562 43.5178013,23.7107562 L43.5163904,23.7107562 Z M86.251182,17.5496068 C86.251182,26.2812265 80.7560055,29.8320092 74.6964978,29.8320092 C67.4250884,29.8320092 62.3757338,25.6286348 62.3757338,17.2646323 L62.3757338,0.778855657 L68.8401493,0.778855657 L68.8401493,15.8768063 C68.8401493,20.3252588 70.1705604,23.713606 74.6950869,23.713606 C78.6143681,23.713606 79.7853556,20.815415 79.7853556,16.2444235 L79.7853556,0.778855657 L86.251182,0.778855657 L86.251182,17.5496068 L86.251182,17.5496068 Z"></path>
                    </g>
                </g>
            </g>
        </g>
    </g>
</svg>