<?xml version="1.0" encoding="UTF-8"?>
<svg width="30px" height="28px" viewBox="0 0 30 28" version="1.1" xmlns="http://www.w3.org/2000/svg" xmlns:xlink="http://www.w3.org/1999/xlink">
    <!-- Generator: Sketch 42 (36781) - http://www.bohemiancoding.com/sketch -->
    <title>ico conversation</title>
    <desc>Created with Sketch.</desc>
    <defs></defs>
    <g id="Homepage" stroke="none" stroke-width="1" fill="none" fill-rule="evenodd">
        <g id="Mobile-Portrait" transform="translate(-38.000000, -1180.000000)" fill="#017676">
            <g id="how-it-works-with-us" transform="translate(0.000000, 1011.000000)">
                <g id="2" transform="translate(24.000000, 154.000000)">
                    <g id="ico-conversation" transform="translate(14.000000, 15.000000)">
                        <path d="M12.5473433,23.9707456 C12.5445679,23.9699524 12.5417926,23.9692159 12.5390173,23.9684794 L10.8506007,23.5298681 C10.7074733,23.4877746 10.5944213,23.4136151 10.5700098,23.3749208 L10.568877,22.4562845 C10.570293,22.4545849 10.5717656,22.4530552 10.5731816,22.4514123 C11.1520916,21.7593333 11.470914,20.8625652 11.470914,19.9263663 L11.470914,19.2422187 C12.0484646,17.3602464 11.6414548,15.7285693 11.4325692,15.2536998 C11.4318895,15.2521135 11.4309833,15.2506405 11.430247,15.2490542 C11.4262256,15.2402162 11.4218078,15.2316615 11.4172766,15.2231635 C11.4146146,15.218178 11.4120658,15.2130792 11.4092905,15.208207 C11.4049293,15.2007287 11.4001716,15.1935904 11.3954139,15.1863954 C11.3917323,15.1808434 11.3882207,15.175178 11.3843126,15.1698526 C11.3801779,15.1641872 11.3757034,15.1588052 11.3712855,15.1533098 C11.3662446,15.1470212 11.361317,15.1406194 11.3559929,15.1346708 C11.3523114,15.1305351 11.34829,15.1266826 11.3444385,15.1226602 C11.3380383,15.1160318 11.3316947,15.1093467 11.3249546,15.1031148 C11.3213297,15.0997722 11.3174782,15.0967696 11.3137967,15.093597 C11.3064902,15.0873085 11.2992404,15.0809633 11.2915941,15.0751846 C11.2874028,15.072012 11.2829849,15.0691793 11.2786803,15.06612 C11.2712039,15.0609079 11.2638408,15.0555825 11.2560813,15.050767 C11.2506439,15.0473677 11.2449233,15.0444784 11.2393727,15.0413058 C11.2325193,15.0374534 11.2257226,15.0334876 11.2186427,15.0299751 C11.2116761,15.0265193 11.2045395,15.0236299 11.197403,15.020514 C11.1913426,15.0179079 11.1853388,15.0150753 11.1791651,15.0127525 C11.1713489,15.0097498 11.1633628,15.0073137 11.1553766,15.0047643 C11.1494862,15.0028948 11.143709,15.0007986 11.1377618,14.9991556 C11.1300589,14.9970028 11.1221294,14.9954165 11.1142565,14.9937169 C11.1076864,14.9923006 11.1011729,14.9906576 11.0945461,14.9895245 C11.0876361,14.9883348 11.0806128,14.987655 11.0736462,14.9867485 C11.0657167,14.9857287 11.0577872,14.984709 11.0497444,14.9841424 C11.0439672,14.9837459 11.0380767,14.9837459 11.0322429,14.9835193 C11.0228408,14.983236 11.0134953,14.9829527 11.0040365,14.983236 C10.9989956,14.983406 10.9939547,14.9838592 10.9888572,14.9841991 C10.9787188,14.9848789 10.968637,14.9856154 10.9584985,14.9869751 C10.956856,14.9871451 10.9552701,14.9871451 10.9536842,14.9873717 C10.5170521,15.0499172 9.98435979,14.9222768 9.42045925,14.7872149 C8.42304175,14.5483072 7.29795935,14.2794863 6.31237946,14.990261 C5.35936715,15.072182 4.68360406,15.8732623 4.68360406,16.9560238 C4.68360406,17.743394 5.04887069,19.1497036 5.13258353,19.461751 L5.13258353,19.840253 C5.13258353,20.817469 5.47066331,21.7207522 6.01264446,22.3945322 L6.0113984,23.3758273 C5.98704351,23.4145783 5.8739349,23.488681 5.73080747,23.5308312 L4.04244755,23.9694425 C4.03967223,23.970179 4.0368969,23.9709155 4.03412158,23.9717087 C2.9595614,24.2728786 2.39724676,25.3267468 2.39724676,26.2120709 L2.39724676,26.7015571 C2.39724676,27.2373858 2.86604997,27.6732777 3.44235452,27.6732777 L8.28025416,27.6727678 C8.2837658,27.6728245 8.28722079,27.6732777 8.29078906,27.6732777 C8.29435734,27.6732777 8.29781233,27.6728245 8.30138061,27.6727678 L13.1393369,27.6722013 C13.7155848,27.6722013 14.184388,27.2363093 14.184388,26.7005373 L14.184388,26.2110511 C14.1842747,25.3257271 13.6220167,24.2718589 12.5473433,23.9707456 Z M8.29265816,24.8797508 L6.72131497,23.9366968 C6.84110702,23.7850921 6.91768331,23.6009116 6.91768331,23.382569 L6.91790987,23.187851 C7.33704044,23.4349735 7.80539055,23.5753609 8.29571668,23.5753609 C8.77703717,23.5753609 9.2415358,23.4507232 9.66355498,23.214818 L9.66378154,23.3809827 C9.66378154,23.6057271 9.74477569,23.7941566 9.87051487,23.9482541 L8.29265816,24.8797508 Z M6.03892508,19.6855323 C6.03892508,19.2350237 6.22951621,18.5762569 6.37196397,18.1595139 C8.42496749,18.2066496 9.97405145,18.6998182 10.5647424,18.9185007 L10.5647424,19.1700422 L10.5647424,19.1741779 L10.5647424,19.9262529 C10.5647424,20.7252938 10.2642711,21.4573702 9.79563775,21.963909 C9.79456161,21.9649854 9.79359874,21.9660618 9.79257923,21.9671383 C9.38970413,22.401104 8.8631855,22.6688484 8.29577332,22.6688484 C7.0934916,22.6688484 6.03892508,21.3470658 6.03892508,19.840253 L6.03892508,19.6855323 L6.03892508,19.6855323 Z M6.47482088,15.8893519 C6.47799268,15.8893519 6.4810512,15.8889553 6.484223,15.8888987 C6.49589069,15.8886721 6.50750174,15.8882755 6.51911279,15.8871424 C6.52483335,15.8865759 6.530384,15.8855561 6.53604793,15.884763 C6.54505357,15.8835732 6.55411585,15.8823835 6.56306486,15.8806273 C6.56969165,15.8793242 6.57609189,15.8775113 6.58260541,15.875925 C6.59042163,15.8739988 6.59829448,15.8722425 6.60605406,15.8699198 C6.61302069,15.8678236 6.61970413,15.8652175 6.62650084,15.8628381 C6.63358075,15.8603453 6.64071729,15.8579659 6.64768392,15.8550765 C6.65487711,15.8521306 6.66184374,15.848618 6.66881037,15.8453321 C6.67515397,15.8423295 6.68149757,15.8394968 6.68772789,15.8362109 C6.69548747,15.8320752 6.70290721,15.8274296 6.71032695,15.8228407 C6.71548113,15.8196681 6.72080522,15.8167788 6.72584611,15.8133796 C6.73496503,15.8073177 6.74368748,15.8005759 6.75235329,15.7938908 C6.75535517,15.791568 6.75847033,15.7895851 6.76141557,15.7872057 C7.42811639,15.2423124 8.29333783,15.4494942 9.2093647,15.6688565 C9.70246616,15.7869224 10.2087646,15.9079342 10.7003934,15.9097472 C10.8185429,16.3463756 10.9347101,17.1200923 10.8099338,18.0416746 C10.0726038,17.7729105 8.34216088,17.2490356 6.05653989,17.2490356 C6.05540711,17.2490356 6.0543876,17.2492056 6.05325482,17.2492056 C6.04271991,17.2492623 6.03229829,17.2499988 6.02187666,17.2507919 C6.01700568,17.2511885 6.01207807,17.2513018 6.00726373,17.2518683 C5.99865456,17.2528314 5.99015867,17.2543044 5.98166278,17.2557774 C5.97514927,17.2569105 5.96852247,17.2577603 5.9620656,17.25912 C5.95617511,17.2603663 5.95045455,17.2621226 5.9446207,17.2636523 C5.93589825,17.2658617 5.92711917,17.2679579 5.91862328,17.2706773 C5.9153382,17.2717537 5.91222304,17.2730567 5.9089946,17.2742465 C5.89834642,17.2779289 5.88775488,17.2816681 5.87744653,17.286087 C5.87529424,17.2869935 5.87331186,17.2881832 5.87115957,17.2890897 C5.86011491,17.2940752 5.84918354,17.2992306 5.83859199,17.305066 C5.83462724,17.3072188 5.83094569,17.3097682 5.82703758,17.312091 C5.81859833,17.3170765 5.81010244,17.3219487 5.80200303,17.3274441 C5.79441336,17.3325995 5.78722018,17.3383215 5.77991371,17.3439869 C5.77589232,17.3471028 5.77164438,17.3499355 5.76773627,17.3531648 C5.75867399,17.360643 5.75006482,17.3687445 5.74156893,17.3769026 C5.73969983,17.3787721 5.73760418,17.3804151 5.73573508,17.3822847 C5.7279755,17.3900462 5.72066904,17.3984309 5.71341921,17.4068156 C5.71104036,17.409535 5.7084916,17.4120844 5.70622603,17.4149171 C5.70061874,17.4217721 5.69546456,17.4290804 5.69019711,17.4363321 C5.68662884,17.4412043 5.68289065,17.4459632 5.67954893,17.4510053 C5.67586738,17.4565007 5.67263894,17.4623927 5.66918394,17.468058 C5.66470944,17.475423 5.6601783,17.4826746 5.65615691,17.4903229 C5.6538347,17.4946852 5.65185233,17.4993308 5.64970004,17.5037497 C5.64669816,17.5098683 5.643583,17.5158736 5.64086431,17.5221621 C5.6095428,17.3084652 5.58988897,17.1119909 5.58988897,16.9561938 C5.58994561,16.4639882 5.82165685,15.8893519 6.47482088,15.8893519 Z M3.44229788,26.7668219 C3.34974932,26.7668219 3.30347503,26.7140775 3.30347503,26.7016137 L3.30347503,26.2121276 C3.30347503,25.6695004 3.63713696,25.0266533 4.27483847,24.8457587 L5.8100458,24.4469748 L7.83761829,25.6638351 L7.83761829,26.7664253 L3.44229788,26.7668219 Z M13.2780465,26.7005373 C13.2780465,26.7130011 13.2317722,26.7657455 13.139167,26.7657455 L8.74384656,26.7662553 L8.74384656,25.6659313 L10.7986625,24.4528668 L12.306683,24.8446256 C12.9443845,25.0255202 13.2779898,25.6683674 13.2779898,26.2109945 L13.2779898,26.7005373 L13.2780465,26.7005373 Z" id="Shape"></path>
                        <path d="M26.1407674,23.9707456 C26.1379921,23.9699524 26.1352167,23.9692159 26.1324414,23.9684794 L24.4440249,23.5298681 C24.3008974,23.4877746 24.1878455,23.4136151 24.1634339,23.3749208 L24.1623011,22.4562845 C24.1637171,22.4545849 24.1651898,22.4530552 24.1666057,22.4514123 C24.7455157,21.7593333 25.0643381,20.8625652 25.0643381,19.9263663 L25.0643381,19.2422187 C25.6418887,17.3602464 25.234879,15.7285693 25.0259933,15.2536998 C25.0253137,15.2521135 25.0244074,15.2506971 25.0237278,15.2491675 C25.0196497,15.2402162 25.0151752,15.2314916 25.0105308,15.2228803 C25.0079254,15.2180647 25.0054899,15.2131359 25.0027712,15.2084336 C24.9982967,15.2007854 24.9934824,15.1934204 24.9886114,15.1860555 C24.9850431,15.1806734 24.9815881,15.1752347 24.97785,15.1700225 C24.973602,15.1641872 24.9690142,15.1586352 24.9644831,15.1530265 C24.9595555,15.1469079 24.9547411,15.140676 24.9495303,15.1348407 C24.9456789,15.1305351 24.9416008,15.1265693 24.9376361,15.1224336 C24.9313491,15.1159185 24.9251188,15.1093467 24.918492,15.1032281 C24.9148105,15.0997722 24.9108457,15.0967129 24.9070509,15.093427 C24.8998577,15.0872518 24.8926645,15.0810199 24.8850748,15.0752979 C24.8808269,15.0720687 24.8763524,15.069236 24.8719912,15.06612 C24.8645714,15.0609079 24.8572083,15.0556392 24.8495054,15.0508803 C24.844068,15.0474811 24.8383474,15.0445917 24.8327402,15.0414191 C24.8258868,15.0375667 24.8190901,15.0336009 24.8120102,15.0300884 C24.8051002,15.0266326 24.7980203,15.0237432 24.7909404,15.0206839 C24.7848233,15.0180212 24.7787629,15.0151886 24.7725326,15.0128091 C24.7648297,15.0098631 24.7568435,15.007427 24.7489707,15.0049343 C24.7430236,15.0030081 24.7371897,15.0009119 24.7311293,14.9992689 C24.723483,14.9971728 24.7156102,14.9955865 24.7077939,14.9938868 C24.7011671,14.9924139 24.694597,14.9908276 24.6878569,14.9896378 C24.6810036,14.9884481 24.6740369,14.9877683 24.6670703,14.9869185 C24.6590842,14.9858987 24.6511547,14.9848223 24.6430552,14.9842558 C24.637278,14.9838592 24.6314442,14.9838592 24.6256104,14.9836326 C24.6162082,14.9833493 24.6068628,14.983066 24.597404,14.9833493 C24.5923631,14.9835193 24.5872656,14.9839725 24.5822247,14.9843124 C24.5721429,14.9849923 24.5620045,14.9857287 24.5519227,14.9870884 C24.5502801,14.987315 24.5486942,14.987315 24.5471083,14.9875417 C24.1105329,15.0500871 23.5777839,14.9224468 23.0138834,14.7873849 C22.0164659,14.5484771 20.8913835,14.2796563 19.9058036,14.990431 C18.9527913,15.0723519 18.2770282,15.8734323 18.2770282,16.9561938 C18.2770282,17.743564 18.6422948,19.1498735 18.7260076,19.4619209 L18.7260076,19.8404229 C18.7260076,20.8176389 19.0640874,21.7209222 19.6060686,22.3947021 L19.6048225,23.3759972 C19.5804676,23.4147482 19.467359,23.488851 19.3242316,23.5310012 L17.6358717,23.9696125 C17.6330963,23.970349 17.630321,23.9710855 17.6275457,23.9718786 C16.5529855,24.2728786 15.9906709,25.3267468 15.9906709,26.2120709 L15.9906709,26.7015571 C15.9906709,27.2373291 16.4594741,27.6732211 17.0357786,27.6732211 L21.8736783,27.6727112 C21.8771899,27.6727678 21.8806449,27.6732211 21.8842132,27.6732211 C21.8877815,27.6732211 21.8912365,27.6727678 21.8948047,27.6727112 L26.732761,27.6721446 C27.3090089,27.6721446 27.7778121,27.2362527 27.7778121,26.7004806 L27.7778121,26.2109945 C27.7776989,25.3257271 27.2154408,24.2718589 26.1407674,23.9707456 Z M21.8860823,24.8797508 L20.3147391,23.9366968 C20.4345311,23.7850921 20.5111074,23.6009116 20.5111074,23.382569 L20.511334,23.187851 C20.9304646,23.4349735 21.3988147,23.5753609 21.8891408,23.5753609 C22.3704613,23.5753609 22.8349599,23.4507232 23.2569791,23.214818 L23.2572057,23.3809827 C23.2572057,23.6057271 23.3381998,23.7941566 23.463939,23.9482541 L21.8860823,24.8797508 Z M19.6323492,19.6855323 C19.6323492,19.2350237 19.8229403,18.5762569 19.9653881,18.1595139 C22.0183916,18.2066496 23.5674756,18.6998182 24.1581665,18.9185007 L24.1581665,19.1700422 L24.1581665,19.1741779 L24.1581665,19.9262529 C24.1581665,20.7252938 23.8576952,21.4573702 23.3890619,21.963909 C23.3879857,21.9649854 23.3870229,21.9660618 23.3860034,21.9671383 C22.9831282,22.401104 22.4566096,22.6688484 21.8891974,22.6688484 C20.6869157,22.6688484 19.6323492,21.3470658 19.6323492,19.840253 L19.6323492,19.6855323 Z M20.068245,15.8893519 C20.0713602,15.8893519 20.0744187,15.8889553 20.0775338,15.8888987 C20.0892015,15.8886721 20.1008692,15.8882755 20.1124803,15.8871424 C20.1181442,15.8865759 20.1236948,15.8855561 20.1293021,15.884763 C20.1383644,15.8835732 20.1474833,15.8823835 20.156489,15.8806273 C20.1630591,15.8793242 20.1694027,15.877568 20.175803,15.8759817 C20.1837325,15.8740555 20.191662,15.8722425 20.1994782,15.8699198 C20.2063315,15.8678236 20.213015,15.8652742 20.2196984,15.8628947 C20.2268916,15.8603453 20.2340848,15.8579659 20.2411647,15.8550199 C20.2483012,15.8520739 20.2550979,15.848618 20.2620646,15.8453321 C20.2684648,15.8422729 20.2749217,15.8394402 20.2812653,15.8360976 C20.2889116,15.8320186 20.2962181,15.8274296 20.3035812,15.8228974 C20.3088486,15.8196681 20.3142293,15.8167221 20.3193835,15.8133229 C20.3285024,15.807261 20.3371116,15.8005759 20.3457774,15.7938908 C20.3487793,15.7915113 20.3519511,15.7895285 20.354953,15.787149 C21.0216538,15.2422557 21.8868752,15.4494376 22.8029021,15.6687999 C23.2960036,15.7868657 23.802302,15.9078776 24.2939308,15.9096905 C24.4120803,16.3463189 24.5282475,17.1200357 24.4034711,18.041618 C23.6659713,17.7729105 21.9355284,17.2490356 19.649964,17.2490356 C19.6488312,17.2490356 19.6478117,17.2492056 19.6466789,17.2492056 C19.636144,17.2492623 19.6257224,17.2499988 19.6153008,17.2507919 C19.6104298,17.2511885 19.6055022,17.2513018 19.6006879,17.2518683 C19.5920787,17.2528314 19.5835828,17.2543044 19.5750869,17.2557774 C19.5685734,17.2569105 19.5619466,17.2577603 19.5554897,17.25912 C19.5495992,17.2603663 19.5438787,17.2621226 19.5380448,17.2636523 C19.5293224,17.2658617 19.5205433,17.2679579 19.5120474,17.2706773 C19.5087623,17.2717537 19.5056472,17.2730567 19.5024187,17.2742465 C19.4917705,17.2779289 19.4811224,17.2816681 19.4708706,17.286087 C19.4687184,17.2869935 19.4666793,17.2881832 19.4645837,17.2890897 C19.453539,17.2940752 19.4426077,17.2992306 19.4320161,17.305066 C19.4280514,17.3072188 19.4243698,17.3097682 19.4204617,17.312091 C19.4120225,17.3170765 19.4035266,17.3219487 19.3954271,17.3274441 C19.3878375,17.3325995 19.3806443,17.3383215 19.3733378,17.3439869 C19.3693164,17.3471028 19.3650685,17.3499355 19.3611604,17.3531648 C19.3520981,17.360643 19.3434889,17.3687445 19.334993,17.3769026 C19.333124,17.3787721 19.3310283,17.3804151 19.3291592,17.3822847 C19.3213996,17.3900462 19.3140932,17.3984309 19.3069,17.4068156 C19.3045211,17.409535 19.3019724,17.4120844 19.2997068,17.4149171 C19.2940995,17.4217721 19.2889453,17.4290804 19.2836779,17.4363321 C19.2801096,17.4412043 19.2763714,17.4459632 19.2730297,17.4510053 C19.2693481,17.4565007 19.2661197,17.4623927 19.2626647,17.468058 C19.2581902,17.475423 19.2536591,17.4826746 19.2496377,17.4903229 C19.2473155,17.4946852 19.2453331,17.4993308 19.2431808,17.5037497 C19.2401789,17.5098683 19.2370638,17.5158736 19.2343451,17.5221621 C19.2030236,17.3084652 19.1833697,17.1119909 19.1833697,16.9561938 C19.1833697,16.4639882 19.415081,15.8893519 20.068245,15.8893519 Z M17.035722,26.7668219 C16.9431734,26.7668219 16.8968992,26.7140775 16.8968992,26.7016137 L16.8968992,26.2121276 C16.8968992,25.6695004 17.2305611,25.0266533 17.8682626,24.8457587 L19.4034699,24.4469748 L21.4310424,25.6638351 L21.4310424,26.7664253 L17.035722,26.7668219 Z M26.8714706,26.7005373 C26.8714706,26.7130011 26.8251963,26.7657455 26.7325911,26.7657455 L22.3372707,26.7662553 L22.3372707,25.6659313 L24.3920867,24.4528668 L25.9001638,24.8446256 C26.5378653,25.0255202 26.8714706,25.6683674 26.8714706,26.2109945 L26.8714706,26.7005373 L26.8714706,26.7005373 Z" id="Shape"></path>
                        <path d="M27.3185243,2.29251444 L18.2562416,2.29251444 C18.0060093,2.29251444 17.8031274,2.49544724 17.8031274,2.74574235 C17.8031274,2.99603747 18.0060093,3.19897027 18.2562416,3.19897027 L27.3185243,3.19897027 C28.0680884,3.19897027 28.6778667,3.80895839 28.6778667,4.55865401 L28.6778667,10.9038448 C28.6778667,11.6535405 28.0680884,12.2635286 27.3185243,12.2635286 L17.8031274,12.2635286 C17.5528951,12.2635286 17.3500133,12.4664614 17.3500133,12.7167565 L17.3500133,13.8887472 L15.8579651,12.3963244 C15.681024,12.2192822 15.3941461,12.2192822 15.217205,12.3963244 C15.0402073,12.5733099 15.0402073,12.8602598 15.217205,13.0372453 L17.4827757,15.3033849 C17.5694338,15.3901214 17.6853178,15.436124 17.8032973,15.436124 C17.8616358,15.436124 17.9205406,15.4248499 17.9766135,15.401622 C18.1459083,15.331485 18.2562982,15.1661701 18.2562982,14.9828961 L18.2562982,13.1699844 L27.318581,13.1699844 C28.5678166,13.1699844 29.5841516,12.1533942 29.5841516,10.9038448 L29.5841516,4.55865401 C29.584095,3.30910465 28.56776,2.29251444 27.3185243,2.29251444 Z" id="Shape"></path>
                        <path d="M16.8968992,9.09093317 L16.8968992,2.74574235 C16.8968992,1.49619299 15.8805641,0.479602774 14.6313285,0.479602774 L2.8503609,0.479602774 C1.60112522,0.479602774 0.58479021,1.49619299 0.58479021,2.74574235 L0.58479021,9.09093317 C0.58479021,10.3404825 1.60112522,11.3570727 2.8503609,11.3570727 L9.19395882,11.3570727 L9.19395882,13.1699844 C9.19395882,13.3532584 9.30434875,13.5185733 9.47364352,13.5887104 C9.52971639,13.6119383 9.58856459,13.6232123 9.64695968,13.6232123 C9.76488263,13.6232123 9.88076657,13.577153 9.96748129,13.4904732 L12.1002895,11.3570727 L14.6313285,11.3570727 C15.8805641,11.3570727 16.8968992,10.3404825 16.8968992,9.09093317 Z M15.9906709,9.09093317 C15.9906709,9.8406288 15.3808359,10.4506169 14.6313285,10.4506169 L11.9126436,10.4506169 C11.7924551,10.4506169 11.6771942,10.4983758 11.5922353,10.583356 L10.1001871,12.0758356 L10.1001871,10.9038448 C10.1001871,10.6535497 9.89730524,10.4506169 9.64707296,10.4506169 L2.8503609,10.4506169 C2.10085347,10.4506169 1.49101848,9.8406288 1.49101848,9.09093317 L1.49101848,2.74574235 C1.49101848,1.99604673 2.10085347,1.38605861 2.8503609,1.38605861 L14.6313285,1.38605861 C15.3808359,1.38605861 15.9906709,1.99604673 15.9906709,2.74574235 L15.9906709,9.09093317 Z" id="Shape"></path>
                        <path d="M3.30347503,3.65219818 L4.66281745,3.65219818 C4.91304973,3.65219818 5.11593158,3.44926538 5.11593158,3.19897027 C5.11593158,2.94867515 4.91304973,2.74574235 4.66281745,2.74574235 L3.30347503,2.74574235 C3.05324275,2.74574235 2.8503609,2.94867515 2.8503609,3.19897027 C2.8503609,3.44926538 3.05324275,3.65219818 3.30347503,3.65219818 Z" id="Shape"></path>
                        <path d="M14.1782143,2.74574235 L6.475274,2.74574235 C6.22504171,2.74574235 6.02215986,2.94867515 6.02215986,3.19897027 C6.02215986,3.44926538 6.22504171,3.65219818 6.475274,3.65219818 L14.1782143,3.65219818 C14.4284466,3.65219818 14.6313285,3.44926538 14.6313285,3.19897027 C14.6313285,2.94867515 14.4284466,2.74574235 14.1782143,2.74574235 Z" id="Shape"></path>
                        <path d="M14.1782143,4.55865401 L3.30347503,4.55865401 C3.05324275,4.55865401 2.8503609,4.76158681 2.8503609,5.01188193 C2.8503609,5.26217705 3.05324275,5.46510985 3.30347503,5.46510985 L14.1782143,5.46510985 C14.4284466,5.46510985 14.6313285,5.26217705 14.6313285,5.01188193 C14.6313285,4.76158681 14.4284466,4.55865401 14.1782143,4.55865401 Z" id="Shape"></path>
                        <path d="M14.1782143,6.37156568 L12.8188719,6.37156568 C12.5686396,6.37156568 12.3657578,6.57449848 12.3657578,6.82479359 C12.3657578,7.07508871 12.5686396,7.27802151 12.8188719,7.27802151 L14.1782143,7.27802151 C14.4284466,7.27802151 14.6313285,7.07508871 14.6313285,6.82479359 C14.6313285,6.57449848 14.4284466,6.37156568 14.1782143,6.37156568 Z" id="Shape"></path>
                        <path d="M3.30347503,7.27802151 L11.0064154,7.27802151 C11.2566477,7.27802151 11.4595295,7.07508871 11.4595295,6.82479359 C11.4595295,6.57449848 11.2566477,6.37156568 11.0064154,6.37156568 L3.30347503,6.37156568 C3.05324275,6.37156568 2.8503609,6.57449848 2.8503609,6.82479359 C2.8503609,7.07508871 3.05324275,7.27802151 3.30347503,7.27802151 Z" id="Shape"></path>
                        <path d="M14.1782143,8.18447734 L3.30347503,8.18447734 C3.05324275,8.18447734 2.8503609,8.38741014 2.8503609,8.63770525 C2.8503609,8.88800037 3.05324275,9.09093317 3.30347503,9.09093317 L14.1782143,9.09093317 C14.4284466,9.09093317 14.6313285,8.88800037 14.6313285,8.63770525 C14.6313285,8.38741014 14.4284466,8.18447734 14.1782143,8.18447734 Z" id="Shape"></path>
                        <path d="M18.2562416,5.46510985 L19.615584,5.46510985 C19.8658163,5.46510985 20.0686981,5.26217705 20.0686981,5.01188193 C20.0686981,4.76158681 19.8658163,4.55865401 19.615584,4.55865401 L18.2562416,4.55865401 C18.0060093,4.55865401 17.8031274,4.76158681 17.8031274,5.01188193 C17.8031274,5.26217705 18.0060093,5.46510985 18.2562416,5.46510985 Z" id="Shape"></path>
                        <path d="M26.8654102,5.46510985 C27.1156425,5.46510985 27.3185243,5.26217705 27.3185243,5.01188193 C27.3185243,4.76158681 27.1156425,4.55865401 26.8654102,4.55865401 L21.4280405,4.55865401 C21.1778082,4.55865401 20.9749264,4.76158681 20.9749264,5.01188193 C20.9749264,5.26217705 21.1778082,5.46510985 21.4280405,5.46510985 L26.8654102,5.46510985 Z" id="Shape"></path>
                        <path d="M18.2562416,7.27802151 L26.8654102,7.27802151 C27.1156425,7.27802151 27.3185243,7.07508871 27.3185243,6.82479359 C27.3185243,6.57449848 27.1156425,6.37156568 26.8654102,6.37156568 L18.2562416,6.37156568 C18.0060093,6.37156568 17.8031274,6.57449848 17.8031274,6.82479359 C17.8031274,7.07508871 18.0060093,7.27802151 18.2562416,7.27802151 Z" id="Shape"></path>
                        <path d="M26.8654102,8.18447734 L25.5060678,8.18447734 C25.2558355,8.18447734 25.0529536,8.38741014 25.0529536,8.63770525 C25.0529536,8.88800037 25.2558355,9.09093317 25.5060678,9.09093317 L26.8654102,9.09093317 C27.1156425,9.09093317 27.3185243,8.88800037 27.3185243,8.63770525 C27.3185243,8.38741014 27.1156425,8.18447734 26.8654102,8.18447734 Z" id="Shape"></path>
                        <path d="M18.2562416,9.09093317 L23.6936112,9.09093317 C23.9438435,9.09093317 24.1467254,8.88800037 24.1467254,8.63770525 C24.1467254,8.38741014 23.9438435,8.18447734 23.6936112,8.18447734 L18.2562416,8.18447734 C18.0060093,8.18447734 17.8031274,8.38741014 17.8031274,8.63770525 C17.8031274,8.88800037 18.0060093,9.09093317 18.2562416,9.09093317 Z" id="Shape"></path>
                        <path d="M18.2562416,10.9038448 L26.8654102,10.9038448 C27.1156425,10.9038448 27.3185243,10.700912 27.3185243,10.4506169 C27.3185243,10.2003218 27.1156425,9.997389 26.8654102,9.997389 L18.2562416,9.997389 C18.0060093,9.997389 17.8031274,10.2003218 17.8031274,10.4506169 C17.8031274,10.700912 18.0060093,10.9038448 18.2562416,10.9038448 Z" id="Shape"></path>
                    </g>
                </g>
            </g>
        </g>
    </g>
</svg>