<?xml version="1.0" encoding="UTF-8"?>
<svg width="52px" height="38px" viewBox="0 0 52 38" version="1.1" xmlns="http://www.w3.org/2000/svg" xmlns:xlink="http://www.w3.org/1999/xlink">
    <!-- Generator: Sketch 42 (36781) - http://www.bohemiancoding.com/sketch -->
    <title>techstars</title>
    <desc>Created with Sketch.</desc>
    <defs></defs>
    <g id="Page-1" stroke="none" stroke-width="1" fill="none" fill-rule="evenodd">
        <g id="Desktop" transform="translate(-106.000000, -26.000000)" fill="#FFFFFF">
            <g id="techstars" transform="translate(106.000000, 26.000000)">
                <path d="M15.7967716,25.1650715 C15.6949311,25.1671349 15.5930906,25.1709233 15.4912161,25.1709233 C10.4839119,25.1712616 5.47657368,25.1712954 0.469269474,25.1713292 L0.202006301,25.1713292 C0.193054415,25.1574947 0.184136566,25.1437278 0.175150641,25.1299271 C0.333323332,24.98113 0.493538277,24.8344639 0.649294299,24.6831637 C1.67484695,23.6869096 2.69995711,22.6901481 3.72421633,21.6925748 C4.89436067,20.552868 6.06327965,19.4119096 7.23304958,18.2718645 C8.44706838,17.0886922 9.66142755,15.9059259 10.8756846,14.7230242 C11.9808512,13.6464691 13.0858135,12.5697448 14.1914226,11.4935617 C14.5437117,11.1507093 14.9002895,10.812085 15.2488344,10.4655119 C15.3324988,10.3823357 15.3837595,10.3686703 15.4857701,10.446908 C17.3341475,11.8646243 19.1861669,13.2776727 21.0376418,14.6914315 C21.0779423,14.7222463 21.1209317,14.7495094 21.1626959,14.7783961 C21.1743027,14.7909791 21.1858414,14.8035959 21.1974142,14.8161112 C21.1905046,14.848482 21.1860457,14.8816645 21.1761748,14.9132234 C20.3902468,17.4239678 19.602719,19.9341371 18.8192757,22.4456594 C18.7359857,22.7126757 18.6232192,22.9719798 18.5860501,23.2523908 C17.8749708,23.7346031 17.1622577,24.2144815 16.4537992,24.7004484 C16.232691,24.8520868 15.9934408,24.9791682 15.7967716,25.1650715" id="Fill-1"></path>
                <path d="M30.8180851,14.7537105 C31.1922264,14.5187943 31.5271222,14.2315168 31.8774712,13.9651432 C33.2595336,12.9143628 34.6377837,11.858644 36.0172593,10.804515 C36.17002,10.6877503 36.323972,10.5723048 36.4722057,10.4500605 C36.5437527,10.3910017 36.5876612,10.3959063 36.6551237,10.4620685 C37.5591962,11.3485936 38.4665023,12.2318714 39.3730935,13.1158935 C40.5427614,14.2563445 41.7121909,15.3970323 42.8823012,16.5370097 C43.9469971,17.57426 45.0127141,18.6104617 46.0775461,19.6475428 C47.2031693,20.7438519 48.3276011,21.8413787 49.4539731,22.9369436 C50.1789739,23.6421318 50.9067316,24.3445124 51.6321748,25.0492608 C51.6624342,25.0786549 51.7073638,25.1008442 51.7107336,25.1537807 C51.664068,25.1879442 51.6119565,25.1704227 51.5638273,25.1704227 C46.4536615,25.1716066 41.3434957,25.1717757 36.2333299,25.1717081 C36.1824437,25.1717081 36.1315235,25.1674461 36.0806713,25.1651798 C36.0647077,25.1031782 36.0072862,25.084439 35.9619141,25.0535904 C35.1076046,24.4725747 34.2531589,23.8918295 33.3987473,23.3110167 C33.4204973,23.2704603 33.3961264,23.2331511 33.3851323,23.1980743 C32.6853194,20.9627011 31.9821368,18.7283764 31.2841959,16.4923604 C31.1099235,15.9341091 30.9134585,15.3823521 30.7728832,14.8138855 C30.7879619,14.793861 30.8030065,14.7737688 30.8180851,14.7537105" id="Fill-3"></path>
                <path d="M30.8180851,14.7537105 C30.8030065,14.7737688 30.7879619,14.793861 30.7728832,14.8138855 C30.7024935,14.7596299 30.6346225,14.7016196 30.5612715,14.651626 C29.0862865,13.6462729 27.6094635,12.6435243 26.1374738,11.6338754 C26.0206908,11.5537435 25.9481567,11.5678824 25.8423338,11.6409111 C25.1075303,12.1478158 24.368438,12.6485643 23.6312518,13.1520188 C22.8196595,13.7063126 22.0086458,14.2614183 21.1973938,14.8161856 C21.185821,14.8036027 21.1742823,14.7909859 21.1627095,14.7783691 C21.3865407,14.0761576 21.6124822,13.3745549 21.8337266,12.671464 C22.1717879,11.5971751 22.5045735,10.5212288 22.8456982,9.44788699 C22.8830715,9.33031054 22.8582921,9.27189439 22.7616594,9.19835837 C21.2768716,8.06913734 19.7956917,6.9352146 18.3141374,5.80183307 C18.2796574,5.77541558 18.2341151,5.75833384 18.2203298,5.70925345 C18.2479684,5.66494242 18.2919109,5.68588023 18.327344,5.68581258 C20.1759937,5.6816859 22.0246434,5.67684889 23.8732931,5.67952109 C24.0287088,5.67975786 24.0922229,5.63727339 24.1431432,5.48577025 C24.7508844,3.67710209 25.3684624,1.87171498 25.9942436,0.0337541836 C26.1387331,0.455520809 26.2749516,0.851039067 26.4097745,1.24703088 C26.8977374,2.68071268 27.3866193,4.11409006 27.8701914,5.54926018 C27.9066457,5.65750087 27.9617866,5.6775254 28.065431,5.6773901 C29.4264582,5.67546206 30.7874854,5.67810043 32.1485125,5.67928431 C32.6868851,5.67969021 33.2252577,5.67935196 33.7654002,5.67935196 C33.7757477,5.76601217 33.7050516,5.77873045 33.6661807,5.80842899 C32.1799973,6.94468566 30.6922141,8.078879 29.2047373,9.21344442 C29.140134,9.26272776 29.0991527,9.3051784 29.1314544,9.40770263 C29.6866075,11.1688464 30.2354296,12.931952 30.786226,14.6944487 C30.7927952,14.7154541 30.8072952,14.7339904 30.8180851,14.7537105" id="Fill-5"></path>
                <path d="M33.3987609,23.3110269 C34.2531726,23.8918397 35.1076182,24.4725848 35.9619278,25.0536005 C36.0072658,25.0844491 36.0647213,25.1031545 36.0806509,25.1651561 C35.8538924,25.1672533 35.627134,25.1711093 35.4003756,25.1711093 C28.9338117,25.1714814 22.4672138,25.1714814 16.00065,25.1712446 C15.9326769,25.1712446 15.8647038,25.1672194 15.7967648,25.1650885 C15.993468,24.9791512 16.2326842,24.8521037 16.4537924,24.7004315 C17.1622509,24.2144984 17.874964,23.7345862 18.5860433,23.2524078 C18.679,23.1898311 18.772229,23.1276942 18.8649133,23.0647793 C21.1849496,21.4897081 23.5051561,19.9149751 25.8237629,18.3378744 C25.9087888,18.2800333 25.971452,18.2625795 26.064749,18.3263738 C27.2546011,19.1399379 28.4466997,19.9502886 29.6390706,20.7602335 C30.8918582,21.6111744 32.1454968,22.4607962 33.3987609,23.3110269" id="Fill-8"></path>
                <path d="M21.8901132,30.2757506 C22.1674175,29.8367669 22.5382911,29.5462421 23.0381672,29.4494682 C23.7373674,29.3140997 24.406104,29.3659876 24.9848111,29.8343653 C25.340572,30.1222856 25.5191673,30.5091784 25.5209032,30.9578699 C25.5283915,32.9026169 25.5228774,34.8474316 25.5266215,36.7922124 C25.5268938,36.926397 25.4991872,36.977101 25.3506812,36.9748347 C24.7665621,36.9658372 24.1821366,36.9666152 23.5979835,36.9744627 C23.4552298,36.9763907 23.418265,36.9346165 23.4186734,36.7949184 C23.4233025,35.1150905 23.4215326,33.4352288 23.4218389,31.7554009 C23.4218389,31.6142821 23.4142485,31.4744486 23.3885161,31.3349534 C23.3028775,30.8706347 23.0653292,30.6666686 22.6139567,30.6749896 C22.2071734,30.682465 21.951483,30.9221166 21.8937553,31.3626224 C21.8711203,31.5353002 21.8581519,31.7105148 21.8578456,31.8845794 C21.8551566,33.5137033 21.853659,35.1428272 21.8598538,36.7719173 C21.8605005,36.9366122 21.8141413,36.9781158 21.6518841,36.9752745 C21.0791676,36.9653298 20.5061107,36.9683065 19.933224,36.9737861 C19.8111652,36.9749362 19.7671546,36.9473687 19.7672907,36.8156194 C19.7708647,33.3770156 19.7706264,29.9383779 19.7675971,26.499774 C19.767495,26.375534 19.8004093,26.3357894 19.9294118,26.33721 C20.513599,26.3438059 21.0979904,26.344956 21.6821095,26.3363644 C21.8302071,26.3341996 21.8592071,26.3853771 21.8586966,26.5202044 C21.8542376,27.7096005 21.8561097,28.8990304 21.8575052,30.0884604 C21.8575393,30.1421072 21.8392611,30.1994409 21.8901132,30.2757506" id="Fill-10"></path>
                <path d="M7.82198502,32.4267908 C8.09952754,32.4267908 8.37707007,32.4272982 8.65457856,32.4263849 C8.71550585,32.4262158 8.78575944,32.4372428 8.78579347,32.340638 C8.7859977,31.9749874 8.79702588,31.6073411 8.67095064,31.2560324 C8.53037538,30.8643026 8.25007581,30.6741034 7.83086883,30.674171 C7.42231561,30.6742049 7.15597145,30.8618672 7.01202648,31.2572501 C6.88666602,31.6015908 6.87665897,31.9609161 6.87696531,32.3218988 C6.87703339,32.421717 6.93037029,32.4277717 7.00637624,32.4272644 C7.27823448,32.4253363 7.55012677,32.4264864 7.82198502,32.4267908 M8.88429827,33.5879767 C8.26607348,33.587909 7.6478487,33.5906827 7.02969199,33.5855074 C6.91147943,33.5845265 6.87410615,33.6176414 6.8760463,33.737315 C6.88309208,34.171394 6.90017895,34.6034773 7.01117554,35.0265293 C7.04136688,35.1417042 7.08486692,35.2512641 7.13993975,35.3563252 C7.30008662,35.6618345 7.54896949,35.8122553 7.90016937,35.7891526 C8.23806054,35.7669633 8.45328024,35.584138 8.58156792,35.2850216 C8.67401402,35.0694535 8.70284386,34.8400509 8.70941312,34.6092953 C8.7124765,34.5021708 8.73895775,34.4623247 8.85359636,34.463238 C9.46606879,34.4681765 10.0786774,34.4691236 10.6911498,34.4625615 C10.8274363,34.4610732 10.8318952,34.5227704 10.8277086,34.6275609 C10.7797156,35.8228764 10.0289484,36.7240816 8.85448133,37.0100738 C8.1050076,37.1925609 7.36023104,37.1809588 6.61957304,36.9827092 C5.76768019,36.7546935 5.24118671,36.1959009 5.00203859,35.3603504 C4.76496676,34.5318693 4.75856769,33.6815372 4.7714339,32.8309683 C4.77895621,32.335801 4.81745273,31.8425279 4.92981082,31.3568992 C5.16494251,30.3406544 5.76951822,29.6952016 6.81372347,29.4863309 C7.56918782,29.3352675 8.32478833,29.3370264 9.06799915,29.5423455 C10.0497454,29.8134884 10.5558844,30.513163 10.7564339,31.468218 C10.8951711,32.1288583 10.8964986,32.7985976 10.8897592,33.4692163 C10.8886019,33.5886532 10.8266194,33.5892959 10.7389045,33.5890253 C10.1207138,33.5871649 9.50252305,33.5880443 8.88429827,33.5879767" id="Fill-12"></path>
                <path d="M17.1956179,32.1934171 C16.9062984,32.1934171 16.6168427,32.1881404 16.3277274,32.1958864 C16.2043752,32.1992012 16.1615559,32.1674732 16.1608751,32.0366372 C16.1595136,31.7606235 16.1339173,31.4852862 16.0335405,31.2228025 C15.9115838,30.9036954 15.6685894,30.7296985 15.3210656,30.7157625 C14.8901157,30.6985793 14.622376,30.8413894 14.4723723,31.1740604 C14.3570189,31.4298805 14.3212454,31.7052516 14.3024907,31.9799124 C14.242142,32.8635623 14.255689,33.7472461 14.3355752,34.6293401 C14.3543299,34.8365195 14.3926222,35.0413989 14.4586892,35.2405618 C14.554471,35.5292262 14.7235357,35.7402955 15.0448165,35.7816299 C15.4009859,35.8274293 15.7123277,35.7461811 15.9232587,35.4307609 C16.0913023,35.1795072 16.1540676,34.8937518 16.1744221,34.5985591 C16.1998141,34.2299996 16.1962742,34.2298643 16.5702452,34.2299319 C17.0921436,34.2299658 17.614042,34.2296275 18.1359404,34.2299996 C18.2077257,34.2300672 18.2881225,34.2120722 18.2863866,34.3310017 C18.276822,34.9850122 18.1634428,35.6092228 17.759757,36.1494792 C17.4151944,36.6105507 16.9358771,36.8615338 16.3882803,36.9984583 C15.655485,37.1816895 14.9199326,37.1858838 14.182372,37.0226771 C13.1614144,36.7967585 12.5818564,36.1461305 12.3535322,35.1544089 C12.18137,34.4066687 12.1776599,33.646819 12.1841271,32.8858531 C12.1890285,32.3042285 12.2301799,31.7275424 12.3899524,31.1643864 C12.6543224,30.2327384 13.2703007,29.6751974 14.2199495,29.4886175 C15.0788881,29.3198635 15.9345932,29.3255461 16.7640213,29.6372793 C17.6143484,29.9568261 18.0543183,30.6077248 18.2055473,31.4751048 C18.2356025,31.647309 18.2439758,31.821678 18.2550039,31.9960808 C18.2642622,32.1428822 18.2294757,32.2058648 18.0633383,32.1974761 C17.7747675,32.1828637 17.4849374,32.1934171 17.1956179,32.1934171" id="Fill-14"></path>
                <path d="M0.823321699,33.2032487 C0.823321699,32.4648104 0.819339301,31.7263382 0.826725459,30.9880014 C0.828155037,30.8441766 0.783940205,30.8030113 0.644964717,30.8118059 C0.469807268,30.8228667 0.293356391,30.8108926 0.117654341,30.8160678 C0.0286460375,30.8186385 -0.000694366878,30.7870458 0.000224648108,30.6991341 C0.00400282083,30.3496857 0.00485376063,30.000136 5.44601473e-05,29.6507215 C-0.00137511872,29.5500914 0.0400486308,29.5267859 0.131269378,29.5294242 C0.306971428,29.5344304 0.483694606,29.520562 0.658511679,29.5338892 C0.801809941,29.5447809 0.829346353,29.4874133 0.825840481,29.3603658 C0.817875685,29.0730882 0.828325225,28.7853371 0.82076888,28.4980257 C0.817909722,28.3902248 0.85780178,28.3388104 0.954366429,28.2967319 C1.56159707,28.0321849 2.16835119,27.7663525 2.770306,27.4902034 C2.9221477,27.4205573 2.92456437,27.4805294 2.92384958,27.6012178 C2.92034371,28.1817938 2.92674278,28.7624713 2.91877798,29.3429458 C2.9168038,29.4870074 2.94801627,29.5429205 3.10465727,29.534498 C3.35915635,29.5208665 3.61501692,29.5339568 3.87019675,29.5291536 C3.97230953,29.5272256 4.01073797,29.5617273 4.00930839,29.6656384 C4.00464524,30.0037891 4.00430487,30.3421089 4.00971684,30.6802258 C4.01135065,30.7821073 3.98180602,30.8189091 3.87581296,30.8164737 C3.60368241,30.8102837 3.33124552,30.8182665 3.05908093,30.8126515 C2.95751276,30.8105881 2.91990122,30.8394072 2.9202416,30.9452463 C2.92514301,32.3374922 2.92224981,33.729772 2.93082729,35.1219841 C2.93341414,35.5441228 3.12082513,35.7131474 3.54214244,35.7172741 C3.62720238,35.7181197 3.71515552,35.7301953 3.79670959,35.713215 C3.92441864,35.6866961 3.96271093,35.7186271 3.9587966,35.8521014 C3.94906185,36.1844003 3.95586937,36.5171728 3.95529073,36.8497423 C3.95518862,36.9159044 3.96968863,36.9872756 3.86400191,36.9953937 C3.33277721,37.0363899 2.80056542,37.091525 2.27056608,36.9993512 C1.34144193,36.8377005 0.823696113,36.218327 0.823355737,35.2832289 C0.823117474,34.5899134 0.823321699,33.8965641 0.823321699,33.2032487" id="Fill-16"></path>
                <path d="M40.9436391,34.0231144 C40.9436391,33.751295 40.9434008,33.5261205 40.9438093,33.3009122 C40.9439114,33.2362384 40.9471109,33.1770443 40.8506824,33.1793782 C40.1895362,33.1951069 39.5250544,33.1819151 38.8812333,33.3663978 C38.4897329,33.4785623 38.1487103,33.6726175 37.9441103,34.0417521 C37.713812,34.4572949 37.6970995,34.9054452 37.7979869,35.3536631 C37.9727019,36.129546 38.5137294,36.4483824 39.1609542,36.4121556 C39.9916417,36.3656121 40.6743677,35.7705589 40.8856731,34.9670409 C40.9720264,34.6385642 40.929037,34.3068065 40.9436391,34.0231144 M41.009672,36.1044138 C40.8232822,36.2682632 40.6771247,36.4457441 40.4982912,36.594203 C39.6815252,37.2721956 38.3137586,37.3241173 37.5228271,36.7024436 C37.2675111,36.5017248 37.0867715,36.2438752 36.9717584,35.9440823 C36.7487101,35.3627959 36.7322699,34.7655103 36.8831926,34.1680555 C37.0665191,33.4420987 37.560813,33.0062946 38.2592644,32.7749639 C38.8467532,32.5803336 39.4572174,32.5410287 40.0684305,32.5066623 C40.3172793,32.4926925 40.5664345,32.4838979 40.8154195,32.4721944 C40.8762787,32.4693531 40.9443198,32.4810566 40.9437412,32.383065 C40.9413245,31.9498316 40.9695417,31.5142643 40.8663738,31.0877959 C40.7310063,30.5280901 40.3786831,30.2008988 39.7984103,30.1269907 C39.2837619,30.0614374 38.789502,30.0928948 38.3669593,30.4395695 C38.1265859,30.6368382 37.9992172,30.89851 37.9859425,31.2036135 C37.9793392,31.3556917 37.9271256,31.3954363 37.7828402,31.3872168 C37.5792954,31.3756147 37.3744912,31.3802826 37.1704359,31.3858637 C37.058248,31.388908 37.0132162,31.3706424 37.0259463,31.2361872 C37.1034839,30.4177184 37.5887579,29.8070718 38.3872457,29.5526047 C39.0619729,29.3375439 39.7509278,29.3279376 40.4351855,29.4765994 C41.314785,29.667678 41.8101341,30.2660123 41.8266763,31.1726296 C41.8475414,32.3165984 41.8378066,33.4611761 41.8353219,34.6054832 C41.8336881,35.3492997 41.8314076,36.0930485 41.9104088,36.8336517 C41.9235814,36.9570799 41.8864804,36.9764955 41.7784451,36.9730454 C41.5744578,36.9664833 41.3696536,36.9635405 41.1660067,36.9740601 C41.0334643,36.9809267 41.0022518,36.9316771 41.0070511,36.8087225 C41.0161732,36.5742799 41.009672,36.3392285 41.009672,36.1044138" id="Fill-18"></path>
                <path d="M27.4604979,34.7787325 C27.6016178,34.7787325 27.7766731,34.728333 27.8742929,34.7931083 C27.969428,34.8561923 27.8985958,35.0448355 27.9194268,35.1764494 C27.9423341,35.3209508 27.9593869,35.4674478 27.9969985,35.6083298 C28.1406031,36.1461169 28.5194415,36.4269339 29.1451205,36.4533175 C29.519534,36.4691139 29.8868336,36.4320077 30.1793527,36.1614736 C30.6472675,35.7287476 30.6869553,34.8289292 30.2716967,34.3161727 C30.0041272,33.9858356 29.6424778,33.7877552 29.2746676,33.5979957 C28.8574348,33.382732 28.433939,33.1807617 28.0462849,32.9112423 C27.1268274,32.2720472 27.0298203,31.2113222 27.3493312,30.3962698 C27.5156048,29.9721016 27.8585676,29.7118166 28.2818931,29.5626135 C28.8328256,29.3683891 29.4028872,29.3359846 29.9742762,29.4358366 C30.6978814,29.5622753 31.1976894,30.0961049 31.3434043,30.8721906 C31.377544,31.0541365 31.3890487,31.2403105 31.4099819,31.4246579 C31.4193082,31.5068532 31.3903422,31.5505553 31.2972494,31.549067 C31.0761071,31.5455154 30.8547947,31.5455154 30.6336865,31.5505215 C30.5503625,31.5524157 30.5257193,31.5132123 30.5179246,31.4417058 C30.5033225,31.307555 30.4914094,31.17266 30.4670725,31.0401328 C30.3630196,30.4732222 30.1091332,30.2123283 29.5371655,30.1193428 C29.1388916,30.0546351 28.7504886,30.0996565 28.4327137,30.3778689 C27.9871956,30.7678737 27.9643224,31.4981601 28.3691995,31.9664702 C28.5840448,32.2150179 28.8551542,32.3866471 29.1412062,32.5395709 C29.5454706,32.7555787 29.9685579,32.9352582 30.3600923,33.1763306 C31.3170933,33.765532 31.5836076,34.5357322 31.3969114,35.5716633 C31.2442188,36.4187482 30.7143215,36.9028885 29.8598418,37.0740441 C29.3469974,37.1768051 28.8458279,37.1521127 28.3461901,37.0239828 C27.5812973,36.8278303 27.1100469,36.2366332 27.0308414,35.3835951 C27.0157968,35.2211326 27.0104869,35.0577906 26.996974,34.8951589 C26.9892815,34.8024778 27.0209705,34.7603316 27.1201901,34.7657098 C27.233297,34.7718322 27.3470166,34.7671305 27.4604639,34.7671305 L27.4604979,34.7787325 Z" id="Fill-20"></path>
                <path d="M48.0390951,34.7671034 C48.1525424,34.7669681 48.2661599,34.7706889 48.379403,34.7657504 C48.4684793,34.7618944 48.4976155,34.7964637 48.4959817,34.8842402 C48.4922376,35.0871915 48.5065674,35.2900075 48.5483656,35.489035 C48.6821673,36.1264712 49.0625374,36.4247082 49.7746039,36.4552185 C49.93407,36.4620512 50.0929234,36.4507536 50.2480668,36.417199 C50.7536612,36.3078082 51.0669431,35.9315027 51.1255559,35.4047088 C51.19632,34.7682535 50.9586015,34.287428 50.4310869,33.9306735 C49.9882238,33.6311512 49.4905601,33.4335443 49.0291125,33.1689973 C48.6163727,32.9323222 48.2455331,32.6529597 48.0056702,32.2296033 C47.5885395,31.4934313 47.7233624,30.4110244 48.3067667,29.8841628 C48.5383925,29.6750215 48.8199175,29.5584598 49.1222053,29.486615 C49.6079218,29.3711358 50.1002755,29.3386297 50.5875577,29.4427776 C51.3424094,29.60409 51.8237009,30.1506717 51.9365356,30.9366006 C51.9596811,31.0979469 51.9652633,31.2617286 51.9823501,31.4240558 C51.9925614,31.5212695 51.9522269,31.5530652 51.8562749,31.5504945 C51.6521855,31.544981 51.4476877,31.5430191 51.2437004,31.5502239 C51.1308657,31.5542829 51.0928117,31.5112572 51.0946157,31.4039298 C51.0974408,31.2341272 51.06405,31.0676395 51.0213328,30.9042299 C50.9077493,30.4696435 50.6392268,30.202289 50.1815573,30.1308501 C49.7633034,30.0655336 49.3625107,30.0811609 49.0250961,30.3712798 C48.5430897,30.7857401 48.5436003,31.555805 49.0228156,32.0479957 C49.2831351,32.3154179 49.610815,32.4852205 49.9407754,32.6501523 C50.4518498,32.9056003 50.9815428,33.1316204 51.4071148,33.5269695 C51.7790776,33.8724603 51.9995051,34.294024 52.0094441,34.8065775 C52.0152985,35.1098205 52.0292199,35.4134695 51.9521248,35.7143786 C51.7872126,36.3580725 51.3889047,36.7844732 50.7596177,36.9915173 C50.1273354,37.1995762 49.4876329,37.1890904 48.8526276,37.0011575 C48.2774944,36.830949 47.899575,36.4540346 47.7204352,35.8841474 C47.6198881,35.5642961 47.5832296,35.2353121 47.580881,34.9007807 C47.5801663,34.7987977 47.609847,34.7578353 47.7158401,34.7655136 C47.8230585,34.7733273 47.9312981,34.7672387 48.0390951,34.7671034" id="Fill-22"></path>
                <path d="M33.5414908,33.1891435 C33.5414908,32.162988 33.5419673,31.3174928 33.5411844,30.4719639 C33.5409462,30.2078904 33.564364,30.2425951 33.3009471,30.2406671 C33.0230302,30.2386037 32.7450111,30.2371492 32.4671963,30.2420877 C32.3713464,30.2438128 32.3342795,30.213979 32.3416997,30.1167315 C32.3561316,29.9278176 32.2628346,29.6870497 32.3816938,29.563723 C32.4861552,29.4553808 32.7264266,29.5363584 32.9065875,29.5316229 C33.0709551,29.5272933 33.2358672,29.524824 33.3999284,29.533145 C33.5138522,29.5389291 33.5449285,29.4962755 33.543533,29.3876289 C33.5383253,28.9818278 33.545337,28.5758914 33.5392102,28.1701579 C33.5373041,28.045512 33.5742009,27.9776248 33.6987104,27.9332123 C33.9009277,27.8610969 34.0974267,27.771291 34.2913049,27.6785422 C34.4093472,27.6220541 34.4447123,27.6384255 34.4431466,27.7747073 C34.4370879,28.3044778 34.4449165,28.8344513 34.4373602,29.3641881 C34.43542,29.4984742 34.4748696,29.5367305 34.6090458,29.53372 C34.9945215,29.5251284 35.3806099,29.538557 35.7659835,29.5268873 C35.9215013,29.5222195 35.9644567,29.573397 35.9513182,29.7184057 C35.9396433,29.8470092 35.9433534,29.9777775 35.9505354,30.1070236 C35.9563218,30.2107318 35.9184039,30.2434407 35.8144531,30.2421892 C35.4117884,30.2373522 35.0088854,30.2463159 34.6063909,30.2370816 C34.4671431,30.233902 34.4374963,30.2817309 34.4379388,30.4103005 C34.4438273,32.0392553 34.4448144,33.6682439 34.4466184,35.2972325 C34.4468226,35.4668998 34.4599952,35.6353156 34.504244,35.799334 C34.5772206,36.0698681 34.730594,36.2013467 35.0097023,36.2212698 C35.2812202,36.2406855 35.5539634,36.2426473 35.824358,36.2058793 C35.910405,36.1941758 35.9526117,36.202463 35.9502971,36.3007252 C35.9459063,36.4866286 35.9489356,36.6727011 35.9485612,36.8587398 C35.9484591,36.9103909 35.9505354,36.9622112 35.8761973,36.9677585 C35.3395946,37.0078752 34.800303,37.0721431 34.277826,36.8828234 C33.7880931,36.7053763 33.5906751,36.3143906 33.5629344,35.8310621 C33.5089508,34.8909917 33.5578628,33.9493653 33.5414908,33.1891435" id="Fill-25"></path>
                <path d="M44.7033464,30.5059549 C44.8809886,30.188167 45.1253785,29.9363044 45.4339974,29.7475935 C45.7938768,29.527459 46.1857176,29.4136033 46.6069328,29.3901286 C46.7197674,29.3838033 46.7716747,29.4109649 46.7659905,29.5359491 C46.7568343,29.7384607 46.7595574,29.9417841 46.7652757,30.1445324 C46.7682369,30.2489509 46.7482569,30.2866322 46.6254492,30.2825731 C46.1112433,30.2656605 45.6307346,30.3800574 45.2400171,30.7329221 C44.8277538,31.1052362 44.6693769,31.5944165 44.6669262,32.1316286 C44.6599144,33.6760542 44.6606292,35.2205474 44.6686281,36.7649391 C44.6695471,36.9428259 44.6185247,36.9874414 44.4506854,36.9745202 C44.2646359,36.9602121 44.0765101,36.9684654 43.8894395,36.9735731 C43.8022012,36.9759408 43.7635004,36.9480688 43.770376,36.8583305 C43.7755497,36.791086 43.7715673,36.7231311 43.7715673,36.6554807 C43.7715673,34.3500216 43.7736436,32.0446301 43.7675169,29.7392387 C43.7670403,29.5682522 43.8081237,29.5080433 43.9819877,29.5280002 C44.1163001,29.5433907 44.25388,29.5295562 44.3899963,29.530943 C44.7130131,29.5341902 44.6607314,29.4964751 44.6634884,29.7957268 C44.6655647,30.0256368 44.6638968,30.2555806 44.6638968,30.4854906 C44.6770354,30.4923233 44.6901739,30.4991222 44.7033464,30.5059549" id="Fill-27"></path>
            </g>
        </g>
    </g>
</svg>