<?xml version="1.0" encoding="UTF-8"?>
<svg width="21px" height="30px" viewBox="0 0 21 30" version="1.1" xmlns="http://www.w3.org/2000/svg" xmlns:xlink="http://www.w3.org/1999/xlink">
    <!-- Generator: Sketch 42 (36781) - http://www.bohemiancoding.com/sketch -->
    <title>ico armchair</title>
    <desc>Created with Sketch.</desc>
    <defs></defs>
    <g id="Homepage" stroke="none" stroke-width="1" fill="none" fill-rule="evenodd">
        <g id="Mobile-Portrait" transform="translate(-42.000000, -1269.000000)" fill="#017676">
            <g id="how-it-works-with-us" transform="translate(0.000000, 1011.000000)">
                <g id="3" transform="translate(24.000000, 244.000000)">
                    <g id="ico-armchair" transform="translate(18.000000, 14.000000)">
                        <path d="M19.9348742,12.8163591 L19.0317655,12.8163591 C18.2847817,12.8163591 17.6771024,13.4295476 17.6771024,14.1833034 L17.6771024,17.3728402 C17.6771024,17.7416874 17.4584372,18.0592741 17.1453972,18.2025754 C16.9176445,17.4589577 16.2300401,16.9171921 15.4193307,16.9171921 L11.8068959,16.9171921 L11.8068959,15.0945997 L14.9677763,15.0945997 C15.9637359,15.0945997 16.7739937,14.2769961 16.7739937,13.2720072 L16.7739937,2.33645256 C16.7739937,1.33146369 15.9637359,0.513860115 14.9677763,0.513860115 L5.93668934,0.513860115 C4.94072977,0.513860115 4.13047194,1.33146369 4.13047194,2.33645256 L4.13047194,13.2720072 C4.13047194,14.2769961 4.94072977,15.0945997 5.93668934,15.0945997 L9.09756979,15.0945997 L9.09756979,16.9171921 L5.48513499,16.9171921 C4.6744256,16.9171921 3.98682121,17.4589577 3.75906848,18.2025754 C3.44602843,18.0593311 3.22736324,17.7416874 3.22736324,17.3728402 L3.22736324,14.1833034 C3.22736324,13.4295476 2.61968397,12.8163591 1.87270019,12.8163591 L0.969591486,12.8163591 C0.720220596,12.8163591 0.518037135,13.0203756 0.518037135,13.2720072 C0.518037135,13.5236389 0.720220596,13.7276553 0.969591486,13.7276553 L1.87270019,13.7276553 C2.12167597,13.7276553 2.32425454,13.9320705 2.32425454,14.1833034 L2.32425454,17.3728402 C2.32425454,18.2372616 2.92386227,18.9624826 3.7253148,19.1486148 C3.90977475,19.9573333 4.62847994,20.562377 5.48513499,20.562377 L9.09756979,20.562377 L9.09756979,26.9414506 L5.93668934,26.9414506 C5.18970555,26.9414506 4.58202629,27.554639 4.58202629,28.3083949 C4.58202629,29.0621508 5.18970555,29.6753392 5.93668934,29.6753392 C6.68367312,29.6753392 7.29135239,29.0621508 7.29135239,28.3083949 C7.29135239,28.1486902 7.26380757,27.9953646 7.21368504,27.8527468 L13.6907806,27.8527468 C13.6406581,27.9953646 13.6131133,28.1486902 13.6131133,28.3083949 C13.6131133,29.0621508 14.2207926,29.6753392 14.9677763,29.6753392 C15.7147601,29.6753392 16.3224394,29.0621508 16.3224394,28.3083949 C16.3224394,27.554639 15.7147601,26.9414506 14.9677763,26.9414506 L11.8068959,26.9414506 L11.8068959,20.562377 L15.4193307,20.562377 C16.2759857,20.562377 16.9946909,19.9573333 17.1791509,19.1486148 C17.9806034,18.9624826 18.5802111,18.2372616 18.5802111,17.3728402 L18.5802111,14.1833034 C18.5802111,13.9320705 18.7827897,13.7276553 19.0317655,13.7276553 L19.9348742,13.7276553 C20.1842451,13.7276553 20.3864285,13.5236389 20.3864285,13.2720072 C20.3864285,13.0203756 20.1842451,12.8163591 19.9348742,12.8163591 Z M5.93668934,28.764043 C5.68771356,28.764043 5.48513499,28.5596279 5.48513499,28.3083949 C5.48513499,28.0571619 5.68771356,27.8527468 5.93668934,27.8527468 C6.18566512,27.8527468 6.38824369,28.0571619 6.38824369,28.3083949 C6.38824369,28.5596279 6.18566512,28.764043 5.93668934,28.764043 Z M14.9677763,27.8527468 C15.2167521,27.8527468 15.4193307,28.0571619 15.4193307,28.3083949 C15.4193307,28.5596279 15.2167521,28.764043 14.9677763,28.764043 C14.7188006,28.764043 14.516222,28.5596279 14.516222,28.3083949 C14.516222,28.0571619 14.7188006,27.8527468 14.9677763,27.8527468 Z M5.93668934,14.1833034 C5.43873778,14.1833034 5.03358064,13.7744732 5.03358064,13.2720072 L5.03358064,2.33645256 C5.03358064,1.83398661 5.43873778,1.42515634 5.93668934,1.42515634 L14.9677763,1.42515634 C15.4657279,1.42515634 15.870885,1.83398661 15.870885,2.33645256 L15.870885,13.2720072 C15.870885,13.7744732 15.4657279,14.1833034 14.9677763,14.1833034 L5.93668934,14.1833034 Z M10.9037872,15.0945997 L10.9037872,16.9171921 L10.0006785,16.9171921 L10.0006785,15.0945997 L10.9037872,15.0945997 Z M10.9037872,26.9414506 L10.0006785,26.9414506 L10.0006785,20.562377 L10.9037872,20.562377 L10.9037872,26.9414506 Z M15.4193307,19.6510808 L5.48513499,19.6510808 C4.98718343,19.6510808 4.58202629,19.2422505 4.58202629,18.7397846 C4.58202629,18.2373186 4.98718343,17.8284883 5.48513499,17.8284883 L15.4193307,17.8284883 C15.9172823,17.8284883 16.3224394,18.2373186 16.3224394,18.7397846 C16.3224394,19.2422505 15.9172823,19.6510808 15.4193307,19.6510808 Z" id="Shape"></path>
                        <path d="M14.516222,4.159045 C14.7655929,4.159045 14.9677763,3.95502856 14.9677763,3.70339689 L14.9677763,2.79210067 C14.9677763,2.540469 14.7655929,2.33645256 14.516222,2.33645256 C14.2668511,2.33645256 14.0646676,2.540469 14.0646676,2.79210067 L14.0646676,3.70339689 C14.0646676,3.95502856 14.2668511,4.159045 14.516222,4.159045 Z" id="Shape"></path>
                        <path d="M14.9677763,5.52598934 C14.9677763,5.27435767 14.7655929,5.07034123 14.516222,5.07034123 C14.2668511,5.07034123 14.0646676,5.27435767 14.0646676,5.52598934 L14.0646676,8.259878 C14.0646676,8.51150967 14.2668511,8.71552612 14.516222,8.71552612 C14.7655929,8.71552612 14.9677763,8.51150967 14.9677763,8.259878 L14.9677763,5.52598934 Z" id="Shape"></path>
                    </g>
                </g>
            </g>
        </g>
    </g>
</svg>