<?xml version="1.0" encoding="UTF-8"?>
<svg width="146px" height="42px" viewBox="0 0 146 42" version="1.1" xmlns="http://www.w3.org/2000/svg" xmlns:xlink="http://www.w3.org/1999/xlink">
    <!-- Generator: Sketch 42 (36781) - http://www.bohemiancoding.com/sketch -->
    <title>upwork logo</title>
    <desc>Created with Sketch.</desc>
    <defs></defs>
    <g id="Homepage" stroke="none" stroke-width="1" fill="none" fill-rule="evenodd">
        <g id="Desktop-HD" transform="translate(-286.000000, -2734.000000)" fill="#D8D8D8">
            <g id="honors-and-awards" transform="translate(0.000000, 2589.000000)">
                <g id="Group-8" transform="translate(249.000000, 127.000000)">
                    <g id="upwork-logo" transform="translate(37.000000, 18.000000)">
                        <path d="M37.6621162,26.2702357 C37.9933902,26.2740512 38.3181672,26.2475632 38.6437472,26.1924595 C41.0817282,25.7798784 43.2205552,23.3993381 43.3469912,20.9296485 C43.4500672,18.9159773 42.6550242,17.3130528 41.0559592,16.1270383 C39.3241802,14.8425561 36.8454652,14.7531134 35.1191612,15.8709636 C33.9182382,16.6485794 33.2271472,17.812435 32.7298712,19.1108582 C32.1690852,20.575253 32.0352032,22.1506624 31.5888082,23.6453605 C31.5455192,23.7903472 31.6256002,23.8434699 31.7114482,23.9129549 C33.4517682,25.321292 35.3943712,26.2120503 37.6621162,26.2702357 L37.6621162,26.2702357 Z M2.92000006e-05,6.53840017 C0.1199682,6.52717398 0.2399072,6.50648256 0.3598462,6.50633581 C1.9291272,6.5041346 3.4984812,6.51499392 5.0675432,6.49709071 C5.4161182,6.49305515 5.5175882,6.58866124 5.5166392,6.94430417 C5.5051052,11.5172544 5.5102152,16.0902046 5.5083172,20.6631548 C5.5077332,21.9598904 5.7175352,23.1970465 6.5308282,24.2547301 C7.7662802,25.8613968 9.3893622,26.6200087 11.4054032,26.3435362 C13.6530002,26.0352927 15.0899322,24.7192598 15.7690512,22.5596481 C15.9269502,22.057551 15.9701662,21.5327814 15.9700202,21.0047833 C15.9682682,16.3218458 15.9742542,11.6387614 15.9594352,6.95589723 C15.9582672,6.57024441 16.0722932,6.49239478 16.4299932,6.49672384 C17.9990552,6.51565429 19.5684822,6.51220572 21.1376172,6.49811794 C21.4181562,6.49562323 21.5374382,6.58462568 21.6189062,6.853394 C22.6542652,10.2667443 24.0903942,13.5059785 25.8459712,16.604335 C26.2001672,17.2294066 26.5572102,17.8533776 26.9905382,18.4752941 C27.3052412,17.451876 27.6491442,16.4753438 28.1351052,15.5566302 C29.5786802,12.8274174 31.6637062,10.8240919 34.6703572,9.97853192 C38.2620302,8.96846785 41.5829462,9.62354936 44.5365262,11.9208838 C46.8943532,13.7548625 48.2963182,16.2015861 48.6709542,19.1655951 C49.0962522,22.5308121 48.2096672,25.5595369 46.0026582,28.1533015 C44.4105282,30.0243341 42.3968962,31.2151178 40.0000872,31.7298352 C38.2997712,32.0949434 36.5970462,32.0187813 34.9000882,31.6859577 C33.3215362,31.3763201 31.8548202,30.7732607 30.4811792,29.9428891 C30.2125392,29.7805128 30.1495402,29.8527861 30.0940602,30.1183259 C29.3407732,33.7207606 28.5798942,37.3216544 27.8254392,40.9238689 C27.7057922,41.4955244 27.7162312,41.4977989 27.1388742,41.4977989 C25.6182842,41.4978723 24.0976942,41.4993398 22.5771042,41.4970652 C21.9345582,41.4961113 22.0103322,41.5503346 22.1360382,40.957254 C23.2251982,35.8191786 24.3150152,30.6813967 25.4120592,25.5451556 C25.4462962,25.3849072 25.4335212,25.2737458 25.3392782,25.1427735 C23.9257062,23.1788498 22.7016422,21.0989953 21.5990502,18.9451801 C21.5839392,18.9157572 21.5567102,18.8925711 21.4890392,18.8106125 C21.4890392,19.5715724 21.4801332,20.2724392 21.4905722,20.9730125 C21.5301382,23.6259898 20.7510092,26.0046958 19.0920842,28.0692885 C17.4088502,30.1639644 15.2465902,31.5009089 12.5941352,31.9336677 C8.8042672,32.5519889 5.5508762,31.446759 2.8998082,28.655472 C1.2809602,26.9509247 0.3748842,24.8849379 0.0649262,22.5526775 C0.0539032,22.4698385 0.0748542,22.3787816 2.92000006e-05,22.3137724 L2.92000006e-05,6.53840017 Z M146,15.1231156 C145.437462,15.027803 145.437462,15.027803 145.437462,14.4294395 L145.437462,11.3873607 C145.274745,11.3939643 145.252115,11.5193602 145.197949,11.6000714 C144.797179,12.1965272 144.393781,12.7915156 144.009071,13.3983905 C143.855844,13.6398637 143.772405,13.7055333 143.591292,13.4113043 C143.214612,12.7995867 142.80333,12.209441 142.404823,11.611371 C142.340802,11.5152513 142.269262,11.4242677 142.140709,11.2479504 L142.140709,14.2997879 C142.140709,14.4585689 142.134431,14.6177167 142.142315,14.7761308 C142.151659,14.9633808 142.151148,15.0987555 141.88645,15.0947199 C141.643652,15.0910512 141.580799,15.0188514 141.582697,14.78068 C141.593355,13.4369117 141.58496,12.0929968 141.592698,10.7492286 C141.593428,10.622512 141.495389,10.4141303 141.699716,10.3796446 C141.898714,10.345966 142.119539,10.3013547 142.271598,10.5590436 C142.643022,11.1882975 143.043792,11.7999417 143.433028,12.4184831 C143.543185,12.5934796 143.654364,12.7677425 143.795984,12.9909456 C144.032869,12.6163723 144.252015,12.2706348 144.470504,11.9244571 C144.691475,11.5742438 144.939821,11.2377515 145.124876,10.8692681 C145.315698,10.4892651 145.569665,10.2888078 146,10.353817 L146,15.1231156 Z M57.7155155,24.7253719 C58.2040315,22.6659887 58.6678005,20.7091822 59.1325915,18.7525958 C59.7833865,16.012377 60.4393645,13.2734055 61.0786985,10.5305452 C61.1360765,10.2841559 61.2310495,10.2232556 61.4648685,10.2250166 C62.7664585,10.2347753 64.0683405,10.2370499 65.3698575,10.2234024 C65.6232405,10.2206875 65.7209145,10.2920803 65.7828185,10.5447797 C66.9140995,15.1625614 68.0564035,19.7776281 69.1968095,24.3932086 C69.2133075,24.4597586 69.1957875,24.5447255 69.3208365,24.5891167 C69.5989665,23.546548 69.8767315,22.5079415 70.1529635,21.4689682 C71.1207245,17.8292596 72.0911865,14.1902848 73.0484355,10.5477881 C73.1143545,10.2967762 73.2071375,10.2209077 73.4627105,10.2234024 C74.8494915,10.2367564 76.2364915,10.2383706 77.6231995,10.2228154 C77.9202365,10.2194402 77.9602405,10.2868707 77.8802325,10.5651043 C76.0677155,16.8657146 74.2635205,23.1687462 72.4572815,29.4711174 C72.3028865,30.0100482 72.1248395,30.5431824 71.9976735,31.0882765 C71.9332145,31.3646757 71.8030555,31.4160374 71.5493805,31.4137628 C70.2599815,31.402023 68.9698525,31.388082 67.6811835,31.4206599 C67.2943565,31.4303453 67.1736145,31.302895 67.0856495,30.949013 C65.9296945,26.2998274 64.7581175,21.6546039 63.5908475,17.0082799 C63.5704805,16.9270551 63.5752985,16.8360715 63.4628785,16.7571213 C63.1831425,17.8699821 62.9067645,18.9686084 62.6308245,20.0674548 C61.7046005,23.7558835 60.7768435,27.443872 59.8565325,31.1337683 C59.8024395,31.3505879 59.7095105,31.4156705 59.4881745,31.4138362 C58.1378935,31.4027567 56.7874665,31.4016561 55.4371855,31.414203 C55.1787655,31.4166244 55.0629875,31.3511016 54.9856075,31.0851214 C53.4546515,25.8193756 51.9120155,20.5570783 50.3710585,15.2943407 C49.9156115,13.7389624 49.4577555,12.1843178 49.0010675,10.6293064 C48.8838295,10.2300794 48.8838295,10.2297859 49.3135805,10.2297125 C50.6274345,10.2295658 51.9414345,10.2376369 53.2551425,10.2228888 C53.5121025,10.2200272 53.6034985,10.3028662 53.6722645,10.5457336 C54.9731975,15.1423102 56.2843505,19.7359518 57.5938245,24.3301071 C57.6236085,24.434518 57.6576265,24.537755 57.7155155,24.7253719 Z M137.722983,31.4083038 L136.728796,31.4083038 C135.280987,31.4083038 133.833105,31.403241 132.385369,31.4138068 C132.166369,31.4154211 132.037889,31.3474769 131.90919,31.170059 C129.760216,28.2086914 127.583721,25.2672082 125.465261,22.2840486 C125.034488,21.6774672 124.547067,21.4363608 123.855684,21.4341596 C123.609455,21.4333525 123.551566,21.5117891 123.553391,21.7468789 C123.563611,23.0431008 123.558282,24.3393962 123.558282,25.6356182 C123.558282,27.4455303 123.553099,29.2554424 123.564049,31.0652078 C123.565582,31.330234 123.510321,31.4190897 123.226059,31.4157879 C121.827087,31.3993522 120.42775,31.4011132 119.028705,31.4146139 C118.763204,31.417182 118.711082,31.3297938 118.711228,31.0817903 C118.717141,20.8339617 118.717579,10.5861332 118.709403,0.338304691 C118.709111,0.0519266554 118.794594,-0.000829124213 119.058051,0.00173895963 C120.420596,0.0150929956 121.783433,0.0186149392 123.145832,0.000198109325 C123.471485,-0.00420432013 123.56748,0.0710038497 123.566677,0.414173225 C123.554632,5.69708857 123.558282,10.9800039 123.558282,16.2629192 C123.558282,16.7388952 123.558428,16.7388952 124.0449,16.7389686 C127.544666,16.7391154 130.280268,14.193117 130.535841,10.67088 C130.562632,10.3014428 130.666219,10.2140546 131.023043,10.2204381 C132.324487,10.2438443 133.626515,10.2296832 134.928397,10.2296832 C135.423775,10.2297566 135.427717,10.2301234 135.393115,10.7259104 C135.121701,14.6206663 133.299913,17.5945808 130.072145,19.7169186 C129.784963,19.9057095 129.799125,20.0023428 129.974763,20.2535748 C132.4837,23.8418483 134.982052,27.4374592 137.482302,31.0318227 C137.55574,31.137481 137.621221,31.2486423 137.722983,31.4083038 Z M100.282035,20.7856451 C100.228745,27.0024625 95.2758405,32.0065573 89.2211475,31.9608454 C83.1038205,31.9146199 78.1947895,26.8918147 78.2368375,20.7218099 C78.2798345,14.41599 83.2327385,9.48915786 89.4676685,9.55013151 C95.4136645,9.60831695 100.334084,14.7203447 100.282035,20.7856451 Z M95.7136215,20.8838926 C95.7146435,17.3023695 92.8410715,14.4046905 89.2768465,14.393024 C85.7008685,14.3812842 82.7879495,17.2860072 82.7820365,20.8695114 C82.7761235,24.4706253 85.6566305,27.3788702 89.2331195,27.3825389 C92.7003275,27.3862076 95.7125995,24.3654072 95.7136215,20.8838926 Z M108.120482,13.5079229 C108.370215,13.212153 108.560964,12.9647365 108.77354,12.7378646 C110.308073,11.099794 112.18337,10.2338361 114.435566,10.2300941 C114.788229,10.2295071 115.140965,10.2351569 115.493482,10.227526 C115.65014,10.2240774 115.705255,10.2802084 115.70489,10.4392095 C115.700583,11.8692653 115.69832,13.2993945 115.706715,14.7294503 C115.707956,14.9503789 115.597507,14.9561021 115.435228,14.9555885 C114.815166,14.9539009 114.194593,14.9471505 113.574896,14.9649069 C110.983396,15.039308 108.751567,16.952824 108.255897,19.5144509 C108.162895,19.9955631 108.119022,20.4802706 108.119387,20.9707012 C108.121577,24.3198494 108.115518,27.6689976 108.128512,31.0180724 C108.129826,31.3404037 108.054271,31.4217019 107.732049,31.4169326 C106.358116,31.3966814 104.983672,31.4010104 103.609666,31.4147313 C103.348253,31.4173728 103.291824,31.3397433 103.29197,31.0879243 C103.298832,24.243027 103.298759,17.3981297 103.292262,10.553159 C103.292043,10.3020004 103.351538,10.2212892 103.611929,10.2236372 C105.01039,10.2364776 106.408997,10.2366243 107.807385,10.2235638 C108.070331,10.2211425 108.129388,10.3061827 108.125884,10.5549934 C108.112525,11.514723 108.120482,12.4746727 108.120482,13.5079229 Z M139.125028,13.0960169 C139.125028,13.7188873 139.111888,14.342198 139.131306,14.9645548 C139.139409,15.2270863 139.007498,15.2212898 138.820472,15.2281869 C138.6187,15.235671 138.550153,15.1779258 138.551905,14.963821 C138.562052,13.7425137 138.544021,12.5208395 138.565483,11.2998257 C138.571104,10.9807963 138.47343,10.9090367 138.180846,10.9308288 C137.830373,10.9569499 137.475958,10.9256192 137.124317,10.9411011 C136.908091,10.9506397 136.889549,10.8390381 136.895681,10.6716724 C136.901521,10.51025 136.87181,10.3600538 137.125339,10.3624751 C138.218952,10.3727475 139.312711,10.3733345 140.406251,10.3619615 C140.660656,10.3593201 140.632697,10.5074618 140.636785,10.6688108 C140.640873,10.8299398 140.63569,10.9532812 140.412748,10.9412479 C140.09768,10.9242251 139.779911,10.9539415 139.4655,10.9317826 C139.204817,10.9134392 139.105391,10.9748531 139.117436,11.2642394 C139.142621,11.8739025 139.125028,12.4853266 139.125028,13.0960169 Z"></path>
                    </g>
                </g>
            </g>
        </g>
    </g>
</svg>