<?xml version="1.0" encoding="UTF-8"?>
<svg width="131px" height="47px" viewBox="0 0 131 47" version="1.1" xmlns="http://www.w3.org/2000/svg" xmlns:xlink="http://www.w3.org/1999/xlink">
    <!-- Generator: Sketch 42 (36781) - http://www.bohemiancoding.com/sketch -->
    <title>scrum logo</title>
    <desc>Created with Sketch.</desc>
    <defs></defs>
    <g id="Homepage" stroke="none" stroke-width="1" fill="none" fill-rule="evenodd">
        <g id="Desktop-HD" transform="translate(-774.000000, -2731.000000)" fill="#D8D8D8">
            <g id="honors-and-awards" transform="translate(0.000000, 2589.000000)">
                <g id="Group-8" transform="translate(249.000000, 127.000000)">
                    <g id="scrum-logo" transform="translate(525.000000, 15.000000)">
                        <path d="M87.5581107,12.1997641 C88.2982867,11.5698383 88.7780281,10.9088139 89.4853752,10.5018813 C90.7430032,9.77829828 92.0455421,9.37582556 93.4660942,9.99647007 C94.3250157,10.371822 94.8026825,11.0682842 94.984767,11.9677306 C95.0157653,12.1217767 94.9664609,12.3312699 95.1424434,12.3941901 C95.3894535,12.4826642 95.4231367,12.2096481 95.5199149,12.0860978 C96.4679259,10.8754252 97.5985097,9.99321558 99.1996819,9.75033372 C101.458042,9.40764731 103.10498,10.7329506 103.133293,13.0226696 C103.151599,14.515278 102.736661,15.9526806 102.507103,17.4138289 C102.370906,18.281333 102.111936,19.1307566 102.155748,20.0256225 C102.191384,20.7520984 102.399585,21.0178823 103.14745,20.9951008 C103.620845,20.9805159 103.717745,21.1624061 103.645253,21.5565617 C103.638053,21.5958568 103.649403,21.6446742 103.62951,21.6748084 C103.35858,22.0871652 103.751673,22.8960883 103.06434,22.983357 C101.985746,23.1201664 100.847718,23.1803143 100.053478,22.1628623 C99.4121545,21.3412828 99.5734921,20.3962735 99.7048077,19.4976709 C99.9591403,17.7574796 100.33173,16.0344046 100.60205,14.2961419 C100.877373,12.5261781 99.7088351,11.6250442 98.0074676,12.2514745 C97.527116,12.4284226 97.0968009,12.6838403 96.726896,13.0390626 C95.496361,14.2200831 94.8954333,15.7009995 94.6133976,17.3369264 C94.3179374,19.0505995 94.0171074,20.7633084 93.7206709,22.476861 C93.6523281,22.8723426 93.4569412,23.0655632 93.0161307,23.0277146 C92.5720251,22.989625 92.1215734,23.004451 91.6749049,23.0234958 C91.2992641,23.0395272 91.1544019,22.9110349 91.2266499,22.5294151 C91.6207189,20.448466 92.0273581,18.3693249 92.3815198,16.2816258 C92.5216223,15.4563096 92.6733188,14.632922 92.7168872,13.7853065 C92.8009732,12.1497413 91.4902576,11.8633456 90.3839599,12.1662549 C88.8864001,12.5763214 88.0897194,13.7305828 87.4162995,14.9993542 C86.7242075,16.3029608 86.61132,17.7549484 86.3290402,19.1614935 C86.0930137,20.337331 85.904217,21.5224498 85.702728,22.7046757 C85.6645293,22.9282717 85.5356545,23.0144556 85.3287957,23.0155404 C84.7392178,23.019036 84.1495178,23.0209646 83.5598178,23.0160225 C83.2646017,23.0136118 83.2082189,22.8904231 83.2660662,22.5900451 C83.635727,20.6665172 83.9803696,18.7382884 84.3257444,16.8103006 C84.5795887,15.3931483 84.8153711,13.972862 85.0740971,12.5566739 C85.1380463,12.2065142 85.0079511,12.0641601 84.6698987,12.0606645 C84.5682389,12.0595797 84.4635281,12.0754906 84.3654075,12.0568074 C83.984641,11.9846057 83.3636986,12.2853453 83.2638694,11.8643099 C83.1324317,11.3095991 83.3972598,10.6901599 83.5943553,10.1249624 C83.650738,9.96320189 83.8865204,10.033716 84.0437086,10.0328722 C84.8163474,10.0292561 85.5891082,10.0298588 86.361747,10.0316669 C87.3788331,10.0340776 87.718472,10.3890588 87.655499,11.3898767 C87.6419525,11.6061199 87.6046081,11.8209166 87.5581107,12.1997641 Z M30.5985343,17.3903242 C31.719843,17.3904448 31.7199651,17.3904448 31.5471556,18.49842 C31.3308998,19.8850765 31.7206973,20.432073 33.4235293,20.7933221 C34.7508424,21.0748963 36.0427638,20.9131357 37.1643166,20.0318904 C38.6535775,18.8613566 38.6001238,16.7261659 37.033123,15.6747225 C36.2577993,15.1546058 35.3776427,14.8390401 34.5279963,14.4627239 C33.5305588,14.0209562 32.5758355,13.5309737 31.8254081,12.6870948 C30.5117635,11.2099151 30.693726,8.28882377 32.062899,6.79308135 C33.7855016,4.91113869 35.974177,4.43188396 38.4136458,4.70706971 C39.4098629,4.8194101 40.3634878,5.06964471 41.1576058,5.72886104 C41.8793536,6.32804998 42.2573133,7.03656589 41.9835763,7.99664232 C41.8575084,8.43877168 41.76012,8.89403956 41.7078867,9.34978959 C41.6591925,9.77371788 41.4217015,9.88425022 41.0506982,9.8724376 C40.9694192,9.86978579 40.887408,9.87882606 40.8068612,9.87135277 C40.3468903,9.82808002 39.7718352,10.0718056 39.4533093,9.74852567 C39.1289255,9.41945992 39.5073733,8.91947285 39.5608271,8.49265168 C39.6356379,7.89515025 39.1865287,7.32151513 38.3971703,7.16095998 C37.2938016,6.9366408 36.1677333,6.88324295 35.1296563,7.40577043 C33.5863314,8.18263076 32.8741027,10.0333544 34.1432025,11.3432289 C34.75548,11.9749628 35.6117165,12.2497869 36.4136451,12.5907858 C37.5092032,13.0565404 38.6178196,13.4880625 39.5076174,14.3337494 C40.691899,15.4592025 40.9485503,16.8509216 40.7509666,18.3591998 C40.3750817,21.2285808 37.8359058,22.9238118 35.4522095,23.1848947 C33.6538198,23.3819726 31.930363,23.2649312 30.3798377,22.2251799 C29.2967277,21.4989451 28.8545747,20.3503489 29.1528419,19.0932696 C29.2358294,18.743592 29.3230884,18.387526 29.3385876,18.03146 C29.3612871,17.508812 29.6002426,17.3141449 30.1111043,17.3867081 C30.2704893,17.4093691 30.4358543,17.3903242 30.5985343,17.3903242 Z M76.3154779,20.5723659 C75.6372985,21.409133 74.9304395,22.1688771 73.9712007,22.6487345 C72.4384933,23.4154698 70.8917512,23.6205031 69.3491585,22.695985 C68.5816454,22.2360162 68.2201613,21.4908571 68.1460827,20.6404692 C68.0413719,19.4391984 68.1670736,18.2511867 68.4123752,17.063175 C68.7313892,15.5172892 68.9536251,13.9518765 69.2280943,12.3967094 C69.272395,12.1463542 69.1747626,12.0634248 68.947401,12.0622195 C68.6628024,12.0606525 68.3738104,12.0281075 68.0948256,12.0665588 C67.4998779,12.1485239 67.3562362,11.9004589 67.4354405,11.3552705 C67.6277764,10.0334629 67.6136197,10.0315343 68.9727854,10.0314137 C69.8467179,10.0314137 70.7208944,10.0421415 71.5944608,10.0261101 C71.9990252,10.0186368 72.1492572,10.0580524 72.0528451,10.5584011 C71.5314878,13.2649367 71.0538211,15.9801509 70.5943384,18.6978965 C70.487797,19.3279429 70.4618023,20.0116282 71.0015877,20.4989589 C71.6890422,21.1194829 72.5375902,21.0222096 73.2985131,20.7401532 C74.9622921,20.1232454 75.9615602,18.826871 76.5699324,17.2354222 C77.1459639,15.728952 77.2187001,14.1083334 77.5600475,12.5473805 C77.6408384,12.178417 77.4775481,12.0539024 77.1026395,12.0507685 C76.6637816,12.0472729 76.099344,12.2544758 75.8151116,11.9497585 C75.5051285,11.6174383 75.9565566,11.1214289 75.9358097,10.6931613 C75.9073742,10.1068698 76.1847724,10.0040518 76.7061297,10.020927 C77.7821613,10.0557622 78.8603897,10.042262 79.9372756,10.0252663 C80.3280495,10.019119 80.4814545,10.0868607 80.3950497,10.5348964 C79.8383007,13.4201882 79.3079124,16.3105426 78.7783784,19.200897 C78.731881,19.4547477 78.7449393,19.7211343 78.747136,19.981494 C78.7533601,20.7301487 78.9973192,20.9927986 79.7737412,20.9985844 C80.2102803,21.0018388 80.4716912,21.0606609 80.2428652,21.5634203 C80.2348105,21.5812597 80.2361529,21.6029564 80.230417,21.6221217 C80.0872634,22.1116221 80.389924,22.882094 79.6271705,22.998171 C78.0333208,23.2404502 76.9488684,22.751432 76.5738377,21.7472391 C76.4358098,21.3775524 76.2853338,21.0046112 76.3154779,20.5723659 Z M39.9823308,40.0353511 C39.6131581,40.0259492 39.3893357,40.1292493 39.2190891,40.4751902 C38.6341487,41.6641662 38.0337091,42.8467538 37.3998304,44.0107786 C37.1649023,44.4421802 37.2838919,44.5236632 37.7139628,44.5366812 C39.0150373,44.5764583 39.0041757,44.5827262 38.7355644,45.8237742 C38.6830869,46.0666561 38.6091304,46.174175 38.3546758,46.1734518 C36.7682705,46.1685097 35.1818653,46.1723669 33.59546,46.1675454 C33.5011227,46.1671838 33.3302659,46.1275272 33.3242859,46.0873884 C33.2544787,45.6215133 33.4686599,45.1922814 33.5391993,44.7426787 C33.577398,44.4994352 33.8594337,44.491962 34.049695,44.5387303 C35.0626316,44.7875184 35.4537716,44.1768785 35.8475965,43.4096611 C37.5766672,40.0402931 39.3488182,36.6923806 41.1020529,33.3351868 C41.8627317,31.8786189 42.6448897,30.4316939 43.3569964,28.9521034 C43.6238991,28.3976336 43.9449878,28.1926004 44.5630012,28.2170694 C45.7799897,28.2654047 45.7752301,28.2704672 45.9207024,29.4786086 C46.1165775,31.1056157 46.4156989,32.7186405 46.7067657,34.3325091 C46.9763533,35.8275283 47.1534341,37.3384584 47.3883622,38.8397455 C47.6325654,40.399493 47.875182,41.9603254 48.1707643,43.5111532 C48.2334931,43.8393752 48.0306617,44.3177861 48.437789,44.4844887 C48.7350798,44.6062309 49.1203619,44.551025 49.4625636,44.524748 C49.8947092,44.4914798 50.0060102,44.686388 49.9374234,45.0598113 C49.8905599,45.3153495 49.8385706,45.5701646 49.7929274,45.8259439 C49.7460638,46.089317 49.5947335,46.1785143 49.3231933,46.1764652 C47.8384478,46.1658579 46.3537023,46.1658579 44.8690789,46.1753803 C44.5527498,46.1774295 44.4105725,46.0746115 44.4673214,45.7532601 C44.4846511,45.6547815 44.4809899,45.5528072 44.4918515,45.4531232 C44.5931452,44.5317391 44.5933893,44.5317391 45.5165041,44.5317391 C45.5977831,44.5318597 45.6791842,44.5318597 45.7604632,44.5317391 C46.6047398,44.5314981 46.5742296,44.5371633 46.4153328,43.709798 C46.2269022,42.7286276 46.0533605,41.7405866 45.9603656,40.7476036 C45.9087425,40.1960267 45.7055449,40.0163062 45.1682003,40.0343868 C44.294756,40.0637978 43.4193591,40.0422217 42.5448164,40.0422217 C41.6906545,40.0422217 40.8360045,40.0570477 39.9823308,40.0353511 Z M44.4204578,30.4737613 C44.3840897,30.4686987 44.3477216,30.4637567 44.3112315,30.4586941 C44.1996864,30.7302638 44.1086442,31.0123201 43.9733012,31.2719566 C42.7964641,33.5273226 41.6242645,35.7850993 40.4182596,38.0252777 C40.1878471,38.4531837 40.2120111,38.5858948 40.7153064,38.5827608 C42.1993196,38.5731179 43.6833328,38.5761313 45.1674681,38.5813144 C45.5534824,38.5826403 45.6995649,38.4919966 45.6147467,38.0454073 C45.3944635,36.8870477 45.2505777,35.7145852 45.0687373,34.5489934 C44.8567528,33.1900604 44.6368357,31.8320916 44.4204578,30.4737613 Z M49.1301007,23.2770332 C46.6669561,23.2718501 44.9380074,22.5993747 43.8439138,20.8379689 C43.0538232,19.5663046 42.7817948,18.1363753 43.023069,16.6325569 C43.4521636,13.9580841 44.7737408,11.8553179 47.208328,10.5734079 C49.438009,9.39961955 51.7362769,9.28860506 53.9679106,10.6356049 C54.7765514,11.1236589 55.0816528,11.9587385 54.9043278,12.8706002 C54.546749,14.7096317 54.9343498,14.2969134 52.9421597,14.3551327 C52.6322987,14.3642935 52.4592452,14.2554487 52.5353985,13.9359053 C52.6486521,13.4603873 52.7949788,12.9781191 52.3718641,12.5828786 C51.8556326,12.1006105 51.1844095,11.9548813 50.5168476,11.9682609 C48.5480893,12.0074354 47.1669562,13.0338072 46.2058868,14.6571982 C45.4827965,15.8784781 45.2875316,17.2149912 45.616675,18.5827235 C46.0756695,20.4892557 47.758853,21.2251335 49.6552412,20.9736935 C50.7719124,20.8256742 51.7444536,20.3412364 52.6135045,19.6646627 C53.0085498,19.3571731 53.1519474,19.4944646 53.2763067,19.8740353 C53.3948081,20.2361282 53.4984206,20.6059354 53.65329,20.9528406 C53.7981522,21.277567 53.6901463,21.4728368 53.4350815,21.6723254 C52.0478465,22.7571575 50.4798693,23.3078906 49.1301007,23.2770332 Z M78.596599,43.9171697 C78.0205676,44.7236821 77.3675285,45.3867556 76.5343576,45.8726399 C74.9201271,46.8145152 72.3896161,46.6021292 71.3118759,45.058172 C70.650294,44.1102698 70.6256418,41.7348491 71.7059448,40.5596143 C72.6825134,39.497202 73.9065802,38.9486386 75.265868,38.6192112 C76.5327711,38.3123242 77.8239602,38.2079393 79.1275975,38.2407253 C79.3202995,38.2455468 79.5237412,38.2877347 79.6512735,38.0450939 C79.9468558,37.483392 79.7415836,35.7669465 79.3016273,35.2855221 C78.6891058,34.6152164 77.8868111,34.5754392 77.0588879,34.6289576 C76.0884214,34.6915162 75.2011865,35.0192561 74.3738735,35.5034528 C73.9724821,35.7383792 73.7622062,35.770201 73.6166119,35.2238072 C73.3505634,34.2246768 73.3771683,34.1487386 74.3545911,33.7365023 C75.542656,33.2354304 76.7589122,32.9113067 78.0613291,32.9618117 C79.7144906,33.0260578 81.0936709,34.0066255 81.4109764,35.3664023 C81.6340665,36.3221394 81.530088,37.2801667 81.352519,38.2275868 C81.0392408,39.8993131 80.6886183,41.5642893 80.3793675,43.2367389 C80.2019206,44.1970564 80.5802463,44.6541323 81.5520553,44.6408732 C82.0330171,44.6343643 82.1102688,44.8261385 82.0127584,45.2180039 C81.969556,45.3920592 81.918177,45.5692485 81.9134174,45.7461966 C81.9051186,46.0523604 81.7601344,46.150598 81.4606469,46.1775982 C79.6352862,46.3423722 78.9283053,45.8055008 78.596599,43.9171697 Z M72.5245929,42.8997177 C72.5293525,44.0526532 73.0598628,44.679204 74.1955723,44.9178671 C74.7146108,45.0269529 75.2074106,44.9621041 75.6823924,44.7727406 C77.5544947,44.0266172 78.4759009,42.4695215 79.1094135,40.7154685 C79.4833457,39.6800565 79.4262307,39.6730653 78.2950368,39.6570339 C76.7960126,39.6356989 75.3366515,39.794446 73.9977445,40.5235737 C73.0552253,41.0369404 72.5360647,41.8191044 72.5245929,42.8997177 Z M88.4343253,35.5920474 C88.9213892,35.1648646 89.3993,34.7378024 89.8858757,34.3206242 C91.1917097,33.2007158 93.7150204,32.4245787 95.3740398,33.4024946 C96.4243208,34.0214516 96.7853168,34.9723672 96.7966666,36.0809451 C96.8122878,37.6070628 96.4709403,39.095573 96.193054,40.5890253 C96.0141425,41.5509097 95.7746989,42.5135175 95.7258827,43.4838395 C95.6803616,44.3888306 95.9913209,44.7192222 96.8484118,44.6549761 C97.1848776,44.6299044 97.5523418,44.5967567 97.3421879,45.1458023 C97.2181947,45.4698055 97.4360371,46.0129448 97.0369645,46.1154012 C96.4632518,46.2625767 95.8187556,46.2953628 95.2395511,46.0662221 C94.1316669,45.6278294 93.7252718,44.5245551 93.9822892,43.1427201 C94.3624456,41.0987758 94.8637882,39.0723094 95.0098707,36.9906371 C95.0348891,36.6339684 95.058809,36.2663309 94.9365244,35.9159301 C94.670598,35.1537752 94.0546593,34.7132129 93.1587595,34.7128513 C91.5068185,34.7122486 90.2757953,35.5413014 89.2618823,36.7410052 C88.042453,38.1843141 87.672304,39.9398135 87.3944177,41.7355723 C87.1865826,43.0782328 86.9150423,44.4112504 86.6735241,45.748969 C86.6189719,46.0518782 86.4617837,46.1838661 86.1306876,46.1775982 C84.4793568,46.1462586 84.8817245,46.3207961 85.0900478,44.9613809 C85.3837994,43.0444825 85.7666407,41.1408432 86.1111612,39.2314181 C86.3381566,37.9728923 86.5467239,36.7107504 86.8011785,35.4577693 C86.8979567,34.9809253 86.7249031,34.8215755 86.282262,34.82483 C85.9772827,34.8269997 85.6693743,34.7986735 85.3679341,34.8312185 C84.8747682,34.8844958 84.8340067,34.6263058 84.8918539,34.2495074 C85.0372042,33.3002793 85.0330548,33.2995561 86.0142609,33.2997971 C86.3802606,33.2999177 86.7465043,33.3101633 87.1121378,33.2979891 C88.644235,33.2466404 88.8258314,33.8847627 88.535863,35.2557495 C88.5080378,35.3872552 88.4007641,35.504176 88.4343253,35.5920474 Z M119.24017,39.7883227 C117.897846,39.7882022 116.5554,39.7986889 115.213442,39.7818137 C114.805216,39.7767512 114.640095,39.9021096 114.615931,40.3256762 C114.547588,41.5209202 114.650468,42.6763869 115.490474,43.6093425 C116.670606,44.9201814 118.169142,45.048071 119.775684,44.5831602 C120.536973,44.3628187 121.253107,44.0261592 121.852204,43.5039933 C122.15401,43.2408612 122.278614,43.3180048 122.413225,43.6410437 C122.864286,44.7240678 122.871121,44.7848184 121.829871,45.3947351 C119.677441,46.6556717 117.445319,46.9382102 115.212587,45.6485859 C113.88381,44.8812479 113.152177,43.6685262 112.931161,42.1366227 C112.585664,39.7439651 113.206973,37.6135959 114.613002,35.680184 C116.034042,33.7259192 118.781908,32.4240001 121.294113,33.1744629 C122.511833,33.5383638 123.336339,34.2966614 123.776784,35.4520077 C124.27178,36.7507928 124.24786,38.0765782 123.912737,39.4140556 C123.816203,39.7994121 123.562236,39.7907335 123.26702,39.7900102 C121.924696,39.7867557 120.582494,39.7885638 119.24017,39.7883227 Z M118.67976,38.4537381 L121.358184,38.4537381 C122.489622,38.4536176 122.489622,38.4536176 122.4524,37.3135796 C122.451667,37.2935705 122.45301,37.2734408 122.451911,37.2534317 C122.351594,35.3237564 121.011589,34.2606209 119.116299,34.5855884 C117.117885,34.9282748 115.958743,36.219225 115.14876,37.933983 C114.944586,38.36659 115.106412,38.4606087 115.514394,38.4567516 C116.569434,38.4473497 117.624597,38.4536176 118.67976,38.4537381 Z M105.29379,46.4151765 C102.337235,46.6133391 100.118171,44.4792333 99.8289352,41.8825068 C99.5058938,38.9833532 100.451464,36.5967225 102.662473,34.7228558 C104.730572,32.9703698 107.09999,32.4817132 109.676998,33.4697542 C110.791595,33.896937 111.632454,34.7088735 111.193962,36.3922919 C110.990765,37.1721657 110.475998,37.4825482 109.682856,37.2326752 C109.527743,37.1839783 109.453542,37.1112945 109.472946,36.929766 C109.53299,36.3677024 109.784028,35.7573035 109.234357,35.2986606 C108.523837,34.7059807 107.642582,34.5521756 106.768284,34.6388416 C103.943411,34.9187283 101.587906,37.5646338 101.543605,40.3823045 C101.526031,41.5111326 101.615609,42.5840315 102.385563,43.4974602 C103.296108,44.5775914 104.484172,44.9263046 105.849196,44.7796112 C107.174068,44.6371366 108.338579,44.1213592 109.31588,43.2175735 C109.493571,43.0532817 109.593156,43.1063179 109.672483,43.2992975 C109.771458,43.5406124 109.860913,43.7860255 109.969652,44.0228805 C110.135993,44.3849734 110.066308,44.6549761 109.733503,44.9036437 C108.641972,45.7191964 107.054103,46.5483697 105.29379,46.4151765 Z M61.2165952,12.3236519 C61.5317039,11.9472152 61.8256996,11.5507693 62.1660708,11.1981989 C63.015229,10.3184 64.0558688,9.84758289 65.299096,9.81359149 C65.753331,9.80117619 65.8819618,10.009464 65.8126427,10.4039812 C65.7157425,10.9551965 65.6170117,11.5065323 65.5026597,12.054493 C65.4629965,12.2440976 65.4219909,12.4517827 65.1270189,12.4308093 C63.30117,12.3007499 62.2762734,13.4336763 61.3973373,14.7715154 C60.5417109,16.0740371 60.1807149,17.5414534 59.934315,19.055638 C59.7390501,20.256065 59.5689256,21.4626394 59.2729772,22.647035 C59.2078075,22.9079974 59.124942,23.0304629 58.8429063,23.0229896 C58.3147147,23.0090073 57.7857909,23.0174449 57.2572332,23.0192529 C56.9604306,23.0202172 56.8210603,22.9499442 56.8887928,22.5914675 C57.1486171,21.2167441 57.3687783,19.8347885 57.6093203,18.4565696 C57.8707311,16.9591396 58.1405628,15.4631561 58.4018517,13.9657262 C58.4808119,13.5129896 58.6487397,13.0795389 58.6538654,12.6092039 C58.6578928,12.234093 58.5379269,12.0296624 58.1322641,12.0593145 C58.0716099,12.0637744 58.008759,12.0682343 57.9495694,12.0582297 C57.5832036,11.9960326 56.9872795,12.2580799 56.8887928,11.9161167 C56.7281874,11.3586335 56.9689734,10.7393149 57.1726591,10.1738763 C57.2386831,9.9906602 57.445908,10.0329686 57.6043166,10.0324865 C58.4582344,10.0298347 59.3123963,10.0186248 60.165948,10.0351383 C60.9132023,10.0496027 61.3469345,10.5850277 61.2395388,11.3198206 C61.1938956,11.6327344 61.1480084,11.9455277 61.1021211,12.2583209 C61.1403198,12.2801381 61.1785185,12.3018348 61.2165952,12.3236519 Z M54.8251357,28.231353 C55.2722923,28.2314735 55.7218898,28.2608845 56.1657513,28.2236386 C56.6410993,28.1836204 56.7226224,28.4010689 56.6495201,28.7913674 C56.2637499,30.8517047 55.8726099,32.9111982 55.5001421,34.9738257 C55.1022898,37.1766376 54.7224996,39.3825835 54.3361192,41.5874445 C54.2430022,42.1186506 54.1673371,42.6533523 54.061772,43.1821477 C53.8689479,44.146684 54.2174958,44.6342558 55.1863758,44.625095 C55.668314,44.6206351 55.7099298,44.8321774 55.6766127,45.2090963 C55.5986288,46.0909442 55.5297979,46.1454269 54.8115892,46.191472 C52.497334,46.3399735 52.0349224,44.7631097 52.3457597,42.9220291 C52.7945028,40.2638288 53.2948691,37.613825 53.7772955,34.9611693 C54.0633585,33.3884038 54.3334343,31.8122633 54.660625,30.2476943 C54.7711938,29.7188989 54.5867905,29.6434428 54.140122,29.6999746 C53.8395361,29.7378232 53.5329702,29.7261311 53.231286,29.7579529 C52.6918667,29.8148463 52.6092452,29.5282095 52.6915006,29.0957231 C52.8561333,28.2309914 52.8545468,28.2307503 53.727747,28.2311119 C54.0935025,28.2312324 54.4593802,28.2311119 54.8251357,28.231353 Z M61.104684,28.2311722 C61.5926022,28.2311722 62.0810085,28.2462393 62.5681944,28.2262302 C62.925163,28.2115247 63.0431763,28.3407402 62.9782507,28.6870427 C62.6796174,30.2783709 62.3830589,31.8701813 62.0999248,33.4644023 C61.6982893,35.7265184 61.3433953,37.9973131 60.8979473,40.250871 C60.719524,41.1536924 60.6066365,42.0666389 60.4039271,42.9643978 C60.1360481,44.1501193 60.4378544,44.5700699 61.6243327,44.6292535 C61.9544524,44.645767 62.0695367,44.7573842 62.004489,45.0664408 C62.0002176,45.0860884 62.001194,45.107785 61.9930172,45.1255039 C61.8399784,45.4603554 62.0175474,46.0351959 61.6111523,46.1276477 C61.0371956,46.2583097 60.3928214,46.309779 59.816912,46.0513479 C59.0266993,45.6966078 58.6414173,45.0871732 58.6107851,44.203035 C58.5644097,42.8621825 58.9305314,41.5878664 59.1531334,40.2901661 C59.3728064,39.0103052 59.6265287,37.7361096 59.8546225,36.4576952 C60.1250644,34.9424258 60.382692,33.4248662 60.6486184,31.9087531 C60.7484476,31.34006 60.857918,30.7730544 60.9586014,30.2046023 C61.0339005,29.7785044 60.7833512,29.67424 60.4228434,29.6947312 C60.1602121,29.7095573 59.8966045,29.7225753 59.636292,29.757531 C59.0434189,29.8372059 58.9524987,29.5312832 59.0174243,29.0414212 C59.0910147,28.487072 59.2486911,28.1021977 59.9478615,28.2198417 C60.3232583,28.2831236 60.7184256,28.2311722 61.104684,28.2311722 Z M67.0712592,33.2991342 C67.57907,33.2991342 68.087369,33.3113084 68.5946916,33.2950359 C68.9412868,33.283826 69.0175621,33.4435374 68.9609353,33.7417457 C68.5768736,35.763029 68.1653529,37.779973 67.8244936,39.808368 C67.6066512,41.1048629 67.1978153,42.3764067 67.2520013,43.7135226 C67.2805588,44.4145652 67.5003539,44.639246 68.2113622,44.6515408 C68.9242011,44.6638355 68.8485359,44.6593757 68.8059438,45.3634317 C68.7610329,46.1083498 68.3946671,46.2105651 67.7559068,46.1964622 C65.9681346,46.1569261 65.147778,45.1957649 65.466914,43.4350823 C65.9656938,40.6829838 66.462765,37.9304031 66.9777762,35.1811974 C67.0337928,34.8821453 66.9307906,34.8236849 66.6806074,34.8247698 C66.2540756,34.8268189 65.8264455,34.8074125 65.4010121,34.8305555 C65.0302529,34.8506852 64.9290813,34.6816925 64.9844877,34.3596179 C65.0251272,34.123245 65.0942021,33.8894034 65.1107997,33.6518252 C65.1310584,33.3604875 65.2767748,33.2865984 65.5478269,33.2947949 C66.0551495,33.3101031 66.5633264,33.2992547 67.0712592,33.2991342 Z M5.21504948,35.1296679 C3.68307431,35.1325608 2.52600775,33.9971031 2.51880735,32.4838829 C2.51197308,31.0257479 3.7471456,29.8094101 5.22542292,29.8184503 C6.74519404,29.8278522 7.85734967,30.9774126 7.91287813,32.495816 C7.96279272,33.8595705 6.68722477,35.2514101 5.21504948,35.1296679 Z M5.06273065,26.398276 C5.07273798,25.013307 6.2206515,23.878211 7.60813064,23.8814655 C9.00866813,23.8845994 10.1922175,25.0724906 10.1813559,26.4638481 C10.1706163,27.8595449 8.99194857,29.0023552 7.57139643,28.9946409 C6.13241617,28.986806 5.05211312,27.8688262 5.06273065,26.398276 Z M12.3732532,20.2563181 C13.7432805,20.2582467 14.7484066,21.258703 14.7415723,22.6137788 C14.7348601,23.9457116 13.6795754,24.9887174 12.3498214,24.977387 C11.0432551,24.9664181 9.9551415,23.8768851 9.96380638,22.588225 C9.97283738,21.2607521 11.0125009,20.2543895 12.3732532,20.2563181 Z M18.4588912,19.3787733 C19.5091723,19.2267763 20.6570858,20.2357907 20.672585,21.5154104 C20.6866196,22.6799174 19.6426847,23.7100258 18.4654814,23.710508 C17.1984563,23.7108696 16.3079263,22.7640522 16.2488587,21.4932316 C16.2008967,20.4602304 17.2266477,19.2232807 18.4588912,19.3787733 Z M22.2415506,23.1689116 C22.2424049,22.0514139 23.0977872,21.2001823 24.2316661,21.1886108 C25.3373535,21.1771598 26.2448472,22.0611774 26.2516814,23.1561346 C26.2586377,24.2884583 25.3670094,25.1653643 24.2132379,25.1611455 C23.0886342,25.1570472 22.2406963,24.3001504 22.2415506,23.1689116 Z M20.1465413,10.8562598 C19.0320669,10.8379382 18.1681418,9.94126417 18.1682638,8.83871312 C18.1683859,7.80559133 19.095406,6.77934014 20.3149573,6.87396161 C21.3685335,6.95580617 22.2474696,7.81270301 22.2400251,8.88668681 C22.2323366,9.99381826 21.2955532,10.8751841 20.1465413,10.8562598 Z M17.7372532,6.46672768 C16.683677,6.46962057 15.790096,5.59934413 15.7828956,4.56344999 C15.7756952,3.51947988 16.6479191,2.66137767 17.7202895,2.65727941 C18.7980297,2.65330169 19.6750132,3.50561813 19.6643957,4.54645429 C19.6535341,5.60922816 18.795833,6.46395534 17.7372532,6.46672768 Z M13.7390579,0.385146743 C14.7283187,0.389124461 15.5158465,1.20009674 15.5043746,2.20320485 C15.493269,3.16882597 14.6771837,3.9734098 13.7172127,3.96497222 C12.7238025,3.95629356 11.9003948,3.13085685 11.9086936,2.15197666 C11.9169923,1.18575285 12.7504073,0.381169025 13.7390579,0.385146743 Z M30.3234671,27.3857022 C30.3160227,28.3450554 29.5031105,29.1484339 28.5414308,29.1467464 C27.5836565,29.1451794 26.7559774,28.3302294 26.7540248,27.3871487 C26.7520721,26.4390054 27.5736492,25.6363502 28.5439937,25.6382788 C29.5295933,25.6403279 30.3309116,26.4270722 30.3234671,27.3857022 Z M30.3257859,34.2890917 C29.3531226,34.2746273 28.7249799,33.620353 28.7443843,32.6417139 C28.7620802,31.7502229 29.4857807,31.0571358 30.3808262,31.0746136 C31.3149246,31.0929352 32.0099456,31.7968707 32.0065285,32.7213888 C32.0031114,33.6561524 31.3090667,34.3035562 30.3257859,34.2890917 Z M6.19399784,4.00066319 C6.19436396,4.86551547 5.62199373,5.45506146 4.77259142,5.46446334 C3.87669166,5.47422683 3.20717714,4.84128755 3.20595673,3.98318534 C3.20473633,3.17956581 3.89914712,2.50805473 4.73097559,2.50841634 C5.59355828,2.50877795 6.19350968,3.1207438 6.19399784,4.00066319 Z M29.5514141,39.4682973 C28.8164859,39.4528685 28.161006,38.7760538 28.1896855,38.0619932 C28.2190973,37.3305753 28.8784825,36.7088459 29.6240283,36.7096897 C30.3960569,36.710654 31.0741142,37.3878303 31.0431159,38.1272037 C31.0111413,38.8877915 30.3468745,39.4850519 29.5514141,39.4682973 Z M0.69072517,7.56309519 C0.685843547,6.76152479 1.25259991,6.20163087 2.06111863,6.2092247 C2.82606887,6.21633638 3.42541007,6.8000966 3.41759948,7.53042969 C3.410155,8.23605272 2.75943473,8.88574662 2.05867782,8.8873136 C1.31789162,8.88900112 0.69511863,8.28619607 0.69072517,7.56309519 Z M7.32243367e-05,11.6980172 C0.00690749578,11.0250597 0.604174004,10.4515451 1.28699095,10.4621523 C1.95687159,10.472398 2.56146053,11.1018417 2.53924915,11.7655179 C2.51703776,12.4299173 1.94893895,12.9819763 1.28271953,12.9864362 C0.554869617,12.9913782 -0.00737124991,12.4266628 7.32243367e-05,11.6980172 Z M26.8206955,41.7231811 C27.489966,41.7299312 27.9968004,42.2360656 28.0022923,42.9031168 C28.0082722,43.6280258 27.5212084,44.1110171 26.7943348,44.100892 C26.0778346,44.0908875 25.6028528,43.5965656 25.6183519,42.8768398 C25.6326307,42.2120788 26.1492284,41.7163105 26.8206955,41.7231811 Z M69.0482797,28.2309914 C69.1698321,28.2309914 69.2933372,28.2447326 69.4126928,28.2285806 C69.9521121,28.1555353 70.0542601,28.4132432 69.9179408,28.8623637 C69.8890172,28.9577084 69.8594833,29.0541379 69.8453266,29.1522549 C69.6377356,30.5810994 69.4660246,30.7044086 68.0336345,30.4929869 C67.7385404,30.4494731 67.655919,30.3264049 67.7374421,30.0460361 C67.8151819,29.7784441 67.8796193,29.5034995 67.9128143,29.2275905 C68.0329023,28.2319557 68.0269223,28.2312324 69.0482797,28.2309914 Z M3.47191973,15.711872 C3.48217114,16.3355299 3.09383807,16.7355919 2.46911244,16.7451143 C1.82717908,16.7548778 1.35122089,16.3393871 1.33035196,15.7510465 C1.31045935,15.1887418 1.8218093,14.6563303 2.39503381,14.6424686 C2.98326932,14.6283657 3.4619124,15.1037633 3.47191973,15.711872 Z M5.10188126,18.1910027 C5.62873037,18.1996813 5.95445663,18.5359793 5.95421255,19.0712837 C5.9540905,19.5686189 5.57771741,19.9506004 5.08089029,19.9575915 C4.60908148,19.9641005 4.18377012,19.5488509 4.17998686,19.0777926 C4.17583748,18.5430909 4.55123425,18.1819624 5.10188126,18.1910027 Z M9.55368907,20.6271017 C9.54978377,21.1260039 9.17487517,21.5019585 8.68231946,21.5008737 C8.20623923,21.4997888 7.81094985,21.0947849 7.81607556,20.6136015 C7.82144534,20.104092 8.19464538,19.7332 8.69220475,19.7432046 C9.19330329,19.7530886 9.55747233,20.1268735 9.55368907,20.6271017 Z M127.768071,35.683559 C126.366558,35.6754831 125.167997,34.3854971 125.186425,32.8679375 C125.207172,31.1470322 126.586231,29.9856591 127.728774,30.0360435 C129.264289,30.1039058 130.384133,31.2191132 130.384865,32.8273166 C130.385597,34.3977919 129.199973,35.6919966 127.768071,35.683559 Z M125.846421,32.8634777 C125.847641,34.2083079 126.737439,35.164045 127.92526,35.0964238 C128.814813,35.0457983 129.600511,34.2345849 129.757699,33.1403509 C129.958211,31.7428461 128.821648,30.4821506 127.596971,30.6219734 C126.580739,30.738171 125.845444,31.6370147 125.846421,32.8634777 Z M126.868694,32.7661682 L126.868694,32.1654123 C126.868938,31.3300916 126.868938,31.3300916 127.872477,31.3675785 C128.510627,31.3914449 128.8571,31.7640244 128.798765,32.3633339 C128.794982,32.4031111 128.804379,32.4556652 128.782412,32.4807368 C128.315851,33.0120635 128.474503,33.5189212 128.827811,34.0284307 C128.893224,34.1229316 128.850754,34.2324996 128.719317,34.2458792 C128.54309,34.2638392 128.338672,34.315429 128.234327,34.1109985 C128.126199,33.8994562 128.040649,33.6763424 127.952292,33.4553982 C127.897251,33.317504 127.83257,33.188409 127.656954,33.2114315 C127.478164,33.2348157 127.478164,33.385969 127.440576,33.5248275 C127.370646,33.7838613 127.668547,34.2979512 127.107527,34.2308121 C126.636572,34.1744009 126.934595,33.7040659 126.87748,33.4250229 C126.834034,33.2134807 126.868694,32.9862686 126.868694,32.7661682 Z M127.445457,32.3127084 C127.442894,32.5410053 127.454854,32.7905167 127.761908,32.7758112 C128.064325,32.7614673 128.212604,32.5542644 128.208333,32.2519578 C128.20455,31.986415 128.056758,31.8571994 127.799009,31.83936 C127.432521,31.8139267 127.439111,32.0645229 127.445457,32.3127084 Z M9.02809698,0.375901563 C9.92692572,0.377227469 10.676987,1.12455627 10.6639287,2.00580156 C10.649772,2.9606949 9.90935188,3.68150558 8.96219508,3.66234021 C8.02577785,3.64341592 7.3838445,2.95430645 7.39141101,1.97602895 C7.39861141,1.04946177 8.08887282,0.374575657 9.02809698,0.375901563 Z M23.5476531,45.6190905 C23.5393544,46.2619138 23.0319097,46.7829948 22.4148726,46.7823921 C21.7920996,46.7817894 21.263542,46.2562486 21.2602469,45.6347603 C21.2568297,44.9701198 21.7940523,44.4572353 22.4690586,44.48074 C23.1042798,44.5027982 23.5558298,44.9794011 23.5476531,45.6190905 Z"></path>
                    </g>
                </g>
            </g>
        </g>
    </g>
</svg>