<?xml version="1.0" encoding="UTF-8"?>
<svg width="26px" height="21px" viewBox="0 0 26 21" version="1.1" xmlns="http://www.w3.org/2000/svg" xmlns:xlink="http://www.w3.org/1999/xlink">
    <!-- Generator: Sketch 42 (36781) - http://www.bohemiancoding.com/sketch -->
    <title>ico arrow r</title>
    <desc>Created with Sketch.</desc>
    <defs></defs>
    <g id="Homepage" stroke="none" stroke-width="1" fill="none" fill-rule="evenodd">
        <g id="Mobile-Portrait" transform="translate(-290.000000, -3234.000000)" fill="#F6A623">
            <g id="meet-our-team-copy" transform="translate(0.000000, 3076.000000)">
                <g id="ico-arrow-r" transform="translate(290.000000, 158.000000)">
                    <path d="M24.6261477,9.53954484 L4.70027251,9.53954484 L11.4672011,2.78190507 C11.9664427,2.2833488 11.9661231,1.47518973 11.4672011,0.976314283 C10.9679595,0.477758015 10.1586896,0.477758015 9.65912842,0.976314283 L0.709855753,9.91330245 C0.210614185,10.4118587 0.210614185,11.220337 0.709536136,11.7185741 L9.65880881,20.6555622 C9.90842959,20.9048404 10.2357173,21.029639 10.563005,21.029639 C10.889973,21.029639 11.2172607,20.9048404 11.4672011,20.6552431 C11.9664427,20.157006 11.9661231,19.3485277 11.4672011,18.8502906 L4.6999529,12.09297 L24.6261477,12.09297 C25.3321814,12.09297 25.9049349,11.5210028 25.9046153,10.8162574 C25.9046153,10.1111929 25.3321814,9.53954484 24.6261477,9.53954484 Z" transform="translate(13.120000, 10.816018) rotate(-180.000000) translate(-13.120000, -10.816018) "></path>
                </g>
            </g>
        </g>
    </g>
</svg>