<?xml version="1.0" encoding="UTF-8"?>
<svg width="11px" height="8px" viewBox="0 0 11 8" version="1.1" xmlns="http://www.w3.org/2000/svg" xmlns:xlink="http://www.w3.org/1999/xlink">
    <!-- Generator: Sketch 42 (36781) - http://www.bohemiancoding.com/sketch -->
    <title>check-right copy</title>
    <desc>Created with Sketch.</desc>
    <defs></defs>
    <g id="Homepage" stroke="none" stroke-width="1" fill="none" fill-rule="evenodd">
        <g id="Styles" transform="translate(-728.000000, -1157.000000)" fill="#FFFFFF">
            <g id="links-and-checkboxes" transform="translate(616.000000, 1083.000000)">
                <path d="M114.090515,77.4406264 L121.441298,77.4406264 C121.888905,77.4406264 122.251762,77.7994751 122.251762,78.2490903 C122.251762,78.6955926 121.883296,79.0575542 121.441298,79.0575542 L113.360658,79.0575542 C113.347487,79.0575542 113.334389,79.0572435 113.321372,79.0566288 C113.308347,79.0572434 113.295238,79.0575542 113.282051,79.0575542 C112.835549,79.0575542 112.473587,78.703917 112.473587,78.2506527 L112.473587,74.4746962 C112.473587,74.0290569 112.832436,73.6677948 113.282051,73.6677948 C113.728553,73.6677948 114.090515,74.021432 114.090515,74.4746962 L114.090515,77.4406264 Z" id="check-right-copy" transform="translate(117.362674, 76.362674) rotate(-45.000000) translate(-117.362674, -76.362674) "></path>
            </g>
        </g>
    </g>
</svg>