<?xml version="1.0" encoding="UTF-8"?>
<svg width="111px" height="38px" viewBox="0 0 111 38" version="1.1" xmlns="http://www.w3.org/2000/svg" xmlns:xlink="http://www.w3.org/1999/xlink">
    <!-- Generator: Sketch 42 (36781) - http://www.bohemiancoding.com/sketch -->
    <title>kidsafe</title>
    <desc>Created with Sketch.</desc>
    <defs></defs>
    <g id="Page-1" stroke="none" stroke-width="1" fill="none" fill-rule="evenodd">
        <g id="Desktop" transform="translate(-140.000000, -421.000000)" fill="#FFFFFF">
            <g id="kidsafe" transform="translate(140.000000, 421.000000)">
                <path d="M13.862182,0.0363586996 C14.0429048,0.110843282 14.2376753,0.0705704906 14.424528,0.105183914 C14.6215607,0.141695964 14.8195786,0.171672358 15.0089489,0.237941729 C15.6657611,0.467639037 15.9375203,0.961172419 15.7748588,1.63806932 C15.7196532,1.86773011 15.6518594,2.09498111 15.5778626,2.31938418 C15.3948776,2.87469595 15.4297232,3.44910352 15.4285921,4.01850894 C15.424542,6.0690622 15.4296137,8.11961545 15.4311462,10.1701322 C15.4314016,10.5383197 15.4311827,10.9064707 15.4311827,11.3300835 C15.7149828,11.0566083 15.9589385,10.8249028 16.1991725,10.5894001 C17.1414997,9.66579124 18.0831336,8.74148869 19.0239648,7.81638287 C19.3209734,7.52435949 19.5653669,7.1868421 19.7607942,6.82427744 C20.1702574,6.06460773 20.9644452,5.85703672 21.7310849,6.12941661 C22.2561041,6.31592017 22.7151173,6.60389071 23.0673681,7.04035576 C23.4397234,7.50172202 23.4380085,7.9204057 23.0620409,8.37622214 C22.7559469,8.74733061 22.3895755,9.06023889 22.0433088,9.39238901 C21.231534,10.1711545 20.4739067,11.0030086 19.6878556,11.8070404 C19.0376476,12.4721439 18.3980576,13.1475803 17.7471198,13.8119171 C17.6417438,13.9194451 17.6459399,13.9622737 17.768611,14.0499392 C19.2016956,15.0742482 20.6296355,16.1057867 22.0609322,17.1326516 C22.3156882,17.3153944 22.6175861,17.4017454 22.9098513,17.4963481 C23.6600352,17.7392262 23.8885566,18.1762755 23.8066056,19.0225883 C23.736805,19.7431536 23.3414989,20.2449752 22.711797,20.5732916 C22.4201156,20.7253278 22.1125256,20.8319795 21.7873487,20.8937944 C21.4024781,20.9669645 21.0516869,20.8824026 20.8078407,20.5896855 C20.1816415,19.8379389 19.3581907,19.3401336 18.5763357,18.7876698 C17.5795326,18.0832793 16.5777672,17.3858991 15.5771694,16.6868394 C15.5404629,16.661208 15.5101053,16.6146551 15.4444642,16.6273978 C15.4444642,17.3372286 15.4389181,18.0467307 15.4474562,18.7560503 C15.4505211,19.0083121 15.5661501,19.2382285 15.6565298,19.4688021 C15.7878119,19.8037636 15.7087069,20.0868415 15.4786165,20.3423894 C15.0766698,20.7887492 14.5523438,20.9721127 13.9739433,21.0249091 C13.6960177,21.0503215 13.4164867,21.0521471 13.1384152,21.0009572 C12.3520722,20.8561504 11.9213003,20.2566956 12.0493351,19.47008 C12.1159248,19.061072 12.1493474,18.6512242 12.1491285,18.2361552 C12.1462825,12.9058706 12.1485812,7.57551288 12.1449689,2.2452282 C12.1446405,1.76414543 12.1606221,1.28642176 12.2149155,0.807894833 C12.244288,0.548695788 12.3660469,0.378074978 12.5814329,0.260688736 C12.8040069,0.139322681 13.049495,0.0989038416 13.2983036,0.0728342378 C13.340848,0.0683797676 13.3982794,0.101970854 13.4243315,0.0363586996 L13.862182,0.0363586996 Z" id="Fill-1"></path>
                <path d="M33.3143536,14.6786548 C33.3035898,15.7208182 33.3076399,16.4445235 33.4928872,17.151981 C33.5830844,17.4965087 33.7037852,17.8344643 34.0011221,18.0555082 C34.383548,18.3398641 34.7538601,18.3241274 35.038098,17.9160322 C35.1354833,17.7762641 35.2224331,17.6308001 35.2861403,17.4725203 C36.2961154,14.9645076 36.3214378,12.4596349 35.2591395,9.95939924 C35.1568285,9.71863878 35.0380615,9.48521724 34.8494574,9.29736274 C34.6404568,9.08917103 34.4245965,9.08635961 34.210962,9.28951265 C34.0396895,9.45246593 33.9394582,9.66040206 33.8556098,9.87673596 C33.6032255,10.5279284 33.4954778,11.2109958 33.4195472,11.8999782 C33.306071,12.9292529 33.3463167,13.9643695 33.3143536,14.6786548 M36.3675215,7.83483606 C36.3675215,6.80037665 36.3685797,5.76591725 36.3669377,4.73145784 C36.3663174,4.33124926 36.2116468,3.97522026 36.0384404,3.62525226 C35.9739669,3.49486772 35.9140179,3.36225596 35.8501647,3.23157933 C35.5824191,2.6836795 35.7134094,2.19485618 36.0724833,1.74177815 C36.4218515,1.30082212 36.8987801,1.09843582 37.4404741,1.02701825 C37.7548143,0.985613586 38.0724018,0.977653959 38.3847717,1.03475881 C39.2829125,1.19906303 39.7550612,1.95500852 39.5385077,2.86839397 C39.5356981,2.88015085 39.531575,2.89179819 39.5267587,2.90289785 C39.2304069,3.58793694 39.2541968,4.31145973 39.2549995,5.03629695 C39.2600348,9.44191395 39.2592685,13.8475675 39.2539778,18.253221 C39.2535765,18.579018 39.3150945,18.8767738 39.4689624,19.1621154 C39.5637935,19.3381035 39.6437742,19.5241324 39.6574206,19.7280157 C39.686939,20.1691543 39.4669921,20.5396786 39.0378257,20.7003316 C38.3187657,20.9694619 37.5732523,21.0096617 36.8376635,20.8005937 C36.2780176,20.6414742 36.1340013,20.310529 36.2934518,19.8043989 C36.3650769,19.5771479 36.461185,19.3540958 36.4885142,19.0733912 C36.2604671,19.3657797 36.0416148,19.6149744 35.7993011,19.8448908 C34.4756791,21.1007958 32.2708465,20.9370027 31.1922748,19.2106765 C30.6952051,18.4150789 30.4160754,17.541163 30.2466637,16.6287268 C29.9686652,15.1315502 29.8906913,13.6215214 30.071706,12.1091557 C30.2718401,10.4368673 30.8003986,8.87897116 31.8459491,7.53218768 C32.3025906,6.94401506 32.8706287,6.50645465 33.6107054,6.31122472 C34.4792184,6.0821116 35.1384752,6.41506499 35.7049808,7.0383622 C35.9367131,7.29332584 36.1412623,7.5698316 36.3675215,7.83483606" id="Fill-4"></path>
                <path d="M75.4925597,11.1870476 C75.4925597,14.1746461 75.4939462,17.1622811 75.4887285,20.1499526 C75.4884731,20.3096928 75.5249242,20.351061 75.6872937,20.3502942 C77.1527063,20.3432109 78.6181918,20.3424807 80.0835679,20.3510975 C80.2555337,20.3521198 80.2752005,20.2965485 80.2749086,20.1476158 C80.2703477,17.8779903 80.2733031,15.6083647 80.2682314,13.3387392 C80.2678665,13.188054 80.3037702,13.148913 80.4563611,13.1495337 C82.0677239,13.1556313 83.6791231,13.150191 85.2904858,13.157822 C85.4635098,13.1586252 85.4938674,13.1061209 85.4930282,12.9472935 C85.4865334,11.7303834 85.4854023,10.5133637 85.4941228,9.29645359 C85.4953634,9.12776792 85.4434781,9.10217297 85.2918724,9.10268414 C83.6744162,9.10808793 82.0569236,9.10443672 80.4394674,9.10900073 C80.3069811,9.10936585 80.2666624,9.08241996 80.2678665,8.94082622 C80.2755289,8.04642704 80.2759302,7.15191832 80.26783,6.25751914 C80.2664435,6.10128408 80.298589,6.05805381 80.462637,6.05871103 C82.2564374,6.06572134 84.0502744,6.06137641 85.8440383,6.06641507 C85.9867046,6.06685322 86.0238489,6.02993953 86.0231556,5.88739649 C86.0173906,4.66435234 86.0167338,3.44127169 86.023557,2.21826405 C86.0245057,2.05370424 85.9848802,2.00664021 85.8148118,2.00689579 C82.4460997,2.01233609 79.0773875,2.01240911 75.7086754,2.00678626 C75.5346663,2.00653067 75.4878163,2.04534298 75.4882177,2.22410598 C75.4943111,5.21177751 75.4925597,8.19941253 75.4925597,11.1870476 M55.4949796,20.3360545 C55.5402606,20.3416044 55.5582125,20.3456937 55.5761644,20.3456937 C57.19373,20.3460588 58.8113321,20.3444523 60.4288977,20.3495275 C60.5490147,20.3498926 60.5796643,20.2939927 60.6161153,20.2016537 C60.9968628,19.2371879 61.384178,18.2753509 61.7614592,17.3095707 C61.8067767,17.1935354 61.858516,17.1594697 61.9807493,17.1597252 C64.0544092,17.1639971 66.1281055,17.1641067 68.2017654,17.1594331 C68.3261879,17.159141 68.3758475,17.1962738 68.418173,17.3114328 C68.765352,18.2562186 69.1232947,19.1970246 69.4701088,20.14192 C69.5249496,20.2912542 69.5879635,20.3526675 69.7624105,20.3516087 C71.3130215,20.3422616 72.8637419,20.3462049 74.4144624,20.3461684 C74.6438595,20.3461684 74.6436406,20.3461319 74.5660681,20.1400578 C73.961506,18.5340023 73.3569075,16.9279102 72.7524914,15.3217451 C71.1081439,10.9520195 69.4632126,6.58254941 67.8225869,2.2114363 C67.7654839,2.0593271 67.6954643,2.0051067 67.5254689,2.0060195 C65.9322404,2.01430774 64.3389755,2.01376006 62.7457471,2.0066037 C62.5858587,2.00590997 62.5172621,2.05187864 62.4600131,2.20110339 C60.3969347,7.58108096 58.3288574,12.9591599 56.2615828,18.3375675 C56.0074106,18.9988737 55.7540411,19.6605451 55.4949796,20.3360545 M74.7323418,18.3045241 L74.7323418,18.086328 C74.7323418,12.5486549 74.7333635,7.01101832 74.7278538,1.4733452 C74.7276714,1.28928796 74.7705443,1.24536396 74.9550982,1.24565606 C78.8288344,1.25168055 82.7026071,1.25146147 86.5763432,1.2460942 C86.7494401,1.24587513 86.7972388,1.28271579 86.7964361,1.46235508 C86.7887372,3.18444592 86.7896494,4.90664631 86.7954874,6.62877367 C86.7960347,6.784315 86.7661514,6.83046623 86.6001331,6.82977251 C84.8061502,6.82265266 83.0121674,6.82736271 81.2181845,6.82163032 C81.0682572,6.82119217 81.0244356,6.85383395 81.0293615,7.00824341 C81.0418037,7.39731581 81.0422416,7.78733753 81.029179,8.17637343 C81.0239978,8.3323164 81.0850414,8.34889287 81.2152655,8.34860077 C82.8267742,8.34502259 84.4383193,8.34911194 86.049828,8.3420286 C86.2190573,8.34129836 86.2556178,8.38781471 86.2549975,8.55084102 C86.2489041,10.2729684 86.249196,11.9951322 86.2546691,13.7172596 C86.2551799,13.8696244 86.2299305,13.9194999 86.06165,13.9186601 C84.4501778,13.9108465 82.8385961,13.9167249 81.2270874,13.9097511 C81.0643895,13.9090574 81.0292155,13.950389 81.0296169,14.1093625 C81.0353089,16.3731096 81.0319156,18.6368567 81.0368779,20.9006039 C81.0372063,21.0581168 81.0093298,21.1125563 80.8352477,21.1114975 C79.4426643,21.1031727 78.0500444,21.1068604 76.6574609,21.1068604 C74.182584,21.1068604 71.7077072,21.1053634 69.2328303,21.1103291 C69.0783786,21.1106577 69.0048197,21.076884 68.9477532,20.919079 C68.6073244,19.9782364 68.2483965,19.0441487 67.9033338,18.1049857 C67.8546959,17.972593 67.8001835,17.9199791 67.6485048,17.9205999 C65.9396839,17.9275371 64.2308264,17.9265513 62.5220055,17.9219873 C62.3891179,17.9216222 62.3239511,17.9513795 62.2719929,18.0854518 C61.9038701,19.0353493 61.5212982,19.9796239 61.1512781,20.9288642 C61.0998671,21.0607822 61.0428736,21.1114975 60.8929828,21.1110593 C58.7888923,21.1048888 56.6847653,21.105546 54.5806383,21.1095988 C54.432353,21.1098909 54.376527,21.1037204 54.4431898,20.9306168 C56.9488621,14.4252283 59.4505208,7.91823323 61.9493335,1.41017936 C61.9954173,1.29012774 62.0490905,1.24645932 62.1817957,1.24678793 C64.1521228,1.25175357 66.12245,1.25197264 68.0927771,1.24649584 C68.233692,1.2460942 68.2898098,1.29385196 68.3371342,1.41974551 C70.4364813,7.00510337 72.5393312,12.5890738 74.6418162,18.1732632 C74.6599505,18.2214957 74.6784132,18.2696185 74.6966935,18.3177414 C74.7085884,18.31336 74.7204834,18.308942 74.7323418,18.3045241" id="Fill-6"></path>
                <path d="M44.0199913,14.8888473 C43.9949608,14.9321871 43.9758049,14.9630398 43.9588017,14.9950609 C43.3326755,16.1736699 42.7114751,17.3549807 42.0756067,18.528332 C41.9804837,18.7038089 42.0080683,18.7757011 42.1656215,18.8787016 C44.1705389,20.1896668 46.3510707,20.8950796 48.7627147,20.8213618 C49.9166331,20.7861276 51.0273139,20.5571606 52.0792861,20.0761508 C53.5294469,19.4130555 54.6016333,18.3898418 55.1159981,16.8434469 C55.4626298,15.8012104 55.564503,14.7270259 55.4864196,13.6400622 C55.3859694,12.24103 54.7495903,11.1315748 53.5945772,10.3260825 C52.9769891,9.89538631 52.3004371,9.58404806 51.589222,9.35000582 C50.8118914,9.09416588 50.0256214,8.86538138 49.2480719,8.61005261 C48.8375871,8.47528663 48.4485935,8.28805284 48.1195123,7.99770901 C47.5404551,7.48683241 47.5124691,6.68732804 48.0664959,6.14782599 C48.5376231,5.68905208 49.1314578,5.51572938 49.7676545,5.52850859 C50.867243,5.55056187 51.8396724,5.95087999 52.6985891,6.62617036 C52.845561,6.741731 52.8858067,6.70876062 52.9591832,6.56391731 C53.5265644,5.4436911 54.0981782,4.32558259 54.677199,3.21134435 C54.7492619,3.07274461 54.7426576,3.0208975 54.5978021,2.9445508 C53.3834968,2.30467712 52.0934433,1.90016012 50.7431854,1.67780173 C49.600797,1.48969165 48.4570586,1.44467229 47.3224785,1.71833011 C45.3094974,2.20383084 43.8587528,3.36308843 43.1091893,5.32466182 C42.681154,6.44477849 42.6192346,7.60878266 42.7788311,8.78830444 C42.8781867,9.52234269 43.1173625,10.2037306 43.5827976,10.7917206 C44.0392202,11.3683554 44.6387105,11.7511478 45.2977484,12.0527738 C46.2115424,12.4709463 47.1809069,12.721565 48.1404927,13.0027078 C48.7642107,13.1854872 49.3747567,13.3975491 49.909591,13.7876804 C50.8698701,14.4881276 50.619967,15.7048916 49.9488516,16.2395741 C49.4602835,16.6288656 48.8912968,16.7773601 48.2842901,16.7830925 C47.1469734,16.7938635 46.136451,16.3948599 45.1960577,15.7849991 C44.7829457,15.5170737 44.3998995,15.2094961 44.0199913,14.8888473 M48.4056841,21.5932995 C45.9108486,21.5664632 43.6497887,20.8104447 41.5965618,19.4067024 C41.4312003,19.2936611 41.2735012,19.1683882 41.1024476,19.0649131 C40.9903214,18.9971102 40.9969256,18.9377781 41.0518029,18.8349602 C41.9426462,17.1652276 42.8314096,15.4943267 43.7151014,13.8207603 C43.7820925,13.6938079 43.8177408,13.6838766 43.9258899,13.7808161 C44.5364359,14.3283143 45.1450481,14.8790986 45.8573213,15.2975997 C46.552482,15.70606 47.2894938,15.9849756 48.1031659,16.0202462 C48.4896419,16.0370418 48.865646,15.9785495 49.2177873,15.8082207 C49.3611468,15.7388844 49.4900938,15.6486996 49.5889021,15.5202502 C49.8157451,15.2253789 49.9107222,14.747071 49.4665228,14.4117809 C49.1566707,14.1778482 48.8100025,14.0200431 48.4449082,13.9047745 C47.659149,13.6566752 46.867114,13.4281828 46.0824495,13.1766512 C45.4639857,12.9784273 44.8678157,12.724413 44.3053968,12.3946361 C43.1419186,11.7124815 42.3938146,10.7182219 42.117312,9.39849382 C41.7920986,7.8464761 41.866971,6.30961088 42.4834645,4.835875 C43.3474529,2.77042483 44.9245904,1.52675138 47.0737794,0.991484723 C48.4811768,0.640932529 49.8944122,0.728305866 51.3028313,1.00265741 C52.8407811,1.30220227 54.2885702,1.84038989 55.6320414,2.65333069 C55.7305943,2.71295487 55.7739779,2.75016065 55.7111829,2.87178229 C54.8680288,4.50489327 54.0288154,6.14004892 53.1932872,7.77710321 C53.126442,7.90803542 53.0918518,7.94279489 52.959548,7.83084894 C52.5103134,7.45094106 52.0758563,7.049272 51.5457653,6.77652698 C50.8856692,6.4369284 50.1956534,6.23428653 49.4448128,6.31472257 C49.206841,6.34020798 48.9832089,6.42064403 48.7801192,6.54803457 C48.3324901,6.8287027 48.3179316,7.21007107 48.7440696,7.51881696 C49.0323941,7.7277024 49.3639929,7.84826519 49.6971971,7.9613065 C50.5007257,8.23379593 51.3279347,8.43169124 52.1242388,8.72740234 C53.064924,9.07667661 53.9443832,9.53154373 54.6835478,10.2251631 C55.6466364,11.1289094 56.1458589,12.2580446 56.2455064,13.5603929 C56.3366523,14.7517081 56.2220449,15.9275786 55.8462962,17.0685437 C55.327334,18.6444403 54.292073,19.7779934 52.8412919,20.5482516 C51.5972127,21.2087546 50.2633013,21.5286732 48.8609756,21.5816522 C48.7821261,21.5846097 48.7033859,21.5907802 48.6245729,21.5928614 C48.5516343,21.594833 48.4786592,21.5932995 48.4056841,21.5932995" id="Fill-8"></path>
                <path d="M88.0442735,11.1535295 C88.0442735,14.1529579 88.0446019,17.1524593 88.0431059,20.1519243 C88.0430694,20.2683612 88.0312474,20.3508054 88.2044538,20.3505498 C91.5727645,20.3446349 94.9411483,20.3451825 98.309459,20.349564 C98.4518334,20.3497466 98.4773017,20.3054574 98.4767909,20.1744157 C98.4718651,18.9515176 98.4704421,17.728583 98.477849,16.5057214 C98.4788707,16.3386423 98.4359613,16.2944627 98.2683376,16.2950104 C96.5112436,16.3012904 94.7541131,16.2973836 92.9969462,16.3018381 C92.8587314,16.3022032 92.8133044,16.2728475 92.8145085,16.1245356 C92.8219884,15.1998314 92.8222074,14.2749812 92.814472,13.350277 C92.8131585,13.1936038 92.8460337,13.1482193 93.0112493,13.148913 C94.6710675,13.1561059 96.3309222,13.1511768 97.9907769,13.1568362 C98.1439516,13.1573473 98.1929543,13.1302189 98.1917502,12.9629937 C98.1831392,11.7461931 98.1841243,10.5293195 98.1907286,9.31255541 C98.1916043,9.15266914 98.1595317,9.10089505 97.98742,9.10166181 C96.3336952,9.10896422 94.679861,9.10392555 93.0261362,9.10940236 C92.8680722,9.10991353 92.8115165,9.08143413 92.8135963,8.90606675 C92.8238493,8.02400864 92.8220614,7.14173146 92.8146909,6.25960033 C92.8134139,6.10683391 92.8403052,6.05779823 93.0080019,6.05849196 C94.7711528,6.06597693 96.5344132,6.0613399 98.2976006,6.06645158 C98.4406317,6.06685322 98.477995,6.0307428 98.4773017,5.88695835 C98.4713178,4.66409676 98.470734,3.44112564 98.4775936,2.21826405 C98.4785058,2.05458053 98.4408507,2.00656718 98.2701984,2.00685928 C94.9322088,2.0123726 91.5943287,2.01255516 88.256339,2.00653067 C88.0763825,2.00623858 88.039895,2.05545682 88.0402233,2.22812231 C88.0458424,5.20323369 88.0442735,8.17838159 88.0442735,11.1535295 M87.2840556,11.1774449 C87.2840556,7.94061512 87.2854786,4.70382187 87.2800784,1.46699211 C87.2797865,1.29589664 87.313428,1.24536396 87.4948076,1.24565606 C91.3435498,1.25168055 95.1922555,1.25157101 99.0409977,1.24583862 C99.214569,1.24554652 99.2447442,1.2979048 99.2442333,1.45691478 C99.2387237,3.18481105 99.2386872,4.91274382 99.2444887,6.64064009 C99.2449996,6.79044903 99.2121608,6.82980902 99.0584388,6.82926134 C97.2952149,6.8230908 95.531991,6.82750876 93.7687671,6.82152078 C93.616833,6.82100961 93.5764048,6.85704701 93.5812212,7.00933877 C93.5932985,7.39227715 93.5926418,7.77605531 93.5814766,8.15903021 C93.5771346,8.30807239 93.6121991,8.35079149 93.7678185,8.3502073 C95.4276731,8.3438542 97.0875643,8.3490024 98.747419,8.3420286 C98.9163928,8.34133487 98.9532817,8.3874861 98.9526979,8.55073148 C98.9465315,10.2725302 98.9457653,11.994402 98.9535736,13.7162373 C98.9544128,13.8919333 98.8983314,13.9177838 98.7422013,13.9172726 C97.0823466,13.9119784 95.4224554,13.9157391 93.7626007,13.9107735 C93.6215764,13.9103718 93.5778643,13.9427945 93.5814766,14.0891348 C93.591985,14.5147923 93.5926053,14.941034 93.5812212,15.366655 C93.5772075,15.5169386 93.6288374,15.5422049 93.7642792,15.5418763 C95.5214096,15.5377139 97.2786131,15.5413286 99.0357435,15.5354867 C99.1970185,15.534939 99.2458023,15.5691508 99.2451455,15.7399907 C99.237994,17.4678504 99.2385413,19.1958562 99.2446712,20.9237525 C99.2452185,21.0772857 99.2061038,21.1106212 99.0559576,21.1104386 C95.1950651,21.1058746 91.3341725,21.1053999 87.47328,21.111534 C87.3000736,21.1118261 87.2808447,21.0550863 87.2810271,20.9061537 C87.2850042,17.6632629 87.2840556,14.4203722 87.2840556,11.1774449" id="Fill-10"></path>
                <path d="M25.0519582,15.2003791 C25.072902,13.6202106 25.0741791,12.0393849 25.1231454,10.4600561 C25.1478474,9.6646046 25.0305035,8.88554698 24.9775236,8.09893137 C24.9360008,7.48235238 25.1515327,6.95048134 25.6029565,6.52953392 C25.8561801,6.29333746 26.1955507,6.28723995 26.5152545,6.28939416 C27.1451754,6.2937391 27.7571079,6.40856949 28.3326259,6.67850308 C28.8791363,6.93478116 29.0711702,7.37891374 28.8839161,7.95047337 C28.7891945,8.23968532 28.6506513,8.50939984 28.5103202,8.77812853 C28.2758148,9.22733628 28.1642724,9.69761149 28.1672279,10.2118107 C28.1801445,12.4499629 28.1804364,14.6882976 28.1678117,16.9264498 C28.1643089,17.5421525 28.2615846,18.1332095 28.4366884,18.7179135 C28.5584838,19.1246212 28.6859347,19.5305622 28.7234439,19.9569134 C28.7553705,20.3193685 28.6391212,20.6128159 28.3239419,20.8137052 C27.7845466,21.1575026 27.1978999,21.2831771 26.5664465,21.1865662 C25.9479462,21.0919635 25.5676731,20.7250904 25.3960722,20.1328285 C25.2397596,19.5933264 25.1840431,19.0371749 25.1375944,18.4803296 C25.046558,17.3887288 25.0523596,16.2945357 25.0519582,15.2003791" id="Fill-12"></path>
                <path d="M27.2167639,5.32722131 C26.6255563,5.32473849 26.0635388,5.19570491 25.5448684,4.90484992 C25.4451844,4.84894997 25.3502803,4.77946754 25.2660306,4.70224455 C25.0021162,4.46016966 24.9072486,4.14780907 25.0692898,3.8288398 C25.3457194,3.28473722 25.3799812,2.72292631 25.3298108,2.13026271 C25.2656657,1.37216301 25.4922169,1.10558853 26.2437507,0.982287338 C26.8117887,0.889072074 27.3793159,0.889510218 27.9426471,1.02161082 C28.1206698,1.0633806 28.2848272,1.13826682 28.4439129,1.23005811 C28.6694424,1.36022357 28.7394255,1.54249172 28.6952755,1.79665211 C28.6327724,2.15607673 28.5447644,2.50980547 28.4394249,2.85670646 C28.2925261,3.34034508 28.2932923,3.82453137 28.3560874,4.31602008 C28.4373086,4.95187744 28.185946,5.26686689 27.5443126,5.32579734 C27.4360176,5.33572862 27.3259711,5.32722131 27.2167639,5.32722131" id="Fill-14"></path>
                <path d="M102.783032,0.433215476 C101.683188,0.433507572 100.820367,1.32867351 100.819492,2.47040532 C100.818579,3.61965861 101.685414,4.52070298 102.791169,4.51986321 C103.886853,4.51898692 104.752228,3.61885534 104.75263,2.47949682 C104.753067,1.32454765 103.89488,0.432959891 102.783032,0.433215476 M102.781025,0.0728415402 C104.133071,0.0727685161 105.189714,1.12358532 105.19048,2.4691274 C105.191319,3.8138662 104.135297,4.87870364 102.792665,4.88691885 C101.464555,4.89509755 100.383611,3.81759043 100.378868,2.48081125 C100.374125,1.13935853 101.437992,0.0729510763 102.781025,0.0728415402" id="Fill-16"></path>
                <path d="M103.187037,2.64500959 C103.449419,3.05186337 103.706364,3.45017332 103.981881,3.8773278 C103.822832,3.8773278 103.697643,3.87480847 103.572601,3.87816758 C103.484228,3.88057737 103.466969,3.80777234 103.433036,3.75457429 C103.224364,3.42673259 103.018063,3.09739389 102.809756,2.76929661 C102.75922,2.68970034 102.400475,2.62642496 102.329361,2.68389493 C102.283861,2.72066256 102.30444,2.77455435 102.304184,2.82059604 C102.30236,3.12474142 102.298857,3.42903285 102.305607,3.73306869 C102.307942,3.84023156 102.285503,3.8812711 102.167392,3.88090598 C101.870128,3.87988364 101.870128,3.88649232 101.870128,3.58840795 C101.870128,2.80361794 101.87312,2.01882793 101.867173,1.23403792 C101.866188,1.10456619 101.887241,1.05271908 102.032571,1.05991196 C102.420725,1.07915381 102.812383,1.02916881 103.19802,1.08243989 C103.691878,1.15068091 103.909381,1.39713725 103.913431,1.84210961 C103.9177,2.30785732 103.709028,2.54609845 103.187037,2.64500959 Z M102.303349,1.8528332 C102.303349,1.9740532 102.303458,2.09527321 102.303276,2.21645671 C102.303203,2.26607658 102.300211,2.31598855 102.373478,2.31419946 C102.638852,2.30770032 102.907181,2.33983092 103.16803,2.27107873 C103.38805,2.21306108 103.479269,2.07774743 103.475584,1.84180656 C103.472264,1.63167971 103.375024,1.51520627 103.164017,1.45375649 C103.020767,1.41213275 102.875619,1.42509453 102.730946,1.42451034 C102.303239,1.42272125 102.303239,1.42385312 102.303349,1.8528332 Z" id="Combined-Shape"></path>
                <path d="M66.0096487,12.7392004 C65.7093928,11.8384481 65.4162519,10.9592014 65.109793,10.039755 C64.7987003,10.9627431 64.5012538,11.8452028 64.1999032,12.7392004 L66.0096487,12.7392004 Z M63.1393929,13.4980303 C63.7923739,11.5614312 64.4428008,9.63246304 65.0931912,7.70349491 L65.1346775,7.69644809 C65.7777339,9.62600041 66.4207903,11.5555892 67.0681523,13.4980303 L63.1393929,13.4980303 Z" id="Fill-20"></path>
                <path d="M61.6375585,28.7013158 C60.5273156,28.6874777 59.7124758,29.5139645 59.7111988,30.6553677 C59.7111988,30.6857822 59.710469,30.7161967 59.7113082,30.7466113 C59.7525392,32.2002655 61.2215275,33.1056183 62.4671027,32.427334 C63.2437765,32.0043784 63.5106828,31.294219 63.4472675,30.4449852 C63.375387,29.4830753 62.5675529,28.7128901 61.6375585,28.7013158" id="Fill-26"></path>
                <path d="M78.437823,30.2559295 C78.8773154,29.6828729 78.5237876,28.9038883 77.7800256,28.8121335 C77.2423817,28.7457911 76.7011985,28.7942426 76.1618762,28.7800394 C76.0642355,28.777447 76.0559894,28.8313388 76.0564637,28.9064441 C76.0581786,29.1736028 76.057157,29.440798 76.0574853,29.7079566 C76.0574853,29.9812128 76.0598205,30.254469 76.0560988,30.5276522 C76.0548947,30.6110457 76.0767873,30.6464989 76.1676047,30.6455496 C76.6590554,30.6402918 77.1509439,30.6524503 77.6418473,30.6343039 C77.9525387,30.6228026 78.2389294,30.5153111 78.437823,30.2559295" id="Fill-28"></path>
                <path d="M29.5530356,30.828391 C29.301454,30.2459142 29.0500913,29.663401 28.7796822,29.0369272 C28.4722747,29.7546446 28.1820528,30.4327464 27.8912106,31.1105926 C27.8613638,31.1802576 27.8393253,31.2384578 27.9550638,31.2381657 C28.5073027,31.2365592 29.0595416,31.2367052 29.611744,31.2382752 C29.6998979,31.2384943 29.7191269,31.2054874 29.6838799,31.1280088 C29.6387813,31.0288056 29.5962368,30.9284705 29.5530356,30.828391" id="Fill-30"></path>
                <path d="M55.1360042,29.7483609 C55.1468046,29.1866595 54.832063,28.8610085 54.2102424,28.8021876 C53.7017155,28.7541012 53.1913278,28.7939359 52.6820712,28.7790755 C52.5677923,28.7757529 52.5735208,28.8397585 52.5736667,28.917164 C52.5749073,29.4456029 52.5773155,29.9740784 52.5719883,30.5024077 C52.5708937,30.6109215 52.5939173,30.651596 52.7110059,30.6468494 C52.9473356,30.6372102 53.1843222,30.6439649 53.4210169,30.6439649 L53.4210169,30.6383056 C53.6697889,30.6383056 53.9192907,30.650172 54.1672236,30.6359323 C54.738363,30.6030714 55.1265175,30.241018 55.1360042,29.7483609" id="Fill-32"></path>
                <path d="M95.6045355,33.4572221 C95.3919591,33.4499562 95.1780692,33.4434205 94.9664049,33.4587556 C94.7961176,33.4710966 94.7426269,33.4288887 94.7441593,33.2456712 C94.753938,32.0714072 94.7494135,30.8970336 94.7496325,29.7226965 L94.7496325,29.5271015 C94.6693234,29.557443 94.6482701,29.6252824 94.6143002,29.6758151 C94.1057004,30.4321257 93.5994358,31.1900063 93.0917481,31.9469741 C92.9754258,32.1203699 92.9737839,32.1194571 92.8524628,31.937554 C92.3567796,31.1943512 91.8612423,30.4510754 91.3654861,29.7079092 C91.3302756,29.6551127 91.293934,29.6031196 91.2211779,29.5641612 L91.2211779,29.737703 C91.2213968,30.9181011 91.2189157,32.0985357 91.2252645,33.2789337 C91.2260307,33.423777 91.1870985,33.4664231 91.0442863,33.4582079 C90.8321477,33.4460494 90.6186591,33.4502848 90.4060463,33.4571125 C90.3009986,33.4605081 90.2580893,33.4392581 90.2583447,33.3195351 C90.2625772,31.5549442 90.2623218,29.7903899 90.2597312,28.0258355 C90.2595853,27.9237113 90.2865131,27.8886232 90.3917066,27.8916172 C90.6408071,27.8987006 90.8905278,27.9008548 91.1394458,27.8909235 C91.2635034,27.8859213 91.3344352,27.9277276 91.400952,28.0324077 C91.9221035,28.8524318 92.4494944,29.6684396 92.9912979,30.5109917 C93.3625222,29.9343934 93.7205379,29.3783514 94.0784807,28.8222729 C94.2527087,28.551609 94.4295273,28.2825152 94.5992673,28.0090765 C94.6488174,27.9292977 94.6999,27.8884042 94.8003502,27.8912886 C95.0676944,27.8989196 95.3354764,27.8982259 95.6028571,27.8917268 C95.7078682,27.8891709 95.7357812,27.9243685 95.7355988,28.0269674 C95.7330082,29.7915218 95.7332271,31.5560761 95.7360731,33.3206305 C95.7362191,33.4214768 95.7111521,33.4608733 95.6045355,33.4572221 M86.772544,33.4574776 C86.6707073,33.4597049 86.6539595,33.3927053 86.6264844,33.3272392 C86.4762652,32.9693115 86.3239297,32.6121507 86.1793296,32.2519228 C86.1399596,32.1538879 86.0901541,32.1150391 85.9795603,32.1158059 C85.2013176,32.1211001 84.4230019,32.1213192 83.6447591,32.1157693 C83.5256638,32.1148931 83.4777192,32.1599489 83.435722,32.264629 C83.2957558,32.6136477 83.1396986,32.9561307 82.9988567,33.3047477 C82.9542689,33.4151967 82.9016904,33.4665326 82.7736556,33.458646 C82.5616265,33.4455747 82.3482109,33.4551044 82.1354156,33.4550679 C81.916089,33.4549948 81.9156876,33.4548488 82.0000103,33.2619921 C82.3427742,32.478334 82.686195,31.694968 83.0285576,30.9111273 C83.4510103,29.9438135 83.8742293,28.9768649 84.2925224,28.0077986 C84.3391535,27.8997594 84.3896888,27.844042 84.5179789,27.8539733 C84.6932651,27.8675193 84.8717256,27.8709149 85.046355,27.8535717 C85.224925,27.8358633 85.3078612,27.8992117 85.3799606,28.0663274 C86.1200739,29.7818461 86.8704401,31.4929468 87.6178144,33.2053619 C87.651237,33.2819277 87.6837474,33.3589316 87.7249783,33.4549583 C87.3910443,33.4549583 87.0816665,33.4506134 86.772544,33.4574776 M78.7183574,33.4572951 C78.6260805,33.4588286 78.5927308,33.4021984 78.5508431,33.3426838 C78.1556101,32.7810919 77.7567283,32.2220559 77.3671509,31.6565938 C77.2962191,31.5536663 77.2237913,31.5134666 77.1005729,31.5170447 C76.8089645,31.525552 76.5165898,31.5276332 76.2251638,31.5163875 C76.0835557,31.5109107 76.0526507,31.5595813 76.0544751,31.6924121 C76.0616632,32.2156298 76.0496223,32.7392126 76.062247,33.2622112 C76.0663336,33.431189 76.0120036,33.4675915 75.8572965,33.4583539 C75.6391375,33.4453922 75.4195189,33.4504308 75.2008126,33.457076 C75.0977353,33.4602161 75.06351,33.4277203 75.0654803,33.3230403 C75.0713913,33.0067364 75.0676331,32.6902499 75.0676696,32.3738365 C75.0678156,30.9438421 75.0703697,29.5138841 75.0646411,28.0839262 C75.0640573,27.9348475 75.0978083,27.8886598 75.252552,27.8901933 C76.049075,27.8981164 76.8457804,27.8892439 77.6423399,27.895451 C78.2181133,27.8999055 78.7539328,28.0370082 79.1706205,28.4642722 C80.0155625,29.3307032 79.6510154,30.86169 78.4981916,31.2830025 C78.3329396,31.3433934 78.3125795,31.3826804 78.4183569,31.5274507 C78.862994,32.1358875 79.2961011,32.7526855 79.7332219,33.3665626 C79.7465763,33.3853298 79.7572672,33.4060687 79.7867126,33.4549948 C79.4107815,33.4549948 79.0644782,33.4516357 78.7183574,33.4572951 M72.2125561,32.5716588 C72.2127385,32.6482976 72.2021936,32.7095283 72.1340349,32.7611198 C71.0775017,33.5600035 69.9208467,33.805547 68.6731917,33.311612 C67.7169263,32.9330551 67.2014303,32.1703183 67.0465407,31.1667481 C66.8674599,30.0065777 67.3298665,28.8493283 68.3571731,28.2132519 C69.413378,27.559248 70.9547211,27.6708654 71.9157664,28.4579556 C72.0090286,28.5343388 72.0126044,28.5782628 71.9318939,28.6658187 C71.7754718,28.8355633 71.6261283,29.0128658 71.4867824,29.196777 C71.4158506,29.2903939 71.3720656,29.2840043 71.2894943,29.2136821 C70.9215904,28.9004087 70.493701,28.7266113 70.010679,28.702988 C69.1572719,28.6612182 68.4625856,29.1116674 68.1810113,29.9217602 C67.908121,30.7069519 68.000325,31.4535503 68.5665022,32.0864502 C69.1145085,32.6990493 70.0758822,32.8249794 70.9099874,32.4478099 C71.1606568,32.33444 71.3220777,32.202668 71.2687694,31.8922061 C71.2383388,31.714867 71.2564366,31.5276697 71.2658139,31.3455842 C71.2716884,31.2304617 71.2308953,31.2018727 71.1211043,31.2036618 C70.744188,31.2096863 70.3670528,31.2017997 69.9901365,31.2084084 C69.8707128,31.2105261 69.8310143,31.1754015 69.8376551,31.0539624 C69.8479446,30.8658523 69.8468135,30.6765373 69.837947,30.4883177 C69.8327293,30.377175 69.8638896,30.3413932 69.9787889,30.3438761 C70.3252381,30.351434 70.6719427,30.346651 71.0185743,30.3466145 C71.3652059,30.3466145 71.7118741,30.3505212 72.0583962,30.3443507 C72.1701211,30.3423425 72.2156575,30.3634465 72.2144534,30.4905815 C72.2079587,31.1842374 72.2108777,31.8779664 72.2125561,32.5716588 M61.5734462,33.5567904 C59.9602591,33.5596019 58.6783788,32.3225736 58.6752044,30.7599674 C58.6717381,29.0501081 59.9124239,27.7884342 61.5946819,27.791063 C63.2407443,27.7936919 64.4932156,29.0308297 64.5004767,30.6612753 C64.5077377,32.2881792 63.2282656,33.5538695 61.5734462,33.5567904 M55.2066259,33.4548123 C55.1294182,33.4549583 55.1102623,33.3900399 55.0768397,33.3426838 C54.680731,32.7821508 54.2836006,32.2223115 53.8917974,31.658748 C53.8233468,31.5603115 53.7528893,31.5118965 53.6260586,31.516351 C53.3225188,31.5270125 53.0182492,31.5249679 52.7145634,31.5170813 C52.6006858,31.5141603 52.5710579,31.5493214 52.572189,31.6606831 C52.5775892,32.2080353 52.5718971,32.7554605 52.5770783,33.3028126 C52.5781365,33.4157809 52.5562075,33.4639403 52.4299606,33.4580984 C52.1995053,33.4474368 51.9678459,33.447875 51.7373541,33.4579888 C51.6138438,33.4633926 51.5879011,33.4199433 51.5885579,33.3043461 C51.5932648,32.4772386 51.5912215,31.6500947 51.5912945,30.8229507 C51.5914039,29.9045266 51.5951621,28.9861024 51.5878646,28.0677879 C51.5867335,27.9208999 51.6300442,27.8895726 51.7690982,27.8907044 C52.5652564,27.8972401 53.361524,27.8889153 54.1576821,27.8954875 C54.7599454,27.9004531 55.3113086,28.0513209 55.7401832,28.5096202 C56.3431763,29.1540214 56.3971048,30.7274351 55.1007755,31.2551803 C55.0174745,31.2891 54.9325315,31.3188938 54.8273744,31.3585094 C55.3260131,32.058774 55.8111514,32.7400524 56.3198607,33.4544837 C55.9266345,33.4544837 55.5666484,33.4540455 55.2066259,33.4548123 M49.0035981,29.9101859 C48.9628051,30.6265889 48.5980756,31.1284835 47.9576828,31.4331035 C47.6184216,31.5944138 47.2560274,31.6644074 46.8807166,31.6656123 C46.5524382,31.6666346 46.223576,31.6776247 45.8961003,31.6612308 C45.7116193,31.6519933 45.6766642,31.7164005 45.6810427,31.8862546 C45.6930107,32.3482781 45.6777589,32.8110318 45.6894349,33.2730553 C45.693412,33.4317367 45.64222,33.4670803 45.4954306,33.4583174 C45.283365,33.4456843 45.0696575,33.4472543 44.8574095,33.4579888 C44.7261273,33.464561 44.6967184,33.4182637 44.6974846,33.293429 C44.7026294,32.4173954 44.7002212,31.5413618 44.7002212,30.6653281 L44.7007685,30.6653281 C44.7007685,29.795392 44.7032132,28.9254559 44.6980319,28.0555563 C44.6973022,27.9308312 44.7267111,27.8897186 44.8576284,27.8908505 C45.5749005,27.8972036 46.292355,27.8914347 47.0097,27.8948668 C47.3850838,27.8966559 47.7469673,27.9716882 48.0795147,28.1504512 C48.781462,28.5277667 49.0474197,29.1411326 49.0035981,29.9101859 M38.1352735,32.725192 C38.1242908,32.9253145 38.1291801,33.1265324 38.133814,33.3271661 C38.1358573,33.4149046 38.1194744,33.4573316 38.0163606,33.457076 C36.7946118,33.453863 35.5727536,33.4531692 34.3510048,33.4576602 C34.2151252,33.4581349 34.2276039,33.3836138 34.2277134,33.2955832 C34.2286621,32.4196956 34.2282972,31.5437716 34.2282972,30.667884 L34.228808,30.667884 C34.228808,29.8102159 34.2345731,28.9524748 34.2241011,28.0949528 C34.2219484,27.9191108 34.2784311,27.8809922 34.4376627,27.8907774 C34.6435619,27.9034471 34.8512855,27.9023153 35.0572941,27.8908505 C35.1901088,27.8834385 35.215796,27.9315249 35.2154311,28.0551182 C35.2114175,29.4845284 35.2170001,30.9140117 35.208462,32.3433855 C35.2073309,32.5305097 35.2562607,32.5737765 35.4388808,32.5715128 C36.2837133,32.5611433 37.1286918,32.5696871 37.9735972,32.5639913 C38.1010117,32.5631515 38.1423521,32.5957933 38.1352735,32.725192 M30.7286678,33.4560537 C30.6349313,33.457003 30.6270135,33.3868999 30.602056,33.3275313 C30.454099,32.9750074 30.3031501,32.623652 30.1604108,32.2690104 C30.1164798,32.1598029 30.0619674,32.1136516 29.934553,32.1148931 C29.1684241,32.1223415 28.4021128,32.1217573 27.6359474,32.1154407 C27.512656,32.1144184 27.4525245,32.1516972 27.4068421,32.2654687 C27.262242,32.6258427 27.1057105,32.98147 26.9550534,33.3394707 C26.9255715,33.4095008 26.8966369,33.460143 26.8012949,33.4577332 C26.5099419,33.4503213 26.2182605,33.4550313 25.9183329,33.4550313 C25.9082624,33.3782465 25.9488,33.3238801 25.9735386,33.2671403 C26.7380985,31.5156208 27.5049936,29.7651235 28.2654304,28.0118149 C28.3175346,27.8917633 28.3765715,27.8474011 28.5052265,27.854448 C28.7053607,27.8654381 28.9065895,27.8623711 29.107052,27.8552877 C29.2103847,27.851673 29.2678891,27.8792031 29.3124039,27.9816925 C30.0855384,29.7625677 30.8632338,31.5413983 31.6395427,33.3208861 C31.6561081,33.3588951 31.6676746,33.3990219 31.6874873,33.4548488 C31.3589171,33.4548488 31.0437377,33.4528771 30.7286678,33.4560537 M23.6380806,33.2895952 C23.6492458,33.4337448 23.5940766,33.4585 23.4630499,33.4579523 C22.332228,33.4529867 21.2014062,33.4550679 20.0706209,33.4550679 C19.9368575,33.4550679 19.8021455,33.444954 19.6696228,33.4576967 C19.5081289,33.4731778 19.4539814,33.4270266 19.4559882,33.2527181 C19.4660223,32.39505 19.4605127,31.5371994 19.4605127,30.6794218 L19.4611695,30.6794218 C19.4611695,29.8094492 19.4648547,28.93944 19.4575937,28.0695039 C19.4563896,27.9218127 19.502145,27.8902663 19.6416004,27.8908505 C20.9000921,27.8959987 22.1585474,27.8958526 23.4170026,27.891033 C23.5541228,27.8904854 23.6129772,27.9171026 23.6011187,28.0683721 C23.5868886,28.2497639 23.5895157,28.4336386 23.6006444,28.6155051 C23.6084527,28.7436624 23.5688273,28.7783124 23.4402817,28.7773631 C22.6195674,28.7714481 21.7987802,28.7718862 20.9780295,28.7763772 C20.8048596,28.77729 20.5726164,28.6961603 20.4748663,28.8145688 C20.3903612,28.9169121 20.4514778,29.140731 20.4505656,29.3108771 C20.449325,29.5542665 20.4594321,29.7980574 20.4468439,30.040753 C20.4394369,30.1837342 20.4909208,30.2097308 20.6217651,30.2087815 C21.4302925,30.2030491 22.2389659,30.2100594 23.0474568,30.2022823 C23.2003396,30.2007853 23.2481748,30.2435044 23.2361339,30.3941897 C23.2230348,30.557435 23.2188388,30.7241125 23.2369366,30.8863356 C23.257844,31.0736424 23.1810012,31.1021948 23.0135599,31.1003327 C22.2233127,31.0915698 21.4328467,31.1020488 20.6425995,31.0919349 C20.472969,31.0897442 20.4425748,31.1458632 20.4470993,31.2984106 C20.4576807,31.6570319 20.4578996,32.0163835 20.4470263,32.3750049 C20.4424654,32.5278078 20.4731514,32.5800566 20.6417603,32.578304 C21.5779576,32.5685188 22.5143009,32.5773182 23.4504982,32.5698697 C23.603308,32.5686648 23.6500485,32.6093392 23.6380076,32.7608642 C23.6240694,32.9361951 23.6243978,33.1142279 23.6380806,33.2895952 M15.9327149,33.2598744 C15.2312784,33.6347437 14.4931355,33.5988523 13.7531317,33.3974518 C13.3024011,33.2748079 12.9050518,33.0434675 12.5379871,32.7544746 C12.4253866,32.6658599 12.4321733,32.6089741 12.5213123,32.5128379 C12.6616434,32.3614224 12.7948594,32.202522 12.9203766,32.0385829 C12.9904691,31.9471202 13.0365894,31.9527795 13.1206202,32.0233939 C13.569125,32.4005998 14.0752802,32.6436606 14.6727272,32.6600545 C14.917814,32.6667727 15.1588871,32.6476769 15.3813882,32.5314955 C15.6103475,32.4119916 15.7421405,32.2206319 15.7483434,31.9636967 C15.7546192,31.7023799 15.6211478,31.5190894 15.3872991,31.3997315 C15.0201615,31.2124247 14.6166093,31.1473967 14.2259372,31.0387004 C13.9861046,30.9719563 13.7507235,30.8945143 13.522275,30.7934124 C12.9465746,30.5385583 12.6415023,30.102714 12.6400793,29.4708364 C12.6386563,28.8629473 12.8966232,28.3930372 13.4260574,28.0836341 C13.7766297,27.8787285 14.1631057,27.8133354 14.4640184,27.8081872 C15.2637523,27.8123131 15.9020654,28.0069953 16.4670749,28.4306811 C16.5457785,28.4896846 16.5661021,28.5277302 16.4994394,28.6136795 C16.3654936,28.786345 16.2400859,28.9662399 16.1205163,29.1493113 C16.0603848,29.2413947 16.0192998,29.2497925 15.9254539,29.1827563 C15.5391603,28.9068348 15.1173643,28.7139051 14.6339409,28.6892595 C14.3880514,28.6766993 14.1475985,28.698278 13.9320301,28.8333725 C13.5118396,29.096734 13.5203047,29.6464229 13.9514415,29.8901408 C14.2776401,30.0745632 14.6431358,30.1462728 15.0011515,30.2378451 C15.3072455,30.3161634 15.6076839,30.4096343 15.8929435,30.5489642 C16.4339807,30.8130924 16.7372651,31.2363401 16.7355867,31.8456167 C16.7339083,32.4624878 16.4909378,32.961498 15.9327149,33.2598744 M109.643481,23.5561399 L1.034305,23.5561399 C0.463056073,23.5561399 -7.29750798e-06,24.0195508 -7.29750798e-06,24.591147 L-7.29750798e-06,36.7622928 C-7.29750798e-06,37.3339255 0.463056073,37.7972634 1.034305,37.7972634 L109.643481,37.7972634 C110.21473,37.7972634 110.677757,37.3339255 110.677757,36.7622928 L110.677757,24.591147 C110.677757,24.0195508 110.21473,23.5561399 109.643481,23.5561399" id="Fill-34"></path>
                <path d="M47.117798,28.8104576 C46.6758974,28.7528781 46.2316981,28.7939541 45.7887758,28.7798605 C45.6901135,28.7767204 45.6834363,28.8308678 45.6839471,28.9061922 C45.685881,29.1980695 45.6847499,29.4899468 45.6849323,29.7818607 C45.6849323,30.0737745 45.6843485,30.3656518 45.6854796,30.6575657 C45.6856985,30.7144149 45.665302,30.7876216 45.7656063,30.7844816 C46.2385942,30.7696942 46.715304,30.8309614 47.1842783,30.7417625 C47.7068893,30.6423402 48.0358245,30.2351213 48.0146253,29.7429388 C47.9924408,29.2278268 47.6593461,28.8810719 47.117798,28.8104576" id="Fill-37"></path>
                <path d="M83.9057545,31.1420222 C83.8502205,31.2714939 83.952787,31.2358581 84.0065331,31.2362963 C84.3588568,31.2390347 84.7111805,31.2377203 85.0635042,31.2377568 L85.7562566,31.2377568 C85.4377569,30.4990815 85.1312615,29.7881553 84.8066319,29.0353134 C84.4963053,29.761465 84.2015955,30.4520174 83.9057545,31.1420222" id="Fill-39"></path>
            </g>
        </g>
    </g>
</svg>