<?xml version="1.0" encoding="UTF-8"?>
<svg width="160px" height="42px" viewBox="0 0 160 42" version="1.1" xmlns="http://www.w3.org/2000/svg" xmlns:xlink="http://www.w3.org/1999/xlink">
    <!-- Generator: Sketch 42 (36781) - http://www.bohemiancoding.com/sketch -->
    <title>Logo TechMagic</title>
    <desc>Created with Sketch.</desc>
    <defs></defs>
    <g id="Homepage" stroke="none" stroke-width="1" fill="none" fill-rule="evenodd">
        <g id="Desktop" transform="translate(-42.000000, -18.000000)">
            <g id="main-screen" transform="translate(0.000000, -1.000000)">
                <g id="header">
                    <g id="Logo-TechMagic" transform="translate(42.000000, 19.000000)">
                        <g id="logo-TechMagic">
                            <path d="M20.6799615,21.094202 C23.0405392,23.0734608 25.3583335,25.0168197 27.6761278,26.9601786 C27.6504998,26.7742988 27.5530993,26.6565726 27.446246,26.548172 C25.5289768,24.6018681 23.6163291,22.6508664 21.6850556,20.7186561 C21.4329768,20.4664457 21.3900534,20.2373038 21.4633663,19.9159583 C22.5720928,15.0595943 23.6740271,10.2016878 24.7762416,5.34392154 C24.7858346,5.3017813 24.777502,5.25557429 24.6896945,5.18629883 C23.6932832,8.6014808 22.6968718,12.0166628 21.6808543,15.4989466 C14.4169243,10.333227 7.20845164,5.20705342 4.90153175e-05,0.0808096828 C1.23635536,0.226512521 2.43421969,0.452429048 3.63187396,0.679537563 C8.04528315,1.5163823 12.4586923,2.35280634 16.8718915,3.19098331 C19.4127755,3.67352755 21.9548499,4.15039232 24.4912525,4.65558431 C24.7613269,4.70936394 25.0257295,4.90239566 25.2443379,5.08806511 C31.0503422,10.0191035 36.8500446,14.9576444 42.6503072,19.8954841 C42.7517689,19.9818681 42.8468586,20.0756845 42.9858521,20.203788 C42.7921015,20.3057379 42.6363729,20.3906494 42.4781934,20.4704424 C38.0958039,22.6803856 33.7115939,24.8864725 29.3334057,27.1046194 C28.9202766,27.3139182 28.5250031,27.5714574 28.1547274,27.8508731 C21.9785173,32.5102788 15.8076989,37.1767663 9.63534004,41.8412204 C9.56363764,41.8954908 9.48773392,41.9440117 9.34621969,41.9491302 C13.1146573,35.0150634 16.8830249,28.0808564 20.6799615,21.094202 Z M35.0644306,12.1125055 C35.2432665,12.0405656 35.3702162,11.9846124 35.5004569,11.9377743 C39.3735072,10.544973 43.2482381,9.15672922 47.1180674,7.75495292 C47.4744088,7.62586778 47.7306188,7.67368748 48.0239405,7.91446878 C49.7125882,9.30067913 51.4164306,10.6682384 53.1145313,12.0428795 C53.2632578,12.1632701 53.4075729,12.2890598 53.6269514,12.4738177 C51.0757042,13.0043219 48.617516,13.5154037 46.0522643,14.0488528 C46.5450783,12.0346057 47.0097435,10.1353503 47.4744088,8.23602471 L47.3658048,8.20377095 C45.9989077,12.1529629 44.6319405,16.1021549 43.2336035,20.142008 C40.4872753,17.4426491 37.8056473,14.8068861 35.0644306,12.1125055 Z" id="Combined-Shape" fill="#007676"></path>
                            <path d="M69.9432263,12.9015516 L69.9432263,16.6545566 L67.7794801,16.6545566 L67.6635239,15.0779088 L65.0747449,15.0779088 L65.0747449,25.0021793 L66.5816858,25.2922528 L66.5816858,26.985014 L60.7472525,26.985014 L60.7472525,25.2922528 L62.2541234,25.0021793 L62.2541234,15.0779088 L59.6750074,15.0779088 L59.5591212,16.6545566 L57.4049681,16.6545566 L57.4049681,12.9015516 L69.9432263,12.9015516 Z M75.0724341,27.1881846 C73.5655632,27.1881846 72.3613269,26.7045185 71.4597952,25.7372564 C70.5581934,24.7699943 70.1074626,23.5415469 70.1074626,22.0519142 L70.1074626,21.6650093 C70.1074626,20.1109392 70.5340359,18.8308858 71.3873225,17.8249893 C72.2406092,16.8190227 73.3852569,16.3192297 74.8213357,16.3256805 C76.2316464,16.3256805 77.3263685,16.7512898 78.105572,17.6025085 C78.8847755,18.4537272 79.2744473,19.6047656 79.2744473,21.0556237 L79.2744473,22.5936371 L73.0343072,22.5936371 L73.0149812,22.6516938 C73.0664473,23.3416437 73.2967492,23.9090995 73.705607,24.3540611 C74.1145348,24.7990227 74.6699484,25.0214334 75.3719177,25.0214334 C75.9965829,25.0214334 76.5149549,24.9586087 76.9271037,24.832819 C77.3392525,24.7070995 77.7900534,24.508809 78.2795063,24.2380177 L79.0426048,25.9790895 C78.61113,26.3208391 78.0524954,26.6078274 77.3666311,26.8399142 C76.6808368,27.0721412 75.9160578,27.1881846 75.0724341,27.1881846 Z M74.8213357,18.5020377 C74.2996726,18.5020377 73.8875939,18.7019409 73.5848893,19.1017472 C73.2822547,19.5015536 73.0955063,20.0270795 73.0246442,20.678395 L73.0536333,20.7267756 L76.5118039,20.7267756 L76.5118039,20.4752664 C76.5118039,19.8755569 76.3716902,19.396799 76.0916026,19.0389225 C75.8114451,18.680976 75.3880228,18.5020377 74.8213357,18.5020377 Z M85.5145453,25.0214684 C86.0168123,25.0214684 86.419298,24.874784 86.7220026,24.581415 C87.0246372,24.287976 87.1760245,23.8962331 87.1760245,23.4061162 L89.7260814,23.4061162 L89.7551405,23.464173 C89.7809085,24.5217456 89.3847947,25.4067606 88.5670092,26.1192881 C87.7491536,26.8318858 86.7316656,27.1881496 85.5145453,27.1881496 C83.9561383,27.1881496 82.755123,26.6948073 81.9114993,25.7082631 C81.0678757,24.7216487 80.6461339,23.4544968 80.6461339,21.9068775 L80.6461339,21.6166638 C80.6461339,20.0754952 81.0791492,18.8083432 81.9452499,17.8152781 C82.8114206,16.822213 84.0462565,16.3256454 85.6498276,16.3256454 C86.4933812,16.3256454 87.2500376,16.4514351 87.9197969,16.7029442 C88.5894862,16.9543833 89.1465803,17.3091045 89.5909392,17.7669676 L89.6295912,20.5623165 L87.3401558,20.5623165 L86.8765409,18.9276821 C86.7348867,18.8051179 86.5609523,18.7035886 86.3549479,18.6229543 C86.1488735,18.54239 85.9138101,18.5020728 85.6498276,18.5020728 C84.851228,18.5020728 84.2877619,18.7922164 83.9593593,19.3726437 C83.6309567,19.9529309 83.4666853,20.7010077 83.4666853,21.6166638 L83.4666853,21.9068775 C83.4666853,22.8418858 83.6180026,23.5947306 83.9207072,24.1654117 C84.2234118,24.7361629 84.7545978,25.0214684 85.5145453,25.0214684 Z M90.8755956,25.2922808 L92.2375912,25.0021372 L92.2375912,13.8881239 L90.7307904,13.5979803 L90.7307904,11.895613 L95.0486197,11.895613 L95.0486197,17.8540037 C95.3770223,17.3703376 95.7795081,16.9947215 96.256077,16.7270855 C96.732646,16.4595195 97.260681,16.3256664 97.8402521,16.3256664 C98.9349742,16.3256664 99.7930923,16.688381 100.414537,17.4138801 C101.035981,18.1393092 101.346668,19.2597766 101.346668,20.7751422 L101.346668,25.0021372 L102.69907,25.2922808 L102.69907,26.9850421 L97.308926,26.9850421 L97.308926,25.2922808 L98.5260464,25.0021372 L98.5260464,20.75579 C98.5260464,19.9432758 98.3827816,19.3677566 98.0961821,19.0292324 C97.8095825,18.6907082 97.3830092,18.521376 96.8163221,18.521376 C96.4234293,18.521376 96.0805322,18.5923342 95.7874906,18.7341806 C95.494519,18.8760972 95.2481821,19.0760003 95.0486197,19.3338902 L95.0486197,25.0021372 L96.26574,25.2922808 L96.26574,26.9850421 L90.8755956,26.9850421 L90.8755956,25.2922808 Z" id="Combined-Shape" fill="#323232"></path>
                            <path d="M117.11117,16.5674855 L117.053262,16.5578093 L113.285945,26.985028 L111.392693,26.985028 L107.644772,16.5965139 L107.586724,16.60619 L107.857288,22.7870614 L107.857288,25.0021232 L109.364159,25.2922668 L109.364159,26.985028 L103.539459,26.985028 L103.539459,25.2922668 L105.036667,25.0021232 L105.036667,14.8941466 L103.539459,14.6039329 L103.539459,12.9015656 L105.036667,12.9015656 L108.716947,12.9015656 L112.300737,23.2804037 L112.358645,23.2804037 L115.971354,12.9015656 L121.168168,12.9015656 L121.168168,14.6039329 L119.661297,14.8941466 L119.661297,25.0021232 L121.168168,25.2922668 L121.168168,26.985028 L115.343468,26.985028 L115.343468,25.2922668 L116.840746,25.0021232 L116.840746,22.7870614 L117.11117,16.5674855 Z M128.895881,26.984986 C128.818647,26.8109559 128.751006,26.6319476 128.693098,26.4481713 C128.635119,26.264395 128.590025,26.079006 128.557815,25.8920745 C128.222971,26.2789092 127.815723,26.5917005 127.335863,26.8302381 C126.856144,27.0689159 126.307172,27.1881846 125.688949,27.1881846 C124.665019,27.1881846 123.851995,26.9092598 123.249877,26.3514801 C122.647758,25.7937005 122.346664,25.0343349 122.346664,24.0735235 C122.346664,23.0933599 122.739487,22.3356771 123.525133,21.800405 C124.310848,21.265203 125.463548,20.9976371 126.983303,20.9976371 L128.422673,20.9976371 L128.422673,19.9723182 C128.422673,19.4692998 128.277728,19.0791696 127.987977,18.8019275 C127.698157,18.5246154 127.269903,18.3859943 126.703216,18.3859943 C126.381185,18.3859943 126.094656,18.4230861 125.843487,18.4971997 C125.592389,18.5713833 125.389465,18.660011 125.234927,18.763223 L125.0514,19.8852331 L122.926235,19.8852331 L122.935898,17.563804 C123.451119,17.2156037 124.041964,16.9221646 124.708502,16.6835569 C125.374971,16.4450194 126.101028,16.3256805 126.886743,16.3256805 C128.181098,16.3256805 129.232406,16.6433098 130.040599,17.2784284 C130.848791,17.913617 131.252888,18.8180544 131.252888,19.9916705 L131.252888,24.3153566 C131.252888,24.4765553 131.254498,24.6280778 131.257719,24.7699943 C131.26094,24.9118407 131.272214,25.0473065 131.29147,25.1762514 L132.151268,25.2922948 L132.151268,26.984986 L128.895881,26.984986 Z M126.452047,25.0988424 C126.87708,25.0988424 127.263461,25.0069192 127.611189,24.8231429 C127.958988,24.6393666 128.229413,24.4088224 128.422673,24.1315803 L128.422673,22.5355803 L126.983303,22.5355803 C126.384406,22.5355803 125.930454,22.675814 125.621308,22.9563516 C125.312231,23.236819 125.157693,23.5738007 125.157693,23.9670861 C125.157693,24.3218073 125.271898,24.5991195 125.50059,24.7990227 C125.729211,24.9988558 126.04634,25.0988424 126.452047,25.0988424 Z M133.281456,21.8391235 C133.281456,20.1883623 133.640459,18.8567028 134.358463,17.8442855 C135.076467,16.8318681 136.082752,16.3256945 137.377106,16.3256945 C137.963119,16.3256945 138.47834,16.4562521 138.922629,16.7174374 C139.366988,16.9786227 139.746927,17.3510134 140.062516,17.8346093 L140.265299,16.5191469 L142.718866,16.5191469 L142.718866,26.6755042 C142.718866,28.0554741 142.28585,29.1565893 141.41961,29.9787095 C140.553509,30.8008998 139.363767,31.211995 137.850454,31.211995 C137.322349,31.211995 136.762104,31.1394942 136.169649,30.9944224 C135.577194,30.8492805 135.029763,30.65099 134.527496,30.3994808 L135.049159,28.416576 C135.49989,28.6100284 135.950691,28.7632337 136.401421,28.8760518 C136.852292,28.9888698 137.328791,29.0453139 137.831058,29.0453139 C138.520144,29.0453139 139.035365,28.8358047 139.376651,28.416576 C139.717938,27.9974875 139.888581,27.4138347 139.888581,26.665828 L139.888581,25.9790334 C139.579505,26.3724591 139.215671,26.6722788 138.79701,26.8786327 C138.378489,27.0849866 137.898699,27.1881987 137.35778,27.1881987 C136.07624,27.1881987 135.076467,26.7158214 134.358463,25.7711369 C133.640459,24.8263823 133.281456,23.5834207 133.281456,22.0422521 L133.281456,21.8391235 Z M136.102008,22.0422521 C136.102008,22.9579783 136.256546,23.6785693 136.565693,24.2040952 C136.874769,24.7296912 137.377106,24.992419 138.072634,24.992419 C138.504039,24.992419 138.869483,24.9134674 139.168966,24.755424 C139.46838,24.5974508 139.708275,24.3669065 139.888581,24.0638614 L139.888581,19.5176945 C139.708275,19.2016778 139.46838,18.9566895 139.168966,18.7825893 C138.869483,18.608419 138.510481,18.521404 138.09189,18.521404 C137.402804,18.521404 136.898927,18.8276745 136.580187,19.4402855 C136.261378,20.0528965 136.102008,20.8525092 136.102008,21.8391235 L136.102008,22.0422521 Z M145.684376,14.0139065 L145.684376,11.895606 L148.504998,11.895606 L148.504998,14.0139065 L145.684376,14.0139065 Z M144.322311,25.2922738 L145.684306,25.0021302 L145.684306,18.5116928 L144.177505,18.2215492 L144.177505,16.5191119 L148.504998,16.5191119 L148.504998,25.0021302 L149.85733,25.2922738 L149.85733,26.9850351 L144.322311,26.9850351 L144.322311,25.2922738 Z M155.691722,25.0214684 C156.194059,25.0214684 156.596544,24.874784 156.899179,24.581415 C157.201814,24.287976 157.353201,23.8962331 157.353201,23.4061162 L159.903328,23.4061162 L159.932387,23.464173 C159.958085,24.5217456 159.561971,25.4067606 158.744186,26.1192881 C157.92633,26.8318858 156.908842,27.1881496 155.691722,27.1881496 C154.133315,27.1881496 152.932299,26.6948073 152.088676,25.7082631 C151.245122,24.7216487 150.82331,23.4544968 150.82331,21.9068775 L150.82331,21.6166638 C150.82331,20.0754952 151.256326,18.8083432 152.122496,17.8152781 C152.988597,16.822213 154.223433,16.3256454 155.827004,16.3256454 C156.670558,16.3256454 157.427214,16.4514351 158.097043,16.7029442 C158.766733,16.9543833 159.323757,17.3091045 159.768116,17.7669676 L159.806768,20.5623165 L157.517402,20.5623165 L157.053717,18.9276821 C156.912063,18.8051179 156.738199,18.7035886 156.532124,18.6229543 C156.32612,18.54239 156.090986,18.5020728 155.827004,18.5020728 C155.028404,18.5020728 154.464938,18.7922164 154.136536,19.3726437 C153.808133,19.9529309 153.643932,20.7010077 153.643932,21.6166638 L153.643932,21.9068775 C153.643932,22.8418858 153.795249,23.5947306 154.097884,24.1654117 C154.400588,24.7361629 154.931844,25.0214684 155.691722,25.0214684 Z" id="Combined-Shape" fill="#007676"></path>
                        </g>
                    </g>
                </g>
            </g>
        </g>
    </g>
</svg>