<?xml version="1.0" encoding="UTF-8"?>
<svg width="40px" height="40px" viewBox="0 0 40 40" version="1.1" xmlns="http://www.w3.org/2000/svg" xmlns:xlink="http://www.w3.org/1999/xlink">
    <!-- Generator: sketchtool 42 (36781) - http://www.bohemiancoding.com/sketch -->
    <title>9D93C413-B9A2-4271-AA3C-99751CD8B8CC</title>
    <desc>Created with sketchtool.</desc>
    <defs></defs>
    <g id="Symbols" stroke="none" stroke-width="1" fill="none" fill-rule="evenodd">
        <g id="social-twitter" fill="#017676">
            <g id="Shape">
                <path d="M20,0.8 C9.396,0.8 0.8,9.396 0.8,20 C0.8,30.604 9.396,39.2 20,39.2 C30.604,39.2 39.2,30.604 39.2,20 C39.2,9.396 30.604,0.8 20,0.8 Z M27.81,16.528 C27.818,16.692 27.82,16.856 27.82,17.016 C27.82,22.016 24.018,27.778 17.062,27.778 C14.926,27.778 12.938,27.154 11.266,26.078 C11.56,26.114 11.862,26.128 12.168,26.128 C13.94,26.128 15.57,25.526 16.864,24.51 C15.21,24.478 13.814,23.386 13.332,21.886 C13.562,21.928 13.798,21.952 14.042,21.952 C14.386,21.952 14.722,21.906 15.038,21.82 C13.308,21.472 12.004,19.944 12.004,18.112 L12.004,18.066 C12.514,18.348 13.098,18.52 13.718,18.54 C12.702,17.86 12.036,16.704 12.036,15.39 C12.036,14.698 12.222,14.046 12.548,13.488 C14.414,15.776 17.198,17.28 20.342,17.442 C20.276,17.164 20.244,16.876 20.244,16.578 C20.244,14.492 21.936,12.796 24.026,12.796 C25.112,12.796 26.096,13.256 26.786,13.992 C27.648,13.82 28.456,13.508 29.186,13.074 C28.904,13.956 28.306,14.698 27.524,15.168 C28.29,15.074 29.018,14.872 29.696,14.57 C29.19,15.328 28.548,15.996 27.81,16.528 Z"></path>
            </g>
        </g>
    </g>
</svg>