<?xml version="1.0" encoding="UTF-8"?>
<svg width="40px" height="40px" viewBox="0 0 40 40" version="1.1" xmlns="http://www.w3.org/2000/svg" xmlns:xlink="http://www.w3.org/1999/xlink">
    <!-- Generator: sketchtool 42 (36781) - http://www.bohemiancoding.com/sketch -->
    <title>928129CE-2B35-4BD5-B703-9A310B9C5A6D</title>
    <desc>Created with sketchtool.</desc>
    <defs></defs>
    <g id="Symbols" stroke="none" stroke-width="1" fill="none" fill-rule="evenodd">
        <g id="social-linkedin" fill="#017676">
            <g id="Shape">
                <path d="M20,0.8 C9.396,0.8 0.8,9.396 0.8,20 C0.8,30.604 9.396,39.2 20,39.2 C30.604,39.2 39.2,30.604 39.2,20 C39.2,9.396 30.604,0.8 20,0.8 Z M15.3,27.958 L11.412,27.958 L11.412,15.446 L15.3,15.446 L15.3,27.958 Z M13.332,13.91 C12.104,13.91 11.31,13.04 11.31,11.964 C11.31,10.866 12.128,10.022 13.382,10.022 C14.636,10.022 15.404,10.866 15.428,11.964 C15.428,13.04 14.636,13.91 13.332,13.91 Z M29.5,27.958 L25.612,27.958 L25.612,21.024 C25.612,19.41 25.048,18.314 23.642,18.314 C22.568,18.314 21.93,19.056 21.648,19.77 C21.544,20.024 21.518,20.384 21.518,20.742 L21.518,27.956 L17.628,27.956 L17.628,19.436 C17.628,17.874 17.578,16.568 17.526,15.444 L20.904,15.444 L21.082,17.182 L21.16,17.182 C21.672,16.366 22.926,15.162 25.024,15.162 C27.582,15.162 29.5,16.876 29.5,20.56 L29.5,27.958 Z"></path>
            </g>
        </g>
    </g>
</svg>