<?xml version="1.0" encoding="UTF-8"?>
<svg width="22px" height="22px" viewBox="0 0 22 22" version="1.1" xmlns="http://www.w3.org/2000/svg" xmlns:xlink="http://www.w3.org/1999/xlink">
    <!-- Generator: Sketch 42 (36781) - http://www.bohemiancoding.com/sketch -->
    <title>social linkedin</title>
    <desc>Created with Sketch.</desc>
    <defs></defs>
    <g id="Homepage" stroke="none" stroke-width="1" fill="none" fill-rule="evenodd">
        <g id="Tablet-Portrait" transform="translate(-167.000000, -4089.000000)">
            <g id="meet-our-team" transform="translate(2.000000, 3853.000000)">
                <g id="Group-2" transform="translate(159.000000, 218.000000)">
                    <g id="Group" transform="translate(7.000000, 19.000000)">
                        <g id="social-linkedin">
                            <path d="M10,0.4 C4.698,0.4 0.4,4.698 0.4,10 C0.4,15.302 4.698,19.6 10,19.6 C15.302,19.6 19.6,15.302 19.6,10 C19.6,4.698 15.302,0.4 10,0.4 Z" id="Path" stroke="#F6A623"></path>
                            <path d="M7.65,13.979 L5.706,13.979 L5.706,7.723 L7.65,7.723 L7.65,13.979 Z M6.666,6.955 C6.052,6.955 5.655,6.52 5.655,5.982 C5.655,5.433 6.064,5.011 6.691,5.011 C7.318,5.011 7.702,5.433 7.714,5.982 C7.714,6.52 7.318,6.955 6.666,6.955 Z M14.75,13.979 L12.806,13.979 L12.806,10.512 C12.806,9.705 12.524,9.157 11.821,9.157 C11.284,9.157 10.965,9.528 10.824,9.885 C10.772,10.012 10.759,10.192 10.759,10.371 L10.759,13.978 L8.814,13.978 L8.814,9.718 C8.814,8.937 8.789,8.284 8.763,7.722 L10.452,7.722 L10.541,8.591 L10.58,8.591 C10.836,8.183 11.463,7.581 12.512,7.581 C13.791,7.581 14.75,8.438 14.75,10.28 L14.75,13.979 Z" id="Shape" fill="#F6A623"></path>
                        </g>
                    </g>
                </g>
            </g>
        </g>
    </g>
</svg>