<?xml version="1.0" encoding="UTF-8"?>
<svg width="40px" height="40px" viewBox="0 0 40 40" version="1.1" xmlns="http://www.w3.org/2000/svg" xmlns:xlink="http://www.w3.org/1999/xlink">
    <!-- Generator: sketchtool 42 (36781) - http://www.bohemiancoding.com/sketch -->
    <title>689281AA-799A-4781-86B3-3A5E47501CFC</title>
    <desc>Created with sketchtool.</desc>
    <defs></defs>
    <g id="Symbols" stroke="none" stroke-width="1" fill="none" fill-rule="evenodd">
        <g id="social-fb" fill="#017676">
            <g id="Shape">
                <path d="M20,0.8 C9.396,0.8 0.8,9.396 0.8,20 C0.8,30.604 9.396,39.2 20,39.2 C30.604,39.2 39.2,30.604 39.2,20 C39.2,9.396 30.604,0.8 20,0.8 Z M24.548,14.068 L21.662,14.068 C21.32,14.068 20.94,14.518 20.94,15.116 L20.94,17.2 L24.55,17.2 L24.004,20.172 L20.94,20.172 L20.94,29.094 L17.534,29.094 L17.534,20.172 L14.444,20.172 L14.444,17.2 L17.534,17.2 L17.534,15.452 C17.534,12.944 19.274,10.906 21.662,10.906 L24.548,10.906 L24.548,14.068 Z"></path>
            </g>
        </g>
    </g>
</svg>